<svg width="43" height="43" viewBox="0 0 43 43" fill="none" xmlns="http://www.w3.org/2000/svg">
<g clip-path="url(#clip0_4183_3073)">
<path d="M16.4019 21.5008C16.4019 24.2964 18.668 26.5633 21.4635 26.5633C24.2591 26.5633 26.526 24.2972 26.526 21.5008C26.526 18.7044 24.2599 16.4383 21.4635 16.4383C18.6671 16.4383 16.4019 18.7044 16.4019 21.5008Z" fill="#111111"/>
<path d="M19.9559 29.7023L19.125 43L23.8746 42.9918L23.0437 29.7113L19.9559 29.7023Z" fill="#111111"/>
<path d="M8.69385 38.9331L12.811 41.3013L18.7316 29.3836L16.062 27.8323L8.69385 38.9331Z" fill="#111111"/>
<path d="M13.6245 24.2643L1.69287 30.193L4.07426 34.3028L15.1602 26.9429L13.6245 24.2643Z" fill="#111111"/>
<path d="M13.2977 19.9569L0 19.1252L0.00823439 23.8748L13.2887 23.0439L13.2977 19.9569Z" fill="#111111"/>
<path d="M15.1687 16.062L4.06792 8.69385L1.69971 12.811L13.6173 18.7316L15.1687 16.062Z" fill="#111111"/>
<path d="M18.7358 13.6246L12.8071 1.69299L8.69727 4.07438L16.058 15.1603L18.7358 13.6246Z" fill="#111111"/>
<path d="M23.0437 13.2977L23.8746 0L19.125 0.00823439L19.9559 13.2887L23.0437 13.2977Z" fill="#111111"/>
<path d="M34.3071 4.0678L30.1899 1.69958L24.2686 13.6172L26.9381 15.1686L34.3071 4.0678Z" fill="#111111"/>
<path d="M29.3756 18.7357L41.3072 12.8069L38.9258 8.69714L27.8398 16.0579L29.3756 18.7357Z" fill="#111111"/>
<path d="M29.7031 23.0439L43 23.8748L42.9926 19.1252L29.7114 19.956L29.7031 23.0439Z" fill="#111111"/>
<path d="M27.832 26.938L38.9328 34.3069L41.3002 30.1897L29.3834 24.2684L27.832 26.938Z" fill="#111111"/>
<path d="M24.2651 29.3753L30.1939 41.307L34.3029 38.9256L26.943 27.8388L24.2651 29.3753Z" fill="#111111"/>
</g>
<defs>
<clipPath id="clip0_4183_3073">
<rect width="43" height="43" fill="white"/>
</clipPath>
</defs>
</svg>
