<svg width="266" height="118" viewBox="0 0 266 118" fill="none" xmlns="http://www.w3.org/2000/svg">
<path d="M1.66251 35.7559C0.555735 32.6569 0.00234985 29.2923 0.00234985 25.6621C0.00234985 22.0319 0.555735 18.6673 1.66251 15.5684C2.76928 12.4473 4.34089 9.75781 6.37735 7.5C8.43594 5.24219 10.9372 3.48242 13.8813 2.2207C16.8253 0.936849 21.031 0.294922 26.4984 0.294922C31.9659 0.294922 36.8468 2.68555 41.141 7.4668C45.4574 12.2259 47.6156 18.4792 47.6156 26.2266C47.6156 33.974 45.0922 40.2161 40.0453 44.9531L46.5199 50.1328L43.3988 54.084L35.8285 48.1074C32.3311 50.0553 28.5349 51.0293 24.4398 51.0293C20.3448 51.0293 16.8253 50.3984 13.8813 49.1367C10.9372 47.8529 8.43594 46.082 6.37735 43.8242C4.34089 41.5443 2.76928 38.8548 1.66251 35.7559ZM10.893 11.1855C7.79402 14.9043 6.24454 19.7409 6.24454 25.6953C6.24454 31.6276 7.79402 36.4421 10.893 40.1387C14.0141 43.8132 18.3194 45.6504 23.809 45.6504C26.4874 45.6504 28.9112 45.1966 31.0805 44.2891L26.1664 40.3379L29.3207 36.3867L35.4965 41.3672C39.3923 37.6484 41.3402 32.6016 41.3402 26.2266C41.3402 19.8516 39.7908 14.8268 36.6918 11.1523C33.5928 7.45573 29.2875 5.60742 23.7758 5.60742C18.2862 5.60742 13.9919 7.4668 10.893 11.1855ZM52.3902 34.2949V1.39062H58.4996V33.6641C58.4996 41.5664 62.6943 45.5176 71.0836 45.5176C75.0237 45.5176 78.0784 44.5879 80.2477 42.7285C82.4391 40.8691 83.5348 37.8477 83.5348 33.6641V1.39062H89.6441V34.2949C89.6441 39.873 87.9176 44.0124 84.4645 46.7129C81.0113 49.4134 76.5068 50.7637 70.9508 50.7637C65.3284 50.7637 60.8238 49.4134 57.4371 46.7129C54.0725 44.0124 52.3902 39.873 52.3902 34.2949ZM96.3777 50V1.39062H102.52V50H96.3777ZM114.4 43.8574C110.261 39.1204 108.191 33.0553 108.191 25.6621C108.191 18.2689 110.272 12.1927 114.434 7.43359C118.595 2.67448 124.195 0.294922 131.234 0.294922C136.79 0.294922 141.273 1.73372 144.682 4.61133C148.091 7.48893 150.116 11.2188 150.758 15.8008H144.781C144.184 12.7682 142.712 10.3112 140.365 8.42969C138.041 6.54818 134.953 5.60742 131.102 5.60742C125.922 5.60742 121.849 7.47786 118.883 11.2188C115.917 14.9375 114.434 19.763 114.434 25.6953C114.434 31.6276 115.95 36.431 118.982 40.1055C122.015 43.7578 126.077 45.584 131.168 45.584C135.484 45.584 138.849 44.3223 141.262 41.7988C143.674 39.2754 145.025 36.0658 145.313 32.1699H151.355C151.311 34.627 150.204 38.3789 148.035 43.4258C145.866 48.4505 140.177 50.9629 130.969 50.9629C124.085 50.9629 118.562 48.5944 114.4 43.8574ZM156.529 50V1.39062H162.671V25.5293L186.577 1.39062H194.28L174.624 20.8145L195.907 50H188.769L170.474 24.9648L162.671 32.8008V50H156.529ZM198.59 50V1.39062H204.733V44.3555H230.233V50H198.59ZM223.486 1.39062H230.293L244.238 24.5H244.371L258.515 1.39062H265.056L247.226 29.5469V50H241.117V29.3809L223.486 1.39062ZM45.5387 116L41.6627 67.38H47.7827L49.7547 99C50.0267 102.264 50.1627 107.228 50.1627 107.228H50.2987C50.2987 107.228 52.3387 102.06 53.7667 98.864L67.7067 67.38H74.2347L77.2267 98.864C77.5667 102.128 77.7027 107.228 77.7027 107.228H77.8387C77.8387 107.228 79.8787 101.992 81.1027 99L94.4987 67.38H100.619L79.1307 116H73.3507L70.3587 81.728C70.0867 78.804 69.9507 74.18 69.9507 74.18H69.8147C69.8147 74.18 68.1147 78.6 66.7547 81.728L51.5227 116H45.5387ZM118.433 117.02C106.125 117.02 96.5371 108.996 96.5371 94.784C96.5371 79.348 106.669 66.292 122.105 66.292C134.413 66.292 143.797 74.384 143.797 88.664C143.797 104.304 134.277 117.02 118.433 117.02ZM102.793 94.784C102.793 105.392 108.845 111.716 118.569 111.716C131.081 111.716 137.609 101.516 137.609 88.732C137.609 78.464 131.693 71.528 121.833 71.528C109.525 71.528 102.793 82.068 102.793 94.784ZM144.056 116L153.44 67.38H171.868C175.744 67.38 179.212 68.332 181.66 70.168C184.652 72.412 186.148 75.948 186.148 80.096C186.148 86.76 182.136 91.112 176.696 92.948V93.152C180.98 95.124 181.864 98.116 181.388 105.324C180.844 113.144 181.864 115.116 182.68 115.728V116H176.56C175.676 114.776 174.996 112.872 175.54 105.12C176.016 97.98 174.112 95.396 167.652 95.396H153.984L150.04 116H144.056ZM158.404 72.616L154.936 90.5H168.604C175.472 90.5 179.892 86.896 179.892 80.232C179.892 75.2 176.764 72.616 170.984 72.616H158.404ZM230.924 67.38L209.164 86.964L224.464 116H217.732L204.608 91.044L195.632 99.136L192.368 116H186.384L195.768 67.38H201.752L197.06 91.384L223.308 67.38H230.924Z" fill="white"/>
</svg>
