<svg width="375" height="162" viewBox="0 0 375 162" fill="none" xmlns="http://www.w3.org/2000/svg">
<path d="M-1 1H375.5" stroke="black" stroke-width="0.5"/>
<path d="M-1 81H375.5" stroke="black" stroke-width="0.5"/>
<path d="M-1 161H375.5" stroke="black" stroke-width="0.5"/>
<path d="M188 1V161" stroke="black" stroke-width="0.5"/>
<path d="M57.1016 36.5547C56.1276 35.4401 55.6406 34.013 55.6406 32.2734C55.6406 30.5339 56.1302 29.1042 57.1094 27.9844C58.0885 26.8646 59.4062 26.3047 61.0625 26.3047C62.3698 26.3047 63.4245 26.6432 64.2266 27.3203C65.0286 27.9974 65.5052 28.875 65.6562 29.9531H64.25C64.1094 29.2396 63.763 28.6615 63.2109 28.2188C62.6641 27.776 61.9375 27.5547 61.0312 27.5547C59.8125 27.5547 58.8542 27.9948 58.1562 28.875C57.4583 29.75 57.1094 30.8854 57.1094 32.2812C57.1094 33.6771 57.4661 34.8073 58.1797 35.6719C58.8932 36.5312 59.849 36.9609 61.0469 36.9609C62.0625 36.9609 62.8542 36.6641 63.4219 36.0703C63.9896 35.4766 64.3073 34.7214 64.375 33.8047H65.7969C65.7865 34.3828 65.526 35.2656 65.0156 36.4531C64.5052 37.6354 63.1667 38.2266 61 38.2266C59.3802 38.2266 58.0807 37.6693 57.1016 36.5547ZM68.2141 38V26.5625H69.6594V36.6719H75.6594V38H68.2141ZM77.9047 38V26.5625H79.35V38H77.9047ZM82.3141 38V26.5625H90.3922V27.8203H83.7594V31.4375H89.7906V32.6562H83.7594V36.6719H90.5875V38H82.3141ZM93.0672 38V26.5625H94.5906L99.8016 34.5156C100.114 35.0156 100.393 35.5052 100.638 35.9844H100.669V26.5625H102.013V38H100.544L95.2938 30.0312C95.1948 29.8854 95.0542 29.651 94.8719 29.3281C94.6844 29.0052 94.5411 28.7656 94.4422 28.6094H94.4109V38H93.0672ZM104.242 27.8203V26.5625H113.297V27.8203H109.492V38H108.047V27.8203H104.242ZM113.925 38V36.4141H115.48V38H113.925ZM113.925 33.1484V31.5703H115.48V33.1484H113.925ZM56.0703 57V45.5625H57.5156V50.4219H63.625V45.5625H65.0625V57H63.625V51.5938H57.5156V57H56.0703ZM68.0109 57V45.5625H76.0891V46.8203H69.4563V50.4375H75.4875V51.6562H69.4563V55.6719H76.2844V57H68.0109ZM78.7953 57V45.5625H80.2406V57H78.7953ZM83.2047 57V45.5625H84.7281L89.9391 53.5156C90.2516 54.0156 90.5302 54.5052 90.775 54.9844H90.8062V45.5625H92.15V57H90.6812L85.4312 49.0312C85.3323 48.8854 85.1917 48.651 85.0094 48.3281C84.8219 48.0052 84.6786 47.7656 84.5797 47.6094H84.5484V57H83.2047ZM95.0984 57V45.5625H103.177V46.8203H96.5438V50.4375H102.575V51.6562H96.5438V55.6719H103.372V57H95.0984ZM105.852 57V45.5625H107.297V51.2422L112.922 45.5625H114.734L110.109 50.1328L115.117 57H113.438L109.133 51.1094L107.297 52.9531V57H105.852ZM116.948 57V45.5625H125.027V46.8203H118.394V50.4375H124.425V51.6562H118.394V55.6719H125.222V57H116.948ZM127.702 57V45.5625H129.225L134.436 53.5156C134.748 54.0156 135.027 54.5052 135.272 54.9844H135.303V45.5625H136.647V57H135.178L129.928 49.0312C129.829 48.8854 129.689 48.651 129.506 48.3281C129.319 48.0052 129.176 47.7656 129.077 47.6094H129.045V57H127.702Z" fill="black"/>
<path d="M60.1016 114.555C59.1276 113.44 58.6406 112.013 58.6406 110.273C58.6406 108.534 59.1302 107.104 60.1094 105.984C61.0885 104.865 62.4062 104.305 64.0625 104.305C65.3698 104.305 66.4245 104.643 67.2266 105.32C68.0286 105.997 68.5052 106.875 68.6562 107.953H67.25C67.1094 107.24 66.763 106.661 66.2109 106.219C65.6641 105.776 64.9375 105.555 64.0312 105.555C62.8125 105.555 61.8542 105.995 61.1562 106.875C60.4583 107.75 60.1094 108.885 60.1094 110.281C60.1094 111.677 60.4661 112.807 61.1797 113.672C61.8932 114.531 62.849 114.961 64.0469 114.961C65.0625 114.961 65.8542 114.664 66.4219 114.07C66.9896 113.477 67.3073 112.721 67.375 111.805H68.7969C68.7865 112.383 68.526 113.266 68.0156 114.453C67.5052 115.635 66.1667 116.227 64 116.227C62.3802 116.227 61.0807 115.669 60.1016 114.555ZM71.175 112.648C70.9146 111.919 70.7844 111.128 70.7844 110.273C70.7844 109.419 70.9146 108.628 71.175 107.898C71.4354 107.164 71.8052 106.531 72.2844 106C72.7688 105.469 73.3573 105.055 74.05 104.758C74.7427 104.456 75.5214 104.305 76.3859 104.305C77.2505 104.305 78.0292 104.456 78.7219 104.758C79.4146 105.055 80.0005 105.469 80.4797 106C80.9589 106.531 81.3286 107.164 81.5891 107.898C81.8547 108.628 81.9875 109.419 81.9875 110.273C81.9875 111.128 81.8547 111.919 81.5891 112.648C81.3286 113.378 80.9589 114.01 80.4797 114.547C80.0005 115.078 79.4146 115.495 78.7219 115.797C78.0292 116.094 77.2505 116.242 76.3859 116.242C75.5214 116.242 74.7427 116.094 74.05 115.797C73.3573 115.495 72.7688 115.078 72.2844 114.547C71.8052 114.01 71.4354 113.378 71.175 112.648ZM72.5188 108.406C72.3417 108.979 72.2531 109.602 72.2531 110.273C72.2531 110.945 72.3417 111.57 72.5188 112.148C72.6958 112.721 72.9589 113.216 73.3078 113.633C73.662 114.049 74.0943 114.378 74.6047 114.617C75.1203 114.857 75.7141 114.977 76.3859 114.977C77.0578 114.977 77.649 114.857 78.1594 114.617C78.6698 114.378 79.1021 114.049 79.4563 113.633C79.8104 113.216 80.0734 112.721 80.2453 112.148C80.4224 111.57 80.5109 110.945 80.5109 110.273C80.5109 109.602 80.4224 108.979 80.2453 108.406C80.0734 107.828 79.8104 107.328 79.4563 106.906C79.1021 106.484 78.6698 106.154 78.1594 105.914C77.649 105.674 77.0578 105.555 76.3859 105.555C75.7141 105.555 75.1203 105.674 74.6047 105.914C74.0943 106.154 73.662 106.484 73.3078 106.906C72.9589 107.328 72.6958 107.828 72.5188 108.406ZM84.3109 112.305V104.562H85.7484V112.156C85.7484 114.016 86.7354 114.945 88.7094 114.945C89.6365 114.945 90.3552 114.727 90.8656 114.289C91.3813 113.852 91.6391 113.141 91.6391 112.156V104.562H93.0766V112.305C93.0766 113.617 92.6703 114.591 91.8578 115.227C91.0453 115.862 89.9854 116.18 88.6781 116.18C87.3552 116.18 86.2953 115.862 85.4984 115.227C84.7068 114.591 84.3109 113.617 84.3109 112.305ZM95.8297 116V104.562H97.3531L102.564 112.516C102.877 113.016 103.155 113.505 103.4 113.984H103.431V104.562H104.775V116H103.306L98.0563 108.031C97.9573 107.885 97.8167 107.651 97.6344 107.328C97.4469 107.005 97.3036 106.766 97.2047 106.609H97.1734V116H95.8297ZM107.005 105.82V104.562H116.059V105.82H112.255V116H110.809V105.82H107.005ZM118.289 116V104.562H123.633C124.654 104.562 125.471 104.854 126.086 105.438C126.701 106.021 127.008 106.773 127.008 107.695C127.008 109.159 126.346 110.104 125.023 110.531V110.578C125.852 110.88 126.326 111.336 126.445 111.945C126.565 112.555 126.641 113.078 126.672 113.516C126.776 114.984 126.953 115.792 127.203 115.938V116H125.648C125.534 115.906 125.451 115.698 125.398 115.375C125.352 115.047 125.299 114.432 125.242 113.531C125.185 112.625 124.974 112.005 124.609 111.672C124.25 111.339 123.685 111.172 122.914 111.172H119.734V116H118.289ZM119.734 110H123.125C123.927 110 124.526 109.815 124.922 109.445C125.323 109.07 125.523 108.544 125.523 107.867C125.523 107.19 125.346 106.677 124.992 106.328C124.643 105.979 124.047 105.805 123.203 105.805H119.734V110ZM128.394 104.562H129.995L133.277 110H133.308L136.636 104.562H138.175L133.98 111.188V116H132.542V111.148L128.394 104.562ZM138.756 116V114.414H140.311V116H138.756ZM138.756 111.148V109.57H140.311V111.148H138.756ZM59.0703 135V123.562H63.8438C65.0312 123.562 65.9375 123.93 66.5625 124.664C67.0729 125.242 67.3281 126.013 67.3281 126.977C67.3281 127.945 67.026 128.727 66.4219 129.32C65.8229 129.909 64.8932 130.203 63.6328 130.203H60.5156V135H59.0703ZM60.5156 129.031H63.5234C64.3359 129.031 64.9349 128.844 65.3203 128.469C65.7109 128.089 65.9062 127.56 65.9062 126.883C65.9062 126.206 65.7057 125.69 65.3047 125.336C64.9036 124.982 64.3359 124.805 63.6016 124.805H60.5156V129.031ZM69.5109 135V123.562H77.5891V124.82H70.9563V128.438H76.9875V129.656H70.9563V133.672H77.7844V135H69.5109ZM80.2641 135V123.562H85.6078C86.6286 123.562 87.4464 123.854 88.0609 124.438C88.6755 125.021 88.9828 125.773 88.9828 126.695C88.9828 128.159 88.3214 129.104 86.9984 129.531V129.578C87.8266 129.88 88.3005 130.336 88.4203 130.945C88.5401 131.555 88.6156 132.078 88.6469 132.516C88.751 133.984 88.9281 134.792 89.1781 134.938V135H87.6234C87.5089 134.906 87.4255 134.698 87.3734 134.375C87.3266 134.047 87.2745 133.432 87.2172 132.531C87.1599 131.625 86.949 131.005 86.5844 130.672C86.225 130.339 85.6599 130.172 84.8891 130.172H81.7094V135H80.2641ZM81.7094 129H85.1C85.9021 129 86.501 128.815 86.8969 128.445C87.2979 128.07 87.4984 127.544 87.4984 126.867C87.4984 126.19 87.3214 125.677 86.9672 125.328C86.6182 124.979 86.0219 124.805 85.1781 124.805H81.7094V129ZM91.5016 131.305V123.562H92.9391V131.156C92.9391 133.016 93.926 133.945 95.9 133.945C96.8271 133.945 97.5458 133.727 98.0563 133.289C98.5719 132.852 98.8297 132.141 98.8297 131.156V123.562H100.267V131.305C100.267 132.617 99.8609 133.591 99.0484 134.227C98.2359 134.862 97.176 135.18 95.8688 135.18C94.5458 135.18 93.4859 134.862 92.6891 134.227C91.8974 133.591 91.5016 132.617 91.5016 131.305ZM95.2906 122.953L96.1031 121.016H97.7047L96.3922 122.953H95.2906Z" fill="black"/>
<path d="M231.07 38V26.5625H238.828V27.8203H232.516V31.3906H237.773V32.6094H232.516V38H231.07ZM240.753 34.6484C240.493 33.9193 240.363 33.1276 240.363 32.2734C240.363 31.4193 240.493 30.6276 240.753 29.8984C241.014 29.1641 241.383 28.5312 241.863 28C242.347 27.4688 242.935 27.0547 243.628 26.7578C244.321 26.4557 245.099 26.3047 245.964 26.3047C246.829 26.3047 247.607 26.4557 248.3 26.7578C248.993 27.0547 249.579 27.4688 250.058 28C250.537 28.5312 250.907 29.1641 251.167 29.8984C251.433 30.6276 251.566 31.4193 251.566 32.2734C251.566 33.1276 251.433 33.9193 251.167 34.6484C250.907 35.3776 250.537 36.0104 250.058 36.5469C249.579 37.0781 248.993 37.4948 248.3 37.7969C247.607 38.0938 246.829 38.2422 245.964 38.2422C245.099 38.2422 244.321 38.0938 243.628 37.7969C242.935 37.4948 242.347 37.0781 241.863 36.5469C241.383 36.0104 241.014 35.3776 240.753 34.6484ZM242.097 30.4062C241.92 30.9792 241.831 31.6016 241.831 32.2734C241.831 32.9453 241.92 33.5703 242.097 34.1484C242.274 34.7214 242.537 35.2161 242.886 35.6328C243.24 36.0495 243.672 36.3776 244.183 36.6172C244.698 36.8568 245.292 36.9766 245.964 36.9766C246.636 36.9766 247.227 36.8568 247.738 36.6172C248.248 36.3776 248.68 36.0495 249.034 35.6328C249.389 35.2161 249.652 34.7214 249.823 34.1484C250.001 33.5703 250.089 32.9453 250.089 32.2734C250.089 31.6016 250.001 30.9792 249.823 30.4062C249.652 29.8281 249.389 29.3281 249.034 28.9062C248.68 28.4844 248.248 28.1536 247.738 27.9141C247.227 27.6745 246.636 27.5547 245.964 27.5547C245.292 27.5547 244.698 27.6745 244.183 27.9141C243.672 28.1536 243.24 28.4844 242.886 28.9062C242.537 29.3281 242.274 29.8281 242.097 30.4062ZM255.108 36.5547C254.134 35.4401 253.647 34.013 253.647 32.2734C253.647 30.5339 254.136 29.1042 255.116 27.9844C256.095 26.8646 257.413 26.3047 259.069 26.3047C260.376 26.3047 261.431 26.6432 262.233 27.3203C263.035 27.9974 263.511 28.875 263.663 29.9531H262.256C262.116 29.2396 261.769 28.6615 261.217 28.2188C260.67 27.776 259.944 27.5547 259.038 27.5547C257.819 27.5547 256.86 27.9948 256.163 28.875C255.465 29.75 255.116 30.8854 255.116 32.2812C255.116 33.6771 255.472 34.8073 256.186 35.6719C256.899 36.5312 257.855 36.9609 259.053 36.9609C260.069 36.9609 260.86 36.6641 261.428 36.0703C261.996 35.4766 262.314 34.7214 262.381 33.8047H263.803C263.793 34.3828 263.532 35.2656 263.022 36.4531C262.511 37.6354 261.173 38.2266 259.006 38.2266C257.386 38.2266 256.087 37.6693 255.108 36.5547ZM266.033 34.3047V26.5625H267.47V34.1562C267.47 36.0156 268.457 36.9453 270.431 36.9453C271.358 36.9453 272.077 36.7266 272.588 36.2891C273.103 35.8516 273.361 35.1406 273.361 34.1562V26.5625H274.798V34.3047C274.798 35.6172 274.392 36.5911 273.58 37.2266C272.767 37.862 271.707 38.1797 270.4 38.1797C269.077 38.1797 268.017 37.862 267.22 37.2266C266.429 36.5911 266.033 35.6172 266.033 34.3047ZM276.989 34.125H278.395C278.588 36.0885 279.768 37.0703 281.934 37.0703C283.221 37.0703 283.994 36.8021 284.255 36.2656C284.52 35.724 284.653 35.2656 284.653 34.8906C284.653 34.5156 284.57 34.2031 284.403 33.9531C284.242 33.6979 284.01 33.4844 283.708 33.3125C283.411 33.1406 283.052 33 282.63 32.8906C282.208 32.776 281.744 32.6641 281.239 32.5547C280.02 32.2891 279.091 31.9375 278.45 31.5C277.809 31.0573 277.489 30.3568 277.489 29.3984C277.489 28.4401 277.841 27.6901 278.544 27.1484C279.252 26.6068 280.195 26.3359 281.372 26.3359C283.382 26.3359 284.588 26.7995 284.989 27.7266C285.395 28.6536 285.635 29.3802 285.708 29.9062H284.348C284.244 29.0833 283.937 28.4688 283.427 28.0625C282.921 27.6562 282.263 27.4531 281.45 27.4531C280.638 27.4531 279.997 27.612 279.528 27.9297C279.065 28.2422 278.833 28.6979 278.833 29.2969C278.833 30.151 279.223 30.6797 280.005 30.8828C280.791 31.0859 281.429 31.2396 281.919 31.3438C282.408 31.4479 283.223 31.6589 284.364 31.9766C285.505 32.2891 286.075 33.2578 286.075 34.8828C286.075 35.9349 285.684 36.7552 284.903 37.3438C284.122 37.9323 283.036 38.2266 281.645 38.2266C280.255 38.2266 279.148 37.8464 278.325 37.0859C277.502 36.3255 277.057 35.3385 276.989 34.125ZM288.203 38V36.4141H289.758V38H288.203ZM288.203 33.1484V31.5703H289.758V33.1484H288.203ZM231.07 57V45.5625H239.148V46.8203H232.516V50.4375H238.547V51.6562H232.516V55.6719H239.344V57H231.07ZM240.909 45.5625H242.464L245.284 54.0703C245.326 54.2109 245.373 54.3802 245.425 54.5781C245.482 54.776 245.584 55.1198 245.73 55.6094H245.761C245.818 55.4167 245.873 55.2318 245.925 55.0547C245.977 54.8776 246.024 54.7031 246.066 54.5312C246.107 54.3542 246.154 54.2005 246.206 54.0703L248.995 45.5625H250.495L246.48 57H244.894L240.909 45.5625ZM252.53 57V45.5625H260.608V46.8203H253.975V50.4375H260.006V51.6562H253.975V55.6719H260.803V57H252.53ZM263.283 57V45.5625H264.806L270.017 53.5156C270.33 54.0156 270.608 54.5052 270.853 54.9844H270.884V45.5625H272.228V57H270.759L265.509 49.0312C265.41 48.8854 265.27 48.651 265.088 48.3281C264.9 48.0052 264.757 47.7656 264.658 47.6094H264.627V57H263.283ZM274.458 46.8203V45.5625H283.513V46.8203H279.708V57H278.263V46.8203H274.458Z" fill="black"/>
<path d="M234.07 116V104.562H239.414C240.435 104.562 241.253 104.854 241.867 105.438C242.482 106.021 242.789 106.773 242.789 107.695C242.789 109.159 242.128 110.104 240.805 110.531V110.578C241.633 110.88 242.107 111.336 242.227 111.945C242.346 112.555 242.422 113.078 242.453 113.516C242.557 114.984 242.734 115.792 242.984 115.938V116H241.43C241.315 115.906 241.232 115.698 241.18 115.375C241.133 115.047 241.081 114.432 241.023 113.531C240.966 112.625 240.755 112.005 240.391 111.672C240.031 111.339 239.466 111.172 238.695 111.172H235.516V116H234.07ZM235.516 110H238.906C239.708 110 240.307 109.815 240.703 109.445C241.104 109.07 241.305 108.544 241.305 107.867C241.305 107.19 241.128 106.677 240.773 106.328C240.424 105.979 239.828 105.805 238.984 105.805H235.516V110ZM245.339 116V104.562H253.417V105.82H246.784V109.438H252.816V110.656H246.784V114.672H253.613V116H245.339ZM256.092 116V104.562H257.538V114.672H263.538V116H256.092ZM265.752 116V104.562H273.83V105.82H267.197V109.438H273.228V110.656H267.197V114.672H274.025V116H265.752ZM275.747 116L279.958 104.562H281.575L285.802 116H284.231L283.013 112.516H278.458L277.223 116H275.747ZM278.872 111.344H282.614L281.302 107.508C281.14 107.013 281.031 106.667 280.973 106.469C280.916 106.271 280.856 106.078 280.794 105.891H280.763C280.7 106.068 280.643 106.245 280.591 106.422C280.539 106.599 280.479 106.784 280.411 106.977C280.343 107.169 280.283 107.346 280.231 107.508L278.872 111.344ZM286.961 112.125H288.367C288.56 114.089 289.74 115.07 291.906 115.07C293.193 115.07 293.966 114.802 294.227 114.266C294.492 113.724 294.625 113.266 294.625 112.891C294.625 112.516 294.542 112.203 294.375 111.953C294.214 111.698 293.982 111.484 293.68 111.312C293.383 111.141 293.023 111 292.602 110.891C292.18 110.776 291.716 110.664 291.211 110.555C289.992 110.289 289.062 109.938 288.422 109.5C287.781 109.057 287.461 108.357 287.461 107.398C287.461 106.44 287.812 105.69 288.516 105.148C289.224 104.607 290.167 104.336 291.344 104.336C293.354 104.336 294.56 104.799 294.961 105.727C295.367 106.654 295.607 107.38 295.68 107.906H294.32C294.216 107.083 293.909 106.469 293.398 106.062C292.893 105.656 292.234 105.453 291.422 105.453C290.609 105.453 289.969 105.612 289.5 105.93C289.036 106.242 288.805 106.698 288.805 107.297C288.805 108.151 289.195 108.68 289.977 108.883C290.763 109.086 291.401 109.24 291.891 109.344C292.38 109.448 293.195 109.659 294.336 109.977C295.477 110.289 296.047 111.258 296.047 112.883C296.047 113.935 295.656 114.755 294.875 115.344C294.094 115.932 293.008 116.227 291.617 116.227C290.227 116.227 289.12 115.846 288.297 115.086C287.474 114.326 287.029 113.339 286.961 112.125ZM298.495 116V104.562H306.573V105.82H299.941V109.438H305.972V110.656H299.941V114.672H306.769V116H298.495ZM308.928 116V114.414H310.483V116H308.928ZM308.928 111.148V109.57H310.483V111.148H308.928ZM234.031 131.648C233.771 130.919 233.641 130.128 233.641 129.273C233.641 128.419 233.771 127.628 234.031 126.898C234.292 126.164 234.661 125.531 235.141 125C235.625 124.469 236.214 124.055 236.906 123.758C237.599 123.456 238.378 123.305 239.242 123.305C240.107 123.305 240.885 123.456 241.578 123.758C242.271 124.055 242.857 124.469 243.336 125C243.815 125.531 244.185 126.164 244.445 126.898C244.711 127.628 244.844 128.419 244.844 129.273C244.844 130.128 244.711 130.919 244.445 131.648C244.185 132.378 243.815 133.01 243.336 133.547C242.857 134.078 242.271 134.495 241.578 134.797C240.885 135.094 240.107 135.242 239.242 135.242C238.378 135.242 237.599 135.094 236.906 134.797C236.214 134.495 235.625 134.078 235.141 133.547C234.661 133.01 234.292 132.378 234.031 131.648ZM235.375 127.406C235.198 127.979 235.109 128.602 235.109 129.273C235.109 129.945 235.198 130.57 235.375 131.148C235.552 131.721 235.815 132.216 236.164 132.633C236.518 133.049 236.951 133.378 237.461 133.617C237.977 133.857 238.57 133.977 239.242 133.977C239.914 133.977 240.505 133.857 241.016 133.617C241.526 133.378 241.958 133.049 242.312 132.633C242.667 132.216 242.93 131.721 243.102 131.148C243.279 130.57 243.367 129.945 243.367 129.273C243.367 128.602 243.279 127.979 243.102 127.406C242.93 126.828 242.667 126.328 242.312 125.906C241.958 125.484 241.526 125.154 241.016 124.914C240.505 124.674 239.914 124.555 239.242 124.555C238.57 124.555 237.977 124.674 237.461 124.914C236.951 125.154 236.518 125.484 236.164 125.906C235.815 126.328 235.552 126.828 235.375 127.406ZM248.386 133.555C247.412 132.44 246.925 131.013 246.925 129.273C246.925 127.534 247.415 126.104 248.394 124.984C249.373 123.865 250.691 123.305 252.347 123.305C253.654 123.305 254.709 123.643 255.511 124.32C256.313 124.997 256.79 125.875 256.941 126.953H255.534C255.394 126.24 255.047 125.661 254.495 125.219C253.948 124.776 253.222 124.555 252.316 124.555C251.097 124.555 250.139 124.995 249.441 125.875C248.743 126.75 248.394 127.885 248.394 129.281C248.394 130.677 248.751 131.807 249.464 132.672C250.178 133.531 251.133 133.961 252.331 133.961C253.347 133.961 254.139 133.664 254.706 133.07C255.274 132.477 255.592 131.721 255.659 130.805H257.081C257.071 131.383 256.81 132.266 256.3 133.453C255.79 134.635 254.451 135.227 252.284 135.227C250.665 135.227 249.365 134.669 248.386 133.555ZM258.373 124.82V123.562H267.428V124.82H263.623V135H262.178V124.82H258.373ZM267.853 135V133.414H269.408V135H267.853ZM274.742 135C274.799 133.703 275.141 132.745 275.766 132.125C276.396 131.505 276.948 131.049 277.422 130.758C277.901 130.461 278.352 130.193 278.773 129.953C279.638 129.464 280.255 129.029 280.625 128.648C280.995 128.268 281.18 127.76 281.18 127.125C281.18 126.49 280.966 125.964 280.539 125.547C280.112 125.13 279.531 124.922 278.797 124.922C278.062 124.922 277.479 125.151 277.047 125.609C276.833 125.844 276.677 126.128 276.578 126.461C276.479 126.789 276.43 127.234 276.43 127.797H275.016C275.016 126.516 275.362 125.523 276.055 124.82C276.758 124.138 277.688 123.797 278.844 123.797C280 123.797 280.909 124.112 281.57 124.742C282.237 125.367 282.57 126.161 282.57 127.125C282.57 128.083 282.341 128.786 281.883 129.234C281.424 129.677 280.997 130.013 280.602 130.242C280.211 130.471 279.833 130.688 279.469 130.891C278.599 131.37 277.898 131.828 277.367 132.266C276.836 132.698 276.5 133.182 276.359 133.719H282.344V135H274.742ZM285.777 133.695C285.021 132.664 284.644 131.268 284.644 129.508C284.644 127.747 285.029 126.354 285.8 125.328C286.576 124.297 287.615 123.781 288.917 123.781C290.219 123.781 291.251 124.289 292.011 125.305C292.777 126.32 293.159 127.719 293.159 129.5C293.159 131.281 292.784 132.685 292.034 133.711C291.284 134.732 290.243 135.242 288.909 135.242C287.576 135.242 286.532 134.727 285.777 133.695ZM286.745 126.164C286.271 126.977 286.034 128.094 286.034 129.516C286.034 131.703 286.394 133.01 287.112 133.438C287.836 133.859 288.438 134.07 288.917 134.07C289.886 134.07 290.602 133.667 291.066 132.859C291.529 132.047 291.761 130.932 291.761 129.516C291.761 127.323 291.407 126.013 290.698 125.586C289.99 125.154 289.396 124.938 288.917 124.938C287.948 124.938 287.224 125.346 286.745 126.164ZM295.077 135C295.134 133.703 295.475 132.745 296.1 132.125C296.73 131.505 297.282 131.049 297.756 130.758C298.235 130.461 298.686 130.193 299.108 129.953C299.972 129.464 300.59 129.029 300.959 128.648C301.329 128.268 301.514 127.76 301.514 127.125C301.514 126.49 301.301 125.964 300.873 125.547C300.446 125.13 299.866 124.922 299.131 124.922C298.397 124.922 297.814 125.151 297.381 125.609C297.168 125.844 297.011 126.128 296.912 126.461C296.814 126.789 296.764 127.234 296.764 127.797H295.35C295.35 126.516 295.696 125.523 296.389 124.82C297.092 124.138 298.022 123.797 299.178 123.797C300.334 123.797 301.243 124.112 301.905 124.742C302.571 125.367 302.905 126.161 302.905 127.125C302.905 128.083 302.676 128.786 302.217 129.234C301.759 129.677 301.332 130.013 300.936 130.242C300.545 130.471 300.168 130.688 299.803 130.891C298.933 131.37 298.233 131.828 297.702 132.266C297.17 132.698 296.834 133.182 296.694 133.719H302.678V135H295.077ZM304.767 135C304.824 133.703 305.166 132.745 305.791 132.125C306.421 131.505 306.973 131.049 307.447 130.758C307.926 130.461 308.377 130.193 308.798 129.953C309.663 129.464 310.28 129.029 310.65 128.648C311.02 128.268 311.205 127.76 311.205 127.125C311.205 126.49 310.991 125.964 310.564 125.547C310.137 125.13 309.556 124.922 308.822 124.922C308.088 124.922 307.504 125.151 307.072 125.609C306.858 125.844 306.702 126.128 306.603 126.461C306.504 126.789 306.455 127.234 306.455 127.797H305.041C305.041 126.516 305.387 125.523 306.08 124.82C306.783 124.138 307.713 123.797 308.869 123.797C310.025 123.797 310.934 124.112 311.595 124.742C312.262 125.367 312.595 126.161 312.595 127.125C312.595 128.083 312.366 128.786 311.908 129.234C311.449 129.677 311.022 130.013 310.627 130.242C310.236 130.471 309.858 130.688 309.494 130.891C308.624 131.37 307.923 131.828 307.392 132.266C306.861 132.698 306.525 133.182 306.384 133.719H312.369V135H304.767Z" fill="black"/>
</svg>
