<svg width="1920" height="302" viewBox="0 0 1920 302" fill="none" xmlns="http://www.w3.org/2000/svg">
<line x1="-2.18557e-08" y1="0.750122" x2="1920" y2="0.749954" stroke="black" stroke-width="0.5"/>
<line x1="-2.22996e-08" y1="300.751" x2="1920" y2="300.751" stroke="black" stroke-width="0.5"/>
<line x1="959.75" y1="301.002" x2="959.75" y2="1.00159" stroke="black" stroke-width="0.5"/>
<path d="M350.192 131.978C342.668 131.978 338.664 125.862 338.664 118.25C338.664 110.638 342.668 104.522 350.192 104.522C357.76 104.522 361.808 110.638 361.808 118.25C361.808 125.862 357.76 131.978 350.192 131.978ZM350.192 134.618C359.124 134.618 364.888 127.622 364.888 118.25C364.888 108.878 359.124 101.882 350.192 101.882C341.304 101.882 335.584 108.878 335.584 118.25C335.584 127.622 341.304 134.618 350.192 134.618ZM380.388 134.486C387.208 134.486 392.048 131.318 392.048 124.014V102.542H389.1V123.75C389.1 129.558 385.756 131.934 380.52 131.934C375.02 131.934 371.896 129.558 371.896 123.75V102.542H368.948V124.014C368.948 131.23 373.524 134.486 380.388 134.486ZM397.273 134.002H400.221V119.966H409.813C414.389 119.966 416.281 121.506 416.545 126.962C416.809 132.33 416.985 133.518 417.689 134.002H420.857V133.826C420.285 133.43 419.713 132.154 419.493 127.094C419.273 122.21 418.217 119.834 414.961 118.734V118.602C418.569 117.458 420.241 114.906 420.241 111.034C420.241 105.798 416.985 102.542 411.309 102.542H397.273V134.002ZM400.221 117.458V105.138H410.693C415.445 105.138 417.205 107.382 417.205 111.298C417.205 115.214 414.873 117.458 410.297 117.458H400.221ZM336.816 198.002H339.764V182.866H354.724V180.314H339.764V169.138H357.32V166.542H336.816V198.002ZM373.782 195.978C366.258 195.978 362.254 189.862 362.254 182.25C362.254 174.638 366.258 168.522 373.782 168.522C381.35 168.522 385.398 174.638 385.398 182.25C385.398 189.862 381.35 195.978 373.782 195.978ZM373.782 198.618C382.714 198.618 388.478 191.622 388.478 182.25C388.478 172.878 382.714 165.882 373.782 165.882C364.894 165.882 359.174 172.878 359.174 182.25C359.174 191.622 364.894 198.618 373.782 198.618ZM405.826 198.574C409.83 198.574 413.13 197.254 415.33 194.79C417.222 192.722 418.41 189.642 418.586 186.562H415.726C415.242 191.754 411.942 195.978 405.87 195.978C398.654 195.978 394.738 190.17 394.738 182.294C394.738 174.55 398.522 168.434 405.914 168.434C411.062 168.434 414.318 171.338 415.154 175.43H418.058C417.002 169.578 412.602 165.882 405.958 165.882C397.07 165.882 391.658 172.79 391.658 182.294C391.658 191.93 397.07 198.574 405.826 198.574ZM433.756 198.486C440.576 198.486 445.416 195.318 445.416 188.014V166.542H442.468V187.75C442.468 193.558 439.124 195.934 433.888 195.934C428.388 195.934 425.264 193.558 425.264 187.75V166.542H422.316V188.014C422.316 195.23 426.892 198.486 433.756 198.486ZM461.767 198.574C468.367 198.574 472.855 194.966 472.855 189.378C472.855 182.778 467.795 181.282 461.679 180.094C456.047 179.038 453.143 177.894 453.143 174.154C453.143 170.678 456.047 168.39 460.843 168.39C465.331 168.39 468.499 170.678 469.027 175.122H471.887C471.315 169.71 467.795 165.926 460.799 165.926C454.507 165.926 450.283 169.226 450.283 174.242C450.283 179.742 454.375 181.502 460.183 182.646C466.915 184.01 469.863 185.066 469.863 189.51C469.863 193.778 466.431 196.11 461.811 196.11C455.915 196.11 452.307 193.118 451.999 187.794H449.051C449.403 193.91 453.495 198.574 461.767 198.574ZM510.872 188.102C511.312 187.163 511.737 186.342 512.148 185.638C512.588 184.934 513.013 184.347 513.424 183.878H487.772V182.03H513.424C513.013 181.531 512.588 180.93 512.148 180.226C511.737 179.522 511.312 178.715 510.872 177.806H512.412C514.26 179.947 516.196 181.531 518.22 182.558V183.35C516.196 184.347 514.26 185.931 512.412 188.102H510.872Z" fill="black"/>
<path d="M1277.82 134.002H1280.54V106.59H1280.63C1280.63 106.59 1281.51 109.23 1282.17 110.858L1291.37 134.002H1293.96L1303.07 110.858C1303.73 109.098 1304.57 106.59 1304.57 106.59H1304.66V134.002H1307.52V102.542H1303.38L1292.78 129.998H1292.69L1281.82 102.542H1277.82V134.002ZM1310.67 134.002H1313.66L1317.36 124.102H1331.04L1334.7 134.002H1337.86L1325.9 102.542H1322.55L1310.67 134.002ZM1318.24 121.682L1322.64 109.934C1323.34 108.042 1324.18 105.358 1324.18 105.358H1324.27C1324.27 105.358 1325.19 108.174 1325.85 109.934L1330.16 121.682H1318.24ZM1341.02 134.002H1343.97V122.914L1349.6 117.37L1362.06 134.002H1365.58L1351.63 115.346L1364.78 102.542H1360.96L1343.97 119.306V102.542H1341.02V134.002ZM1368.52 134.002H1390.39V131.274H1371.47V118.998H1388.37V116.446H1371.47V105.138H1389.91V102.542H1368.52V134.002ZM1401.57 134.002H1404.52V102.542H1401.57V134.002ZM1419 134.002H1421.95V105.182H1432.55V102.542H1408.35V105.182H1419V134.002ZM1456.02 134.618C1461.82 134.618 1464.9 131.538 1466.53 128.986H1466.66L1467.28 134.002H1469.35V117.854H1456.32V120.45H1466.44V121.55C1466.44 127.006 1463.32 132.022 1456.06 132.022C1448.58 132.022 1444.66 126.038 1444.66 118.294C1444.66 110.682 1448.36 104.478 1456.46 104.478C1461.25 104.478 1464.86 106.942 1465.83 111.65H1468.86C1467.72 105.27 1462.92 101.926 1456.46 101.926C1446.91 101.926 1441.58 109.01 1441.58 118.294C1441.58 127.71 1446.82 134.618 1456.02 134.618ZM1474.57 134.002H1477.52V119.966H1487.11C1491.69 119.966 1493.58 121.506 1493.84 126.962C1494.11 132.33 1494.28 133.518 1494.99 134.002H1498.15V133.826C1497.58 133.43 1497.01 132.154 1496.79 127.094C1496.57 122.21 1495.51 119.834 1492.26 118.734V118.602C1495.87 117.458 1497.54 114.906 1497.54 111.034C1497.54 105.798 1494.28 102.542 1488.61 102.542H1474.57V134.002ZM1477.52 117.458V105.138H1487.99C1492.74 105.138 1494.5 107.382 1494.5 111.298C1494.5 115.214 1492.17 117.458 1487.59 117.458H1477.52ZM1515.49 131.978C1507.96 131.978 1503.96 125.862 1503.96 118.25C1503.96 110.638 1507.96 104.522 1515.49 104.522C1523.06 104.522 1527.1 110.638 1527.1 118.25C1527.1 125.862 1523.06 131.978 1515.49 131.978ZM1515.49 134.618C1524.42 134.618 1530.18 127.622 1530.18 118.25C1530.18 108.878 1524.42 101.882 1515.49 101.882C1506.6 101.882 1500.88 108.878 1500.88 118.25C1500.88 127.622 1506.6 134.618 1515.49 134.618ZM1539.34 134.002H1542.46L1548.62 111.078C1549.15 109.054 1549.81 105.974 1549.81 105.974H1549.9C1549.9 105.974 1550.56 109.098 1551.13 111.078L1557.11 134.002H1560.11L1568.64 102.542H1565.69L1560.19 123.75C1559.62 126.082 1558.74 129.954 1558.74 129.954H1558.65C1558.65 129.954 1557.77 126.126 1557.2 123.882L1551.44 102.542H1548.27L1542.51 123.926C1541.89 126.17 1541.01 129.954 1541.01 129.954H1540.92C1540.92 129.954 1540.09 126.082 1539.47 123.75L1534.01 102.542H1530.98L1539.34 134.002ZM1286.66 198.002H1289.65V184.362L1301.09 166.542H1297.92L1288.24 181.766H1288.16L1278.56 166.542H1275.31L1286.66 184.274V198.002ZM1314.95 195.978C1307.43 195.978 1303.43 189.862 1303.43 182.25C1303.43 174.638 1307.43 168.522 1314.95 168.522C1322.52 168.522 1326.57 174.638 1326.57 182.25C1326.57 189.862 1322.52 195.978 1314.95 195.978ZM1314.95 198.618C1323.89 198.618 1329.65 191.622 1329.65 182.25C1329.65 172.878 1323.89 165.882 1314.95 165.882C1306.07 165.882 1300.35 172.878 1300.35 182.25C1300.35 191.622 1306.07 198.618 1314.95 198.618ZM1345.15 198.486C1351.97 198.486 1356.81 195.318 1356.81 188.014V166.542H1353.86V187.75C1353.86 193.558 1350.52 195.934 1345.28 195.934C1339.78 195.934 1336.66 193.558 1336.66 187.75V166.542H1333.71V188.014C1333.71 195.23 1338.29 198.486 1345.15 198.486ZM1362.03 198.002H1364.98V183.966H1374.57C1379.15 183.966 1381.04 185.506 1381.31 190.962C1381.57 196.33 1381.75 197.518 1382.45 198.002H1385.62V197.826C1385.05 197.43 1384.47 196.154 1384.25 191.094C1384.03 186.21 1382.98 183.834 1379.72 182.734V182.602C1383.33 181.458 1385 178.906 1385 175.034C1385 169.798 1381.75 166.542 1376.07 166.542H1362.03V198.002ZM1364.98 181.458V169.138H1375.45C1380.21 169.138 1381.97 171.382 1381.97 175.298C1381.97 179.214 1379.63 181.458 1375.06 181.458H1364.98ZM1396.41 198.002H1410.05C1413.31 198.002 1415.86 196.99 1417.49 195.318C1418.98 193.778 1419.77 191.71 1419.77 189.158C1419.77 184.978 1417.27 182.426 1413.66 181.414V181.282C1416.83 180.182 1418.45 178.026 1418.45 174.462C1418.45 172.086 1417.62 170.15 1416.17 168.83C1414.58 167.334 1412.29 166.542 1409.48 166.542H1396.41V198.002ZM1399.36 195.318V182.91H1409.87C1414.01 182.91 1416.78 185.198 1416.78 189.202C1416.78 191.05 1416.21 192.502 1415.2 193.514C1414.05 194.614 1412.29 195.318 1409.87 195.318H1399.36ZM1399.36 180.358V169.138H1409.52C1413.17 169.138 1415.46 171.118 1415.46 174.682C1415.46 178.114 1413.26 180.358 1409.43 180.358H1399.36ZM1423.82 198.002H1426.77V183.966H1436.36C1440.94 183.966 1442.83 185.506 1443.1 190.962C1443.36 196.33 1443.54 197.518 1444.24 198.002H1447.41V197.826C1446.84 197.43 1446.26 196.154 1446.04 191.094C1445.82 186.21 1444.77 183.834 1441.51 182.734V182.602C1445.12 181.458 1446.79 178.906 1446.79 175.034C1446.79 169.798 1443.54 166.542 1437.86 166.542H1423.82V198.002ZM1426.77 181.458V169.138H1437.24C1442 169.138 1443.76 171.382 1443.76 175.298C1443.76 179.214 1441.42 181.458 1436.85 181.458H1426.77ZM1449.12 198.002H1452.11L1455.81 188.102H1469.49L1473.14 198.002H1476.31L1464.34 166.542H1461L1449.12 198.002ZM1456.69 185.682L1461.09 173.934C1461.79 172.042 1462.63 169.358 1462.63 169.358H1462.71C1462.71 169.358 1463.64 172.174 1464.3 173.934L1468.61 185.682H1456.69ZM1479.47 198.002H1482.28V170.854H1482.37C1482.37 170.854 1484.22 173.978 1485.67 176.178L1500.1 198.002H1503.18V166.542H1500.37V193.822H1500.28C1500.28 193.822 1498.74 191.006 1497.16 188.63L1482.68 166.542H1479.47V198.002ZM1511.76 195.406V169.138H1519.9C1527.43 169.138 1530.38 174.418 1530.38 182.382C1530.38 190.346 1527.12 195.406 1519.6 195.406H1511.76ZM1508.82 198.002H1519.68C1528.97 198.002 1533.46 191.71 1533.46 182.382C1533.46 173.054 1529.28 166.542 1519.99 166.542H1508.82V198.002ZM1571.54 188.102C1571.98 187.163 1572.41 186.342 1572.82 185.638C1573.26 184.934 1573.68 184.347 1574.09 183.878H1548.44V182.03H1574.09C1573.68 181.531 1573.26 180.93 1572.82 180.226C1572.41 179.522 1571.98 178.715 1571.54 177.806H1573.08C1574.93 179.947 1576.86 181.531 1578.89 182.558V183.35C1576.86 184.347 1574.93 185.931 1573.08 188.102H1571.54Z" fill="black"/>
</svg>
