<svg width="343" height="155" viewBox="0 0 343 155" fill="none" xmlns="http://www.w3.org/2000/svg">
<path d="M1.33789 15V0.703125H3.14453V6.77734H10.7812V0.703125H12.5781V15H10.7812V8.24219H3.14453V15H1.33789ZM15.291 13.7207C14.3926 12.6725 13.9434 11.3802 13.9434 9.84375C13.9434 8.30729 14.4023 7.01823 15.3203 5.97656C16.2448 4.92839 17.4395 4.4043 18.9043 4.4043C20.3757 4.4043 21.5247 4.9349 22.3516 5.99609C23.1849 7.05078 23.6016 8.46029 23.6016 10.2246H15.6035C15.6556 11.3053 15.9714 12.1908 16.5508 12.8809C17.1367 13.571 17.9342 13.916 18.9434 13.916C20.4733 13.916 21.4271 13.2096 21.8047 11.7969H23.3867C23.1458 12.9167 22.638 13.7793 21.8633 14.3848C21.0885 14.9837 20.1152 15.2832 18.9434 15.2832C17.4134 15.2832 16.196 14.7624 15.291 13.7207ZM15.6426 9.00391H21.8633C21.8112 7.96224 21.528 7.14844 21.0137 6.5625C20.4993 5.97656 19.7767 5.68359 18.8457 5.68359C17.4785 5.68359 16.6159 6.11979 16.2578 6.99219C15.9062 7.86458 15.7012 8.53516 15.6426 9.00391ZM24.6934 15V4.6582H26.3145V15H24.6934ZM24.6934 2.69531V0.703125H26.3145V2.69531H24.6934ZM28.0215 15V4.6582H29.6426V6.01562H29.6816C30.4759 4.95443 31.5664 4.42383 32.9531 4.42383C34.0339 4.42383 34.8835 4.70703 35.502 5.27344C36.127 5.83984 36.4395 6.66341 36.4395 7.74414V15H34.8184V7.88086C34.8184 7.20378 34.61 6.6862 34.1934 6.32812C33.7832 5.96354 33.1875 5.78125 32.4062 5.78125C31.625 5.78125 30.9674 6.04492 30.4336 6.57227C29.9062 7.0931 29.6426 7.7832 29.6426 8.64258V15H28.0215ZM38.8496 13.7207C37.9512 12.6725 37.502 11.3802 37.502 9.84375C37.502 8.30729 37.9609 7.01823 38.8789 5.97656C39.8034 4.92839 40.998 4.4043 42.4629 4.4043C43.9342 4.4043 45.0833 4.9349 45.9102 5.99609C46.7435 7.05078 47.1602 8.46029 47.1602 10.2246H39.1621C39.2142 11.3053 39.5299 12.1908 40.1094 12.8809C40.6953 13.571 41.4928 13.916 42.502 13.916C44.0319 13.916 44.9857 13.2096 45.3633 11.7969H46.9453C46.7044 12.9167 46.1966 13.7793 45.4219 14.3848C44.6471 14.9837 43.6738 15.2832 42.502 15.2832C40.972 15.2832 39.7546 14.7624 38.8496 13.7207ZM39.2012 9.00391H45.4219C45.3698 7.96224 45.0866 7.14844 44.5723 6.5625C44.0579 5.97656 43.3353 5.68359 42.4043 5.68359C41.0371 5.68359 40.1745 6.11979 39.8164 6.99219C39.4648 7.86458 39.2598 8.53516 39.2012 9.00391ZM48.252 15V0.703125H49.873V9.08203L54.4043 4.6582H56.4648L52.5098 8.37891L56.9531 15H55.0488L51.3867 9.42383L49.873 10.8594V15H48.252ZM57.6934 13.7207C56.7949 12.6725 56.3457 11.3802 56.3457 9.84375C56.3457 8.30729 56.8047 7.01823 57.7227 5.97656C58.6471 4.92839 59.8418 4.4043 61.3066 4.4043C62.778 4.4043 63.9271 4.9349 64.7539 5.99609C65.5872 7.05078 66.0039 8.46029 66.0039 10.2246H58.0059C58.0579 11.3053 58.3737 12.1908 58.9531 12.8809C59.5391 13.571 60.3366 13.916 61.3457 13.916C62.8757 13.916 63.8294 13.2096 64.207 11.7969H65.7891C65.5482 12.9167 65.0404 13.7793 64.2656 14.3848C63.4909 14.9837 62.5176 15.2832 61.3457 15.2832C59.8158 15.2832 58.5983 14.7624 57.6934 13.7207ZM58.0449 9.00391H64.2656C64.2135 7.96224 63.9303 7.14844 63.416 6.5625C62.9017 5.97656 62.179 5.68359 61.248 5.68359C59.8809 5.68359 59.0182 6.11979 58.6602 6.99219C58.3086 7.86458 58.1035 8.53516 58.0449 9.00391ZM67.0957 15V4.6582H68.7168V6.01562H68.7559C69.5501 4.95443 70.6406 4.42383 72.0273 4.42383C73.1081 4.42383 73.9577 4.70703 74.5762 5.27344C75.2012 5.83984 75.5137 6.66341 75.5137 7.74414V15H73.8926V7.88086C73.8926 7.20378 73.6842 6.6862 73.2676 6.32812C72.8574 5.96354 72.2617 5.78125 71.4805 5.78125C70.6992 5.78125 70.0417 6.04492 69.5078 6.57227C68.9805 7.0931 68.7168 7.7832 68.7168 8.64258V15H67.0957ZM80.0801 15V0.703125H86.0469C87.5312 0.703125 88.6641 1.16211 89.4453 2.08008C90.0833 2.80273 90.4023 3.76628 90.4023 4.9707C90.4023 6.18164 90.0247 7.1582 89.2695 7.90039C88.5208 8.63607 87.3587 9.00391 85.7832 9.00391H81.8867V15H80.0801ZM81.8867 7.53906H85.6465C86.6621 7.53906 87.4108 7.30469 87.8926 6.83594C88.3809 6.36068 88.625 5.69987 88.625 4.85352C88.625 4.00716 88.3743 3.36263 87.873 2.91992C87.3717 2.47721 86.6621 2.25586 85.7441 2.25586H81.8867V7.53906ZM91.8457 13.7207C90.9473 12.6725 90.498 11.3802 90.498 9.84375C90.498 8.30729 90.957 7.01823 91.875 5.97656C92.7995 4.92839 93.9941 4.4043 95.459 4.4043C96.9303 4.4043 98.0794 4.9349 98.9062 5.99609C99.7396 7.05078 100.156 8.46029 100.156 10.2246H92.1582C92.2103 11.3053 92.526 12.1908 93.1055 12.8809C93.6914 13.571 94.4889 13.916 95.498 13.916C97.028 13.916 97.9818 13.2096 98.3594 11.7969H99.9414C99.7005 12.9167 99.1927 13.7793 98.418 14.3848C97.6432 14.9837 96.6699 15.2832 95.498 15.2832C93.9681 15.2832 92.7507 14.7624 91.8457 13.7207ZM92.1973 9.00391H98.418C98.3659 7.96224 98.0827 7.14844 97.5684 6.5625C97.054 5.97656 96.3314 5.68359 95.4004 5.68359C94.0332 5.68359 93.1706 6.11979 92.8125 6.99219C92.4609 7.86458 92.2559 8.53516 92.1973 9.00391ZM101.248 15V4.6582H102.869V6.37695H102.908C103.214 5.86914 103.631 5.4362 104.158 5.07812C104.686 4.72005 105.294 4.54102 105.984 4.54102C106.206 4.54102 106.427 4.58008 106.648 4.6582V6.2207H106.58C106.385 6.1556 106.118 6.12305 105.779 6.12305C105.024 6.12305 104.35 6.40625 103.758 6.97266C103.165 7.53906 102.869 8.30078 102.869 9.25781V15H101.248ZM107.535 11.8164V4.6582H109.156V11.7773C109.156 12.4544 109.358 12.9785 109.762 13.3496C110.172 13.7142 110.764 13.8965 111.539 13.8965C112.314 13.8965 112.945 13.6263 113.434 13.0859C113.928 12.5391 114.176 11.849 114.176 11.0156V4.6582H115.797V15H114.176V13.584H114.137C113.766 14.0918 113.342 14.4954 112.867 14.7949C112.398 15.0944 111.783 15.2441 111.021 15.2441C109.954 15.2441 109.104 14.9447 108.473 14.3457C107.848 13.7402 107.535 12.8971 107.535 11.8164ZM111.1 3.03711L112.115 0.498047H114.117L112.477 3.03711H111.1Z" fill="white"/>
<path d="M4.556 88V39.38H10.676V60.052H36.652V39.38H42.772V88H36.652V65.016H10.676V88H4.556ZM50.2037 88V39.38H84.5437V44.752H56.3237V60.12H81.9597V65.288H56.3237V82.356H85.3597V88H50.2037ZM90.9404 88V39.38H97.0604V88H90.9404ZM104.577 88V39.38H111.037L133.205 73.176L136.741 79.432H136.877V39.38H142.589V88H136.333L114.029 54.136L110.425 48.084H110.289V88H104.577ZM150.026 88V39.38H184.366V44.752H156.146V60.12H181.782V65.288H156.146V82.356H185.182V88H150.026ZM190.626 88V39.38H196.746V63.52L220.682 39.38H228.366L208.714 58.828L229.998 88H222.858L204.566 62.976L196.746 70.796V88H190.626ZM232.688 88V39.38H267.028V44.752H238.808V60.12H264.444V65.288H238.808V82.356H267.844V88H232.688ZM273.289 88V39.38H279.749L301.917 73.176L305.453 79.432H305.589V39.38H311.301V88H305.045L282.741 54.136L279.137 48.084H279.001V88H273.289ZM4.556 154V105.38H37.536V110.752H10.676V125.916H33.048V131.084H10.676V154H4.556ZM42.1685 154V105.38H76.5085V110.752H48.2885V126.12H73.9245V131.288H48.2885V148.356H77.3245V154H42.1685ZM99.7852 154.952C93.2572 154.952 88.2252 153.343 84.6892 150.124C81.1986 146.905 79.3172 142.712 79.0452 137.544H85.0292C85.8452 145.885 90.8546 150.056 100.057 150.056C103.548 150.056 106.336 149.285 108.421 147.744C110.552 146.157 111.617 143.891 111.617 140.944C111.617 139.629 111.368 138.473 110.869 137.476C110.371 136.479 109.759 135.663 109.033 135.028C108.353 134.393 107.311 133.804 105.905 133.26C104.5 132.716 103.185 132.285 101.961 131.968C100.783 131.651 99.1506 131.265 97.0652 130.812C94.5719 130.268 92.5092 129.724 90.8772 129.18C89.2452 128.591 87.6132 127.797 85.9812 126.8C84.3492 125.803 83.1252 124.533 82.3092 122.992C81.5386 121.405 81.1532 119.501 81.1532 117.28C81.1532 113.291 82.6492 110.163 85.6412 107.896C88.6786 105.584 92.6906 104.428 97.6772 104.428C108.603 104.428 114.745 109.483 116.105 119.592H110.325C109.872 116.147 108.58 113.563 106.449 111.84C104.319 110.072 101.44 109.188 97.8132 109.188C94.4586 109.188 91.7839 109.868 89.7892 111.228C87.8399 112.588 86.8652 114.515 86.8652 117.008C86.8652 118.096 87.0692 119.071 87.4772 119.932C87.9306 120.748 88.4972 121.451 89.1772 122.04C89.9026 122.584 90.8319 123.083 91.9652 123.536C93.1439 123.989 94.2999 124.375 95.4332 124.692C96.5666 124.964 97.9492 125.259 99.5812 125.576C101.848 126.029 103.707 126.46 105.157 126.868C106.608 127.231 108.217 127.797 109.985 128.568C111.753 129.339 113.113 130.223 114.065 131.22C115.063 132.217 115.901 133.532 116.581 135.164C117.307 136.751 117.669 138.609 117.669 140.74C117.669 145.183 116.015 148.673 112.705 151.212C109.441 153.705 105.135 154.952 99.7852 154.952ZM117.521 110.752V105.38H156.009V110.752H139.825V154H133.705V110.752H117.521Z" fill="white"/>
</svg>
