<svg width="338" height="222" viewBox="0 0 338 222" fill="none" xmlns="http://www.w3.org/2000/svg">
<path fill-rule="evenodd" clip-rule="evenodd" d="M103 26.6371L103 24.1249L103 24.1217C102.871 24.1217 102.742 24.1222 102.614 24.1232C85.0179 23.9681 70.8197 13.2284 70.8197 0.000922155L67.4686 0.000922448C67.4686 10.6672 75.8301 19.8684 87.9078 24.1221L15.0001 24.1221L15.0001 26.6343L87.9144 26.6343C75.8331 30.887 67.4686 40.0896 67.4686 50.7578L70.8197 50.7578C70.8197 37.5303 85.0179 26.7906 102.614 26.6355C102.742 26.6366 102.871 26.6371 103 26.6371Z" fill="white"/>
<path d="M127.014 47V4.10938H132.434V42.0195H154.934V47H127.014ZM158.736 47V4.10938H189.029V8.82617H164.156V22.3906H186.773V26.9609H164.156V42.0195H189.762V47H158.736ZM191.865 8.82617V4.10938H225.82V8.82617H211.553V47H206.133V8.82617H191.865ZM228.773 10.0859V4.10938H233.871V10.0859C233.871 12.2539 233.383 13.8555 232.406 14.8906C231.43 15.9063 230.238 16.5117 228.832 16.707V14.4219C230.355 13.8164 231.117 12.3711 231.117 10.0859H228.773ZM235.271 32.4688H240.545C241.268 39.832 245.691 43.5137 253.816 43.5137C258.641 43.5137 261.541 42.5078 262.518 40.4961C263.514 38.4648 264.012 36.7461 264.012 35.3398C264.012 33.9336 263.699 32.7617 263.074 31.8242C262.469 30.8672 261.6 30.0664 260.467 29.4219C259.354 28.7773 258.006 28.25 256.424 27.8398C254.842 27.4102 253.104 26.9902 251.209 26.5801C246.639 25.584 243.152 24.2656 240.75 22.625C238.348 20.9648 237.146 18.3379 237.146 14.7441C237.146 11.1504 238.465 8.33789 241.102 6.30664C243.758 4.27539 247.293 3.25977 251.707 3.25977C259.246 3.25977 263.768 4.99805 265.271 8.47461C266.795 11.9512 267.693 14.6758 267.967 16.6484H262.869C262.479 13.5625 261.326 11.2578 259.412 9.73438C257.518 8.21094 255.047 7.44922 252 7.44922C248.953 7.44922 246.551 8.04492 244.793 9.23633C243.055 10.4082 242.186 12.1172 242.186 14.3633C242.186 17.5664 243.65 19.5488 246.58 20.3105C249.529 21.0723 251.922 21.6484 253.758 22.0391C255.594 22.4297 258.65 23.2207 262.928 24.4121C267.205 25.584 269.344 29.2168 269.344 35.3105C269.344 39.2559 267.879 42.332 264.949 44.5391C262.02 46.7461 257.947 47.8496 252.732 47.8496C247.518 47.8496 243.367 46.4238 240.281 43.5723C237.195 40.7207 235.525 37.0195 235.271 32.4688Z" fill="white"/>
<path d="M41.88 105.84C30.12 105.84 24 98.1 24 86.94C24 74.1 32.34 61.14 46.62 61.14C55.56 61.14 61.32 66.12 62.04 74.82H56.7C55.92 69.06 52.32 65.76 46.08 65.76C35.34 65.76 29.52 75.96 29.52 86.76C29.52 94.62 33.18 101.16 42.06 101.16C49.74 101.16 54 95.52 55.38 89.28H60.66C59.88 93.48 57.96 97.38 55.02 100.56C51.9 103.92 47.16 105.84 41.88 105.84ZM61.4756 105L69.7556 62.1H86.0156C89.4356 62.1 92.4956 62.94 94.6556 64.56C97.2956 66.54 98.6156 69.66 98.6156 73.32C98.6156 79.2 95.0756 83.04 90.2756 84.66V84.84C94.0556 86.58 94.8356 89.22 94.4156 95.58C93.9356 102.48 94.8356 104.22 95.5556 104.76V105H90.1556C89.3756 103.92 88.7756 102.24 89.2556 95.4C89.6756 89.1 87.9956 86.82 82.2956 86.82H70.2356L66.7556 105H61.4756ZM74.1356 66.72L71.0756 82.5H83.1356C89.1956 82.5 93.0956 79.32 93.0956 73.44C93.0956 69 90.3356 66.72 85.2356 66.72H74.1356ZM98.8233 105L107.103 62.1H135.123L134.223 66.78H111.483L108.843 80.4H129.723L128.823 84.9H107.943L105.063 100.08H129.123L128.163 105H98.8233ZM161.204 105L159.044 91.92H142.124L135.344 105H129.824L152.804 62.1H158.744L166.844 105H161.204ZM151.964 73.14L144.404 87.6H158.324L155.924 73.14C155.504 70.74 155.084 67.08 155.084 67.08H154.964C154.964 67.08 153.344 70.56 151.964 73.14ZM168.935 66.78L169.835 62.1H202.415L201.515 66.78H187.835L180.455 105H175.175L182.555 66.78H168.935ZM197.565 105L205.845 62.1H233.865L232.965 66.78H210.225L207.585 80.4H228.465L227.565 84.9H206.685L203.805 100.08H227.865L226.905 105H197.565Z" fill="white"/>
<path d="M1.31836 148.469H6.5918C7.31445 155.832 11.7383 159.514 19.8633 159.514C24.6875 159.514 27.5879 158.508 28.5645 156.496C29.5605 154.465 30.0586 152.746 30.0586 151.34C30.0586 149.934 29.7461 148.762 29.1211 147.824C28.5156 146.867 27.6465 146.066 26.5137 145.422C25.4004 144.777 24.0527 144.25 22.4707 143.84C20.8887 143.41 19.1504 142.99 17.2559 142.58C12.6855 141.584 9.19922 140.266 6.79688 138.625C4.39453 136.965 3.19336 134.338 3.19336 130.744C3.19336 127.15 4.51172 124.338 7.14844 122.307C9.80469 120.275 13.3398 119.26 17.7539 119.26C25.293 119.26 29.8145 120.998 31.3184 124.475C32.8418 127.951 33.7402 130.676 34.0137 132.648H28.916C28.5254 129.562 27.373 127.258 25.459 125.734C23.5645 124.211 21.0938 123.449 18.0469 123.449C15 123.449 12.5977 124.045 10.8398 125.236C9.10156 126.408 8.23242 128.117 8.23242 130.363C8.23242 133.566 9.69727 135.549 12.627 136.311C15.5762 137.072 17.9688 137.648 19.8047 138.039C21.6406 138.43 24.6973 139.221 28.9746 140.412C33.252 141.584 35.3906 145.217 35.3906 151.311C35.3906 155.256 33.9258 158.332 30.9961 160.539C28.0664 162.746 23.9941 163.85 18.7793 163.85C13.5645 163.85 9.41406 162.424 6.32812 159.572C3.24219 156.721 1.57227 153.02 1.31836 148.469ZM39.9258 150.432C38.9492 147.697 38.4609 144.729 38.4609 141.525C38.4609 138.322 38.9492 135.354 39.9258 132.619C40.9023 129.865 42.2891 127.492 44.0859 125.5C45.9023 123.508 48.1094 121.955 50.707 120.842C53.3047 119.709 56.2246 119.143 59.4668 119.143C62.709 119.143 65.6289 119.709 68.2266 120.842C70.8242 121.955 73.0215 123.508 74.8184 125.5C76.6152 127.492 78.002 129.865 78.9785 132.619C79.9746 135.354 80.4727 138.322 80.4727 141.525C80.4727 144.729 79.9746 147.697 78.9785 150.432C78.002 153.166 76.6152 155.539 74.8184 157.551C73.0215 159.543 70.8242 161.105 68.2266 162.238C65.6289 163.352 62.709 163.908 59.4668 163.908C56.2246 163.908 53.3047 163.352 50.707 162.238C48.1094 161.105 45.9023 159.543 44.0859 157.551C42.2891 155.539 40.9023 153.166 39.9258 150.432ZM44.9648 134.523C44.3008 136.672 43.9688 139.006 43.9688 141.525C43.9688 144.045 44.3008 146.389 44.9648 148.557C45.6289 150.705 46.6152 152.561 47.9238 154.123C49.252 155.686 50.873 156.916 52.7871 157.814C54.7207 158.713 56.9473 159.162 59.4668 159.162C61.9863 159.162 64.2031 158.713 66.1172 157.814C68.0312 156.916 69.6523 155.686 70.9805 154.123C72.3086 152.561 73.2949 150.705 73.9395 148.557C74.6035 146.389 74.9355 144.045 74.9355 141.525C74.9355 139.006 74.6035 136.672 73.9395 134.523C73.2949 132.355 72.3086 130.48 70.9805 128.898C69.6523 127.316 68.0312 126.076 66.1172 125.178C64.2031 124.279 61.9863 123.83 59.4668 123.83C56.9473 123.83 54.7207 124.279 52.7871 125.178C50.873 126.076 49.252 127.316 47.9238 128.898C46.6152 130.48 45.6289 132.355 44.9648 134.523ZM85.3887 163V120.109H92.3027L106.219 155.734H106.336L120.135 120.109H127.166V163H121.98V127.727H121.863C121.629 128.371 121.404 129.025 121.189 129.689C120.975 130.354 120.564 131.496 119.959 133.117L108.182 163H104.051L92.3027 133.117C92.1074 132.551 91.8926 131.975 91.6582 131.389C91.4434 130.783 91.2383 130.178 91.043 129.572C90.8477 128.967 90.623 128.352 90.3691 127.727H90.252V163H85.3887ZM133.693 163V120.109H163.986V124.826H139.113V138.391H161.73V142.961H139.113V158.02H164.719V163H133.693ZM166.822 124.826V120.109H200.777V124.826H186.51V163H181.09V124.826H166.822ZM204.639 163V120.109H210.059V138.332H232.969V120.109H238.359V163H232.969V142.727H210.059V163H204.639ZM245.033 163V120.109H250.453V163H245.033ZM257.068 163V120.109H262.781L282.322 149.934C283.494 151.809 284.539 153.645 285.457 155.441H285.574V120.109H290.613V163H285.105L265.418 133.117C265.047 132.57 264.52 131.691 263.836 130.48C263.133 129.27 262.596 128.371 262.225 127.785H262.107V163H257.068ZM301.154 157.727C297.424 153.605 295.559 148.254 295.559 141.672C295.559 135.09 297.365 129.699 300.979 125.5C304.592 121.301 309.66 119.201 316.184 119.201C321.008 119.201 324.934 120.422 327.961 122.863C331.008 125.305 332.902 128.684 333.645 133H328.078C327.473 130.129 326.164 127.893 324.152 126.291C322.16 124.689 319.66 123.889 316.652 123.889C313.645 123.889 311.203 124.348 309.328 125.266C307.473 126.184 305.627 127.824 303.791 130.188C301.975 132.551 301.066 136.369 301.066 141.643C301.066 146.916 302.443 151.164 305.197 154.387C307.951 157.609 311.477 159.221 315.773 159.221C320.051 159.221 323.303 157.98 325.529 155.5C327.756 153 328.869 149.836 328.869 146.008V145.012H315.949V140.324H334.26V163H330.773L329.221 157.346H329.104C325.998 161.721 321.496 163.908 315.598 163.908C309.699 163.908 304.885 161.848 301.154 157.727Z" fill="white"/>
<path d="M186.34 221.84C177.58 221.84 169.3 217.88 169.6 206.48H174.7C174.7 214.28 179.2 217.46 186.46 217.46C193 217.46 197.2 214.4 197.2 208.82C197.2 204.38 193.48 202.94 186.46 200.36C179.2 197.72 174.64 195.02 174.64 188.96C174.64 181.76 180.7 177.26 188.74 177.26C197.44 177.26 203.8 180.98 204.28 190.64H199.24C198.94 184.28 195.22 181.58 188.74 181.58C183.94 181.58 179.62 183.2 179.62 188.48C179.62 192.08 183.1 193.64 188.68 195.68C196.72 198.62 202.42 200.9 202.42 208.22C202.42 216.26 196.42 221.84 186.34 221.84ZM204.554 221L212.834 178.1H240.854L239.954 182.78H217.214L214.574 196.4H235.454L234.554 200.9H213.674L210.794 216.08H234.854L233.894 221H204.554ZM235.322 221L253.022 198.74L243.062 178.1H249.002L256.682 195.14H256.802L269.882 178.1H275.702L258.902 199.4L269.342 221H263.462L255.362 202.88H255.242L241.262 221H235.322ZM282.612 221L286.092 202.82L275.532 178.1H281.232L289.512 198.44H289.632L304.812 178.1H310.752L291.312 203.24L287.892 221H282.612Z" fill="white"/>
</svg>
