<svg width="1104" height="425" viewBox="0 0 1104 425" fill="none" xmlns="http://www.w3.org/2000/svg">
<path fill-rule="evenodd" clip-rule="evenodd" d="M193.328 89.7715C154.502 90.1143 123.173 113.812 123.173 143L115.778 143C115.778 119.459 134.235 99.1528 160.894 89.7687L-0.000126724 89.7687L-0.000127209 84.2253L160.879 84.2253C134.229 74.8389 115.778 54.5355 115.778 30.9993L123.173 30.9993C123.173 60.187 154.502 83.885 193.329 84.2277C193.613 84.2255 193.897 84.2243 194.182 84.2243L194.182 84.2315L194.182 89.7677L194.182 89.7749C193.897 89.7749 193.613 89.7738 193.328 89.7715Z" fill="white"/>
<path d="M247.775 108V2.18H261.095V95.716H316.595V108H247.775ZM326.024 108V2.18H400.764V13.872H339.344V47.32H395.14V58.568H339.344V95.716H402.54V108H326.024ZM407.731 13.872V2.18H491.499V13.872H456.275V108H442.955V13.872H407.731ZM498.768 33.852V2.18H509.72V33.852H498.768ZM560.662 110.072C530.914 110.072 516.706 93.496 515.522 72.184H528.546C530.322 90.092 541.274 99.416 561.254 99.416C575.906 99.416 586.414 92.756 586.414 79.584C586.414 65.08 573.686 61.676 554.742 57.532C536.094 53.388 520.11 48.06 520.11 28.08C520.11 10.616 534.614 0.107995 556.074 0.107995C582.566 0.107995 593.518 13.576 596.182 33.112H583.602C581.678 18.016 571.91 10.468 556.37 10.468C542.014 10.468 532.542 16.536 532.542 27.488C532.542 39.476 544.382 43.028 560.218 46.136C580.79 50.28 599.586 55.312 599.586 79.14C599.586 98.972 583.454 110.072 560.662 110.072ZM634.389 13.724L636.609 2.18H716.973L714.753 13.724H681.009L662.805 108H649.781L667.985 13.724H634.389ZM746.747 109.628C721.587 109.628 705.159 97.64 710.635 69.372L723.659 2.18H736.831L723.807 69.372C719.959 88.612 727.063 98.38 747.339 98.38C763.323 98.38 772.203 91.128 775.459 74.7L789.519 2.18H802.543L788.039 76.92C783.599 99.86 767.763 109.628 746.747 109.628ZM796.123 108L816.547 2.18H856.655C865.091 2.18 872.639 4.25199 877.967 8.248C884.479 13.132 887.735 20.828 887.735 29.856C887.735 44.36 879.003 53.832 867.163 57.828V58.272C876.487 62.564 878.411 69.076 877.375 84.764C876.191 101.784 878.411 106.076 880.187 107.408V108H866.867C864.943 105.336 863.463 101.192 864.647 84.32C865.683 68.78 861.539 63.156 847.479 63.156H817.731L809.147 108H796.123ZM827.351 13.576L819.803 52.5H849.551C864.499 52.5 874.119 44.656 874.119 30.152C874.119 19.2 867.311 13.576 854.731 13.576H827.351ZM888.247 108L908.671 2.18H922.435L954.255 76.032C956.919 82.1 959.139 89.648 959.139 89.648H959.435L976.307 2.18H988.591L968.167 108H954.699L922.731 34C920.215 28.376 917.699 20.828 917.699 20.828H917.403L900.531 108H888.247Z" fill="white"/>
<path d="M38.3325 267L1.48049 161.18H15.8365L41.8845 239.916C43.5125 244.8 46.0285 254.124 46.0285 254.124H46.3245C46.3245 254.124 48.8405 244.652 50.4685 239.916L76.2205 161.18H90.1325L52.9845 267H38.3325ZM98.1453 267V161.18H111.465V267H98.1453ZM166.305 269.072C136.557 269.072 122.349 252.496 121.165 231.184H134.189C135.965 249.092 146.917 258.416 166.897 258.416C181.549 258.416 192.057 251.756 192.057 238.584C192.057 224.08 179.329 220.676 160.385 216.532C141.737 212.388 125.753 207.06 125.753 187.08C125.753 169.616 140.257 159.108 161.717 159.108C188.209 159.108 199.161 172.576 201.825 192.112H189.245C187.321 177.016 177.553 169.468 162.013 169.468C147.657 169.468 138.185 175.536 138.185 186.488C138.185 198.476 150.025 202.028 165.861 205.136C186.433 209.28 205.229 214.312 205.229 238.14C205.229 257.972 189.097 269.072 166.305 269.072ZM217.066 267V161.18H230.386V267H217.066ZM294.549 269.22C262.581 269.22 242.749 245.688 242.749 214.016C242.749 182.344 262.581 158.812 294.549 158.812C326.517 158.812 346.349 182.344 346.349 214.016C346.349 245.688 326.517 269.22 294.549 269.22ZM294.549 257.528C319.413 257.528 332.733 238.88 332.733 214.016C332.733 189.152 319.413 170.356 294.549 170.356C269.685 170.356 256.365 189.152 256.365 214.016C256.365 238.88 269.685 257.528 294.549 257.528ZM358.526 267V161.18H372.586L420.834 234.736C424.386 240.212 428.53 248.352 428.53 248.352H428.826V161.18H441.258V267H427.642L379.098 193.296C375.694 188.116 371.254 180.124 371.254 180.124H370.958V267H358.526ZM495.923 269.072C466.175 269.072 451.967 252.496 450.783 231.184H463.807C465.583 249.092 476.535 258.416 496.515 258.416C511.167 258.416 521.675 251.756 521.675 238.584C521.675 224.08 508.947 220.676 490.003 216.532C471.355 212.388 455.371 207.06 455.371 187.08C455.371 169.616 469.875 159.108 491.335 159.108C517.827 159.108 528.779 172.576 531.443 192.112H518.863C516.939 177.016 507.171 169.468 491.631 169.468C477.275 169.468 467.803 175.536 467.803 186.488C467.803 198.476 479.643 202.028 495.479 205.136C516.051 209.28 534.847 214.312 534.847 238.14C534.847 257.972 518.715 269.072 495.923 269.072ZM566.542 267V161.18H579.862V267H566.542ZM596.222 267V161.18H610.282L658.53 234.736C662.082 240.212 666.226 248.352 666.226 248.352H666.522V161.18H678.954V267H665.338L616.794 193.296C613.39 188.116 608.95 180.124 608.95 180.124H608.654V267H596.222ZM688.479 172.872V161.18H772.247V172.872H737.023V267H723.703V172.872H688.479ZM822.927 269.22C790.959 269.22 771.127 245.688 771.127 214.016C771.127 182.344 790.959 158.812 822.927 158.812C854.895 158.812 874.727 182.344 874.727 214.016C874.727 245.688 854.895 269.22 822.927 269.22ZM822.927 257.528C847.791 257.528 861.111 238.88 861.111 214.016C861.111 189.152 847.791 170.356 822.927 170.356C798.063 170.356 784.743 189.152 784.743 214.016C784.743 238.88 798.063 257.528 822.927 257.528Z" fill="white"/>
<path d="M594.08 422L576.32 316.18H589.788L601.776 394.916C602.516 399.8 603.404 409.124 603.404 409.124H603.7C603.7 409.124 607.992 399.652 610.508 394.916L649.58 316.18H663.492L608.436 422H594.08ZM650.273 422L670.697 316.18H683.721L663.297 422H650.273ZM719.779 424.072C698.171 424.072 677.747 414.304 678.487 386.184H691.067C691.067 405.424 702.167 413.268 720.075 413.268C736.207 413.268 746.567 405.72 746.567 391.956C746.567 381.004 737.391 377.452 720.075 371.088C702.167 364.576 690.919 357.916 690.919 342.968C690.919 325.208 705.867 314.108 725.699 314.108C747.159 314.108 762.847 323.284 764.031 347.112H751.599C750.859 331.424 741.683 324.764 725.699 324.764C713.859 324.764 703.203 328.76 703.203 341.784C703.203 350.664 711.787 354.512 725.551 359.544C745.383 366.796 759.443 372.42 759.443 390.476C759.443 410.308 744.643 424.072 719.779 424.072ZM805.719 423.628C780.559 423.628 764.131 411.64 769.607 383.372L782.631 316.18H795.803L782.779 383.372C778.931 402.612 786.035 412.38 806.311 412.38C822.295 412.38 831.175 405.128 834.431 388.7L848.491 316.18H861.515L847.011 390.92C842.571 413.86 826.735 423.628 805.719 423.628ZM923.637 422L918.309 389.736H876.573L859.849 422H846.233L902.917 316.18H917.569L937.549 422H923.637ZM900.845 343.412L882.197 379.08H916.533L910.613 343.412C909.577 337.492 908.541 328.464 908.541 328.464H908.245C908.245 328.464 904.249 337.048 900.845 343.412ZM945.052 422L965.476 316.18H978.5L960.444 409.864H1013.58L1011.21 422H945.052ZM1057.06 424.072C1035.45 424.072 1015.02 414.304 1015.76 386.184H1028.34C1028.34 405.424 1039.44 413.268 1057.35 413.268C1073.48 413.268 1083.84 405.72 1083.84 391.956C1083.84 381.004 1074.67 377.452 1057.35 371.088C1039.44 364.576 1028.2 357.916 1028.2 342.968C1028.2 325.208 1043.14 314.108 1062.98 314.108C1084.44 314.108 1100.12 323.284 1101.31 347.112H1088.88C1088.14 331.424 1078.96 324.764 1062.98 324.764C1051.14 324.764 1040.48 328.76 1040.48 341.784C1040.48 350.664 1049.06 354.512 1062.83 359.544C1082.66 366.796 1096.72 372.42 1096.72 390.476C1096.72 410.308 1081.92 424.072 1057.06 424.072Z" fill="white"/>
</svg>
