<svg width="343" height="214" viewBox="0 0 343 214" fill="none" xmlns="http://www.w3.org/2000/svg">
<path fill-rule="evenodd" clip-rule="evenodd" d="M103.476 25.5201L103.476 23.1132L103.476 23.1101C103.352 23.1101 103.228 23.1106 103.104 23.1116C86.2463 22.9625 72.6436 12.673 72.6436 2.69542e-06L69.4329 2.97611e-06C69.4329 10.2193 77.4441 19.035 89.0157 23.1105L19.1627 23.1105L19.1627 25.5174L89.022 25.5174C77.447 29.592 69.4329 38.409 69.4329 48.6302L72.6436 48.6302C72.6436 35.9572 86.2463 25.6677 103.104 25.5186C103.228 25.5196 103.352 25.5201 103.476 25.5201Z" fill="white"/>
<path d="M126.488 45.7905V4.68795H131.662V41.0191H153.219V45.7905H126.488ZM156.882 45.7905V4.68795H185.912V9.22935H162.056V22.2212H183.728V26.5901H162.056V41.0191H186.602V45.7905H156.882ZM188.618 9.22935V4.68795H221.155V9.22935H207.474V45.7905H202.3V9.22935H188.618ZM228.865 4.68795V10.4366C228.865 14.5755 226.738 16.3576 224.036 16.76V14.5755C225.358 14.0582 226.221 12.9085 226.221 10.4366H223.979V4.68795H228.865ZM247.795 46.5953C236.24 46.5953 230.722 40.1568 230.262 31.8788H235.321C236.01 38.8347 240.264 42.4563 248.025 42.4563C253.716 42.4563 257.798 39.8694 257.798 34.7531C257.798 29.1195 252.854 27.7973 245.496 26.1877C238.252 24.5781 232.044 22.5086 232.044 14.748C232.044 7.96465 237.678 3.88315 246.013 3.88315C256.303 3.88315 260.557 9.11438 261.592 16.7025H256.705C255.958 10.839 252.164 7.90717 246.128 7.90717C240.552 7.90717 236.873 10.2641 236.873 14.5181C236.873 19.1744 241.472 20.5541 247.623 21.7613C255.613 23.3709 262.914 25.3254 262.914 34.5807C262.914 42.2838 256.648 46.5953 247.795 46.5953Z" fill="white"/>
<path d="M30.0839 64.7417L30.9462 60.2578H62.1611L61.2988 64.7417H48.192L41.1212 101.36H36.0624L43.1332 64.7417H30.0839ZM73.7257 101.993C63.9531 101.993 57.5721 97.3363 59.6991 86.3564L64.7579 60.2578H69.8741L64.8153 86.3564C63.3207 93.8296 66.08 97.6237 73.9556 97.6237C80.1641 97.6237 83.6133 94.8069 84.878 88.4259L90.3391 60.2578H95.3979L89.7643 89.2882C88.0397 98.1986 81.8887 101.993 73.7257 101.993ZM92.9045 101.36L100.838 60.2578H116.416C119.693 60.2578 122.625 61.0626 124.694 62.6147C127.224 64.5117 128.488 67.501 128.488 71.0077C128.488 76.6413 125.097 80.3204 120.498 81.8725V82.045C124.119 83.7121 124.867 86.2415 124.464 92.335C124.004 98.9459 124.867 100.613 125.557 101.13V101.36H120.383C119.635 100.326 119.061 98.7159 119.521 92.1625C119.923 86.1265 118.313 83.942 112.852 83.942H101.297L97.9632 101.36H92.9045ZM105.034 64.6842L102.102 79.803H113.657C119.463 79.803 123.2 76.7563 123.2 71.1226C123.2 66.8687 120.555 64.6842 115.669 64.6842H105.034ZM128.687 101.36L136.62 60.2578H141.967L154.326 88.9433C155.361 91.3002 156.223 94.232 156.223 94.232H156.338L162.891 60.2578H167.663L159.73 101.36H154.499L142.082 72.6173C141.104 70.4328 140.127 67.501 140.127 67.501H140.012L133.459 101.36H128.687Z" fill="white"/>
<path d="M102.076 156.93L87.7624 115.828H93.3385L103.456 146.41C104.088 148.307 105.066 151.929 105.066 151.929H105.181C105.181 151.929 106.158 148.25 106.79 146.41L116.793 115.828H122.196L107.768 156.93H102.076ZM125.309 156.93V115.828H130.483V156.93H125.309ZM151.783 157.735C140.229 157.735 134.71 151.297 134.25 143.019H139.309C139.999 149.974 144.253 153.596 152.013 153.596C157.704 153.596 161.786 151.009 161.786 145.893C161.786 140.259 156.842 138.937 149.484 137.327C142.241 135.718 136.032 133.648 136.032 125.888C136.032 119.104 141.666 115.023 150.001 115.023C160.291 115.023 164.545 120.254 165.58 127.842H160.694C159.946 121.979 156.152 119.047 150.116 119.047C144.54 119.047 140.861 121.404 140.861 125.658C140.861 130.314 145.46 131.694 151.611 132.901C159.601 134.511 166.902 136.465 166.902 145.72C166.902 153.424 160.636 157.735 151.783 157.735ZM171.5 156.93V115.828H176.673V156.93H171.5ZM201.596 157.792C189.179 157.792 181.476 148.652 181.476 136.35C181.476 124.048 189.179 114.908 201.596 114.908C214.013 114.908 221.716 124.048 221.716 136.35C221.716 148.652 214.013 157.792 201.596 157.792ZM201.596 153.251C211.254 153.251 216.427 146.008 216.427 136.35C216.427 126.693 211.254 119.392 201.596 119.392C191.938 119.392 186.765 126.693 186.765 136.35C186.765 146.008 191.938 153.251 201.596 153.251ZM226.446 156.93V115.828H231.907L250.647 144.398C252.027 146.525 253.637 149.687 253.637 149.687H253.751V115.828H258.58V156.93H253.292L234.436 128.302C233.114 126.29 231.389 123.186 231.389 123.186H231.274V156.93H226.446ZM279.813 157.735C268.259 157.735 262.74 151.297 262.28 143.019H267.339C268.029 149.974 272.283 153.596 280.043 153.596C285.734 153.596 289.816 151.009 289.816 145.893C289.816 140.259 284.872 138.937 277.514 137.327C270.271 135.718 264.062 133.648 264.062 125.888C264.062 119.104 269.696 115.023 278.031 115.023C288.321 115.023 292.575 120.254 293.61 127.842H288.724C287.976 121.979 284.182 119.047 278.146 119.047C272.57 119.047 268.891 121.404 268.891 125.658C268.891 130.314 273.49 131.694 279.641 132.901C287.631 134.511 294.932 136.465 294.932 145.72C294.932 153.424 288.666 157.735 279.813 157.735Z" fill="white"/>
<path d="M3.96654 212.5V171.397H9.14028V212.5H3.96654ZM15.4947 212.5V171.397H20.9559L39.6964 199.968C41.076 202.095 42.6856 205.257 42.6856 205.257H42.8006V171.397H47.6294V212.5H42.3407L23.4853 183.872C22.1631 181.86 20.4385 178.756 20.4385 178.756H20.3236V212.5H15.4947ZM51.3292 175.939V171.397H83.8663V175.939H70.1846V212.5H65.0109V175.939H51.3292ZM103.551 213.362C91.1342 213.362 83.4311 204.222 83.4311 191.92C83.4311 179.618 91.1342 170.478 103.551 170.478C115.968 170.478 123.671 179.618 123.671 191.92C123.671 204.222 115.968 213.362 103.551 213.362ZM103.551 208.821C113.209 208.821 118.383 201.578 118.383 191.92C118.383 182.262 113.209 174.962 103.551 174.962C93.8936 174.962 88.7198 182.262 88.7198 191.92C88.7198 201.578 93.8936 208.821 103.551 208.821ZM144.335 212.5L137.437 171.397H142.668L147.324 201.98C147.612 203.877 147.956 207.499 147.956 207.499H148.071C148.071 207.499 149.739 203.82 150.716 201.98L165.892 171.397H171.296L149.911 212.5H144.335ZM166.161 212.5L174.094 171.397H179.153L171.22 212.5H166.161ZM193.158 213.305C184.766 213.305 176.832 209.511 177.12 198.588H182.006C182.006 206.062 186.318 209.108 193.273 209.108C199.539 209.108 203.563 206.177 203.563 200.83C203.563 196.576 199.999 195.197 193.273 192.725C186.318 190.195 181.949 187.609 181.949 181.802C181.949 174.904 187.755 170.593 195.458 170.593C203.793 170.593 209.887 174.157 210.347 183.412H205.518C205.231 177.319 201.666 174.732 195.458 174.732C190.859 174.732 186.72 176.284 186.72 181.343C186.72 184.792 190.054 186.286 195.4 188.241C203.104 191.058 208.565 193.242 208.565 200.255C208.565 207.959 202.816 213.305 193.158 213.305ZM226.539 213.132C216.767 213.132 210.386 208.476 212.513 197.496L217.572 171.397H222.688L217.629 197.496C216.134 204.969 218.894 208.763 226.769 208.763C232.978 208.763 236.427 205.947 237.692 199.566L243.153 171.397H248.212L242.578 200.428C240.853 209.338 234.702 213.132 226.539 213.132ZM272.341 212.5L270.271 199.968H254.06L247.565 212.5H242.276L264.293 171.397H269.984L277.745 212.5H272.341ZM263.488 181.975L256.245 195.829H269.582L267.282 181.975C266.88 179.675 266.477 176.169 266.477 176.169H266.362C266.362 176.169 264.81 179.503 263.488 181.975ZM280.659 212.5L288.592 171.397H293.651L286.637 207.786H307.275L306.355 212.5H280.659ZM324.164 213.305C315.771 213.305 307.838 209.511 308.125 198.588H313.011C313.011 206.062 317.323 209.108 324.279 209.108C330.545 209.108 334.569 206.177 334.569 200.83C334.569 196.576 331.005 195.197 324.279 192.725C317.323 190.195 312.954 187.609 312.954 181.802C312.954 174.904 318.76 170.593 326.463 170.593C334.799 170.593 340.892 174.157 341.352 183.412H336.523C336.236 177.319 332.672 174.732 326.463 174.732C321.864 174.732 317.725 176.284 317.725 181.343C317.725 184.792 321.06 186.286 326.406 188.241C334.109 191.058 339.57 193.242 339.57 200.255C339.57 207.959 333.821 213.305 324.164 213.305Z" fill="white"/>
</svg>
