<svg width="25" height="24" viewBox="0 0 25 24" fill="none" xmlns="http://www.w3.org/2000/svg">
<path d="M9.98582 17.4613C9.88321 17.4127 9.759 17.4559 9.71039 17.5597L6.82754 23.6261C6.77894 23.7287 6.82214 23.853 6.92583 23.9016C6.955 23.9156 6.98524 23.9221 7.0144 23.9221C7.09217 23.9221 7.16562 23.8789 7.20126 23.8043L10.0841 17.7379C10.1327 17.6353 10.0895 17.511 9.98582 17.4624V17.4613Z" fill="#111111"/>
<path d="M7.19897 13.9412C7.17305 13.8299 7.0618 13.7608 6.95054 13.7867L0.410391 15.3144C0.299138 15.3403 0.23001 15.4516 0.255933 15.5629C0.278616 15.6579 0.362865 15.7228 0.456836 15.7228C0.471958 15.7228 0.48816 15.7206 0.504362 15.7174L7.04451 14.1897C7.15577 14.1638 7.2249 14.0525 7.19897 13.9412Z" fill="#111111"/>
<path d="M6.01493 17.512L4.23164 18.9652C3.76071 18.3526 3.35782 17.6871 3.03811 16.9826C2.99058 16.8789 2.86853 16.8325 2.76484 16.88C2.66114 16.9275 2.6147 17.0496 2.66222 17.1544C3.37835 18.7329 4.48871 20.1244 5.87127 21.18C5.90908 21.2081 5.95336 21.2221 5.99657 21.2221C6.05922 21.2221 6.12078 21.194 6.16075 21.1411C6.22987 21.0503 6.21259 20.9207 6.12186 20.8515C5.52023 20.3924 4.97369 19.8673 4.49087 19.2893L6.2774 17.834C6.36597 17.7616 6.37893 17.632 6.30764 17.5434C6.23528 17.4548 6.10566 17.4418 6.01709 17.5131L6.01493 17.512Z" fill="#111111"/>
<path d="M7.9225 9.59874C7.96031 9.62899 8.00567 9.64304 8.04996 9.64304C8.11153 9.64304 8.17201 9.61603 8.21198 9.56417C8.28327 9.4745 8.26706 9.34485 8.17741 9.27354L2.90641 5.11294C2.81676 5.04163 2.68714 5.05783 2.61585 5.14751C2.54457 5.23718 2.56077 5.36683 2.65042 5.43813L7.9225 9.59982V9.59874Z" fill="#111111"/>
<path d="M12.2638 7.63062C12.3783 7.63062 12.4701 7.53662 12.4701 7.42318L12.4356 0.705275C12.4356 0.591834 12.3427 0.5 12.2293 0.5H12.2282C12.1137 0.5 12.0219 0.593995 12.023 0.707436L12.0575 7.42534C12.0575 7.53878 12.1504 7.63062 12.2638 7.63062Z" fill="#111111"/>
<path d="M16.3023 9.59372C16.3434 9.6445 16.4028 9.67043 16.4633 9.67043C16.5086 9.67043 16.5551 9.6553 16.5929 9.62505L21.8218 5.41043C21.9103 5.33912 21.9244 5.20839 21.8531 5.1198C21.7818 5.03121 21.6511 5.01716 21.5625 5.08847L16.3336 9.3031C16.2451 9.3744 16.231 9.50513 16.3023 9.59372Z" fill="#111111"/>
<path d="M24.0878 15.2793L17.5325 13.8175C17.4213 13.7926 17.3111 13.8629 17.2862 13.9742C17.2614 14.0854 17.3316 14.1967 17.4429 14.2205L23.9981 15.6823C24.0133 15.6855 24.0284 15.6877 24.0435 15.6877C24.1386 15.6877 24.2239 15.6218 24.2455 15.5256C24.2703 15.4143 24.2001 15.303 24.0889 15.2793H24.0878Z" fill="#111111"/>
<path d="M14.7508 17.5715C14.7011 17.4688 14.5769 17.4256 14.4743 17.4764C14.3717 17.5261 14.3295 17.6503 14.3792 17.753L17.3237 23.7902C17.3593 23.8637 17.4327 23.9069 17.5094 23.9069C17.5397 23.9069 17.571 23.9004 17.6002 23.8853C17.7028 23.8356 17.746 23.7114 17.6952 23.6087L14.7508 17.5715Z" fill="#111111"/>
<path d="M9.19189 12.5749C9.19189 14.2603 10.5626 15.6303 12.2465 15.6303C13.9304 15.6303 15.3011 14.2592 15.3011 12.5749C15.3011 10.8906 13.9304 9.51953 12.2465 9.51953C10.5626 9.51953 9.19189 10.8906 9.19189 12.5749Z" fill="#111111"/>
<path d="M14.238 2.89334C14.9909 3.04351 15.7253 3.28336 16.4231 3.601L15.4445 5.68832C15.3959 5.79204 15.4402 5.91521 15.5439 5.96382C15.572 5.97679 15.6022 5.98327 15.6314 5.98327C15.7091 5.98327 15.7837 5.93898 15.8193 5.86443L16.7968 3.78034C17.4795 4.12499 18.1254 4.54742 18.7162 5.04009C18.7551 5.0725 18.8015 5.08762 18.848 5.08762C18.9074 5.08762 18.9657 5.06277 19.0068 5.01308C19.0802 4.92556 19.0683 4.79484 18.9798 4.72137C17.6372 3.601 16.0245 2.82851 14.3179 2.48819C14.2056 2.46658 14.0965 2.53897 14.0749 2.65025C14.0522 2.76261 14.1257 2.87173 14.2369 2.89334H14.238Z" fill="#111111"/>
<path d="M5.60665 5.1161C5.65418 5.1161 5.70063 5.0999 5.73951 5.06749C6.32818 4.57158 6.97193 4.14699 7.65349 3.79802L8.67529 5.86482C8.71093 5.9372 8.78438 5.98042 8.86107 5.98042C8.89239 5.98042 8.92264 5.97394 8.95288 5.95881C9.05549 5.90803 9.09762 5.78379 9.04685 5.68223L8.02721 3.61759C8.71849 3.29888 9.44542 3.05795 10.1918 2.90345C10.3041 2.88076 10.3754 2.77056 10.3527 2.65928C10.33 2.548 10.2199 2.47561 10.1086 2.4983C8.41066 2.84943 6.80883 3.62732 5.47488 4.74985C5.38739 4.82332 5.37659 4.95404 5.45004 5.04156C5.49108 5.09017 5.54941 5.11502 5.60881 5.11502L5.60665 5.1161Z" fill="#111111"/>
<path d="M1.93415 13.2793H1.93955C2.05405 13.2761 2.1437 13.181 2.14154 13.0675C2.13938 12.98 2.1383 12.8925 2.1383 12.805C2.1383 12.1157 2.20959 11.4405 2.34352 10.7803L4.59558 11.2698C4.6107 11.273 4.62474 11.2741 4.63986 11.2741C4.73492 11.2741 4.82024 11.2082 4.84185 11.1109C4.86669 10.9997 4.7954 10.8895 4.68415 10.8646L2.43209 10.3752C2.61571 9.63079 2.88358 8.90909 3.23786 8.21439C3.28971 8.11284 3.24974 7.98859 3.14713 7.93673C3.0456 7.88487 2.92031 7.92485 2.86846 8.02749C2.10913 9.51519 1.72461 11.1228 1.72461 12.805C1.72461 12.8958 1.72569 12.9865 1.72785 13.0773C1.73109 13.1896 1.8229 13.2793 1.93415 13.2793Z" fill="#111111"/>
<path d="M14.7588 22.6C14.0168 22.7902 13.2477 22.8928 12.4765 22.9101L12.4528 20.6067C12.4517 20.4922 12.3653 20.3982 12.2443 20.4025C12.1298 20.4025 12.038 20.4976 12.0402 20.611L12.0639 22.9112C11.2862 22.8971 10.5096 22.7966 9.76002 22.6076C9.64985 22.5795 9.53643 22.6465 9.50835 22.7578C9.48027 22.868 9.54723 22.9814 9.65849 23.0095C10.4999 23.2223 11.3705 23.3304 12.2465 23.3304C13.1224 23.3304 14.0114 23.2202 14.8614 23.003C14.9716 22.9749 15.0386 22.8626 15.0105 22.7513C14.9824 22.6411 14.8701 22.573 14.7588 22.6022V22.6Z" fill="#111111"/>
<path d="M21.7309 16.8741C21.6272 16.8266 21.504 16.8731 21.4576 16.9768C21.1433 17.6693 20.7512 18.323 20.291 18.9269L18.4754 17.5083C18.3857 17.4381 18.255 17.4543 18.1848 17.544C18.1146 17.6337 18.1308 17.7644 18.2205 17.8346L20.0329 19.251C19.5317 19.8571 18.9603 20.406 18.3285 20.8824C18.2377 20.9516 18.2194 21.0812 18.2874 21.172C18.3285 21.226 18.39 21.2541 18.4527 21.2541C18.4959 21.2541 18.5402 21.2411 18.5769 21.213C19.9821 20.1521 21.1087 18.7465 21.8324 17.1486C21.8799 17.0448 21.8335 16.9217 21.7298 16.8752L21.7309 16.8741Z" fill="#111111"/>
<path d="M22.5542 13.2545H22.5596C22.6719 13.2545 22.7637 13.1648 22.7659 13.0525C22.768 12.9703 22.7691 12.8882 22.7691 12.8061C22.7691 11.1218 22.3824 9.51092 21.621 8.02105C21.5691 7.91949 21.4438 7.87844 21.3423 7.93138C21.2407 7.98324 21.2008 8.10856 21.2526 8.21012C21.6015 8.89293 21.8661 9.60167 22.0498 10.332L19.8063 10.8679C19.6951 10.8949 19.627 11.0062 19.653 11.1175C19.6756 11.2125 19.7599 11.2763 19.8539 11.2763C19.8701 11.2763 19.8863 11.2741 19.9025 11.2709L22.1405 10.7361C22.2809 11.4103 22.3554 12.1017 22.3554 12.8072C22.3554 12.8861 22.3554 12.966 22.3522 13.0449C22.35 13.1594 22.4397 13.2534 22.5542 13.2567V13.2545Z" fill="#111111"/>
</svg>
