<svg width="25" height="24" viewBox="0 0 25 24" fill="none" xmlns="http://www.w3.org/2000/svg">
<g clip-path="url(#clip0_1462_275)">
<path d="M13.0195 7.46V2.84307C13.0195 2.72638 12.9249 2.63281 12.8093 2.63281C12.6938 2.63281 12.5991 2.72748 12.5991 2.84307V7.46C12.5991 7.57669 12.6938 7.67027 12.8093 7.67027C12.9249 7.67027 13.0195 7.57559 13.0195 7.46Z" fill="#111111"/>
<path d="M10.363 2.48812L12.803 0.993175L15.255 2.50464C15.2892 2.52555 15.3277 2.53656 15.3651 2.53656C15.4355 2.53656 15.5049 2.50133 15.5445 2.43638C15.605 2.33731 15.5742 2.20741 15.4752 2.14686L12.803 0.5L10.1418 2.12924C10.0428 2.18979 10.0109 2.31969 10.0725 2.41877C10.133 2.51784 10.2629 2.54977 10.3619 2.48812H10.363Z" fill="#111111"/>
<path d="M12.8084 18.543C12.6917 18.543 12.5981 18.6376 12.5981 18.7532V20.6092C12.5981 20.7259 12.6928 20.8195 12.8084 20.8195C12.9239 20.8195 13.0186 20.7248 13.0186 20.6092V18.7532C13.0186 18.6365 12.9239 18.543 12.8084 18.543Z" fill="#111111"/>
<path d="M16.9731 9.72189C17.0193 9.72189 17.0655 9.70648 17.104 9.67565L20.7128 6.79695C20.8041 6.7243 20.8184 6.5922 20.7458 6.50083C20.6732 6.41056 20.5411 6.39515 20.4497 6.4678L16.841 9.3465C16.7497 9.41916 16.7353 9.55126 16.808 9.64263C16.8498 9.69437 16.9114 9.72189 16.9731 9.72189Z" fill="#111111"/>
<path d="M19.3335 4.49929L22.0233 5.47573L22.371 8.33572C22.3842 8.4425 22.4745 8.52066 22.5801 8.52066C22.5889 8.52066 22.5966 8.52066 22.6054 8.51846C22.721 8.50415 22.8035 8.39957 22.7892 8.28398L22.4106 5.1675L19.4776 4.10298C19.3687 4.06225 19.2476 4.1195 19.208 4.22958C19.1684 4.33966 19.2245 4.45966 19.3346 4.49929H19.3335Z" fill="#111111"/>
<path d="M6.69474 17.9224C6.74097 17.9224 6.78719 17.907 6.82571 17.8762L8.27625 16.7192C8.3676 16.6465 8.38191 16.5144 8.30927 16.423C8.23664 16.3317 8.10457 16.3174 8.01322 16.39L6.56268 17.547C6.47133 17.6197 6.45702 17.7518 6.52966 17.8431C6.57148 17.8949 6.63311 17.9224 6.69474 17.9224Z" fill="#111111"/>
<path d="M22.4644 15.2843C22.5602 15.2843 22.6471 15.2182 22.6691 15.1203C22.6956 15.0069 22.624 14.8935 22.5107 14.8682L18.0104 13.8411C17.8971 13.8158 17.7837 13.8862 17.7584 13.9996C17.732 14.113 17.8035 14.2264 17.9169 14.2517L22.4171 15.2788C22.4325 15.2821 22.449 15.2843 22.4644 15.2843Z" fill="#111111"/>
<path d="M23.7543 12.6335C23.7169 12.5235 23.598 12.464 23.4869 12.5014C23.3768 12.5389 23.3174 12.6578 23.3548 12.7678L24.2683 15.4803L22.2499 17.5356C22.1684 17.6181 22.1695 17.7525 22.2521 17.8339C22.2928 17.8746 22.3467 17.8945 22.3995 17.8945C22.4524 17.8945 22.5085 17.8735 22.5503 17.8317L24.7503 15.5926L23.7543 12.6357V12.6335Z" fill="#111111"/>
<path d="M6.91031 11.7387C6.92572 11.742 6.94222 11.7442 6.95763 11.7442C7.05338 11.7442 7.14032 11.6782 7.16234 11.5802C7.18875 11.4668 7.11721 11.3534 7.00385 11.3281L5.19453 10.9153C5.08117 10.89 4.96781 10.9604 4.9425 11.0738C4.91609 11.1872 4.98762 11.3006 5.10098 11.3259L6.91031 11.7387Z" fill="#111111"/>
<path d="M16.8507 21.9026C16.887 21.9775 16.9619 22.0215 17.0411 22.0215C17.0719 22.0215 17.1027 22.0149 17.1324 22.0006C17.237 21.9499 17.281 21.8244 17.2304 21.7199L15.2274 17.5609C15.1767 17.4563 15.0513 17.4112 14.9456 17.4629C14.8411 17.5135 14.797 17.639 14.8477 17.7436L16.8507 21.9026Z" fill="#111111"/>
<path d="M19.6904 21.0063C19.5924 20.9435 19.4625 20.971 19.3987 21.069L17.848 23.4743L14.9832 23.1771C14.8655 23.1639 14.7642 23.2487 14.7521 23.3654C14.74 23.482 14.8248 23.5844 14.9403 23.5965L18.0626 23.9213L19.7531 21.298C19.8158 21.2 19.7883 21.0701 19.6904 21.0063Z" fill="#111111"/>
<path d="M9.9487 7.56814C9.98502 7.643 10.0599 7.68703 10.1391 7.68703C10.1699 7.68703 10.2007 7.68043 10.2304 7.66612C10.335 7.61548 10.379 7.48998 10.3284 7.3854L9.52278 5.71323C9.47215 5.60865 9.34669 5.56351 9.24104 5.61525C9.13648 5.66589 9.09246 5.79138 9.14308 5.89596L9.9487 7.56814Z" fill="#111111"/>
<path d="M8.30256 21.9602C8.33227 21.9745 8.36309 21.9811 8.3939 21.9811C8.47204 21.9811 8.54799 21.9371 8.5843 21.8622L10.5873 17.7032C10.638 17.5986 10.5939 17.472 10.4894 17.4214C10.3848 17.3708 10.2583 17.4148 10.2076 17.5194L8.20461 21.6784C8.15398 21.7829 8.19801 21.9095 8.30256 21.9591V21.9602Z" fill="#111111"/>
<path d="M10.4441 23.1501L7.59691 23.4374L6.04292 21.0112C5.98019 20.9132 5.85032 20.8846 5.75237 20.9473C5.65442 21.0101 5.6258 21.14 5.68854 21.2391L7.3812 23.8833L10.4859 23.5695C10.6015 23.5574 10.6862 23.4551 10.6741 23.3384C10.662 23.2228 10.5585 23.1369 10.443 23.1501H10.4441Z" fill="#111111"/>
<path d="M15.2039 7.62377C15.2336 7.63808 15.2645 7.64469 15.2953 7.64469C15.3734 7.64469 15.4493 7.60065 15.4857 7.52579L16.2913 5.85362C16.3419 5.74904 16.2979 5.62244 16.1933 5.5718C16.0888 5.52116 15.9622 5.5652 15.9116 5.66978L15.106 7.34196C15.0553 7.44654 15.0994 7.57313 15.2039 7.62377Z" fill="#111111"/>
<path d="M2.83068 15.0304C2.85269 15.1284 2.93964 15.1945 3.03539 15.1945C3.05079 15.1945 3.06621 15.1922 3.08271 15.1889L7.58292 14.1619C7.69628 14.1354 7.76781 14.0232 7.7414 13.9098C7.71499 13.7964 7.60273 13.7259 7.48937 13.7512L2.98917 14.7783C2.87581 14.8048 2.80427 14.917 2.83068 15.0304Z" fill="#111111"/>
<path d="M1.23363 15.3992L2.16141 12.6713C2.19883 12.5612 2.1405 12.4412 2.02934 12.4038C1.91929 12.3664 1.79933 12.4258 1.76191 12.5359L0.750488 15.5082L2.93071 17.7407C2.97143 17.7825 3.02645 17.8045 3.08148 17.8045C3.13651 17.8045 3.18824 17.7847 3.22896 17.7451C3.3126 17.6636 3.3137 17.5304 3.23226 17.4467L1.23253 15.3992H1.23363Z" fill="#111111"/>
<path d="M18.5432 11.6505C18.5586 11.6505 18.574 11.6483 18.5905 11.645L20.3999 11.2322C20.5132 11.2057 20.5847 11.0935 20.5583 10.9801C20.533 10.8667 20.4197 10.7962 20.3063 10.8216L18.497 11.2344C18.3836 11.2608 18.3121 11.3731 18.3385 11.4865C18.3605 11.5844 18.4475 11.6505 18.5432 11.6505Z" fill="#111111"/>
<path d="M4.83596 6.42661C4.76332 6.51798 4.77873 6.65008 4.86897 6.72274L8.47772 9.60144C8.51624 9.63226 8.56247 9.64768 8.60869 9.64768C8.67032 9.64768 8.73195 9.62015 8.77378 9.56841C8.84641 9.47704 8.831 9.34494 8.74076 9.27229L5.13201 6.39358C5.04066 6.32093 4.90859 6.33634 4.83596 6.42661Z" fill="#111111"/>
<path d="M2.96264 8.4346C2.97145 8.4346 2.98025 8.4368 2.98906 8.4368C3.09361 8.4368 3.18496 8.35864 3.19816 8.25186L3.55144 5.41169L6.26213 4.43634C6.37109 4.39671 6.42832 4.27562 6.3887 4.16663C6.34908 4.05655 6.22802 4.00041 6.11906 4.04004L3.16515 5.10235L2.77995 8.19902C2.76564 8.31461 2.84708 8.42029 2.96264 8.4346Z" fill="#111111"/>
<path d="M18.756 17.8016C18.7946 17.8324 18.8408 17.8478 18.887 17.8478C18.9486 17.8478 19.0103 17.8203 19.0521 17.7686C19.1247 17.6772 19.1093 17.5451 19.0191 17.4724L17.5685 16.3155C17.4772 16.2428 17.3451 16.2582 17.2725 16.3485C17.1998 16.4399 17.2152 16.572 17.3055 16.6446L18.756 17.8016Z" fill="#111111"/>
<path d="M15.8468 12.6688C15.8468 10.9669 14.4623 9.58203 12.7608 9.58203C11.0593 9.58203 9.6748 10.9669 9.6748 12.6688C9.6748 14.3707 11.0593 15.7556 12.7608 15.7556C14.4623 15.7556 15.8468 14.3707 15.8468 12.6688Z" fill="#111111"/>
</g>
<defs>
<clipPath id="clip0_1462_275">
<rect width="24" height="24" fill="white" transform="translate(0.750488)"/>
</clipPath>
</defs>
</svg>
