<svg width="24" height="24" viewBox="0 0 24 24" fill="none" xmlns="http://www.w3.org/2000/svg">
<path d="M17.11 15.7079C17.0778 15.5724 16.9423 15.4891 16.8068 15.5202C16.6713 15.5524 16.588 15.6879 16.6202 15.8235L18.1719 22.3686C18.1997 22.4841 18.303 22.563 18.4174 22.563C18.4363 22.563 18.4563 22.5608 18.4763 22.5563C18.6118 22.5241 18.6951 22.3886 18.6629 22.253L17.1112 15.7079H17.11Z" fill="#111111"/>
<path d="M16.2329 20.5408C16.2018 20.4053 16.0674 20.3197 15.9319 20.3497C15.7964 20.3809 15.7109 20.5153 15.7409 20.6508L16.2296 22.8196C16.2562 22.9373 16.3595 23.0162 16.4751 23.0162C16.4939 23.0162 16.5117 23.014 16.5306 23.0096C16.6661 22.9784 16.7516 22.844 16.7216 22.7085L16.2329 20.5397V20.5408Z" fill="#111111"/>
<path d="M13.5172 17.5111C13.3928 17.4489 13.2417 17.4989 13.1784 17.6233L10.1605 23.6351C10.0983 23.7596 10.1483 23.9107 10.2727 23.974C10.3094 23.9918 10.3471 24.0006 10.386 24.0006C10.4782 24.0006 10.5671 23.9495 10.6115 23.8618L13.6294 17.85C13.6916 17.7255 13.6416 17.5744 13.5172 17.5111Z" fill="#111111"/>
<path d="M9.74295 20.649C9.61966 20.5857 9.46748 20.6335 9.40306 20.7579L8.38339 22.7333C8.32008 22.8566 8.36784 23.0089 8.49224 23.0733C8.5289 23.0922 8.56889 23.1011 8.60776 23.1011C8.69885 23.1011 8.7877 23.0511 8.83213 22.9644L9.85181 20.989C9.91512 20.8657 9.86735 20.7135 9.74295 20.649Z" fill="#111111"/>
<path d="M9.71769 16.9181C9.66216 16.7903 9.51442 16.7315 9.38669 16.7859L3.21202 19.4513C3.08429 19.5068 3.02542 19.6546 3.07984 19.7824C3.12094 19.8779 3.21425 19.9346 3.31199 19.9346C3.34532 19.9346 3.37975 19.9279 3.41196 19.9135L9.58663 17.2481C9.71436 17.1925 9.77323 17.0448 9.71881 16.917L9.71769 16.9181Z" fill="#111111"/>
<path d="M4.81068 16.897C4.75737 16.7693 4.60963 16.7082 4.48079 16.7615L2.43035 17.6192C2.3015 17.6725 2.24151 17.8203 2.29483 17.9492C2.33482 18.0458 2.42923 18.1036 2.52698 18.1036C2.55919 18.1036 2.59251 18.0969 2.62362 18.0836L4.67406 17.2259C4.8029 17.1726 4.86289 17.0248 4.80957 16.8959L4.81068 16.897Z" fill="#111111"/>
<path d="M6.9468 14.2034C7.05565 14.2034 7.15562 14.1323 7.18783 14.0234C7.22782 13.8901 7.15229 13.749 7.019 13.709L0.575535 11.7802C0.442244 11.7402 0.301177 11.8158 0.26119 11.9491C0.221203 12.0824 0.296736 12.2235 0.430026 12.2635L6.87349 14.1923C6.89793 14.2001 6.92236 14.2034 6.94569 14.2034H6.9468Z" fill="#111111"/>
<path d="M1.00676 10.3549L3.1283 11.016C3.15273 11.0238 3.17828 11.0271 3.20383 11.0271C3.31157 11.0271 3.41042 10.9582 3.44486 10.8493C3.48596 10.716 3.41154 10.5749 3.27936 10.5338L1.15783 9.87274C1.02454 9.83163 0.883467 9.90496 0.842369 10.0383C0.801271 10.1716 0.875697 10.3127 1.00788 10.3538L1.00676 10.3549Z" fill="#111111"/>
<path d="M6.76149 10.1077C6.81036 10.1811 6.89033 10.2211 6.97253 10.2211C7.02029 10.2211 7.06805 10.2077 7.11137 10.18C7.228 10.1033 7.26022 9.94663 7.18357 9.83109L3.48699 4.21149C3.41035 4.09483 3.25374 4.06261 3.13822 4.13927C3.02159 4.21593 2.98938 4.37259 3.06602 4.48814L6.7626 10.1077H6.76149Z" fill="#111111"/>
<path d="M5.93287 5.26387C5.98063 5.33831 6.06172 5.37942 6.14502 5.37942C6.19168 5.37942 6.23832 5.36609 6.28053 5.33942C6.39716 5.26387 6.43159 5.10833 6.35606 4.99056L5.15534 3.11958C5.07981 3.00292 4.9243 2.96848 4.80656 3.04403C4.68993 3.11958 4.6555 3.27513 4.73103 3.3929L5.93175 5.26387H5.93287Z" fill="#111111"/>
<path d="M9.52168 7.18443C9.53168 7.18443 9.54168 7.18665 9.55167 7.18665C9.6783 7.18665 9.78715 7.09221 9.80159 6.96333L10.5813 0.28159C10.598 0.143822 10.498 0.0182757 10.3603 0.0016102C10.2226 -0.0139442 10.0971 0.0849376 10.0804 0.222705L9.30064 6.90445C9.28398 7.04222 9.38395 7.16776 9.52168 7.18443Z" fill="#111111"/>
<path d="M11.9962 2.94573C12.0073 2.94684 12.0173 2.94795 12.0284 2.94795C12.1539 2.94795 12.2616 2.85462 12.2783 2.72797L12.5604 0.52257C12.5782 0.384802 12.4805 0.258145 12.3427 0.240368C12.2039 0.222592 12.0784 0.320362 12.0606 0.45813L11.7785 2.66353C11.7607 2.80129 11.8584 2.92795 11.9962 2.94573Z" fill="#111111"/>
<path d="M13.4767 6.52025C13.5389 6.52025 13.6011 6.49803 13.65 6.45137L18.5417 1.83392C18.6428 1.73837 18.6473 1.57839 18.5517 1.47728C18.4562 1.37618 18.2963 1.37173 18.1952 1.46728L13.3034 6.08473C13.2024 6.18028 13.1979 6.34027 13.2934 6.44137C13.3434 6.49359 13.4101 6.52025 13.4767 6.52025Z" fill="#111111"/>
<path d="M17.9134 4.78261C17.9634 4.83594 18.0311 4.86371 18.0989 4.86371C18.16 4.86371 18.2211 4.84149 18.27 4.79705L19.9028 3.28938C20.0049 3.19494 20.0116 3.03607 19.9172 2.93274C19.8228 2.83053 19.6628 2.82386 19.5606 2.9183L17.9278 4.42597C17.8256 4.5204 17.819 4.67928 17.9134 4.78261Z" fill="#111111"/>
<path d="M16.6598 8.29485C16.6676 8.42929 16.7787 8.53261 16.9109 8.53261C16.9153 8.53261 16.9209 8.53261 16.9253 8.53261L23.6398 8.14042C23.7786 8.13264 23.8853 8.01265 23.8764 7.87377C23.8686 7.73489 23.7486 7.62935 23.6098 7.63712L16.8953 8.02932C16.7565 8.03709 16.6498 8.15708 16.6587 8.29596L16.6598 8.29485Z" fill="#111111"/>
<path d="M23.7253 9.62898L21.5049 9.73342C21.366 9.74009 21.2583 9.85786 21.2649 9.99673C21.2716 10.1323 21.3827 10.2367 21.5171 10.2367C21.5215 10.2367 21.5249 10.2367 21.5293 10.2367L23.7497 10.1323C23.8885 10.1256 23.9963 10.0078 23.9896 9.86897C23.9829 9.73009 23.8652 9.62565 23.7264 9.62898H23.7253Z" fill="#111111"/>
<path d="M23.7966 15.8456L18.4017 11.8292C18.2895 11.7459 18.1318 11.7692 18.0485 11.8815C17.9652 11.9937 17.9885 12.1514 18.1007 12.2348L23.4956 16.2511C23.5411 16.2845 23.5933 16.3011 23.6455 16.3011C23.7222 16.3011 23.7988 16.2656 23.8477 16.2C23.931 16.0878 23.9077 15.9301 23.7955 15.8467L23.7966 15.8456Z" fill="#111111"/>
<path d="M22.6039 17.4432L20.8356 16.0966C20.7245 16.0122 20.5668 16.0333 20.4824 16.1444C20.3979 16.2555 20.419 16.4133 20.5301 16.4977L22.2984 17.8443C22.344 17.8787 22.3973 17.8954 22.4506 17.8954C22.5261 17.8954 22.6017 17.8609 22.6517 17.7965C22.7361 17.6854 22.715 17.5276 22.6039 17.4432Z" fill="#111111"/>
<path d="M12.4295 8.87891C10.7123 8.87891 9.31494 10.2766 9.31494 11.9942C9.31494 13.7119 10.7123 15.1096 12.4295 15.1096C14.1467 15.1096 15.544 13.7119 15.544 11.9942C15.544 10.2766 14.1467 8.87891 12.4295 8.87891Z" fill="#111111"/>
</svg>
