<svg width="25" height="24" viewBox="0 0 25 24" fill="none" xmlns="http://www.w3.org/2000/svg">
<g clip-path="url(#clip0_1462_326)">
<path d="M12.2482 1.25391C12.1285 1.25391 12.0325 1.35104 12.0325 1.46964L12.0269 6.73859C12.0269 6.85831 12.124 6.95545 12.2425 6.95545C12.3622 6.95545 12.4582 6.85831 12.4582 6.73972L12.4638 1.47077C12.4638 1.35105 12.3667 1.25391 12.2482 1.25391Z" fill="#111111"/>
<path d="M11.3368 0.431456H13.1039C13.2236 0.431456 13.3196 0.334319 13.3196 0.215725C13.3196 0.097131 13.2225 0 13.1039 0H11.3368C11.2171 0 11.1211 0.097131 11.1211 0.215725C11.1211 0.334319 11.2182 0.431456 11.3368 0.431456Z" fill="#111111"/>
<path d="M14.764 7.62872C14.7979 7.64905 14.8351 7.65809 14.8724 7.65809C14.9469 7.65809 15.0192 7.61969 15.0598 7.54966L17.6987 2.99001C17.7586 2.88723 17.7236 2.75395 17.6197 2.69522C17.5158 2.63535 17.3837 2.67037 17.3238 2.77428L14.685 7.33393C14.6251 7.43671 14.6601 7.56999 14.764 7.62872Z" fill="#111111"/>
<path d="M17.241 1.52585L18.7711 2.4091C18.805 2.4283 18.8422 2.43846 18.8784 2.43846C18.9529 2.43846 19.0263 2.40006 19.0658 2.33003C19.1257 2.22612 19.0906 2.09398 18.9868 2.03524L17.4567 1.152C17.3528 1.09214 17.2207 1.12828 17.162 1.23106C17.1022 1.33498 17.1372 1.46712 17.241 1.52585Z" fill="#111111"/>
<path d="M16.6122 9.47292C16.6517 9.54182 16.7251 9.58135 16.7996 9.58135C16.8358 9.58135 16.873 9.57231 16.9069 9.55198L21.4711 6.92258C21.575 6.86272 21.61 6.73058 21.5501 6.6278C21.4903 6.52388 21.3581 6.48887 21.2554 6.54873L16.6912 9.17813C16.5874 9.23799 16.5524 9.37014 16.6122 9.47292Z" fill="#111111"/>
<path d="M22.6915 6.95598C22.731 7.02488 22.8044 7.06441 22.879 7.06441C22.9151 7.06441 22.9523 7.05537 22.9862 7.03504C23.0901 6.97518 23.1251 6.84303 23.0653 6.74025L22.1822 5.20983C22.1224 5.10592 21.9903 5.0709 21.8875 5.13076C21.7836 5.19062 21.7486 5.32277 21.8085 5.42555L22.6915 6.95598Z" fill="#111111"/>
<path d="M22.7743 11.783L17.5067 11.7773C17.387 11.7773 17.291 11.8745 17.291 11.9931C17.291 12.1128 17.3881 12.2099 17.5067 12.2099L22.7743 12.2156C22.894 12.2156 22.99 12.1184 22.99 11.9998C22.99 11.8801 22.8929 11.783 22.7743 11.783Z" fill="#111111"/>
<path d="M24.0301 10.8711C23.9104 10.8711 23.8145 10.9682 23.8145 11.0868V12.8544C23.8145 12.9742 23.9116 13.0702 24.0301 13.0702C24.1487 13.0702 24.2458 12.973 24.2458 12.8544V11.0868C24.2458 10.9671 24.1487 10.8711 24.0301 10.8711Z" fill="#111111"/>
<path d="M21.4726 17.0789L16.9129 14.4394C16.809 14.3795 16.6769 14.4145 16.6171 14.5184C16.5572 14.6212 16.5922 14.7545 16.6961 14.8132L21.2558 17.4528C21.2896 17.4731 21.3269 17.4821 21.3642 17.4821C21.4387 17.4821 21.5109 17.4437 21.5516 17.3737C21.6114 17.2709 21.5764 17.1376 21.4726 17.0789Z" fill="#111111"/>
<path d="M23.0147 16.9159C22.9108 16.8561 22.7787 16.8911 22.7189 16.995L21.8358 18.5254C21.776 18.6293 21.811 18.7615 21.9149 18.8202C21.9488 18.8394 21.986 18.8496 22.0233 18.8496C22.0978 18.8496 22.1712 18.8112 22.2107 18.7411L23.0937 17.2107C23.1536 17.1068 23.1186 16.9747 23.0147 16.9159Z" fill="#111111"/>
<path d="M17.5114 21.3337C17.5475 21.3337 17.5848 21.3246 17.6187 21.3043C17.7225 21.2444 17.7575 21.1123 17.6977 21.0095L15.069 16.4442C15.0091 16.3403 14.877 16.3053 14.7743 16.3651C14.6704 16.425 14.6354 16.5571 14.6952 16.6599L17.3239 21.2252C17.3635 21.2941 17.4369 21.3337 17.5114 21.3337Z" fill="#111111"/>
<path d="M18.8199 21.5624L17.2899 22.4456C17.186 22.5055 17.151 22.6377 17.2108 22.7404C17.2504 22.8093 17.3238 22.8489 17.3983 22.8489C17.4344 22.8489 17.4717 22.8398 17.5056 22.8195L19.0356 21.9363C19.1395 21.8764 19.1745 21.7442 19.1146 21.6415C19.0548 21.5376 18.9227 21.5025 18.8199 21.5624Z" fill="#111111"/>
<path d="M12.2479 22.7445C12.3676 22.7445 12.4636 22.6474 12.4636 22.5288L12.4692 17.2598C12.4692 17.1401 12.3721 17.043 12.2535 17.043C12.1339 17.043 12.0379 17.1401 12.0379 17.2587L12.0322 22.5276C12.0322 22.6474 12.1293 22.7445 12.2479 22.7445Z" fill="#111111"/>
<path d="M13.1596 23.5684H11.3924C11.2727 23.5684 11.1768 23.6655 11.1768 23.7841C11.1768 23.9027 11.2739 23.9998 11.3924 23.9998H13.1596C13.2793 23.9998 13.3753 23.9027 13.3753 23.7841C13.3753 23.6655 13.2782 23.5684 13.1596 23.5684Z" fill="#111111"/>
<path d="M9.73102 16.371C9.62714 16.3111 9.49502 16.3462 9.43518 16.4501L6.79628 21.0097C6.73644 21.1125 6.77144 21.2458 6.87533 21.3045C6.9092 21.3248 6.94647 21.3339 6.98373 21.3339C7.05826 21.3339 7.13052 21.2955 7.17117 21.2254L9.81007 16.6658C9.86991 16.563 9.83491 16.4297 9.73102 16.371Z" fill="#111111"/>
<path d="M7.25482 22.4749L5.72479 21.5917C5.6209 21.5318 5.48879 21.5669 5.43007 21.6708C5.37023 21.7747 5.40523 21.9068 5.50912 21.9656L7.03915 22.8488C7.07303 22.868 7.11029 22.8782 7.14643 22.8782C7.22095 22.8782 7.29435 22.8398 7.33387 22.7697C7.39371 22.6658 7.35871 22.5337 7.25482 22.4749Z" fill="#111111"/>
<path d="M7.88409 14.5262C7.82424 14.4223 7.69213 14.3873 7.58937 14.4472L3.02523 17.0766C2.92134 17.1364 2.88634 17.2686 2.94619 17.3714C2.98571 17.4403 3.0591 17.4798 3.13363 17.4798C3.16976 17.4798 3.20702 17.4708 3.2409 17.4504L7.80504 14.821C7.90893 14.7612 7.94393 14.629 7.88409 14.5262Z" fill="#111111"/>
<path d="M1.80433 17.0419C1.74448 16.9379 1.61236 16.9029 1.5096 16.9628C1.40572 17.0227 1.37071 17.1548 1.43056 17.2576L2.31358 18.788C2.3531 18.8569 2.4265 18.8964 2.50103 18.8964C2.53716 18.8964 2.57443 18.8874 2.6083 18.8671C2.71219 18.8072 2.74719 18.6751 2.68734 18.5723L1.80433 17.0419Z" fill="#111111"/>
<path d="M1.72202 11.7832C1.60232 11.7832 1.50635 11.8803 1.50635 11.9989C1.50635 12.1187 1.60345 12.2158 1.72202 12.2158L6.98965 12.2214C7.10934 12.2214 7.20532 12.1243 7.20532 12.0057C7.20532 11.886 7.10821 11.7888 6.98965 11.7888L1.72202 11.7832Z" fill="#111111"/>
<path d="M0.466159 10.9277C0.346466 10.9277 0.250488 11.0249 0.250488 11.1435V12.9111C0.250488 13.0308 0.347595 13.1268 0.466159 13.1268C0.584723 13.1268 0.681836 13.0297 0.681836 12.9111V11.1435C0.681836 11.0237 0.584723 10.9277 0.466159 10.9277Z" fill="#111111"/>
<path d="M3.02376 6.92258L7.58339 9.56214C7.61727 9.58247 7.65453 9.59151 7.69179 9.59151C7.76632 9.59151 7.83859 9.55311 7.87924 9.48309C7.93909 9.38031 7.90408 9.24702 7.8002 9.18829L3.24057 6.54873C3.13668 6.48887 3.00457 6.52388 2.94472 6.6278C2.88487 6.73058 2.91988 6.86385 3.02376 6.92258Z" fill="#111111"/>
<path d="M1.48128 7.08387C1.51516 7.10308 1.55242 7.11323 1.58969 7.11323C1.66421 7.11323 1.73761 7.07484 1.77713 7.00481L2.66015 5.47439C2.72 5.37048 2.68499 5.23832 2.5811 5.17959C2.47722 5.11973 2.34511 5.15474 2.28526 5.25866L1.40224 6.78908C1.34239 6.89299 1.3774 7.02514 1.48128 7.08387Z" fill="#111111"/>
<path d="M6.87679 2.69326C6.77291 2.75312 6.7379 2.88528 6.79775 2.98806L9.42648 7.55335C9.466 7.62225 9.5394 7.66179 9.61392 7.66179C9.65006 7.66179 9.68732 7.65275 9.7212 7.63242C9.82508 7.57256 9.86009 7.44041 9.80024 7.33763L7.17151 2.77233C7.11166 2.66842 6.97955 2.6334 6.87679 2.69326Z" fill="#111111"/>
<path d="M5.56771 2.46801C5.60384 2.46801 5.64111 2.45897 5.67498 2.43864L7.20502 1.5554C7.3089 1.49554 7.34391 1.36339 7.28406 1.26061C7.22422 1.1567 7.0921 1.12168 6.98935 1.18154L5.45931 2.06479C5.35543 2.12465 5.32042 2.25679 5.38027 2.35958C5.41979 2.42847 5.49318 2.46801 5.56771 2.46801Z" fill="#111111"/>
<path d="M12.2483 8.83203C10.5025 8.83203 9.08203 10.2529 9.08203 11.999C9.08203 13.7452 10.5025 15.1661 12.2483 15.1661C13.994 15.1661 15.4145 13.7452 15.4145 11.999C15.4145 10.2529 13.994 8.83203 12.2483 8.83203Z" fill="#111111"/>
</g>
<defs>
<clipPath id="clip0_1462_326">
<rect width="24" height="24" fill="white" transform="translate(0.250488)"/>
</clipPath>
</defs>
</svg>
