<svg width="48" height="48" viewBox="0 0 48 48" fill="none" xmlns="http://www.w3.org/2000/svg">
<path d="M34.2201 31.4159C34.1557 31.1448 33.8846 30.9781 33.6136 31.0404C33.3426 31.1048 33.176 31.3759 33.2404 31.647L36.3438 44.7372C36.3994 44.9682 36.606 45.126 36.8348 45.126C36.8726 45.126 36.9125 45.1216 36.9525 45.1127C37.2235 45.0482 37.3902 44.7771 37.3257 44.5061L34.2223 31.4159H34.2201Z" fill="#111111"/>
<path d="M32.4649 41.0817C32.4027 40.8106 32.1339 40.6395 31.8628 40.6995C31.5918 40.7617 31.4208 41.0306 31.4807 41.3017L32.4582 45.6391C32.5115 45.8747 32.7181 46.0324 32.9492 46.0324C32.9869 46.0324 33.0225 46.028 33.0602 46.0191C33.3313 45.9569 33.5023 45.688 33.4423 45.4169L32.4649 41.0795V41.0817Z" fill="#111111"/>
<path d="M27.0325 35.0222C26.7837 34.8978 26.4815 34.9978 26.3549 35.2467L20.3191 47.2702C20.1947 47.5191 20.2947 47.8213 20.5435 47.948C20.6168 47.9835 20.6923 48.0013 20.7701 48.0013C20.9544 48.0013 21.1322 47.8991 21.221 47.7235L27.2568 35.7C27.3812 35.4511 27.2813 35.1489 27.0325 35.0222Z" fill="#111111"/>
<path d="M19.4839 41.2961C19.2374 41.1694 18.933 41.265 18.8042 41.5139L16.7648 45.4647C16.6382 45.7113 16.7337 46.0158 16.9825 46.1446C17.0558 46.1824 17.1358 46.2002 17.2136 46.2002C17.3957 46.2002 17.5734 46.1002 17.6623 45.9269L19.7017 41.976C19.8283 41.7294 19.7328 41.425 19.4839 41.2961Z" fill="#111111"/>
<path d="M19.4354 33.8382C19.3243 33.5826 19.0288 33.4649 18.7734 33.5738L6.42405 38.9045C6.16857 39.0156 6.05083 39.3111 6.15969 39.5667C6.24188 39.7578 6.4285 39.8711 6.62399 39.8711C6.69063 39.8711 6.75949 39.8578 6.82391 39.8289L19.1733 34.4981C19.4287 34.387 19.5465 34.0915 19.4376 33.836L19.4354 33.8382Z" fill="#111111"/>
<path d="M9.62137 33.7921C9.51474 33.5366 9.21927 33.4143 8.96158 33.521L4.86069 35.2364C4.603 35.3431 4.48303 35.6386 4.58966 35.8964C4.66964 36.0897 4.85847 36.2053 5.05396 36.2053C5.11838 36.2053 5.18503 36.1919 5.24723 36.1653L9.34811 34.4498C9.60581 34.3432 9.72578 34.0476 9.61914 33.7899L9.62137 33.7921Z" fill="#111111"/>
<path d="M13.8926 28.4068C14.1103 28.4068 14.3103 28.2646 14.3747 28.0468C14.4547 27.7802 14.3036 27.498 14.037 27.418L1.15009 23.5605C0.883512 23.4805 0.601378 23.6316 0.521404 23.8982C0.44143 24.1649 0.592496 24.4471 0.859076 24.5271L13.746 28.3846C13.7949 28.4001 13.8438 28.4068 13.8904 28.4068H13.8926Z" fill="#111111"/>
<path d="M2.01158 20.7099L6.25464 22.032C6.30351 22.0475 6.35461 22.0542 6.4057 22.0542C6.62119 22.0542 6.8189 21.9164 6.88776 21.6987C6.96996 21.432 6.82112 21.1498 6.55676 21.0676L2.3137 19.7455C2.04712 19.6633 1.76498 19.8099 1.68279 20.0766C1.60059 20.3432 1.74944 20.6254 2.0138 20.7076L2.01158 20.7099Z" fill="#111111"/>
<path d="M13.521 20.2155C13.6188 20.3621 13.7787 20.4421 13.9431 20.4421C14.0386 20.4421 14.1342 20.4155 14.2208 20.3599C14.4541 20.2066 14.5185 19.8933 14.3652 19.6622L6.97203 8.42298C6.81875 8.18966 6.50553 8.12522 6.27449 8.27855C6.04123 8.43187 5.9768 8.74518 6.13009 8.97627L13.5233 20.2155H13.521Z" fill="#111111"/>
<path d="M11.8648 10.5297C11.9603 10.6786 12.1225 10.7608 12.2891 10.7608C12.3824 10.7608 12.4757 10.7341 12.5601 10.6808C12.7933 10.5297 12.8622 10.2186 12.7111 9.98307L10.3097 6.24112C10.1586 6.0078 9.84763 5.93892 9.61215 6.09002C9.37889 6.24112 9.31003 6.5522 9.46109 6.78774L11.8625 10.5297H11.8648Z" fill="#111111"/>
<path d="M19.0434 14.3689C19.0634 14.3689 19.0834 14.3733 19.1033 14.3733C19.3566 14.3733 19.5743 14.1844 19.6032 13.9267L21.1627 0.56318C21.196 0.287644 20.9961 0.0365513 20.7206 0.00322039C20.4451 -0.0278885 20.1941 0.169875 20.1608 0.445411L18.6013 13.8089C18.568 14.0844 18.7679 14.3355 19.0434 14.3689Z" fill="#111111"/>
<path d="M23.9923 5.8895C24.0145 5.89173 24.0345 5.89395 24.0567 5.89395C24.3078 5.89395 24.5233 5.7073 24.5566 5.45398L25.1208 1.04319C25.1564 0.767651 24.9609 0.514336 24.6854 0.478783C24.4077 0.44323 24.1567 0.638772 24.1212 0.914307L23.5569 5.3251C23.5214 5.60064 23.7169 5.85395 23.9923 5.8895Z" fill="#111111"/>
<path d="M26.9534 13.0386C27.0778 13.0386 27.2022 12.9941 27.3 12.9008L37.0835 3.66589C37.2856 3.47479 37.2945 3.15482 37.1035 2.95261C36.9124 2.7504 36.5925 2.74151 36.3904 2.93261L26.6069 12.1675C26.4047 12.3586 26.3958 12.6786 26.5869 12.8808C26.6868 12.9852 26.8201 13.0386 26.9534 13.0386Z" fill="#111111"/>
<path d="M35.8248 9.56717C35.9248 9.67383 36.0603 9.72938 36.1958 9.72938C36.318 9.72938 36.4402 9.68494 36.5379 9.59606L39.8036 6.58072C40.0079 6.39184 40.0213 6.07409 39.8324 5.86744C39.6436 5.66301 39.3237 5.64967 39.1193 5.83855L35.8537 8.85389C35.6493 9.04276 35.636 9.36052 35.8248 9.56717Z" fill="#111111"/>
<path d="M33.3197 16.5897C33.3352 16.8586 33.5574 17.0652 33.8217 17.0652C33.8306 17.0652 33.8417 17.0652 33.8506 17.0652L47.2796 16.2808C47.5573 16.2653 47.7705 16.0253 47.7528 15.7475C47.7372 15.4698 47.4973 15.2587 47.2196 15.2742L33.7906 16.0586C33.5129 16.0742 33.2997 16.3142 33.3174 16.5919L33.3197 16.5897Z" fill="#111111"/>
<path d="M47.4485 19.256L43.0078 19.4649C42.7301 19.4782 42.5146 19.7138 42.5279 19.9915C42.5413 20.2626 42.7634 20.4715 43.0322 20.4715C43.0411 20.4715 43.0478 20.4715 43.0566 20.4715L47.4974 20.2626C47.7751 20.2493 47.9906 20.0137 47.9773 19.736C47.9639 19.4582 47.7285 19.2493 47.4508 19.256H47.4485Z" fill="#111111"/>
<path d="M47.5922 31.6912L36.8024 23.6585C36.578 23.4918 36.2626 23.5385 36.096 23.7629C35.9293 23.9873 35.976 24.3029 36.2004 24.4695L46.9902 32.5023C47.0813 32.5689 47.1857 32.6023 47.2901 32.6023C47.4434 32.6023 47.5967 32.5312 47.6944 32.4001C47.861 32.1756 47.8144 31.8601 47.59 31.6935L47.5922 31.6912Z" fill="#111111"/>
<path d="M45.2078 34.8864L41.6711 32.1933C41.449 32.0244 41.1335 32.0666 40.9647 32.2888C40.7959 32.511 40.8381 32.8265 41.0602 32.9954L44.5969 35.6886C44.688 35.7574 44.7946 35.7908 44.9012 35.7908C45.0523 35.7908 45.2033 35.7219 45.3033 35.593C45.4721 35.3708 45.4299 35.0553 45.2078 34.8864Z" fill="#111111"/>
<path d="M24.858 17.7559C21.4236 17.7559 18.6289 20.5512 18.6289 23.9865C18.6289 27.4218 21.4236 30.2172 24.858 30.2172C28.2924 30.2172 31.0871 27.4218 31.0871 23.9865C31.0871 20.5512 28.2924 17.7559 24.858 17.7559Z" fill="#111111"/>
</svg>
