<svg width="25" height="25" viewBox="0 0 25 25" fill="none" xmlns="http://www.w3.org/2000/svg">
<path d="M14.0439 9.1987C12.5139 8.46403 10.6855 9.1427 9.96863 10.7106C9.6211 11.4699 9.58395 12.3233 9.86263 13.1117C10.1413 13.9001 10.703 14.5306 11.444 14.8868C11.8626 15.0883 12.3041 15.1835 12.739 15.1835C13.892 15.1835 14.998 14.5138 15.5193 13.3749C16.2362 11.807 15.5739 9.93336 14.0439 9.1987Z" fill="#111111"/>
<path d="M12.9675 17.5112C12.9271 17.407 12.8309 17.3398 12.7216 17.3398C12.6123 17.3398 12.5161 17.407 12.479 17.5022L9.74138 23.6976C9.69329 23.8051 9.74137 23.9328 9.8452 23.981C9.95011 24.0291 10.0747 23.981 10.1217 23.8746L12.7205 17.9939L15.3193 23.8746C15.3543 23.9541 15.4308 24.0011 15.5095 24.0011C15.5379 24.0011 15.5674 23.9944 15.5958 23.9821C15.7007 23.9328 15.7477 23.8063 15.6996 23.6987L12.9653 17.5123L12.9675 17.5112Z" fill="#111111"/>
<path d="M12.7214 3.98836C12.8373 3.98836 12.9313 3.89205 12.9313 3.77446V0.280311C12.9313 0.161599 12.8373 0.0664062 12.7214 0.0664062C12.6056 0.0664062 12.5127 0.162719 12.5127 0.280311V3.77446C12.5127 3.89317 12.6067 3.98836 12.7214 3.98836Z" fill="#111111"/>
<path d="M8.69008 15.3262C8.62232 15.2388 8.51085 15.203 8.41577 15.2332L1.98211 16.9019C1.86955 16.931 1.80179 17.0475 1.8302 17.1628C1.85862 17.2771 1.97228 17.3465 2.08484 17.3185L8.19174 15.7338L5.32517 21.4835C5.27271 21.5888 5.31314 21.7187 5.41587 21.7724C5.44647 21.7881 5.47926 21.7959 5.51095 21.7959C5.58745 21.7959 5.66068 21.7534 5.69783 21.6795L8.71303 15.6319C8.76658 15.5345 8.75784 15.4158 8.69008 15.3284V15.3262Z" fill="#111111"/>
<path d="M18.8755 7.00314C18.9171 7.05577 18.9783 7.08377 19.0395 7.08377C19.0854 7.08377 19.1313 7.06809 19.1695 7.03674L21.835 4.85849C21.9257 4.78458 21.9399 4.65019 21.8678 4.55724C21.7956 4.46428 21.6645 4.44972 21.5738 4.52364L18.9083 6.70188C18.8176 6.77579 18.8034 6.91018 18.8755 7.00314Z" fill="#111111"/>
<path d="M7.71079 10.8421C7.73483 10.7334 7.6933 10.6214 7.61134 10.5632L2.32627 6.44974C2.23447 6.37807 2.10333 6.39711 2.03339 6.49118C1.96345 6.58525 1.98202 6.71964 2.07382 6.79132L7.09114 10.6965L0.917577 11.9844C0.80392 12.0079 0.731792 12.121 0.754742 12.2375C0.774414 12.3394 0.861842 12.4088 0.959106 12.4088C0.973314 12.4088 0.987521 12.4077 1.00064 12.4043L7.49441 11.0492C7.60151 11.0324 7.68784 10.9507 7.71188 10.8421H7.71079Z" fill="#111111"/>
<path d="M23.9864 14.4289L20.662 13.6517C20.5494 13.626 20.4368 13.6976 20.4117 13.813C20.3855 13.9283 20.4565 14.0437 20.5691 14.0695L23.8936 14.8467C23.9089 14.85 23.9252 14.8523 23.9405 14.8523C24.0356 14.8523 24.122 14.7851 24.1438 14.6854C24.17 14.5701 24.099 14.4547 23.9864 14.4289Z" fill="#111111"/>
<path d="M10.2277 7.21691C10.278 7.26394 10.3414 7.28858 10.4059 7.28858C10.4452 7.28858 10.4846 7.27962 10.5217 7.2617C10.6201 7.21354 10.678 7.10939 10.6714 7.0086L10.5152 0.209577C10.513 0.0908652 10.4168 -0.0043278 10.301 0.000151876C10.1851 0.00239171 10.0944 0.100945 10.0966 0.219656L10.2452 6.67374L5.41369 2.53005C5.32516 2.45389 5.19293 2.46621 5.11861 2.55693C5.0443 2.64764 5.05632 2.78315 5.14484 2.8593L10.2277 7.21802V7.21691Z" fill="#111111"/>
<path d="M16.4536 19.3906C16.4033 19.2842 16.2787 19.2394 16.1738 19.2909C16.07 19.3424 16.0263 19.4701 16.0765 19.5776L17.5563 22.7257C17.5923 22.8019 17.6666 22.8467 17.7453 22.8467C17.7759 22.8467 17.8065 22.8399 17.836 22.8254C17.9399 22.7739 17.9836 22.6462 17.9333 22.5387L16.4536 19.3906Z" fill="#111111"/>
<path d="M15.0069 7.28109C15.0441 7.30013 15.0845 7.30909 15.1239 7.30909C15.1873 7.30909 15.2485 7.28669 15.2933 7.24301L20.3827 2.87869C20.4712 2.80254 20.4833 2.66703 20.4089 2.57631C20.3346 2.4856 20.2024 2.47328 20.1139 2.54944L15.2823 6.69313L15.431 0.239045C15.4332 0.120334 15.3425 0.0229011 15.2266 0.0195414C15.1151 0.0184215 15.0157 0.110255 15.0124 0.228966L14.8561 7.01791C14.8485 7.1299 14.9075 7.23294 15.0059 7.28109H15.0069Z" fill="#111111"/>
<path d="M9.35361 19.3104C9.24979 19.2589 9.12411 19.3037 9.07384 19.4101L7.59411 22.5582C7.54384 22.6646 7.58755 22.7934 7.69137 22.8438C7.72088 22.8583 7.75148 22.8651 7.78208 22.8651C7.85967 22.8651 7.93508 22.8203 7.97114 22.7441L9.45088 19.596C9.50115 19.4896 9.45743 19.3608 9.35361 19.3104Z" fill="#111111"/>
<path d="M24.5826 12.0293L18.409 10.7414L23.4263 6.83624C23.5181 6.76457 23.5367 6.63018 23.4668 6.5361C23.3968 6.44203 23.2657 6.42299 23.1739 6.49467L17.8965 10.6025C17.8068 10.6664 17.7642 10.7772 17.7894 10.8859C17.8134 10.9945 17.8986 11.0763 17.997 11.0919L24.5006 12.4482C24.5148 12.4515 24.529 12.4526 24.5421 12.4526C24.6394 12.4526 24.7268 12.3821 24.7465 12.2813C24.7694 12.1648 24.6962 12.0517 24.5837 12.0282L24.5826 12.0293Z" fill="#111111"/>
<path d="M5.08571 13.8579C5.05948 13.7426 4.94801 13.6709 4.83544 13.6966L1.51097 14.4739C1.3984 14.5007 1.32737 14.615 1.35359 14.7303C1.37545 14.83 1.46179 14.8972 1.55686 14.8972C1.57216 14.8972 1.58746 14.895 1.60386 14.8916L4.92834 14.1144C5.0409 14.0875 5.11194 13.9733 5.08571 13.8579Z" fill="#111111"/>
<path d="M23.4789 16.94L17.054 15.2735C16.9502 15.2411 16.8387 15.2769 16.7709 15.3642C16.7032 15.4516 16.6933 15.5703 16.7436 15.6599L19.7632 21.7164C19.8003 21.7903 19.8736 21.8329 19.9501 21.8329C19.9818 21.8329 20.0145 21.8251 20.0451 21.8094C20.1479 21.7556 20.1883 21.6268 20.1358 21.5204L17.2693 15.7719L23.3773 17.3566C23.4898 17.3857 23.6035 17.3163 23.6319 17.2009C23.6603 17.0867 23.5926 16.9691 23.48 16.94H23.4789Z" fill="#111111"/>
<path d="M6.29123 7.07154C6.32948 7.1029 6.37538 7.11858 6.42128 7.11858C6.48248 7.11858 6.54368 7.09058 6.58521 7.03794C6.65734 6.94499 6.64204 6.8106 6.55242 6.73668L3.88694 4.55844C3.79623 4.48453 3.66509 4.50021 3.59296 4.59204C3.52083 4.68499 3.53613 4.81938 3.62574 4.8933L6.29123 7.07154Z" fill="#111111"/>
</svg>
