<svg width="343" height="164" viewBox="0 0 343 164" fill="none" xmlns="http://www.w3.org/2000/svg">
<path d="M126.94 67.08C111.388 67.08 101.74 55.632 101.74 40.224C101.74 24.816 111.388 13.368 126.94 13.368C142.492 13.368 152.14 24.816 152.14 40.224C152.14 55.632 142.492 67.08 126.94 67.08ZM126.94 61.392C139.036 61.392 145.516 52.32 145.516 40.224C145.516 28.128 139.036 18.984 126.94 18.984C114.844 18.984 108.364 28.128 108.364 40.224C108.364 52.32 114.844 61.392 126.94 61.392ZM176.928 66.792C165.696 66.792 157.2 61.824 157.2 49.368V14.52H163.68V48.72C163.68 57.504 168.648 61.248 177.144 61.248C185.28 61.248 190.176 57.504 190.176 48.72V14.52H196.656V49.368C196.656 61.824 187.944 66.792 176.928 66.792ZM203.654 66V14.52H227.702C236.774 14.52 242.894 20.208 242.894 28.632C242.894 34.896 240.158 39.36 233.966 41.376V41.592C239.222 43.464 240.878 47.064 241.382 54.696C241.958 62.976 242.822 65.064 243.758 65.712V66H236.774C235.694 65.064 235.478 63.12 234.902 54.48C234.398 46.92 231.374 44.256 224.462 44.256H210.134V66H203.654ZM210.134 20.136V39H225.398C232.598 39 236.198 35.4 236.198 29.568C236.198 23.304 233.318 20.136 225.758 20.136H210.134ZM61.6474 149.008C47.5354 149.008 40.1914 139.72 40.1914 126.328C40.1914 110.92 50.1994 95.368 67.3354 95.368C78.0634 95.368 84.9754 101.344 85.8394 111.784H79.4314C78.4954 104.872 74.1754 100.912 66.6874 100.912C53.7994 100.912 46.8154 113.152 46.8154 126.112C46.8154 135.544 51.2074 143.392 61.8634 143.392C71.0794 143.392 76.1914 136.624 77.8474 129.136H84.1834C83.2474 134.176 80.9434 138.856 77.4154 142.672C73.6714 146.704 67.9834 149.008 61.6474 149.008ZM85.1621 148L95.0981 96.52H101.434L92.6501 142.096H118.498L117.346 148H85.1621ZM122.319 148L132.255 96.52H138.591L128.655 148H122.319ZM136.476 148L146.412 96.52H180.036L178.956 102.136H151.668L148.5 118.48H173.556L172.476 123.88H147.42L143.964 142.096H172.836L171.684 148H136.476ZM177.286 148L187.222 96.52H193.918L209.398 132.448C210.694 135.4 211.774 139.072 211.774 139.072H211.918L220.126 96.52H226.102L216.166 148H209.614L194.062 112C192.838 109.264 191.614 105.592 191.614 105.592H191.47L183.262 148H177.286ZM229.189 102.136L230.269 96.52H269.365L268.285 102.136H251.869L243.013 148H236.677L245.533 102.136H229.189ZM283.904 149.008C273.392 149.008 263.456 144.256 263.816 130.576H269.936C269.936 139.936 275.336 143.752 284.048 143.752C291.896 143.752 296.936 140.08 296.936 133.384C296.936 128.056 292.472 126.328 284.048 123.232C275.336 120.064 269.864 116.824 269.864 109.552C269.864 100.912 277.136 95.512 286.784 95.512C297.224 95.512 304.856 99.976 305.432 111.568H299.384C299.024 103.936 294.56 100.696 286.784 100.696C281.024 100.696 275.84 102.64 275.84 108.976C275.84 113.296 280.016 115.168 286.712 117.616C296.36 121.144 303.2 123.88 303.2 132.664C303.2 142.312 296 149.008 283.904 149.008Z" fill="#111111"/>
</svg>
