<svg width="375" height="191" viewBox="0 0 375 191" fill="none" xmlns="http://www.w3.org/2000/svg">
<path d="M74.7055 50.952C61.0375 50.952 54.5095 43.336 53.9655 33.544H59.9495C60.7655 41.772 65.7975 46.056 74.9775 46.056C81.7095 46.056 86.5375 42.996 86.5375 36.944C86.5375 30.28 80.6895 28.716 71.9855 26.812C63.4175 24.908 56.0735 22.46 56.0735 13.28C56.0735 5.256 62.7375 0.427998 72.5975 0.427998C84.7695 0.427998 89.8015 6.616 91.0255 15.592H85.2455C84.3615 8.656 79.8735 5.188 72.7335 5.188C66.1375 5.188 61.7855 7.976 61.7855 13.008C61.7855 18.516 67.2255 20.148 74.5015 21.576C83.9535 23.48 92.5895 25.792 92.5895 36.74C92.5895 45.852 85.1775 50.952 74.7055 50.952ZM97.8919 50V1.38H132.232V6.752H104.012V22.12H129.648V27.288H104.012V44.356H133.048V50H97.8919ZM135.433 6.752V1.38H173.921V6.752H157.737V50H151.617V6.752H135.433ZM176.233 6.752V1.38H214.721V6.752H198.537V50H192.417V6.752H176.233ZM219.233 50V1.38H225.353V50H219.233ZM232.869 50V1.38H239.329L261.497 35.176C263.129 37.692 265.033 41.432 265.033 41.432H265.169V1.38H270.881V50H264.625L242.321 16.136C240.757 13.756 238.717 10.084 238.717 10.084H238.581V50H232.869ZM316.398 50L314.63 43.608H314.494C310.958 48.572 305.722 51.02 299.33 51.02C285.662 51.02 276.482 40.616 276.482 25.86C276.482 11.58 284.574 0.359999 299.874 0.359999C311.162 0.359999 318.098 6.48 319.662 16H313.338C311.978 9.54 307.422 5.664 299.738 5.664C288.042 5.664 282.738 14.436 282.738 25.86C282.738 37.76 289.674 45.716 299.534 45.716C309.53 45.716 314.222 38.916 314.222 30.756V29.6H299.602V24.296H320.342V50H316.398ZM34.172 76.684L35.192 71.38H72.116L71.096 76.684H55.592L47.228 120H41.244L49.608 76.684H34.172ZM66.6196 120L76.0036 71.38H81.9876L77.9756 92.052H102.184L106.196 71.38H112.248L102.864 120H96.8116L101.232 96.948H77.0236L72.6036 120H66.6196ZM110.142 120L119.526 71.38H151.282L150.262 76.684H124.49L121.498 92.12H145.162L144.142 97.22H120.478L117.214 114.424H144.482L143.394 120H110.142ZM180.385 120.952C167.057 120.952 160.121 112.18 160.121 99.532C160.121 84.98 169.573 70.292 185.757 70.292C195.889 70.292 202.417 75.936 203.233 85.796H197.181C196.297 79.268 192.217 75.528 185.145 75.528C172.973 75.528 166.377 87.088 166.377 99.328C166.377 108.236 170.525 115.648 180.589 115.648C189.293 115.648 194.121 109.256 195.685 102.184H201.669C200.785 106.944 198.609 111.364 195.277 114.968C191.741 118.776 186.369 120.952 180.385 120.952ZM226.801 121.02C214.493 121.02 204.905 112.996 204.905 98.784C204.905 83.348 215.037 70.292 230.473 70.292C242.781 70.292 252.165 78.384 252.165 92.664C252.165 108.304 242.645 121.02 226.801 121.02ZM211.161 98.784C211.161 109.392 217.213 115.716 226.937 115.716C239.449 115.716 245.977 105.516 245.977 92.732C245.977 82.464 240.061 75.528 230.201 75.528C217.893 75.528 211.161 86.068 211.161 98.784ZM276.632 121.02C264.324 121.02 254.736 112.996 254.736 98.784C254.736 83.348 264.868 70.292 280.304 70.292C292.612 70.292 301.996 78.384 301.996 92.664C301.996 108.304 292.476 121.02 276.632 121.02ZM260.992 98.784C260.992 109.392 267.044 115.716 276.768 115.716C289.28 115.716 295.808 105.516 295.808 92.732C295.808 82.464 289.892 75.528 280.032 75.528C267.724 75.528 260.992 86.068 260.992 98.784ZM302.256 120L311.64 71.38H317.624L309.328 114.424H333.74L332.652 120H302.256ZM42.6977 190.952C29.0297 190.952 22.5017 183.336 21.9577 173.544H27.9417C28.7577 181.772 33.7897 186.056 42.9697 186.056C49.7017 186.056 54.5297 182.996 54.5297 176.944C54.5297 170.28 48.6817 168.716 39.9777 166.812C31.4097 164.908 24.0657 162.46 24.0657 153.28C24.0657 145.256 30.7297 140.428 40.5897 140.428C52.7617 140.428 57.7937 146.616 59.0177 155.592H53.2377C52.3537 148.656 47.8657 145.188 40.7257 145.188C34.1297 145.188 29.7777 147.976 29.7777 153.008C29.7777 158.516 35.2177 160.148 42.4937 161.576C51.9457 163.48 60.5817 165.792 60.5817 176.74C60.5817 185.852 53.1697 190.952 42.6977 190.952ZM60.4335 146.752V141.38H98.9215V146.752H82.7375V190H76.6175V146.752H60.4335ZM93.312 190L111.196 141.38H118.064L136.016 190H129.352L124.184 175.176H104.804L99.568 190H93.312ZM112.352 153.892L106.572 170.212H122.484L116.908 153.892C115.956 151.172 114.732 147.024 114.732 147.024H114.596C114.596 147.024 113.304 151.104 112.352 153.892ZM139.582 190V141.38H146.042L168.21 175.176C169.842 177.692 171.746 181.432 171.746 181.432H171.882V141.38H177.594V190H171.338L149.034 156.136C147.47 153.756 145.43 150.084 145.43 150.084H145.294V190H139.582ZM185.03 190V141.38H202.71C217.33 141.38 224.266 151.308 224.266 165.86C224.266 180.412 216.854 190 202.234 190H185.03ZM191.15 184.628H202.03C213.454 184.628 218.01 177.284 218.01 165.86C218.01 154.436 213.93 146.684 202.506 146.684H191.15V184.628ZM223.548 190L241.432 141.38H248.3L266.252 190H259.588L254.42 175.176H235.04L229.804 190H223.548ZM242.588 153.892L236.808 170.212H252.72L247.144 153.892C246.192 151.172 244.968 147.024 244.968 147.024H244.832C244.832 147.024 243.54 151.104 242.588 153.892ZM269.818 190V141.38H292.53C301.098 141.38 306.878 146.752 306.878 154.708C306.878 160.624 304.294 164.84 298.446 166.744V166.948C303.41 168.716 304.974 172.116 305.45 179.324C305.994 187.144 306.81 189.116 307.694 189.728V190H301.098C300.078 189.116 299.874 187.28 299.33 179.12C298.854 171.98 295.998 169.464 289.47 169.464H275.938V190H269.818ZM275.938 146.684V164.5H290.354C297.154 164.5 300.554 161.1 300.554 155.592C300.554 149.676 297.834 146.684 290.694 146.684H275.938ZM312.61 190V141.38H330.29C344.91 141.38 351.846 151.308 351.846 165.86C351.846 180.412 344.434 190 329.814 190H312.61ZM318.73 184.628H329.61C341.034 184.628 345.59 177.284 345.59 165.86C345.59 154.436 341.51 146.684 330.086 146.684H318.73V184.628Z" fill="#111111"/>
</svg>
