<svg width="23" height="24" viewBox="0 0 23 24" fill="none" xmlns="http://www.w3.org/2000/svg">
<path d="M9.7559 9.57608C8.42079 10.6858 8.23552 12.6749 9.34492 14.0114C9.88278 14.6584 10.6396 15.0582 11.4773 15.1357C11.5761 15.1447 11.6749 15.1492 11.7737 15.1492C12.5058 15.1492 13.2099 14.8965 13.7803 14.4225C15.1154 13.3128 15.3007 11.3237 14.1913 9.98716C13.0819 8.65172 11.0932 8.46752 9.75702 9.57608H9.7559Z" fill="#111111"/>
<path d="M12.7843 4.4608C12.8719 4.54167 13.0078 4.53606 13.0886 4.44845C13.3963 4.11599 13.5659 3.68246 13.5659 3.2287C13.5659 2.23807 12.7596 1.43164 11.7693 1.43164C10.7789 1.43164 9.97266 2.23807 9.97266 3.2287C9.97266 3.68358 10.1433 4.11824 10.4521 4.45182C10.4948 4.49787 10.5521 4.52033 10.6093 4.52033C10.6621 4.52033 10.7138 4.50124 10.7553 4.46305C10.8418 4.38218 10.8474 4.24629 10.7665 4.15868C10.5307 3.90484 10.4016 3.57463 10.4016 3.2287C10.4016 2.47506 11.0147 1.86069 11.7681 1.86069C12.5216 1.86069 13.1347 2.47393 13.1347 3.2287C13.1347 3.57351 13.0055 3.90372 12.772 4.15643C12.6911 4.24404 12.6968 4.37994 12.7843 4.45969V4.4608Z" fill="#111111"/>
<path d="M11.7683 0C9.98855 0 8.54004 1.44888 8.54004 3.22909C8.54004 4.13436 8.92294 5.00368 9.59218 5.61356C9.63372 5.65174 9.68537 5.66972 9.73703 5.66972C9.79542 5.66972 9.85381 5.64613 9.89535 5.60008C9.97508 5.51247 9.96946 5.37657 9.88188 5.29683C9.30247 4.76782 8.9701 4.01418 8.9701 3.22909C8.9701 1.68586 10.2255 0.430173 11.7683 0.430173C13.3111 0.430173 14.5665 1.68586 14.5665 3.22909C14.5665 4.01193 14.2353 4.76557 13.657 5.29458C13.5694 5.37433 13.5638 5.51023 13.6435 5.59784C13.7232 5.68544 13.8591 5.69106 13.9467 5.61132C14.6137 5.00032 14.9955 4.13211 14.9955 3.22909C14.9955 1.44888 13.547 0 11.7672 0H11.7683Z" fill="#111111"/>
<path d="M11.5527 3.32585V7.94092C11.5527 8.05998 11.6493 8.15544 11.7672 8.15544C11.8851 8.15544 11.9817 8.05885 11.9817 7.94092V3.32585C11.9817 3.20679 11.8851 3.11133 11.7672 3.11133C11.6493 3.11133 11.5527 3.20792 11.5527 3.32585Z" fill="#111111"/>
<path d="M20.2383 8.79828C19.9396 8.97125 19.5893 9.02404 19.2536 8.94766C19.1379 8.92071 19.0222 8.9937 18.9964 9.10939C18.9706 9.22508 19.0425 9.34077 19.1581 9.3666C19.2895 9.39692 19.4231 9.41152 19.5556 9.41152C19.8678 9.41152 20.1766 9.32953 20.4528 9.17005C21.3107 8.67473 21.606 7.57291 21.1108 6.71482C20.6156 5.85672 19.5141 5.56133 18.6562 6.05664C18.2621 6.28464 17.9712 6.64855 17.8376 7.08433C17.8028 7.19777 17.8668 7.31795 17.9802 7.35277C18.0936 7.38759 18.2138 7.32469 18.2486 7.21013C18.3508 6.87992 18.572 6.6025 18.8718 6.42841C19.5242 6.05102 20.3618 6.27566 20.7391 6.92934C21.1164 7.58189 20.8918 8.41977 20.2383 8.79716V8.79828Z" fill="#111111"/>
<path d="M16.5656 7.17793C16.6812 7.20264 16.7958 7.12963 16.8216 7.01395C16.99 6.24795 17.4762 5.58304 18.1556 5.18994C19.4918 4.41832 21.2064 4.8777 21.979 6.21426C22.7504 7.55082 22.2911 9.26701 20.9549 10.0386C20.2767 10.4295 19.4592 10.5193 18.7125 10.2835C18.5991 10.2475 18.4789 10.3104 18.443 10.4239C18.4071 10.5373 18.47 10.6575 18.5834 10.6934C18.9 10.7934 19.2279 10.8428 19.5547 10.8428C20.1172 10.8428 20.6753 10.6968 21.1705 10.4104C22.7122 9.51972 23.2422 7.54071 22.3518 5.99861C21.4613 4.45651 19.4828 3.92638 17.9411 4.81705C17.1573 5.26968 16.597 6.0368 16.4016 6.92072C16.3758 7.03641 16.4499 7.15098 16.5656 7.17681V7.17793Z" fill="#111111"/>
<path d="M15.4762 10.1854C15.5121 10.1854 15.5492 10.1764 15.584 10.1562L19.5803 7.84807C19.6836 7.78854 19.7184 7.65713 19.6589 7.55493C19.5994 7.4516 19.468 7.41678 19.3647 7.4763L15.3684 9.7844C15.2651 9.84393 15.2303 9.97534 15.2898 10.0775C15.3291 10.1461 15.4021 10.1854 15.4762 10.1854Z" fill="#111111"/>
<path d="M18.8717 17.5712C18.5731 17.3983 18.3518 17.122 18.2497 16.7929C18.2149 16.6795 18.0936 16.6154 17.9802 16.6514C17.8668 16.6862 17.8039 16.8075 17.8387 16.9209C17.9734 17.3534 18.2631 17.7173 18.6561 17.9441C18.938 18.107 19.2468 18.1845 19.5511 18.1845C20.1732 18.1845 20.7784 17.8621 21.1108 17.286C21.6059 16.4279 21.3106 15.326 20.4527 14.8307C20.0586 14.6027 19.5971 14.5342 19.1536 14.6353C19.0379 14.6623 18.9661 14.7768 18.9919 14.8925C19.0188 15.0082 19.1334 15.0801 19.249 15.0542C19.5859 14.9767 19.9373 15.0295 20.2372 15.2025C20.8895 15.5799 21.1141 16.4178 20.738 17.0703C20.3607 17.7229 19.523 17.9475 18.8706 17.5712H18.8717Z" fill="#111111"/>
<path d="M21.169 13.5903C20.3853 13.1376 19.4409 13.0354 18.5785 13.3083C18.4651 13.3443 18.4023 13.4656 18.4382 13.5779C18.4741 13.6913 18.5943 13.7531 18.7077 13.7183C19.4555 13.4813 20.2741 13.57 20.9534 13.962C22.2897 14.7336 22.7489 16.4498 21.9775 17.7864C21.2061 19.1229 19.4914 19.5823 18.1541 18.8107C17.4759 18.4187 16.9897 17.7549 16.8212 16.9901C16.7954 16.8744 16.6809 16.8014 16.5652 16.8261C16.4496 16.8519 16.3766 16.9665 16.4013 17.0822C16.5967 17.965 17.157 18.7298 17.9396 19.1825C18.4472 19.4756 19.0007 19.6149 19.5487 19.6149C20.6649 19.6149 21.7529 19.0353 22.3503 18.0009C23.2407 16.4588 22.7107 14.4798 21.169 13.5891V13.5903Z" fill="#111111"/>
<path d="M19.4727 16.5526C19.5468 16.5526 19.6198 16.5144 19.6591 16.4447C19.7186 16.3414 19.6827 16.21 19.5805 16.1516L15.5842 13.8435C15.4809 13.784 15.3495 13.8188 15.29 13.9221C15.2305 14.0254 15.2664 14.1569 15.3686 14.2153L19.3649 16.5234C19.3986 16.5424 19.4357 16.5526 19.4727 16.5526Z" fill="#111111"/>
<path d="M10.7522 19.54C10.6646 19.4592 10.5288 19.4648 10.4479 19.5524C10.1403 19.8848 9.9707 20.3184 9.9707 20.7721C9.9707 21.7628 10.7769 22.5692 11.7673 22.5692C12.7577 22.5692 13.5639 21.7628 13.5639 20.7721C13.5639 20.3172 13.3932 19.8826 13.0844 19.549C13.0036 19.4625 12.8677 19.4569 12.7801 19.5378C12.6937 19.6186 12.6881 19.7545 12.7689 19.8421C13.0047 20.096 13.1339 20.4262 13.1339 20.7721C13.1339 21.5258 12.5208 22.1401 11.7673 22.1401C11.0139 22.1401 10.4008 21.5269 10.4008 20.7721C10.4008 20.4273 10.5299 20.0971 10.7635 19.8444C10.8443 19.7568 10.8387 19.6209 10.7511 19.5411L10.7522 19.54Z" fill="#111111"/>
<path d="M13.6411 18.3998C13.5614 18.4874 13.567 18.6233 13.6546 18.703C14.234 19.232 14.5664 19.9857 14.5664 20.7708C14.5664 22.314 13.311 23.5697 11.7682 23.5697C10.2253 23.5697 8.96996 22.314 8.96996 20.7708C8.96996 19.9879 9.3012 19.2343 9.87949 18.7053C9.96707 18.6255 9.97268 18.4896 9.89296 18.402C9.81324 18.3144 9.67737 18.3088 9.58978 18.3885C8.92279 18.9995 8.54102 19.8677 8.54102 20.7708C8.54102 22.551 9.98953 23.9999 11.7693 23.9999C13.5491 23.9999 14.9976 22.551 14.9976 20.7708C14.9976 19.8655 14.6147 18.9962 13.9454 18.3863C13.8578 18.3066 13.722 18.3122 13.6423 18.3998H13.6411Z" fill="#111111"/>
<path d="M11.9827 20.6753V16.0602C11.9827 15.9412 11.8861 15.8457 11.7682 15.8457C11.6503 15.8457 11.5537 15.9423 11.5537 16.0602V20.6753C11.5537 20.7944 11.6503 20.8898 11.7682 20.8898C11.8861 20.8898 11.9827 20.7932 11.9827 20.6753Z" fill="#111111"/>
<path d="M3.29795 15.2027C3.59663 15.0297 3.94697 14.9769 4.28271 15.0533C4.39837 15.0814 4.51402 15.0072 4.53985 14.8916C4.56568 14.7759 4.49381 14.6602 4.37815 14.6344C3.93574 14.5344 3.47648 14.604 3.08348 14.8309C2.66801 15.0713 2.37045 15.4588 2.24581 15.9226C2.12117 16.3865 2.18517 16.8706 2.42547 17.2861C2.66577 17.7017 3.05316 17.9993 3.51691 18.124C3.67186 18.1656 3.82907 18.1858 3.98515 18.1858C4.29618 18.1858 4.60385 18.1038 4.8812 17.9443C5.27533 17.7163 5.56616 17.3524 5.69978 16.9166C5.73459 16.8032 5.67059 16.683 5.55718 16.6482C5.44377 16.6134 5.32362 16.6763 5.28881 16.7908C5.18663 17.121 4.96542 17.3985 4.66561 17.5725C4.34896 17.7556 3.98066 17.8039 3.62807 17.7096C3.27549 17.6152 2.98017 17.3883 2.79827 17.0727C2.61524 16.756 2.56695 16.3876 2.66127 16.0349C2.7556 15.6823 2.98242 15.3869 3.29795 15.2049V15.2027Z" fill="#111111"/>
<path d="M6.97053 16.8243C6.85487 16.7985 6.74034 16.8726 6.71451 16.9883C6.54608 17.7554 6.05987 18.4192 5.38053 18.8123C4.73263 19.1863 3.97918 19.2852 3.25717 19.092C2.53516 18.8988 1.93217 18.4349 1.55825 17.788C1.18434 17.1411 1.08552 16.3863 1.27866 15.6641C1.47179 14.9419 1.93554 14.3388 2.58232 13.9648C3.26054 13.5728 4.07799 13.484 4.82471 13.7199C4.93812 13.7558 5.05826 13.6929 5.0942 13.5795C5.13013 13.4661 5.06725 13.3459 4.95384 13.3099C4.09147 13.037 3.14937 13.1404 2.36673 13.593C1.62001 14.0243 1.08552 14.7206 0.86207 15.554C0.638617 16.3874 0.753151 17.2579 1.18434 18.0048C1.61552 18.7517 2.31171 19.2863 3.14488 19.5098C3.42335 19.5839 3.7052 19.621 3.98592 19.621C4.54511 19.621 5.09757 19.4739 5.595 19.1863C6.37877 18.7337 6.93909 17.9677 7.13447 17.0826C7.16029 16.967 7.08618 16.8524 6.97053 16.8266V16.8243Z" fill="#111111"/>
<path d="M7.9521 13.8454L3.95578 16.1535C3.85247 16.2131 3.81766 16.3445 3.87718 16.4467C3.91648 16.5152 3.98946 16.5545 4.06357 16.5545C4.0995 16.5545 4.13656 16.5455 4.17137 16.5253L8.16769 14.2172C8.271 14.1577 8.30581 14.0263 8.24629 13.9241C8.18678 13.8207 8.0554 13.7859 7.9521 13.8454Z" fill="#111111"/>
<path d="M4.66376 6.16586C4.96245 6.33882 5.18366 6.61512 5.28584 6.94421C5.32065 7.05765 5.44192 7.12167 5.55533 7.08573C5.66874 7.05091 5.73162 6.92961 5.69681 6.81617C5.56207 6.38376 5.27236 6.01985 4.87935 5.79297C4.02148 5.29765 2.91993 5.59305 2.42474 6.45114C1.92955 7.30924 2.22487 8.41106 3.08275 8.90637C3.35898 9.06586 3.66777 9.14785 3.97993 9.14785C4.11355 9.14785 4.2483 9.13325 4.38192 9.10293C4.49758 9.07597 4.56944 8.9614 4.54361 8.84572C4.51667 8.73003 4.40213 8.65816 4.28648 8.68399C3.94961 8.76149 3.59815 8.7087 3.29834 8.53573C2.64595 8.15835 2.42138 7.32047 2.79754 6.66791C3.17483 6.01536 4.01249 5.79072 4.66489 6.16698L4.66376 6.16586Z" fill="#111111"/>
<path d="M2.36686 10.1493C2.86205 10.4345 3.42124 10.5817 3.98268 10.5817C4.31056 10.5817 4.63956 10.5323 4.95734 10.4312C5.07075 10.3952 5.13363 10.2739 5.0977 10.1616C5.06176 10.0482 4.94049 9.98527 4.82821 10.0212C4.08037 10.2582 3.26179 10.1695 2.58245 9.77749C1.24623 9.00588 0.786968 7.28969 1.55839 5.95313C2.3298 4.61656 4.04444 4.15719 5.38178 4.9288C6.06 5.32079 6.54621 5.98457 6.71464 6.74944C6.74047 6.86513 6.855 6.93814 6.97066 6.91343C7.08631 6.88759 7.1593 6.77303 7.1346 6.65734C6.93922 5.77454 6.3789 5.00967 5.59625 4.55704C4.05454 3.66637 2.07603 4.19762 1.18559 5.7386C0.295148 7.2807 0.825146 9.25971 2.36686 10.1504V10.1493Z" fill="#111111"/>
<path d="M8.16598 9.52048L4.16966 7.21239C4.06635 7.15286 3.93498 7.1888 3.87547 7.29101C3.81595 7.39434 3.85188 7.52575 3.95407 7.58415L7.95039 9.89225C7.98408 9.91135 8.02113 9.92145 8.05819 9.92145C8.1323 9.92145 8.20528 9.88327 8.24458 9.81363C8.3041 9.7103 8.26816 9.57889 8.16598 9.52048Z" fill="#111111"/>
</svg>
