<svg width="306" height="202" viewBox="0 0 306 202" fill="none" xmlns="http://www.w3.org/2000/svg">
<path d="M0.268753 0.53125H7.01875L15.175 34C15.4563 35.0078 15.7844 36.4609 16.1594 38.3594C16.5344 40.2578 16.8508 41.7109 17.1086 42.7188H17.2492C18.0227 39.25 18.7375 36.2969 19.3938 33.8594L28.7102 0.53125H35.6711L44.6711 33.8594C44.9055 34.7266 45.175 35.8984 45.4797 37.375C45.8078 38.8281 46.2414 40.6094 46.7805 42.7188H46.9211C47.1555 41.6641 47.3898 40.6445 47.6242 39.6602C47.8586 38.6758 48.0695 37.6914 48.257 36.707C48.468 35.7227 48.6906 34.8203 48.925 34L57.5031 0.53125H64.0422L49.7336 52H43.5461L34.0891 15.7188C33.8547 14.9453 33.5969 13.8906 33.3156 12.5547C33.0344 11.2188 32.6711 9.66016 32.2258 7.87891H32.0852C31.8508 8.83984 31.5344 10.1641 31.1359 11.8516C30.7375 13.5391 30.4094 14.8281 30.1516 15.7188L20.0617 52H13.593L0.268753 0.53125ZM68.0781 52V0.53125H104.43V6.19141H74.582V22.4688H101.723V27.9531H74.582V46.0234H105.309V52H68.0781ZM120.728 52V0.53125H129.025L145.724 43.2812H145.865L162.423 0.53125H170.861V52H164.638V9.67188H164.498C164.216 10.4453 163.947 11.2305 163.689 12.0273C163.431 12.8242 162.939 14.1953 162.212 16.1406L148.08 52H143.123L129.025 16.1406C128.791 15.4609 128.533 14.7695 128.252 14.0664C127.994 13.3398 127.748 12.6133 127.513 11.8867C127.279 11.1602 127.009 10.4219 126.705 9.67188H126.564V52H120.728ZM174.58 52L193.53 0.53125H200.807L219.827 52H212.76L207.276 36.3203H186.78L181.225 52H174.58ZM188.643 31.0469H205.483L199.577 13.7852C198.85 11.5586 198.358 10 198.1 9.10938C197.842 8.21875 197.573 7.35156 197.291 6.50781H197.151C196.87 7.30469 196.612 8.10156 196.377 8.89844C196.143 9.69531 195.873 10.5273 195.569 11.3945C195.264 12.2617 194.995 13.0586 194.76 13.7852L188.643 31.0469ZM223.581 52V0.53125H230.085V26.0898L255.398 0.53125H263.554L242.741 21.0977L265.277 52H257.718L238.347 25.4922L230.085 33.7891V52H223.581ZM268.117 52V0.53125H304.469V6.19141H274.621V22.4688H301.762V27.9531H274.621V46.0234H305.348V52H268.117ZM82.8474 127.008C68.7354 127.008 61.3914 117.72 61.3914 104.328C61.3914 88.92 71.3994 73.368 88.5354 73.368C99.2634 73.368 106.175 79.344 107.039 89.784H100.631C99.6954 82.872 95.3754 78.912 87.8874 78.912C74.9994 78.912 68.0154 91.152 68.0154 104.112C68.0154 113.544 72.4074 121.392 83.0634 121.392C92.2794 121.392 97.3914 114.624 99.0474 107.136H105.383C104.447 112.176 102.143 116.856 98.6154 120.672C94.8714 124.704 89.1834 127.008 82.8474 127.008ZM131.994 127.08C118.962 127.08 108.81 118.584 108.81 103.536C108.81 87.192 119.538 73.368 135.882 73.368C148.914 73.368 158.85 81.936 158.85 97.056C158.85 113.616 148.77 127.08 131.994 127.08ZM115.434 103.536C115.434 114.768 121.842 121.464 132.138 121.464C145.386 121.464 152.298 110.664 152.298 97.128C152.298 86.256 146.034 78.912 135.594 78.912C122.562 78.912 115.434 90.072 115.434 103.536ZM184.757 127.08C171.725 127.08 161.573 118.584 161.573 103.536C161.573 87.192 172.301 73.368 188.645 73.368C201.677 73.368 211.613 81.936 211.613 97.056C211.613 113.616 201.533 127.08 184.757 127.08ZM168.197 103.536C168.197 114.768 174.605 121.464 184.901 121.464C198.149 121.464 205.061 110.664 205.061 97.128C205.061 86.256 198.797 78.912 188.357 78.912C175.325 78.912 168.197 90.072 168.197 103.536ZM211.887 126L221.823 74.52H228.159L219.375 120.096H245.223L244.071 126H211.887ZM35.1367 154.191V148.531H75.8828V154.191H58.7617V200H52.2578V154.191H35.1367ZM80.5164 200V148.531H87.0203V170.398H114.512V148.531H120.981V200H114.512V175.672H87.0203V200H80.5164ZM128.99 200V148.531H135.494V200H128.99ZM143.432 200V148.531H150.288L173.737 184.32C175.143 186.57 176.397 188.773 177.498 190.93H177.639V148.531H183.686V200H177.077L153.452 164.141C153.006 163.484 152.373 162.43 151.553 160.977C150.709 159.523 150.065 158.445 149.62 157.742H149.479V200H143.432ZM196.335 193.672C191.859 188.727 189.62 182.305 189.62 174.406C189.62 166.508 191.788 160.039 196.124 155C200.46 149.961 206.542 147.441 214.37 147.441C220.159 147.441 224.87 148.906 228.503 151.836C232.159 154.766 234.433 158.82 235.323 164H228.644C227.917 160.555 226.347 157.871 223.933 155.949C221.542 154.027 218.542 153.066 214.933 153.066C211.323 153.066 208.394 153.617 206.144 154.719C203.917 155.82 201.702 157.789 199.499 160.625C197.32 163.461 196.23 168.043 196.23 174.371C196.23 180.699 197.882 185.797 201.187 189.664C204.491 193.531 208.722 195.465 213.878 195.465C219.011 195.465 222.913 193.977 225.585 191C228.257 188 229.593 184.203 229.593 179.609V178.414H214.089V172.789H236.062V200H231.878L230.015 193.215H229.874C226.148 198.465 220.745 201.09 213.667 201.09C206.589 201.09 200.812 198.617 196.335 193.672ZM239.957 182.562H246.285C247.152 191.398 252.461 195.816 262.211 195.816C268 195.816 271.48 194.609 272.652 192.195C273.848 189.758 274.445 187.695 274.445 186.008C274.445 184.32 274.07 182.914 273.32 181.789C272.594 180.641 271.551 179.68 270.191 178.906C268.855 178.133 267.238 177.5 265.34 177.008C263.441 176.492 261.355 175.988 259.082 175.496C253.598 174.301 249.414 172.719 246.531 170.75C243.648 168.758 242.207 165.605 242.207 161.293C242.207 156.98 243.789 153.605 246.953 151.168C250.141 148.73 254.383 147.512 259.68 147.512C268.727 147.512 274.152 149.598 275.957 153.77C277.785 157.941 278.863 161.211 279.191 163.578H273.074C272.605 159.875 271.223 157.109 268.926 155.281C266.652 153.453 263.688 152.539 260.031 152.539C256.375 152.539 253.492 153.254 251.383 154.684C249.297 156.09 248.254 158.141 248.254 160.836C248.254 164.68 250.012 167.059 253.527 167.973C257.066 168.887 259.938 169.578 262.141 170.047C264.344 170.516 268.012 171.465 273.145 172.895C278.277 174.301 280.844 178.66 280.844 185.973C280.844 190.707 279.086 194.398 275.57 197.047C272.055 199.695 267.168 201.02 260.91 201.02C254.652 201.02 249.672 199.309 245.969 195.887C242.266 192.465 240.262 188.023 239.957 182.562Z" fill="#111111"/>
</svg>
