<svg width="1741" height="441" viewBox="0 0 1741 441" fill="none" xmlns="http://www.w3.org/2000/svg">
<path d="M109.15 432H162.25L244.85 134.64C251.93 109.86 260.78 70.33 260.78 70.33H261.96C261.96 70.33 270.81 109.86 277.3 134.64L354.59 432H405.33L522.74 10.15H469.05L398.84 284.5C392.35 310.46 382.32 355.89 382.32 355.89H381.14C381.14 355.89 371.7 311.64 364.03 283.32L290.28 10.15H233.05L156.94 283.32C149.27 311.05 139.24 355.89 139.24 355.89H138.06C138.06 355.89 129.21 312.82 122.13 284.5L55.46 10.15H0L109.15 432Z" fill="black"/>
<path d="M743.276 440.85C870.716 440.85 949.776 347.04 949.776 220.78C949.776 94.52 870.716 0.710022 743.276 0.710022C615.836 0.710022 536.776 94.52 536.776 220.78C536.776 347.04 615.836 440.85 743.276 440.85ZM743.276 394.24C644.156 394.24 591.056 319.9 591.056 220.78C591.056 121.66 644.156 46.73 743.276 46.73C842.396 46.73 895.496 121.66 895.496 220.78C895.496 319.9 842.396 394.24 743.276 394.24Z" fill="black"/>
<path d="M1013.07 432H1066.17V253.82H1183.58C1240.22 253.82 1265 275.65 1269.13 337.6C1273.85 408.4 1275.62 424.33 1284.47 432H1341.7V429.64C1334.03 424.33 1326.95 407.22 1322.23 339.37C1318.1 276.83 1304.53 247.33 1261.46 231.99V230.22C1312.2 213.7 1334.62 177.12 1334.62 125.79C1334.62 56.76 1284.47 10.15 1210.13 10.15H1013.07V432ZM1066.17 56.17H1194.2C1256.15 56.17 1279.75 82.13 1279.75 133.46C1279.75 181.25 1250.25 210.75 1191.25 210.75H1066.17V56.17Z" fill="black"/>
<path d="M1399.1 432H1452.2V282.73L1520.05 214.88L1678.76 432H1740.71L1556.04 178.89L1726.55 10.15H1659.88L1452.2 219.6V10.15H1399.1V432Z" fill="black"/>
</svg>
