<svg width="346" height="90" viewBox="0 0 346 90" fill="none" xmlns="http://www.w3.org/2000/svg">
<path d="M22.88 88L0.68 2.2H11.96L25.52 58C26.96 63.76 28.76 72.52 28.76 72.52H29C29 72.52 31.04 63.4 32.6 57.76L48.08 2.2H59.72L74.72 57.76C76.28 63.52 78.2 72.52 78.2 72.52H78.44C78.44 72.52 80.48 63.28 81.8 58L96.08 2.2H107L83.12 88H72.8L57.08 27.52C55.76 22.48 53.96 14.44 53.96 14.44H53.72C53.72 14.44 51.92 22.48 50.48 27.52L33.68 88H22.88ZM148.855 89.8C122.935 89.8 106.855 70.72 106.855 45.04C106.855 19.36 122.935 0.279999 148.855 0.279999C174.775 0.279999 190.855 19.36 190.855 45.04C190.855 70.72 174.775 89.8 148.855 89.8ZM148.855 80.32C169.015 80.32 179.815 65.2 179.815 45.04C179.815 24.88 169.015 9.63999 148.855 9.63999C128.695 9.63999 117.895 24.88 117.895 45.04C117.895 65.2 128.695 80.32 148.855 80.32ZM200.728 88V2.2H240.808C255.928 2.2 266.128 11.68 266.128 25.72C266.128 36.16 261.568 43.6 251.248 46.96V47.32C260.008 50.44 262.768 56.44 263.608 69.16C264.568 82.96 266.008 86.44 267.568 87.52V88H255.928C254.128 86.44 253.768 83.2 252.808 68.8C251.968 56.2 246.928 51.76 235.408 51.76H211.528V88H200.728ZM211.528 11.56V43H236.968C248.968 43 254.968 37 254.968 27.28C254.968 16.84 250.168 11.56 237.568 11.56H211.528ZM276.243 88V2.2H287.043V44.8L329.283 2.2H342.843L308.163 36.52L345.723 88H333.123L300.843 43.84L287.043 57.64V88H276.243Z" fill="white"/>
</svg>
