<svg width="2115" height="535" viewBox="0 0 2115 535" fill="none" xmlns="http://www.w3.org/2000/svg">
<path d="M5.09766 72.6562H38.8477L79.6289 240C81.0352 245.039 82.6758 252.305 84.5508 261.797C86.4258 271.289 88.0078 278.555 89.2969 283.594H90C93.8672 266.25 97.4414 251.484 100.723 239.297L147.305 72.6562H182.109L227.109 239.297C228.281 243.633 229.629 249.492 231.152 256.875C232.793 264.141 234.961 273.047 237.656 283.594H238.359C239.531 278.32 240.703 273.223 241.875 268.301C243.047 263.379 244.102 258.457 245.039 253.535C246.094 248.613 247.207 244.102 248.379 240L291.27 72.6562H323.965L252.422 330H221.484L174.199 148.594C173.027 144.727 171.738 139.453 170.332 132.773C168.926 126.094 167.109 118.301 164.883 109.395H164.18C163.008 114.199 161.426 120.82 159.434 129.258C157.441 137.695 155.801 144.141 154.512 148.594L104.062 330H71.7188L5.09766 72.6562ZM344.145 330V72.6562H376.664V181.992H514.125V72.6562H546.469V330H514.125V208.359H376.664V330H344.145ZM565.242 330L659.988 72.6562H696.375L791.473 330H756.141L728.719 251.602H626.238L598.465 330H565.242ZM635.555 225.234H719.754L690.223 138.926C686.59 127.793 684.129 120 682.84 115.547C681.551 111.094 680.203 106.758 678.797 102.539H678.094C676.688 106.523 675.398 110.508 674.227 114.492C673.055 118.477 671.707 122.637 670.184 126.973C668.66 131.309 667.312 135.293 666.141 138.926L635.555 225.234ZM761.73 100.957V72.6562H965.461V100.957H879.855V330H847.336V100.957H761.73ZM1017.95 72.6562H1051.7L1092.48 240C1093.89 245.039 1095.53 252.305 1097.4 261.797C1099.28 271.289 1100.86 278.555 1102.15 283.594H1102.85C1106.72 266.25 1110.29 251.484 1113.57 239.297L1160.16 72.6562H1194.96L1239.96 239.297C1241.13 243.633 1242.48 249.492 1244 256.875C1245.64 264.141 1247.81 273.047 1250.51 283.594H1251.21C1252.38 278.32 1253.55 273.223 1254.73 268.301C1255.9 263.379 1256.95 258.457 1257.89 253.535C1258.95 248.613 1260.06 244.102 1261.23 240L1304.12 72.6562H1336.82L1265.27 330H1234.34L1187.05 148.594C1185.88 144.727 1184.59 139.453 1183.18 132.773C1181.78 126.094 1179.96 118.301 1177.73 109.395H1177.03C1175.86 114.199 1174.28 120.82 1172.29 129.258C1170.29 137.695 1168.65 144.141 1167.36 148.594L1116.91 330H1084.57L1017.95 72.6562ZM1357 330V72.6562H1538.75V100.957H1389.52V182.344H1525.22V209.766H1389.52V300.117H1543.15V330H1357ZM1620.25 330V72.6562H1713.94C1751.67 72.6562 1780.09 84.3164 1799.19 107.637C1818.41 130.957 1828.02 162.363 1828.02 201.855C1828.02 241.348 1818.06 272.578 1798.14 295.547C1778.21 318.516 1749.27 330 1711.3 330H1620.25ZM1652.77 301.523H1710.25C1766.61 301.523 1794.8 268.066 1794.8 201.152C1794.8 134.121 1767.49 100.605 1712.88 100.605H1652.77V301.523ZM1856.46 254.59C1850.6 238.184 1847.67 220.371 1847.67 201.152C1847.67 181.934 1850.6 164.121 1856.46 147.715C1862.32 131.191 1870.64 116.953 1881.42 105C1892.32 93.0469 1905.56 83.7305 1921.15 77.0508C1936.73 70.2539 1954.25 66.8555 1973.71 66.8555C1993.16 66.8555 2010.68 70.2539 2026.27 77.0508C2041.85 83.7305 2055.04 93.0469 2065.82 105C2076.6 116.953 2084.92 131.191 2090.78 147.715C2096.75 164.121 2099.74 181.934 2099.74 201.152C2099.74 220.371 2096.75 238.184 2090.78 254.59C2084.92 270.996 2076.6 285.234 2065.82 297.305C2055.04 309.258 2041.85 318.633 2026.27 325.43C2010.68 332.109 1993.16 335.449 1973.71 335.449C1954.25 335.449 1936.73 332.109 1921.15 325.43C1905.56 318.633 1892.32 309.258 1881.42 297.305C1870.64 285.234 1862.32 270.996 1856.46 254.59ZM1886.7 159.141C1882.71 172.031 1880.72 186.035 1880.72 201.152C1880.72 216.27 1882.71 230.332 1886.7 243.34C1890.68 256.23 1896.6 267.363 1904.45 276.738C1912.42 286.113 1922.14 293.496 1933.63 298.887C1945.23 304.277 1958.59 306.973 1973.71 306.973C1988.82 306.973 2002.12 304.277 2013.61 298.887C2025.09 293.496 2034.82 286.113 2042.79 276.738C2050.76 267.363 2056.68 256.23 2060.54 243.34C2064.53 230.332 2066.52 216.27 2066.52 201.152C2066.52 186.035 2064.53 172.031 2060.54 159.141C2056.68 146.133 2050.76 134.883 2042.79 125.391C2034.82 115.898 2025.09 108.457 2013.61 103.066C2002.12 97.6758 1988.82 94.9805 1973.71 94.9805C1958.59 94.9805 1945.23 97.6758 1933.63 103.066C1922.14 108.457 1912.42 115.898 1904.45 125.391C1896.6 134.883 1890.68 146.133 1886.7 159.141Z" fill="#111111"/>
<g clip-path="url(#clip0_1335_96)">
<path d="M1539.83 510.244C1615.95 523.822 1688.67 473.121 1702.24 397C1715.82 320.879 1665.12 248.164 1589 234.585C1512.88 221.007 1440.16 271.708 1426.58 347.829C1413.01 423.951 1463.71 496.666 1539.83 510.244Z" fill="#FF0000"/>
<path d="M1538.01 262.629L1537.67 260.885L1545.25 255.935L1545.24 255.892L1536.34 254.113L1536 252.346L1546.58 254.589L1546.96 256.585L1538 262.637L1538.01 262.629Z" fill="#111111"/>
<path d="M1554.27 262.243L1553.78 244.752L1555.99 244.69L1556.2 252.124L1565.54 251.863L1565.34 244.429L1567.55 244.367L1568.04 261.857L1565.83 261.919L1565.59 253.657L1556.25 253.918L1556.49 262.181L1554.27 262.243Z" fill="#111111"/>
<path d="M1570.91 262.197L1572.14 244.739L1574.35 244.889L1573.12 262.347L1570.91 262.197Z" fill="#111111"/>
<path d="M1577.8 250.852L1578.47 245.289L1580.66 245.549L1579.99 251.112L1578.54 258.646L1577.43 258.508L1577.8 250.843L1577.8 250.852ZM1576.27 262.646L1576.56 260.221L1578.96 260.507L1578.67 262.931L1576.27 262.646Z" fill="#111111"/>
<path d="M1585.65 257.823L1587.7 258.331C1587.25 261.337 1588.65 263.23 1591.86 264.037C1593.78 264.51 1595.03 264.398 1595.62 263.692C1596.21 262.986 1596.58 262.351 1596.71 261.796C1596.84 261.24 1596.85 260.735 1596.69 260.301C1596.54 259.869 1596.28 259.467 1595.9 259.095C1595.52 258.722 1595.04 258.384 1594.46 258.047C1593.88 257.72 1593.25 257.353 1592.56 256.956C1590.84 256.122 1589.58 255.258 1588.79 254.376C1587.99 253.493 1587.77 252.357 1588.12 250.958C1588.47 249.56 1589.26 248.585 1590.51 248.036C1591.75 247.487 1593.24 247.428 1594.99 247.862C1597.99 248.61 1599.63 249.744 1599.89 251.273C1600.16 252.802 1600.25 253.964 1600.16 254.771L1598.11 254.263C1598.25 253.01 1598.03 251.986 1597.42 251.197C1596.81 250.408 1595.91 249.863 1594.7 249.565C1593.49 249.269 1592.48 249.26 1591.68 249.553C1590.86 249.845 1590.35 250.443 1590.13 251.328C1589.82 252.59 1590.21 253.513 1591.31 254.086C1592.41 254.657 1593.3 255.12 1593.98 255.474C1594.66 255.828 1595.8 256.418 1597.4 257.262C1599.01 258.097 1599.5 259.788 1598.87 262.323C1598.48 263.877 1597.6 264.948 1596.21 265.521C1594.81 266.105 1593.09 266.133 1591.02 265.622C1588.95 265.11 1587.45 264.133 1586.53 262.71C1585.6 261.275 1585.31 259.651 1585.66 257.825L1585.65 257.823Z" fill="#111111"/>
<path d="M1603.35 252.408L1604.05 250.614L1616.97 255.598L1616.28 257.392L1610.85 255.296L1605.25 269.824L1603.19 269.03L1608.79 254.503L1603.35 252.408Z" fill="#111111"/>
<path d="M1612.13 272.633L1620.57 257.316L1627.72 261.26C1629.09 262.011 1629.97 263.01 1630.36 264.246C1630.74 265.482 1630.6 266.726 1629.92 267.963C1628.84 269.921 1627.26 270.695 1625.18 270.294L1625.15 270.359C1626.03 271.369 1626.33 272.335 1626.03 273.237C1625.74 274.138 1625.45 274.899 1625.17 275.508C1624.23 277.552 1623.87 278.767 1624.1 279.142L1624.05 279.225L1621.97 278.083C1621.89 277.875 1621.93 277.528 1622.1 277.061C1622.28 276.585 1622.66 275.729 1623.24 274.474C1623.83 273.22 1624.01 272.236 1623.77 271.514C1623.53 270.802 1622.9 270.161 1621.86 269.591L1617.6 267.248L1614.03 273.714L1612.09 272.648L1612.13 272.633ZM1618.49 265.662L1623.04 268.167C1624.11 268.754 1625.05 268.952 1625.87 268.753C1626.69 268.553 1627.33 267.999 1627.83 267.093C1628.33 266.187 1628.47 265.371 1628.25 264.652C1628.04 263.934 1627.37 263.256 1626.24 262.629L1621.59 260.065L1618.5 265.663L1618.49 265.662Z" fill="#111111"/>
<path d="M1624.43 279.404L1640.07 269.267L1642.05 270.747L1636.73 288.621L1634.81 287.182L1636.51 281.803L1630.93 277.622L1626.22 280.749L1624.42 279.392L1624.43 279.404ZM1632.52 276.575L1637.1 280.011L1639.02 274.112C1639.27 273.356 1639.46 272.831 1639.57 272.537C1639.69 272.242 1639.79 271.946 1639.88 271.658L1639.85 271.631C1639.6 271.791 1639.37 271.953 1639.15 272.126C1638.92 272.299 1638.68 272.469 1638.42 272.635C1638.15 272.811 1637.92 272.973 1637.71 273.118L1632.53 276.567L1632.52 276.575Z" fill="#111111"/>
<path d="M1637.67 289.528L1650.05 277.176L1651.68 278.805L1648.7 293.049C1648.49 293.925 1648.26 294.757 1648.01 295.544L1648.05 295.58L1658.25 285.407L1659.69 286.85L1647.31 299.203L1645.74 297.625L1648.69 283.326C1648.74 283.06 1648.84 282.652 1649 282.112C1649.15 281.56 1649.25 281.143 1649.31 280.869L1649.28 280.833L1639.1 290.982L1637.67 289.538L1637.67 289.528Z" fill="#111111"/>
<path d="M1651.8 301.263C1652.26 299.041 1653.56 297.133 1655.73 295.551C1657.9 293.97 1660.11 293.267 1662.37 293.447C1664.63 293.627 1666.54 294.791 1668.12 296.948C1669.27 298.535 1669.82 300.125 1669.74 301.713C1669.67 303.304 1669.01 304.739 1667.77 306.019L1666.44 304.199C1667.24 303.306 1667.65 302.345 1667.69 301.298C1667.74 300.25 1667.39 299.235 1666.67 298.243C1665.94 297.251 1665.2 296.561 1664.45 296.163C1663.7 295.765 1662.71 295.558 1661.5 295.525C1660.28 295.49 1658.81 296.11 1657.07 297.383C1655.33 298.656 1654.27 300.13 1653.87 301.806C1653.48 303.491 1653.81 305.04 1654.84 306.453C1655.87 307.854 1657.05 308.623 1658.41 308.754C1659.76 308.882 1661.06 308.496 1662.32 307.575L1662.65 307.339L1659.54 303.09L1661.09 301.957L1665.51 307.99L1658.04 313.447L1657.2 312.302L1658.69 310.417L1658.66 310.381C1656.47 310.427 1654.67 309.476 1653.25 307.539C1651.83 305.591 1651.34 303.514 1651.8 301.283L1651.8 301.263Z" fill="#111111"/>
<path d="M1659.22 315.544L1674.68 307.354L1680.47 318.279L1678.76 319.183L1674.02 310.219L1669.13 312.807L1673.45 320.965L1671.8 321.838L1667.49 313.681L1662.06 316.559L1666.95 325.792L1665.16 326.741L1659.24 315.558L1659.22 315.544Z" fill="#111111"/>
<path d="M1665.93 328.574L1682.36 322.554L1685.17 330.22C1685.71 331.686 1685.72 333.017 1685.2 334.203C1684.69 335.39 1683.77 336.23 1682.43 336.713C1680.34 337.476 1678.63 337.029 1677.34 335.357L1677.27 335.386C1677.28 336.726 1676.87 337.648 1676.05 338.141C1675.23 338.635 1674.52 339.016 1673.92 339.293C1671.86 340.216 1670.8 340.898 1670.71 341.329L1670.62 341.364L1669.81 339.14C1669.89 338.93 1670.15 338.702 1670.58 338.455C1671.02 338.209 1671.88 337.813 1673.14 337.257C1674.41 336.702 1675.19 336.07 1675.49 335.372C1675.78 334.673 1675.72 333.78 1675.31 332.672L1673.64 328.102L1666.7 330.639L1665.95 328.566L1665.93 328.574ZM1675.31 327.497L1677.09 332.37C1677.51 333.521 1678.1 334.285 1678.83 334.66C1679.58 335.036 1680.43 335.046 1681.4 334.692C1682.37 334.337 1683.01 333.812 1683.33 333.128C1683.64 332.443 1683.58 331.488 1683.13 330.282L1681.31 325.3L1675.31 327.497Z" fill="#111111"/>
<path d="M1674.2 346.061L1675.95 345.723L1680.89 353.303L1680.94 353.29L1682.73 344.396L1684.49 344.051L1682.24 354.629L1680.24 355.014L1674.19 346.05L1674.2 346.061Z" fill="#111111"/>
<path d="M1674.59 362.325L1692.08 361.833L1692.14 364.046L1684.71 364.252L1684.97 373.594L1692.4 373.387L1692.46 375.6L1674.97 376.093L1674.91 373.88L1683.18 373.65L1682.92 364.309L1674.65 364.538L1674.59 362.325Z" fill="#111111"/>
<path d="M1674.62 378.963L1692.08 380.2L1691.92 382.404L1674.46 381.167L1674.62 378.963Z" fill="#111111"/>
<path d="M1674.17 384.32L1676.59 384.611L1676.3 387.005L1673.88 386.715L1674.17 384.32ZM1685.96 385.846L1691.52 386.513L1691.26 388.709L1685.7 388.042L1678.16 386.586L1678.3 385.474L1685.97 385.847L1685.96 385.846Z" fill="#111111"/>
<path d="M1678.99 393.694L1678.48 395.745C1675.47 395.3 1673.57 396.686 1672.77 399.912C1672.3 401.827 1672.41 403.075 1673.12 403.667C1673.82 404.26 1674.46 404.627 1675.01 404.766C1675.58 404.907 1676.06 404.903 1676.51 404.749C1676.94 404.603 1677.34 404.34 1677.71 403.959C1678.08 403.578 1678.42 403.102 1678.76 402.523C1679.1 401.944 1679.46 401.307 1679.85 400.617C1680.7 398.9 1681.55 397.642 1682.43 396.846C1683.32 396.049 1684.45 395.826 1685.85 396.177C1687.25 396.528 1688.22 397.321 1688.77 398.565C1689.32 399.81 1689.38 401.302 1688.95 403.051C1688.2 406.053 1687.06 407.687 1685.54 407.943C1684.01 408.208 1682.85 408.295 1682.04 408.212L1682.55 406.161C1683.8 406.303 1684.82 406.08 1685.61 405.47C1686.4 404.86 1686.95 403.963 1687.25 402.747C1687.54 401.542 1687.55 400.529 1687.26 399.725C1686.97 398.912 1686.38 398.402 1685.48 398.181C1684.22 397.865 1683.3 398.258 1682.73 399.354C1682.16 400.449 1681.69 401.341 1681.34 402.018C1680.98 402.696 1680.39 403.839 1679.55 405.444C1678.7 407.049 1677.03 407.53 1674.49 406.905C1672.93 406.517 1671.86 405.636 1671.29 404.244C1670.72 402.853 1670.68 401.132 1671.19 399.062C1671.7 396.991 1672.68 395.492 1674.1 394.568C1675.54 393.637 1677.16 393.348 1678.99 393.694Z" fill="#111111"/>
<path d="M1684.4 411.403L1686.2 412.099L1681.21 425.02L1679.42 424.325L1681.51 418.894L1666.99 413.289L1667.78 411.229L1682.31 416.834L1684.4 411.403Z" fill="#111111"/>
<path d="M1664.17 420.174L1679.48 428.619L1675.54 435.769C1674.79 437.137 1673.79 438.014 1672.55 438.403C1671.32 438.791 1670.07 438.65 1668.84 437.963C1666.88 436.883 1666.11 435.304 1666.51 433.224L1666.44 433.192C1665.43 434.078 1664.47 434.372 1663.56 434.079C1662.66 433.787 1661.9 433.499 1661.29 433.218C1659.25 432.275 1658.03 431.916 1657.66 432.143L1657.57 432.098L1658.72 430.018C1658.92 429.934 1659.27 429.985 1659.74 430.15C1660.21 430.315 1661.07 430.702 1662.33 431.291C1663.58 431.88 1664.56 432.066 1665.29 431.819C1666 431.581 1666.64 430.945 1667.21 429.91L1669.56 425.651L1663.1 422.083L1664.16 420.142L1664.17 420.174ZM1671.14 426.542L1668.63 431.087C1668.04 432.158 1667.85 433.098 1668.05 433.905C1668.25 434.712 1668.8 435.369 1669.71 435.866C1670.61 436.362 1671.43 436.508 1672.15 436.301C1672.88 436.086 1673.54 435.413 1674.17 434.287L1676.73 429.64L1671.14 426.551L1671.14 426.542Z" fill="#111111"/>
<path d="M1657.39 432.47L1667.51 448.127L1666.02 450.104L1648.15 444.775L1649.59 442.85L1654.97 444.56L1659.15 438.984L1656.02 434.276L1657.38 432.468L1657.39 432.47ZM1660.21 440.565L1656.78 445.148L1662.68 447.062C1663.43 447.319 1663.96 447.504 1664.25 447.617C1664.55 447.731 1664.84 447.834 1665.12 447.924L1665.15 447.889C1664.99 447.647 1664.83 447.415 1664.65 447.192C1664.48 446.968 1664.31 446.724 1664.15 446.461C1663.97 446.197 1663.81 445.965 1663.66 445.756L1660.21 440.575L1660.21 440.565Z" fill="#111111"/>
<path d="M1647.25 445.721L1659.6 458.112L1657.97 459.739L1643.73 456.752C1642.85 456.545 1642.02 456.316 1641.23 456.064L1641.2 456.098L1651.37 466.304L1649.93 467.741L1637.58 455.35L1639.16 453.785L1653.45 456.741C1653.72 456.789 1654.13 456.892 1654.67 457.049C1655.22 457.198 1655.64 457.303 1655.91 457.362L1655.95 457.328L1645.81 447.148L1647.25 445.711L1647.25 445.721Z" fill="#111111"/>
<path d="M1635.52 459.834C1637.74 460.291 1639.65 461.605 1641.23 463.765C1642.81 465.934 1643.52 468.14 1643.34 470.401C1643.16 472.662 1641.99 474.575 1639.83 476.149C1638.25 477.307 1636.66 477.855 1635.07 477.775C1633.48 477.704 1632.04 477.042 1630.76 475.799L1632.58 474.47C1633.48 475.269 1634.44 475.683 1635.48 475.728C1636.53 475.773 1637.55 475.426 1638.54 474.71C1639.53 473.984 1640.22 473.245 1640.62 472.494C1641.02 471.743 1641.22 470.755 1641.26 469.543C1641.29 468.331 1640.67 466.851 1639.41 465.114C1638.14 463.376 1636.66 462.31 1634.98 461.92C1633.3 461.528 1631.76 461.852 1630.34 462.887C1628.94 463.916 1628.17 465.098 1628.03 466.453C1627.9 467.8 1628.28 469.106 1629.21 470.367L1629.44 470.693L1633.69 467.594L1634.82 469.146L1628.79 473.55L1623.33 466.082L1624.48 465.241L1626.36 466.734L1626.4 466.71C1626.35 464.52 1627.3 462.721 1629.25 461.303C1631.2 459.885 1633.28 459.404 1635.51 459.851L1635.52 459.834Z" fill="#111111"/>
<path d="M1621.24 467.241L1629.42 482.703L1618.5 488.477L1617.59 486.774L1626.56 482.03L1623.97 477.135L1615.81 481.443L1614.94 479.796L1623.1 475.487L1620.22 470.053L1610.99 474.94L1610.04 473.148L1621.22 467.228L1621.24 467.241Z" fill="#111111"/>
<path d="M1608.21 473.958L1614.22 490.393L1606.54 493.194C1605.08 493.735 1603.75 493.741 1602.56 493.225C1601.37 492.709 1600.53 491.788 1600.05 490.453C1599.29 488.359 1599.74 486.653 1601.41 485.358L1601.38 485.292C1600.04 485.296 1599.12 484.888 1598.62 484.07C1598.13 483.261 1597.75 482.544 1597.47 481.936C1596.55 479.884 1595.88 478.811 1595.44 478.732L1595.4 478.644L1597.63 477.834C1597.83 477.911 1598.06 478.165 1598.31 478.605C1598.56 479.045 1598.95 479.897 1599.51 481.163C1600.06 482.439 1600.69 483.211 1601.38 483.506C1602.07 483.802 1602.97 483.74 1604.08 483.329L1608.65 481.658L1606.12 474.721L1608.19 473.964L1608.21 473.958ZM1609.29 483.334L1604.41 485.113C1603.26 485.536 1602.5 486.121 1602.12 486.855C1601.75 487.6 1601.74 488.451 1602.09 489.427C1602.45 490.394 1602.97 491.035 1603.66 491.35C1604.34 491.665 1605.3 491.602 1606.5 491.157L1611.48 489.337L1609.29 483.334Z" fill="#111111"/>
<path d="M1590.69 482.219L1591.03 483.964L1583.44 488.901L1583.46 488.944L1592.35 490.734L1592.69 492.51L1582.12 490.248L1581.73 488.251L1590.7 482.199L1590.69 482.219Z" fill="#111111"/>
<path d="M1574.45 482.589L1574.93 500.078L1572.72 500.14L1572.52 492.706L1563.17 492.967L1563.38 500.402L1561.17 500.463L1560.68 482.975L1562.9 482.913L1563.13 491.183L1572.47 490.922L1572.24 482.651L1574.45 482.589Z" fill="#111111"/>
<path d="M1557.81 482.623L1556.57 500.079L1554.36 499.92L1555.6 482.464L1557.81 482.623Z" fill="#111111"/>
<path d="M1552.46 482.167L1552.17 484.591L1549.77 484.306L1550.06 481.882L1552.46 482.167ZM1550.92 493.968L1550.25 499.531L1548.06 499.262L1548.73 493.698L1550.18 486.165L1551.29 486.302L1550.92 493.968Z" fill="#111111"/>
<path d="M1543.08 486.977L1541.03 486.469C1541.47 483.464 1540.08 481.563 1536.86 480.764C1534.94 480.291 1533.7 480.403 1533.1 481.109C1532.51 481.815 1532.14 482.45 1532 483.003C1531.86 483.557 1531.86 484.064 1532.02 484.498C1532.17 484.93 1532.43 485.332 1532.81 485.704C1533.19 486.067 1533.67 486.415 1534.25 486.752C1534.83 487.079 1535.46 487.446 1536.15 487.843C1537.87 488.687 1539.13 489.541 1539.92 490.423C1540.72 491.306 1540.94 492.442 1540.59 493.841C1540.24 495.239 1539.45 496.214 1538.2 496.763C1536.96 497.312 1535.47 497.371 1533.72 496.937C1530.72 496.189 1529.08 495.055 1528.83 493.528C1528.57 492.001 1528.48 490.837 1528.57 490.031L1530.62 490.539C1530.47 491.791 1530.7 492.817 1531.3 493.604C1531.9 494.39 1532.81 494.938 1534.02 495.236C1535.23 495.532 1536.24 495.54 1537.04 495.247C1537.86 494.956 1538.37 494.367 1538.59 493.473C1538.91 492.21 1538.51 491.288 1537.42 490.717C1536.32 490.146 1535.43 489.682 1534.75 489.328C1534.07 488.974 1532.93 488.375 1531.33 487.54C1529.72 486.706 1529.24 485.017 1529.86 482.48C1530.25 480.925 1531.14 479.857 1532.53 479.281C1533.92 478.707 1535.64 478.669 1537.71 479.19C1539.77 479.712 1541.28 480.68 1542.2 482.112C1543.13 483.547 1543.42 485.171 1543.07 486.997L1543.08 486.977Z" fill="#111111"/>
<path d="M1525.37 492.393L1524.67 494.187L1511.75 489.193L1512.45 487.399L1517.88 489.494L1523.49 474.97L1525.55 475.764L1519.94 490.288L1525.37 492.383L1525.37 492.393Z" fill="#111111"/>
<path d="M1516.61 472.159L1508.15 487.475L1501 483.531C1499.63 482.78 1498.76 481.781 1498.37 480.545C1497.98 479.309 1498.13 478.067 1498.81 476.828C1499.89 474.87 1501.47 474.096 1503.54 474.507L1503.58 474.442C1502.69 473.431 1502.4 472.466 1502.69 471.564C1502.98 470.662 1503.27 469.902 1503.55 469.293C1504.49 467.249 1504.86 466.036 1504.63 465.66L1504.68 465.577L1506.75 466.718C1506.83 466.925 1506.79 467.273 1506.62 467.739C1506.44 468.215 1506.07 469.072 1505.48 470.326C1504.89 471.581 1504.7 472.563 1504.95 473.277C1505.19 473.989 1505.83 474.63 1506.86 475.2L1511.12 477.553L1514.69 471.086L1516.63 472.153L1516.61 472.159ZM1510.24 479.131L1505.69 476.626C1504.62 476.029 1503.68 475.841 1502.86 476.04C1502.06 476.241 1501.4 476.794 1500.9 477.699C1500.41 478.605 1500.26 479.422 1500.47 480.138C1500.68 480.867 1501.36 481.535 1502.48 482.162L1507.13 484.726L1510.22 479.127L1510.24 479.131Z" fill="#111111"/>
<path d="M1504.31 465.369L1488.65 475.494L1486.68 474.005L1492.02 456.134L1493.94 457.573L1492.23 462.951L1497.81 467.132L1502.52 464.004L1504.32 465.361L1504.31 465.369ZM1496.21 468.196L1491.63 464.762L1489.72 470.661C1489.46 471.417 1489.28 471.942 1489.16 472.236C1489.05 472.531 1488.95 472.827 1488.86 473.115L1488.89 473.142C1489.13 472.982 1489.36 472.82 1489.59 472.647C1489.81 472.474 1490.06 472.304 1490.32 472.138C1490.58 471.962 1490.82 471.8 1491.02 471.655L1496.21 468.217L1496.21 468.196Z" fill="#111111"/>
<path d="M1491.06 455.223L1478.66 467.563L1477.04 465.923L1480.02 451.681C1480.23 450.805 1480.46 449.973 1480.71 449.186L1480.68 449.15L1470.46 459.321L1469.03 457.878L1481.42 445.538L1482.99 447.116L1480.02 461.413C1479.98 461.678 1479.87 462.086 1479.72 462.626C1479.57 463.178 1479.46 463.595 1479.4 463.869L1479.44 463.906L1489.62 453.768L1491.05 455.211L1491.06 455.223Z" fill="#111111"/>
<path d="M1476.96 443.494C1476.5 445.716 1475.19 447.622 1473.03 449.206C1470.87 450.789 1468.65 451.49 1466.39 451.31C1464.13 451.129 1462.22 449.956 1460.64 447.808C1459.49 446.222 1458.94 444.632 1459.02 443.043C1459.09 441.453 1459.75 440.018 1460.99 438.738L1462.32 440.558C1461.52 441.451 1461.11 442.412 1461.07 443.459C1461.02 444.506 1461.36 445.52 1462.08 446.512C1462.81 447.504 1463.55 448.194 1464.3 448.592C1465.05 448.99 1466.04 449.197 1467.25 449.24C1468.46 449.283 1469.94 448.655 1471.68 447.392C1473.42 446.129 1474.48 444.645 1474.87 442.969C1475.26 441.293 1474.94 439.744 1473.91 438.323C1472.89 436.922 1471.7 436.153 1470.35 436.013C1468.99 435.873 1467.7 436.27 1466.44 437.182L1466.11 437.418L1469.21 441.665L1467.66 442.798L1463.25 436.767L1470.72 431.31L1471.56 432.455L1470.07 434.339L1470.1 434.376C1472.29 434.33 1474.09 435.28 1475.51 437.228C1476.93 439.175 1477.41 441.26 1476.95 443.482L1476.96 443.494Z" fill="#111111"/>
<path d="M1469.55 429.204L1454.08 437.383L1448.31 426.46L1450.01 425.566L1454.75 434.54L1459.65 431.953L1455.34 423.797L1456.99 422.924L1461.29 431.08L1466.73 428.213L1461.85 418.982L1463.64 418.033L1469.55 429.224L1469.55 429.204Z" fill="#111111"/>
<path d="M1462.85 416.176L1446.41 422.175L1443.61 414.501C1443.08 413.036 1443.07 411.704 1443.58 410.517C1444.1 409.331 1445.02 408.491 1446.35 408.008C1448.45 407.245 1450.15 407.692 1451.45 409.364L1451.52 409.335C1451.51 407.985 1451.92 407.073 1452.74 406.58C1453.56 406.086 1454.26 405.705 1454.87 405.428C1456.92 404.505 1458 403.834 1458.08 403.392L1458.16 403.357L1458.97 405.581C1458.9 405.791 1458.64 406.019 1458.2 406.266C1457.76 406.512 1456.91 406.908 1455.64 407.463C1454.37 408.017 1453.6 408.651 1453.3 409.339C1453.01 410.038 1453.07 410.931 1453.48 412.039L1455.15 416.609L1462.09 414.072L1462.84 416.145L1462.85 416.176ZM1453.47 417.254L1451.69 412.38C1451.27 411.229 1450.69 410.467 1449.95 410.081C1449.21 409.704 1448.36 409.695 1447.38 410.048C1446.41 410.404 1445.77 410.928 1445.46 411.613C1445.14 412.298 1445.2 413.252 1445.65 414.468L1447.47 419.45L1453.47 417.254Z" fill="#111111"/>
<path d="M1454.6 398.661L1452.85 399L1447.91 391.411L1447.87 391.424L1446.07 400.317L1444.3 400.66L1446.56 390.084L1448.55 389.699L1454.59 398.671L1454.6 398.661Z" fill="#111111"/>
<path d="M1454.23 382.411L1436.74 382.884L1436.68 380.671L1444.11 380.464L1443.86 371.125L1436.43 371.331L1436.36 369.118L1453.85 368.645L1453.91 370.858L1445.64 371.087L1445.89 380.427L1454.17 380.198L1454.23 382.411Z" fill="#111111"/>
<path d="M1454.19 365.773L1436.74 364.527L1436.9 362.323L1454.35 363.569L1454.19 365.773Z" fill="#111111"/>
<path d="M1442.86 358.881L1437.3 358.203L1437.57 356.009L1443.13 356.686L1450.66 358.151L1450.52 359.263L1442.86 358.89L1442.86 358.881ZM1454.66 360.417L1452.24 360.127L1452.52 357.732L1454.94 358.023L1454.66 360.417Z" fill="#111111"/>
<path d="M1449.85 351.035L1450.36 348.985C1453.36 349.43 1455.26 348.044 1456.06 344.827C1456.53 342.913 1456.42 341.665 1455.72 341.072C1455.01 340.479 1454.37 340.112 1453.82 339.973C1453.27 339.834 1452.77 339.836 1452.33 339.991C1451.89 340.137 1451.49 340.4 1451.12 340.78C1450.76 341.162 1450.41 341.638 1450.07 342.217C1449.74 342.796 1449.38 343.432 1448.98 344.123C1448.14 345.839 1447.28 347.097 1446.4 347.894C1445.52 348.69 1444.38 348.914 1442.98 348.563C1441.58 348.212 1440.61 347.419 1440.06 346.174C1439.51 344.93 1439.45 343.438 1439.9 341.69C1440.65 338.688 1441.79 337.056 1443.31 336.799C1444.83 336.543 1446 336.447 1446.8 336.54L1446.29 338.59C1445.04 338.438 1444.02 338.671 1443.23 339.271C1442.44 339.872 1441.9 340.779 1441.6 341.994C1441.3 343.199 1441.29 344.213 1441.59 345.016C1441.88 345.829 1442.47 346.34 1443.36 346.56C1444.62 346.877 1445.55 346.483 1446.12 345.388C1446.69 344.292 1447.15 343.401 1447.51 342.723C1447.86 342.045 1448.46 340.904 1449.29 339.298C1450.13 337.691 1451.82 337.211 1454.35 337.836C1455.91 338.225 1456.98 339.116 1457.55 340.497C1458.13 341.888 1458.16 343.61 1457.64 345.678C1457.12 347.746 1456.15 349.248 1454.72 350.17C1453.29 351.101 1451.66 351.39 1449.84 351.034L1449.85 351.035Z" fill="#111111"/>
<path d="M1444.44 333.318L1442.65 332.623L1447.64 319.703L1449.44 320.399L1447.34 325.829L1461.87 331.444L1461.07 333.504L1446.55 327.889L1444.45 333.32L1444.44 333.318Z" fill="#111111"/>
<path d="M1464.68 324.568L1449.36 316.103L1453.32 308.954C1454.07 307.586 1455.07 306.709 1456.3 306.321C1457.54 305.932 1458.78 306.083 1460.02 306.761C1461.97 307.839 1462.75 309.419 1462.34 311.497L1462.41 311.529C1463.43 310.646 1464.38 310.349 1465.28 310.642C1466.19 310.935 1466.95 311.223 1467.56 311.504C1469.6 312.457 1470.81 312.816 1471.19 312.588L1471.27 312.634L1470.13 314.713C1469.92 314.798 1469.57 314.746 1469.11 314.572C1468.63 314.395 1467.78 314.019 1466.52 313.42C1465.27 312.831 1464.29 312.646 1463.56 312.892C1462.85 313.131 1462.21 313.767 1461.64 314.802L1459.29 319.06L1465.75 322.629L1464.69 324.56L1464.68 324.568ZM1457.72 318.192L1460.22 313.656C1460.82 312.585 1461.01 311.645 1460.81 310.828C1460.61 310.011 1460.05 309.364 1459.15 308.868C1458.24 308.371 1457.42 308.226 1456.71 308.433C1455.98 308.648 1455.31 309.32 1454.68 310.446L1452.12 315.093L1457.72 318.182L1457.72 318.192Z" fill="#111111"/>
<path d="M1471.46 312.283L1461.35 296.617L1462.84 294.641L1480.71 299.979L1479.27 301.904L1473.89 300.194L1469.71 305.759L1472.83 310.467L1471.48 312.275L1471.46 312.283ZM1468.65 304.18L1472.09 299.609L1466.19 297.684C1465.44 297.428 1464.91 297.243 1464.62 297.129C1464.32 297.016 1464.04 296.914 1463.75 296.822L1463.72 296.858C1463.88 297.1 1464.05 297.331 1464.22 297.555C1464.39 297.779 1464.56 298.022 1464.73 298.285C1464.9 298.55 1465.07 298.782 1465.21 298.99L1468.65 304.18Z" fill="#111111"/>
<path d="M1481.62 299.036L1469.28 286.636L1470.92 285.011L1485.16 288.008C1486.04 288.215 1486.87 288.444 1487.66 288.696L1487.69 288.662L1477.53 278.448L1478.97 277.011L1491.31 289.41L1489.74 290.975L1475.44 288.009C1475.17 287.962 1474.77 287.858 1474.23 287.701C1473.67 287.552 1473.26 287.447 1472.98 287.388L1472.95 287.422L1483.07 297.6L1481.63 299.037L1481.62 299.036Z" fill="#111111"/>
<path d="M1493.36 284.934C1491.14 284.477 1489.23 283.163 1487.65 280.993C1486.07 278.824 1485.37 276.618 1485.55 274.357C1485.72 272.106 1486.9 270.185 1489.05 268.609C1490.63 267.451 1492.22 266.913 1493.81 266.983C1495.4 267.054 1496.84 267.716 1498.12 268.959L1496.3 270.288C1495.4 269.49 1494.44 269.075 1493.4 269.03C1492.35 268.985 1491.34 269.322 1490.34 270.048C1489.35 270.774 1488.66 271.514 1488.26 272.265C1487.87 273.016 1487.65 274.002 1487.62 275.213C1487.58 276.435 1488.2 277.905 1489.46 279.643C1490.73 281.38 1492.2 282.445 1493.89 282.837C1495.56 283.227 1497.11 282.914 1498.53 281.879C1499.93 280.851 1500.7 279.669 1500.84 278.314C1500.98 276.968 1500.59 275.66 1499.67 274.401L1499.44 274.075L1495.19 277.174L1494.06 275.622L1500.09 271.218L1505.55 278.686L1504.4 279.527L1502.52 278.034L1502.48 278.068C1502.53 280.258 1501.58 282.057 1499.63 283.475C1497.68 284.893 1495.6 285.374 1493.37 284.917L1493.36 284.934Z" fill="#111111"/>
<path d="M1507.67 277.522L1499.5 262.052L1510.43 256.29L1511.33 257.992L1502.36 262.723L1504.94 267.619L1513.1 263.31L1513.97 264.958L1505.82 269.266L1508.68 274.699L1517.92 269.823L1518.87 271.616L1507.68 277.524L1507.67 277.522Z" fill="#111111"/>
<path d="M1520.7 270.825L1514.7 254.392L1522.37 251.59C1523.84 251.05 1525.17 251.044 1526.35 251.57C1527.54 252.086 1528.38 253.017 1528.86 254.341C1529.63 256.436 1529.17 258.14 1527.51 259.437L1527.54 259.503C1528.89 259.51 1529.8 259.906 1530.29 260.725C1530.79 261.534 1531.17 262.251 1531.44 262.868C1532.36 264.93 1533.04 265.994 1533.47 266.071L1533.5 266.158L1531.28 266.969C1531.07 266.891 1530.84 266.637 1530.59 266.198C1530.35 265.758 1529.95 264.906 1529.4 263.64C1528.84 262.364 1528.21 261.582 1527.52 261.296C1526.82 261.009 1525.93 261.063 1524.82 261.464L1520.25 263.135L1522.78 270.07L1520.71 270.827L1520.7 270.825ZM1519.63 261.441L1524.5 259.662C1525.66 259.239 1526.42 258.664 1526.8 257.921C1527.19 257.178 1527.19 256.326 1526.85 255.351C1526.49 254.385 1525.97 253.743 1525.28 253.428C1524.6 253.113 1523.64 253.177 1522.43 253.619L1517.44 255.44L1519.63 261.451L1519.63 261.441Z" fill="#111111"/>
<path d="M1473.19 380.821L1480.72 338.642L1489.27 340.168L1486.32 356.739L1502.89 359.695L1505.84 343.124L1514.4 344.65L1506.87 386.83L1498.32 385.303L1501.63 366.716L1485.06 363.76L1481.75 382.348L1473.19 380.821Z" fill="#111111"/>
<path d="M1512.77 387.88L1520.29 345.701L1551.32 351.235L1550.03 358.434L1527.56 354.425L1525.88 363.847L1545.59 367.362L1544.34 374.394L1524.63 370.878L1522.61 382.198L1545.26 386.238L1543.97 393.437L1512.77 387.871L1512.77 387.88Z" fill="#111111"/>
<path d="M1548.68 394.287L1556.21 352.107L1564.76 353.633L1558.52 388.614L1578.35 392.151L1577.06 399.349L1548.68 394.287Z" fill="#111111"/>
<path d="M1581.06 400.062L1588.58 357.882L1597.14 359.408L1590.9 394.389L1610.72 397.926L1609.44 405.124L1581.06 400.062Z" fill="#111111"/>
<path d="M1613.42 393.202C1612.96 390.348 1613.01 387.343 1613.57 384.186C1614.13 381.03 1615.13 378.193 1616.55 375.667C1617.97 373.141 1619.75 371.052 1621.88 369.412C1624.01 367.773 1626.42 366.621 1629.14 365.969C1631.85 365.316 1634.76 365.267 1637.87 365.822C1640.98 366.376 1643.69 367.428 1645.98 368.974C1648.29 370.521 1650.15 372.436 1651.56 374.707C1652.98 376.979 1653.91 379.55 1654.37 382.414C1654.84 385.277 1654.79 388.291 1654.22 391.438C1653.66 394.585 1652.67 397.422 1651.25 399.948C1649.82 402.465 1648.06 404.545 1645.94 406.187C1643.82 407.818 1641.42 408.972 1638.73 409.629C1636.04 410.285 1633.14 410.336 1630.03 409.781C1626.92 409.227 1624.2 408.173 1621.89 406.624C1619.56 405.074 1617.69 403.157 1616.26 400.892C1614.83 398.628 1613.89 396.065 1613.42 393.202ZM1622.3 385.744C1621.51 390.16 1621.9 393.932 1623.45 397.07C1625 400.208 1627.62 402.097 1631.32 402.757C1635.02 403.416 1638.11 402.537 1640.59 400.128C1643.07 397.719 1644.7 394.306 1645.49 389.881C1646.28 385.455 1645.93 381.688 1644.45 378.543C1642.97 375.407 1640.37 373.502 1636.65 372.839C1632.93 372.176 1629.81 373.06 1627.28 375.49C1624.74 377.92 1623.08 381.337 1622.29 385.733L1622.3 385.744Z" fill="#111111"/>
</g>
<defs>
<clipPath id="clip0_1335_96">
<rect width="280" height="280" fill="white" transform="translate(1451.17 210) rotate(10.1138)"/>
</clipPath>
</defs>
</svg>
