<svg width="375" height="89" viewBox="0 0 375 89" fill="none" xmlns="http://www.w3.org/2000/svg">
<path d="M-15.274 68L-28.964 15.09H-22.008L-13.646 49.5L-11.648 58.454H-11.5C-10.6613 54.7047 -9.92133 51.6707 -9.28 49.352L0.266001 15.09H7.444L16.694 49.352L18.84 58.454H18.988C19.8267 54.6553 20.5173 51.6707 21.06 49.5L29.866 15.09H36.6L21.874 68H15.51L5.816 30.704L3.892 22.638H3.744C3.004 25.9433 2.338 28.632 1.746 30.704L-8.614 68H-15.274ZM40.7486 68V15.09H47.4086V37.586H75.6766V15.09H82.3366V68H75.6766V42.988H47.4086V68H40.7486ZM86.206 68L105.668 15.09H113.142L132.678 68H125.426L119.802 51.868H98.712L93.014 68H86.206ZM106.926 28.706L100.636 46.466H117.952L111.884 28.706L109.516 21.232H109.368C108.431 24.192 107.617 26.6833 106.926 28.706ZM126.58 20.936V15.09H168.464V20.936H150.852V68H144.192V20.936H126.58ZM192.923 68L179.233 15.09H186.189L194.551 49.5L196.549 58.454H196.697C197.536 54.7047 198.276 51.6707 198.917 49.352L208.463 15.09H215.641L224.891 49.352L227.037 58.454H227.185C228.024 54.6553 228.715 51.6707 229.257 49.5L238.063 15.09H244.797L230.071 68H223.707L214.013 30.704L212.089 22.638H211.941C211.201 25.9433 210.535 28.632 209.943 30.704L199.583 68H192.923ZM248.946 68V15.09H286.316V20.936H255.606V37.66H283.504V43.284H255.606V61.858H287.204V68H248.946ZM303.058 68V15.09H322.298C330.044 15.09 335.89 17.4827 339.836 22.268C343.783 27.0533 345.756 33.5407 345.756 41.73C345.756 49.87 343.709 56.2833 339.614 60.97C335.52 65.6567 329.575 68 321.78 68H303.058ZM309.718 62.154H321.558C333.152 62.154 338.948 55.346 338.948 41.73C338.948 27.818 333.324 20.862 322.076 20.862H309.718V62.154ZM394.492 61.34C389.806 66.52 383.54 69.11 375.696 69.11C367.852 69.11 361.562 66.52 356.826 61.34C352.14 56.16 349.796 49.5493 349.796 41.508C349.796 33.4667 352.14 26.856 356.826 21.676C361.562 16.496 367.852 13.906 375.696 13.906C383.54 13.906 389.806 16.496 394.492 21.676C399.228 26.856 401.596 33.4667 401.596 41.508C401.596 49.5493 399.228 56.16 394.492 61.34ZM361.636 57.196C364.991 61.2413 369.678 63.264 375.696 63.264C381.715 63.264 386.402 61.2413 389.756 57.196C393.111 53.1507 394.788 47.9213 394.788 41.508C394.788 35.0947 393.111 29.8653 389.756 25.82C386.402 21.7253 381.715 19.678 375.696 19.678C369.678 19.678 364.991 21.7253 361.636 25.82C358.282 29.8653 356.604 35.0947 356.604 41.508C356.604 47.9213 358.282 53.1507 361.636 57.196Z" fill="#111111"/>
</svg>
