<svg width="375" height="165" viewBox="0 0 375 165" fill="none" xmlns="http://www.w3.org/2000/svg">
<path d="M-15.274 68L-28.964 15.09H-22.008L-13.646 49.5L-11.648 58.454H-11.5C-10.6613 54.7047 -9.92133 51.6707 -9.28 49.352L0.266001 15.09H7.444L16.694 49.352L18.84 58.454H18.988C19.8267 54.6553 20.5173 51.6707 21.06 49.5L29.866 15.09H36.6L21.874 68H15.51L5.816 30.704L3.892 22.638H3.744C3.004 25.9433 2.338 28.632 1.746 30.704L-8.614 68H-15.274ZM40.7486 68V15.09H47.4086V37.586H75.6766V15.09H82.3366V68H75.6766V42.988H47.4086V68H40.7486ZM86.206 68L105.668 15.09H113.142L132.678 68H125.426L119.802 51.868H98.712L93.014 68H86.206ZM106.926 28.706L100.636 46.466H117.952L111.884 28.706L109.516 21.232H109.368C108.431 24.192 107.617 26.6833 106.926 28.706ZM126.58 20.936V15.09H168.464V20.936H150.852V68H144.192V20.936H126.58ZM192.923 68L179.233 15.09H186.189L194.551 49.5L196.549 58.454H196.697C197.536 54.7047 198.276 51.6707 198.917 49.352L208.463 15.09H215.641L224.891 49.352L227.037 58.454H227.185C228.024 54.6553 228.715 51.6707 229.257 49.5L238.063 15.09H244.797L230.071 68H223.707L214.013 30.704L212.089 22.638H211.941C211.201 25.9433 210.535 28.632 209.943 30.704L199.583 68H192.923ZM248.946 68V15.09H286.316V20.936H255.606V37.66H283.504V43.284H255.606V61.858H287.204V68H248.946ZM303.058 68V15.09H322.298C330.044 15.09 335.89 17.4827 339.836 22.268C343.783 27.0533 345.756 33.5407 345.756 41.73C345.756 49.87 343.709 56.2833 339.614 60.97C335.52 65.6567 329.575 68 321.78 68H303.058ZM309.718 62.154H321.558C333.152 62.154 338.948 55.346 338.948 41.73C338.948 27.818 333.324 20.862 322.076 20.862H309.718V62.154ZM394.492 61.34C389.806 66.52 383.54 69.11 375.696 69.11C367.852 69.11 361.562 66.52 356.826 61.34C352.14 56.16 349.796 49.5493 349.796 41.508C349.796 33.4667 352.14 26.856 356.826 21.676C361.562 16.496 367.852 13.906 375.696 13.906C383.54 13.906 389.806 16.496 394.492 21.676C399.228 26.856 401.596 33.4667 401.596 41.508C401.596 49.5493 399.228 56.16 394.492 61.34ZM361.636 57.196C364.991 61.2413 369.678 63.264 375.696 63.264C381.715 63.264 386.402 61.2413 389.756 57.196C393.111 53.1507 394.788 47.9213 394.788 41.508C394.788 35.0947 393.111 29.8653 389.756 25.82C386.402 21.7253 381.715 19.678 375.696 19.678C369.678 19.678 364.991 21.7253 361.636 25.82C358.282 29.8653 356.604 35.0947 356.604 41.508C356.604 47.9213 358.282 53.1507 361.636 57.196Z" fill="#111111"/>
<g clip-path="url(#clip0_2590_2474)">
<path d="M285.01 155.23C312.197 160.079 338.166 141.972 343.016 114.786C347.865 87.5997 329.758 61.6299 302.571 56.7805C275.385 51.9312 249.416 70.0387 244.566 97.2248C239.717 124.411 257.824 150.381 285.01 155.23Z" fill="#FF4040"/>
<path d="M284.361 66.7962L284.24 66.1731L286.947 64.4055L286.943 64.3902L283.765 63.7546L283.642 63.1238L287.421 63.9246L287.558 64.6377L284.357 66.7991L284.361 66.7962Z" fill="#111111"/>
<path d="M290.169 66.658L289.994 60.4114L290.784 60.3893L290.858 63.0444L294.194 62.9509L294.12 60.2959L294.911 60.2738L295.086 66.5204L294.296 66.5425L294.21 63.5916L290.874 63.6851L290.96 66.6359L290.169 66.658Z" fill="#111111"/>
<path d="M296.112 66.6418L296.55 60.4068L297.338 60.4603L296.9 66.6953L296.112 66.6418Z" fill="#111111"/>
<path d="M298.571 62.5902L298.809 60.6033L299.594 60.6961L299.355 62.683L298.835 65.3736L298.438 65.3245L298.571 62.5867L298.571 62.5902ZM298.026 66.802L298.13 65.9363L298.985 66.0381L298.881 66.9039L298.026 66.802Z" fill="#111111"/>
<path d="M301.374 65.0799L302.106 65.2612C301.947 66.3346 302.446 67.0107 303.594 67.2989C304.278 67.468 304.724 67.4279 304.936 67.1757C305.147 66.9235 305.278 66.6968 305.325 66.4985C305.371 66.3002 305.374 66.1196 305.318 65.9647C305.266 65.8104 305.172 65.6668 305.036 65.5339C304.901 65.4009 304.73 65.2799 304.523 65.1597C304.316 65.0429 304.089 64.9119 303.843 64.7701C303.229 64.4721 302.78 64.1638 302.496 63.8485C302.211 63.5332 302.132 63.1276 302.257 62.6281C302.382 62.1286 302.665 61.7804 303.11 61.5843C303.554 61.3881 304.087 61.3672 304.712 61.5221C305.784 61.7895 306.368 62.1944 306.462 62.7404C306.557 63.2864 306.588 63.7015 306.559 63.9897L305.826 63.8084C305.877 63.3608 305.797 62.995 305.579 62.7134C305.361 62.4317 305.041 62.2368 304.607 62.1304C304.177 62.0246 303.815 62.0217 303.528 62.1263C303.237 62.2304 303.054 62.4441 302.976 62.76C302.863 63.211 303.004 63.5405 303.399 63.745C303.79 63.9489 304.108 64.1144 304.35 64.2409C304.592 64.3674 305 64.5779 305.574 64.8795C306.147 65.1775 306.322 65.7814 306.096 66.6868C305.957 67.2419 305.642 67.6242 305.145 67.8292C304.648 68.0376 304.034 68.0476 303.294 67.865C302.555 67.6824 302.019 67.3332 301.689 66.825C301.357 66.3126 301.254 65.7325 301.377 65.0805L301.374 65.0799Z" fill="#111111"/>
<path d="M307.698 63.1458L307.947 62.5051L312.562 64.285L312.313 64.9257L310.374 64.1775L308.376 69.3658L307.64 69.0823L309.638 63.894L307.698 63.1458Z" fill="#111111"/>
<path d="M310.831 70.3692L313.848 64.8985L316.401 66.3072C316.89 66.5755 317.203 66.9322 317.342 67.3737C317.48 67.8152 317.43 68.2593 317.185 68.7011C316.799 69.4006 316.235 69.6769 315.492 69.5336L315.481 69.5569C315.797 69.9177 315.902 70.2626 315.798 70.5846C315.693 70.9067 315.59 71.1782 315.49 71.3959C315.153 72.1259 315.025 72.5596 315.106 72.6937L315.09 72.7234L314.347 72.3155C314.317 72.2413 314.332 72.1171 314.394 71.9506C314.457 71.7807 314.592 71.4748 314.802 71.0267C315.012 70.5786 315.075 70.2274 314.991 69.9695C314.906 69.7152 314.678 69.4862 314.309 69.2825L312.787 68.4458L311.513 70.7553L310.82 70.3744L310.831 70.3692ZM313.106 67.8793L314.729 68.7741C315.112 68.9837 315.447 69.0544 315.739 68.9832C316.031 68.9121 316.262 68.7141 316.439 68.3905C316.617 68.067 316.669 67.7755 316.591 67.5189C316.514 67.2622 316.274 67.0202 315.872 66.7962L314.212 65.8805L313.109 67.8799L313.106 67.8793Z" fill="#111111"/>
<path d="M315.224 72.7871L320.813 69.167L321.519 69.6953L319.62 76.079L318.932 75.565L319.539 73.6438L317.548 72.1507L315.866 73.2677L315.221 72.7829L315.224 72.7871ZM318.115 71.777L319.751 73.004L320.435 70.8971C320.527 70.6272 320.593 70.4397 320.633 70.3345C320.674 70.2294 320.711 70.1237 320.744 70.0208L320.731 70.0113C320.645 70.0684 320.562 70.1261 320.482 70.1879C320.402 70.2498 320.315 70.3104 320.221 70.3697C320.127 70.4326 320.044 70.4903 319.969 70.5423L318.119 71.7741L318.115 71.777Z" fill="#111111"/>
<path d="M319.953 76.4029L324.375 71.9912L324.956 72.5732L323.893 77.6602C323.819 77.9731 323.737 78.2702 323.647 78.5513L323.659 78.5644L327.304 74.9309L327.817 75.4465L323.396 79.8583L322.837 79.2947L323.889 74.1876C323.906 74.0928 323.943 73.9472 323.999 73.7542C324.052 73.5572 324.09 73.408 324.111 73.3103L324.098 73.2973L320.466 76.922L319.952 76.4064L319.953 76.4029Z" fill="#111111"/>
<path d="M325 80.5939C325.164 79.8004 325.63 79.1188 326.404 78.554C327.179 77.9891 327.967 77.7382 328.775 77.8026C329.582 77.8669 330.265 78.2823 330.827 79.053C331.241 79.6196 331.437 80.1873 331.408 80.7548C331.383 81.3229 331.147 81.8352 330.703 82.2924L330.228 81.6423C330.513 81.3236 330.661 80.9803 330.677 80.6063C330.693 80.2322 330.569 79.8695 330.31 79.5152C330.051 79.1609 329.787 78.9145 329.518 78.7724C329.25 78.6303 328.897 78.5565 328.465 78.5446C328.028 78.532 327.503 78.7536 326.882 79.2082C326.261 79.6627 325.881 80.1893 325.741 80.7877C325.601 81.3897 325.717 81.943 326.087 82.4475C326.454 82.948 326.876 83.2226 327.361 83.2691C327.842 83.3151 328.309 83.1773 328.759 82.8481L328.875 82.7637L327.765 81.2466L328.319 80.8417L329.896 82.9965L327.229 84.9452L326.928 84.5365L327.462 83.8633L327.449 83.8503C326.667 83.8666 326.025 83.5273 325.518 82.8352C325.011 82.1397 324.835 81.398 324.999 80.601L325 80.5939Z" fill="#111111"/>
<path d="M327.649 85.6943L333.172 82.7691L335.238 86.671L334.63 86.9937L332.936 83.7923L331.191 84.7169L332.733 87.6303L332.145 87.9421L330.602 85.0287L328.665 86.0566L330.41 89.3542L329.77 89.693L327.656 85.6991L327.649 85.6943Z" fill="#111111"/>
<path d="M330.048 90.3481L335.915 88.1982L336.92 90.936C337.113 91.4596 337.115 91.9348 336.93 92.3585C336.746 92.7823 336.417 93.0824 335.941 93.2547C335.193 93.5271 334.583 93.3677 334.121 92.7706L334.097 92.7809C334.099 93.2595 333.953 93.5887 333.661 93.7649C333.368 93.941 333.116 94.0772 332.899 94.1762C332.166 94.5057 331.785 94.7495 331.754 94.9034L331.723 94.916L331.434 94.1214C331.461 94.0466 331.552 93.965 331.709 93.877C331.866 93.789 332.17 93.6476 332.623 93.4492C333.075 93.2508 333.354 93.0252 333.46 92.776C333.563 92.5261 333.544 92.2074 333.397 91.8115L332.8 90.1794L330.323 91.0856L330.052 90.3452L330.048 90.3481ZM333.397 89.9632L334.032 91.7038C334.183 92.1149 334.392 92.3877 334.655 92.5215C334.92 92.6559 335.224 92.6594 335.573 92.5331C335.918 92.4062 336.147 92.2188 336.26 91.9743C336.372 91.7298 336.35 91.3888 336.191 90.9582L335.541 89.1787L333.397 89.9632Z" fill="#111111"/>
<path d="M333 96.5933L333.624 96.4725L335.391 99.1797L335.407 99.1751L336.046 95.9985L336.676 95.8755L335.872 99.6532L335.159 99.7906L332.998 96.5891L333 96.5933Z" fill="#111111"/>
<path d="M333.139 102.402L339.385 102.226L339.407 103.016L336.752 103.09L336.846 106.426L339.501 106.353L339.523 107.143L333.276 107.319L333.254 106.529L336.208 106.447L336.114 103.11L333.161 103.192L333.139 102.402Z" fill="#111111"/>
<path d="M333.151 108.344L339.386 108.786L339.329 109.573L333.094 109.131L333.151 108.344Z" fill="#111111"/>
<path d="M332.988 110.257L333.853 110.361L333.752 111.216L332.886 111.113L332.988 110.257ZM337.2 110.802L339.186 111.041L339.094 111.825L337.107 111.586L334.416 111.067L334.465 110.67L337.203 110.803L337.2 110.802Z" fill="#111111"/>
<path d="M334.71 113.605L334.528 114.337C333.455 114.179 332.776 114.673 332.491 115.826C332.322 116.51 332.362 116.955 332.614 117.167C332.866 117.379 333.093 117.51 333.291 117.559C333.492 117.61 333.666 117.608 333.824 117.553C333.979 117.501 334.122 117.407 334.255 117.271C334.385 117.135 334.509 116.965 334.629 116.758C334.75 116.551 334.877 116.324 335.019 116.077C335.32 115.464 335.625 115.015 335.941 114.731C336.256 114.446 336.661 114.366 337.161 114.492C337.66 114.617 338.009 114.9 338.205 115.345C338.401 115.789 338.422 116.322 338.267 116.947C338 118.019 337.595 118.603 337.049 118.694C336.503 118.788 336.088 118.819 335.8 118.79L335.981 118.057C336.429 118.108 336.795 118.029 337.076 117.811C337.358 117.593 337.553 117.272 337.659 116.838C337.765 116.408 337.768 116.046 337.663 115.759C337.559 115.469 337.349 115.286 337.03 115.208C336.579 115.094 336.249 115.235 336.045 115.626C335.841 116.018 335.676 116.336 335.549 116.578C335.423 116.82 335.212 117.228 334.911 117.801C334.609 118.374 334.01 118.547 333.104 118.323C332.548 118.184 332.166 117.87 331.961 117.373C331.756 116.876 331.743 116.261 331.925 115.522C332.108 114.783 332.457 114.247 332.965 113.917C333.478 113.585 334.058 113.481 334.71 113.605Z" fill="#111111"/>
<path d="M336.644 119.93L337.285 120.178L335.505 124.793L334.864 124.544L335.612 122.605L330.425 120.603L330.708 119.867L335.896 121.869L336.644 119.93Z" fill="#111111"/>
<path d="M329.417 123.062L334.888 126.078L333.479 128.632C333.211 129.12 332.854 129.434 332.413 129.572C331.971 129.711 331.527 129.661 331.085 129.415C330.386 129.03 330.109 128.466 330.253 127.723L330.229 127.712C329.869 128.028 329.524 128.133 329.202 128.028C328.88 127.924 328.608 127.821 328.39 127.721C327.66 127.384 327.227 127.256 327.093 127.337L327.063 127.321L327.471 126.578C327.545 126.548 327.669 126.566 327.836 126.625C328.003 126.684 328.311 126.822 328.76 127.033C329.208 127.243 329.558 127.309 329.817 127.221C330.071 127.136 330.3 126.909 330.504 126.539L331.344 125.019L329.034 123.744L329.415 123.051L329.417 123.062ZM331.907 125.336L331.012 126.96C330.799 127.342 330.732 127.678 330.804 127.966C330.875 128.255 331.073 128.489 331.396 128.666C331.72 128.844 332.011 128.896 332.267 128.822C332.528 128.745 332.766 128.505 332.99 128.103L333.906 126.443L331.906 125.34L331.907 125.336Z" fill="#111111"/>
<path d="M326.996 127.454L330.612 133.045L330.08 133.751L323.697 131.848L324.211 131.161L326.131 131.771L327.624 129.78L326.507 128.099L326.992 127.453L326.996 127.454ZM328.006 130.345L326.779 131.981L328.886 132.665C329.156 132.757 329.343 132.823 329.448 132.863C329.553 132.904 329.659 132.941 329.758 132.973L329.768 132.96C329.711 132.874 329.653 132.791 329.591 132.711C329.529 132.631 329.469 132.544 329.409 132.45C329.347 132.356 329.289 132.273 329.237 132.199L328.005 130.348L328.006 130.345Z" fill="#111111"/>
<path d="M323.376 132.186L327.787 136.611L327.205 137.193L322.118 136.126C321.805 136.052 321.508 135.97 321.227 135.88L321.214 135.892L324.848 139.537L324.332 140.051L319.921 135.625L320.484 135.066L325.591 136.122C325.686 136.139 325.831 136.176 326.024 136.232C326.221 136.285 326.37 136.323 326.468 136.344L326.481 136.332L322.861 132.696L323.376 132.183L323.376 132.186Z" fill="#111111"/>
<path d="M319.186 137.226C319.979 137.39 320.66 137.859 321.226 138.63C321.791 139.405 322.042 140.193 321.977 141C321.913 141.808 321.498 142.491 320.727 143.053C320.16 143.467 319.593 143.663 319.025 143.634C318.457 143.609 317.945 143.372 317.487 142.928L318.138 142.454C318.456 142.739 318.8 142.887 319.174 142.903C319.548 142.919 319.91 142.795 320.264 142.539C320.618 142.28 320.865 142.016 321.007 141.748C321.149 141.479 321.223 141.127 321.235 140.694C321.247 140.261 321.026 139.732 320.575 139.112C320.124 138.492 319.593 138.111 318.995 137.971C318.393 137.831 317.843 137.947 317.335 138.317C316.835 138.684 316.56 139.106 316.51 139.59C316.464 140.071 316.602 140.538 316.931 140.988L317.015 141.105L318.532 139.998L318.937 140.552L316.783 142.125L314.834 139.458L315.243 139.158L315.916 139.691L315.928 139.682C315.912 138.9 316.251 138.258 316.947 137.751C317.642 137.244 318.387 137.073 319.181 137.233L319.186 137.226Z" fill="#111111"/>
<path d="M314.086 139.872L317.008 145.394L313.106 147.456L312.784 146.848L315.985 145.154L315.061 143.405L312.148 144.944L311.836 144.356L314.749 142.817L313.722 140.876L310.424 142.622L310.086 141.981L314.079 139.867L314.086 139.872Z" fill="#111111"/>
<path d="M309.432 142.271L311.578 148.14L308.837 149.141C308.314 149.334 307.839 149.336 307.415 149.152C306.991 148.967 306.691 148.638 306.519 148.162C306.246 147.414 306.406 146.805 307.003 146.342L306.993 146.319C306.514 146.32 306.185 146.174 306.009 145.882C305.832 145.593 305.696 145.337 305.597 145.12C305.268 144.387 305.028 144.004 304.87 143.976L304.857 143.944L305.652 143.655C305.727 143.683 305.808 143.773 305.896 143.93C305.984 144.087 306.126 144.392 306.324 144.844C306.522 145.3 306.748 145.575 306.994 145.681C307.24 145.786 307.563 145.764 307.958 145.617L309.591 145.021L308.684 142.543L309.425 142.273L309.432 142.271ZM309.817 145.619L308.077 146.255C307.666 146.406 307.393 146.615 307.259 146.877C307.125 147.143 307.121 147.447 307.247 147.795C307.374 148.141 307.562 148.37 307.806 148.482C308.051 148.595 308.392 148.572 308.822 148.413L310.602 147.763L309.817 145.619Z" fill="#111111"/>
<path d="M303.177 145.221L303.297 145.844L300.587 147.608L300.592 147.623L303.768 148.262L303.891 148.896L300.114 148.089L299.976 147.376L303.178 145.214L303.177 145.221Z" fill="#111111"/>
<path d="M297.376 145.353L297.549 151.599L296.758 151.621L296.685 148.966L293.348 149.06L293.422 151.715L292.632 151.737L292.459 145.491L293.249 145.469L293.331 148.423L296.668 148.329L296.586 145.375L297.376 145.353Z" fill="#111111"/>
<path d="M291.431 145.366L290.989 151.6L290.202 151.543L290.644 145.309L291.431 145.366Z" fill="#111111"/>
<path d="M289.521 145.203L289.417 146.068L288.562 145.966L288.666 145.101L289.521 145.203ZM288.972 149.417L288.733 151.404L287.95 151.308L288.188 149.321L288.708 146.63L289.105 146.679L288.972 149.417Z" fill="#111111"/>
<path d="M286.17 146.921L285.438 146.739C285.597 145.666 285.102 144.987 283.949 144.702C283.266 144.532 282.82 144.573 282.608 144.825C282.397 145.077 282.266 145.304 282.216 145.501C282.166 145.699 282.166 145.88 282.222 146.035C282.274 146.189 282.368 146.333 282.504 146.466C282.64 146.595 282.81 146.72 283.017 146.84C283.225 146.957 283.451 147.088 283.698 147.23C284.311 147.531 284.76 147.836 285.045 148.151C285.329 148.467 285.409 148.872 285.284 149.372C285.158 149.871 284.875 150.219 284.43 150.415C283.986 150.612 283.453 150.633 282.828 150.478C281.756 150.21 281.173 149.805 281.081 149.26C280.99 148.715 280.956 148.299 280.989 148.011L281.721 148.193C281.667 148.64 281.75 149.006 281.964 149.287C282.179 149.568 282.503 149.764 282.937 149.87C283.367 149.976 283.729 149.979 284.016 149.874C284.306 149.77 284.489 149.56 284.568 149.24C284.681 148.789 284.54 148.46 284.149 148.256C283.758 148.052 283.439 147.887 283.197 147.76C282.955 147.634 282.548 147.42 281.974 147.122C281.4 146.823 281.229 146.22 281.452 145.314C281.591 144.759 281.909 144.377 282.402 144.172C282.899 143.967 283.514 143.953 284.253 144.139C284.991 144.326 285.528 144.671 285.857 145.183C286.189 145.695 286.292 146.276 286.169 146.928L286.17 146.921Z" fill="#111111"/>
<path d="M279.845 148.855L279.597 149.495L274.983 147.712L275.231 147.071L277.171 147.819L279.176 142.632L279.912 142.916L277.907 148.103L279.846 148.851L279.845 148.855Z" fill="#111111"/>
<path d="M276.717 141.628L273.697 147.098L271.143 145.69C270.655 145.421 270.342 145.065 270.203 144.623C270.064 144.182 270.118 143.738 270.36 143.296C270.746 142.596 271.31 142.32 272.052 142.467L272.063 142.444C271.747 142.083 271.642 141.738 271.746 141.416C271.851 141.094 271.954 140.822 272.054 140.605C272.391 139.875 272.523 139.442 272.441 139.307L272.458 139.278L273.197 139.685C273.227 139.759 273.212 139.883 273.15 140.05C273.087 140.22 272.953 140.526 272.742 140.974C272.532 141.422 272.466 141.772 272.554 142.027C272.639 142.282 272.867 142.511 273.236 142.714L274.757 143.555L276.031 141.245L276.725 141.626L276.717 141.628ZM274.443 144.118L272.819 143.224C272.437 143.01 272.101 142.943 271.809 143.014C271.521 143.086 271.286 143.284 271.109 143.607C270.932 143.931 270.88 144.222 270.954 144.478C271.031 144.738 271.271 144.977 271.673 145.201L273.332 146.116L274.436 144.117L274.443 144.118Z" fill="#111111"/>
<path d="M272.326 139.203L266.734 142.819L266.028 142.288L267.935 135.905L268.622 136.419L268.011 138.34L270.003 139.833L271.684 138.716L272.33 139.201L272.326 139.203ZM269.431 140.213L267.798 138.986L267.114 141.093C267.023 141.363 266.956 141.551 266.916 141.656C266.875 141.761 266.838 141.867 266.806 141.97L266.818 141.979C266.905 141.922 266.988 141.864 267.067 141.803C267.147 141.741 267.234 141.68 267.328 141.621C267.423 141.558 267.505 141.5 267.58 141.448L269.433 140.22L269.431 140.213Z" fill="#111111"/>
<path d="M267.594 135.58L263.166 139.987L262.585 139.401L263.652 134.315C263.726 134.002 263.808 133.705 263.898 133.424L263.886 133.411L260.237 137.043L259.724 136.528L264.152 132.121L264.711 132.684L263.652 137.79C263.635 137.885 263.598 138.031 263.542 138.224C263.489 138.421 263.451 138.57 263.43 138.668L263.442 138.681L267.078 135.06L267.591 135.576L267.594 135.58Z" fill="#111111"/>
<path d="M262.557 131.391C262.394 132.184 261.925 132.865 261.153 133.431C260.382 133.996 259.591 134.246 258.783 134.182C257.976 134.118 257.293 133.699 256.73 132.932C256.317 132.365 256.121 131.797 256.15 131.23C256.175 130.662 256.411 130.149 256.855 129.692L257.33 130.342C257.045 130.661 256.897 131.004 256.881 131.378C256.865 131.752 256.985 132.114 257.244 132.469C257.504 132.823 257.768 133.069 258.036 133.212C258.304 133.354 258.657 133.427 259.089 133.443C259.521 133.458 260.05 133.234 260.671 132.783C261.291 132.332 261.672 131.802 261.812 131.203C261.951 130.605 261.836 130.051 261.47 129.544C261.102 129.044 260.68 128.769 260.196 128.719C259.712 128.669 259.248 128.811 258.799 129.137L258.682 129.221L259.789 130.737L259.235 131.142L257.662 128.988L260.329 127.039L260.629 127.448L260.096 128.121L260.108 128.134C260.89 128.118 261.533 128.457 262.04 129.153C262.546 129.848 262.718 130.593 262.554 131.386L262.557 131.391Z" fill="#111111"/>
<path d="M259.912 126.287L254.387 129.208L252.325 125.307L252.932 124.988L254.626 128.193L256.374 127.269L254.835 124.356L255.424 124.044L256.963 126.957L258.903 125.933L257.161 122.636L257.801 122.298L259.911 126.294L259.912 126.287Z" fill="#111111"/>
<path d="M257.517 121.634L251.648 123.777L250.647 121.036C250.458 120.513 250.452 120.037 250.637 119.613C250.821 119.19 251.15 118.889 251.626 118.717C252.374 118.445 252.984 118.604 253.446 119.201L253.47 119.191C253.469 118.709 253.614 118.383 253.906 118.207C254.199 118.031 254.451 117.895 254.668 117.796C255.401 117.466 255.784 117.226 255.813 117.068L255.844 117.056L256.133 117.85C256.106 117.925 256.015 118.007 255.858 118.095C255.701 118.183 255.397 118.324 254.944 118.523C254.489 118.72 254.213 118.947 254.107 119.192C254.005 119.442 254.024 119.761 254.171 120.157L254.768 121.789L257.245 120.883L257.515 121.623L257.517 121.634ZM254.169 122.019L253.533 120.279C253.382 119.867 253.177 119.595 252.911 119.457C252.645 119.323 252.342 119.32 251.993 119.446C251.648 119.573 251.419 119.76 251.306 120.005C251.194 120.249 251.216 120.59 251.374 121.024L252.025 122.804L254.169 122.019Z" fill="#111111"/>
<path d="M254.57 115.379L253.947 115.5L252.184 112.79L252.168 112.794L251.526 115.97L250.891 116.093L251.699 112.316L252.412 112.178L254.57 115.383L254.57 115.379Z" fill="#111111"/>
<path d="M254.438 109.575L248.193 109.744L248.171 108.954L250.826 108.88L250.736 105.545L248.081 105.618L248.059 104.828L254.304 104.659L254.326 105.449L251.373 105.531L251.463 108.867L254.416 108.785L254.438 109.575Z" fill="#111111"/>
<path d="M254.426 103.633L248.192 103.188L248.249 102.401L254.483 102.846L254.426 103.633Z" fill="#111111"/>
<path d="M250.378 101.172L248.392 100.93L248.488 100.146L250.474 100.388L253.164 100.911L253.115 101.308L250.378 101.175L250.378 101.172ZM254.593 101.72L253.727 101.617L253.829 100.761L254.695 100.865L254.593 101.72Z" fill="#111111"/>
<path d="M252.875 98.3698L253.056 97.6375C254.13 97.7964 254.809 97.3014 255.093 96.1526C255.262 95.4688 255.222 95.0232 254.97 94.8115C254.718 94.5998 254.491 94.4688 254.294 94.419C254.096 94.3692 253.918 94.3701 253.76 94.4252C253.605 94.4775 253.462 94.5714 253.329 94.7072C253.2 94.8435 253.075 95.0134 252.955 95.2203C252.834 95.4271 252.707 95.6545 252.565 95.901C252.264 96.514 251.959 96.9634 251.644 97.2478C251.328 97.5322 250.923 97.6121 250.423 97.4867C249.924 97.3614 249.575 97.0782 249.379 96.6337C249.183 96.1892 249.162 95.6564 249.321 95.0323C249.588 93.9602 249.997 93.3771 250.538 93.2853C251.084 93.1941 251.499 93.1595 251.787 93.1927L251.606 93.925C251.159 93.8707 250.792 93.9539 250.511 94.1683C250.23 94.3828 250.035 94.7067 249.928 95.1407C249.823 95.5712 249.82 95.9331 249.924 96.2199C250.028 96.5103 250.239 96.6928 250.558 96.7715C251.009 96.8845 251.338 96.744 251.542 96.3527C251.746 95.9614 251.912 95.6431 252.038 95.4011C252.165 95.1591 252.379 94.7515 252.677 94.1777C252.975 93.6039 253.578 93.4325 254.484 93.6557C255.039 93.7946 255.421 94.1127 255.627 94.606C255.831 95.1028 255.845 95.7177 255.659 96.4564C255.473 97.1951 255.127 97.7314 254.615 98.0606C254.103 98.3932 253.523 98.4963 252.871 98.3692L252.875 98.3698Z" fill="#111111"/>
<path d="M250.945 92.0423L250.304 91.7939L252.088 87.1797L252.728 87.4281L251.98 89.3676L257.167 91.3728L256.884 92.1086L251.697 90.1034L250.948 92.0429L250.945 92.0423Z" fill="#111111"/>
<path d="M258.171 88.917L252.701 85.8938L254.113 83.3407C254.382 82.8522 254.738 82.5389 255.18 82.4002C255.621 82.2616 256.065 82.3153 256.507 82.5573C257.203 82.9424 257.483 83.5069 257.336 84.249L257.359 84.2604C257.724 83.9449 258.065 83.8391 258.387 83.9436C258.709 84.0482 258.981 84.151 259.198 84.2514C259.928 84.5917 260.362 84.7198 260.496 84.6386L260.525 84.6548L260.118 85.3975C260.043 85.4277 259.92 85.4093 259.753 85.347C259.583 85.284 259.277 85.1498 258.83 84.9358C258.382 84.7255 258.031 84.6593 257.773 84.7473C257.518 84.8324 257.289 85.0597 257.086 85.4293L256.246 86.9501L258.555 88.2245L258.175 88.9141L258.171 88.917ZM255.685 86.6398L256.579 85.0199C256.792 84.6376 256.859 84.3016 256.788 84.0099C256.717 83.7181 256.519 83.4871 256.195 83.3098C255.872 83.1325 255.58 83.0805 255.324 83.1545C255.064 83.2313 254.826 83.4714 254.602 83.8736L253.686 85.5331L255.685 86.6363L255.685 86.6398Z" fill="#111111"/>
<path d="M260.595 84.5296L256.983 78.9349L257.515 78.2289L263.897 80.1356L263.383 80.8231L261.463 80.2124L259.967 82.1997L261.084 83.8812L260.599 84.5267L260.595 84.5296ZM259.589 81.6358L260.819 80.0033L258.713 79.3159C258.443 79.2243 258.255 79.1582 258.15 79.1177C258.045 79.0772 257.943 79.0408 257.84 79.008L257.83 79.0208C257.887 79.1071 257.945 79.1899 258.007 79.2697C258.069 79.3496 258.129 79.4366 258.189 79.5305C258.252 79.6251 258.309 79.7078 258.361 79.7823L259.589 81.6358Z" fill="#111111"/>
<path d="M264.222 79.7985L259.815 75.3702L260.401 74.7897L265.486 75.86C265.799 75.9339 266.096 76.0159 266.377 76.1059L266.39 76.0937L262.761 72.4456L263.277 71.9324L267.684 76.3606L267.12 76.9197L262.014 75.8604C261.92 75.8434 261.774 75.8066 261.581 75.7504C261.384 75.6972 261.235 75.6597 261.137 75.6386L261.124 75.6508L264.741 79.2858L264.226 79.7991L264.222 79.7985Z" fill="#111111"/>
<path d="M268.415 74.7624C267.621 74.5991 266.94 74.1298 266.375 73.3549C265.811 72.5801 265.56 71.7924 265.624 70.9848C265.688 70.1808 266.107 69.4946 266.874 68.932C267.441 68.5185 268.008 68.3261 268.576 68.3513C269.144 68.3765 269.657 68.6129 270.114 69.0568L269.464 69.5316C269.145 69.2464 268.802 69.0982 268.428 69.0822C268.054 69.0662 267.692 69.1865 267.337 69.4458C266.983 69.7052 266.736 69.9692 266.594 70.2375C266.452 70.5057 266.375 70.8579 266.363 71.2906C266.35 71.7269 266.572 72.2521 267.023 72.8725C267.474 73.4929 268.001 73.8732 268.603 74.0132C269.201 74.1525 269.754 74.0409 270.262 73.6713C270.762 73.3039 271.037 72.8818 271.087 72.3978C271.136 71.9174 270.995 71.4501 270.669 71.0006L270.585 70.8841L269.069 71.9907L268.664 71.4365L270.818 69.8637L272.767 72.5307L272.358 72.8311L271.685 72.2979L271.672 72.3101C271.688 73.0921 271.349 73.7347 270.653 74.2412C269.958 74.7477 269.213 74.9193 268.419 74.756L268.415 74.7624Z" fill="#111111"/>
<path d="M273.526 72.1152L270.608 66.59L274.512 64.5321L274.831 65.1399L271.627 66.8298L272.551 68.5783L275.464 67.0394L275.776 67.6277L272.863 69.1666L273.887 71.1069L277.187 69.3654L277.526 70.0057L273.529 72.1159L273.526 72.1152Z" fill="#111111"/>
<path d="M278.178 69.7232L276.036 63.8543L278.776 62.8537C279.3 62.6608 279.775 62.6586 280.198 62.8464C280.622 63.0307 280.921 63.3632 281.094 63.8361C281.367 64.5842 281.204 65.1929 280.61 65.656L280.621 65.6796C281.102 65.6822 281.428 65.8237 281.605 66.1161C281.781 66.4049 281.917 66.661 282.015 66.8815C282.344 67.6179 282.584 67.9978 282.739 68.0254L282.752 68.0566L281.957 68.3461C281.882 68.3183 281.801 68.2276 281.713 68.0706C281.625 67.9135 281.483 67.6093 281.285 67.1571C281.087 66.7014 280.861 66.422 280.615 66.3201C280.365 66.2175 280.046 66.2368 279.651 66.3801L278.019 66.9769L278.922 69.4536L278.181 69.7238L278.178 69.7232ZM277.797 66.3719L279.538 65.7365C279.949 65.5852 280.221 65.38 280.359 65.1147C280.497 64.8494 280.497 64.545 280.374 64.1969C280.247 63.8517 280.06 63.6226 279.815 63.5101C279.571 63.3977 279.23 63.4202 278.796 63.5783L277.016 64.2285L277.797 66.3754L277.797 66.3719Z" fill="#111111"/>
<path d="M261.212 109.008L263.899 93.9434L266.954 94.4884L265.899 100.407L271.817 101.462L272.873 95.5441L275.928 96.0892L273.241 111.153L270.185 110.608L271.37 103.97L265.451 102.914L264.267 109.553L261.212 109.008Z" fill="#111111"/>
<path d="M275.345 111.529L278.032 96.4646L289.114 98.4412L288.655 101.012L280.629 99.5807L280.029 102.945L287.068 104.201L286.62 106.712L279.581 105.457L278.86 109.499L286.949 110.942L286.49 113.513L275.346 111.525L275.345 111.529Z" fill="#111111"/>
<path d="M288.172 113.817L290.859 98.7524L293.915 99.2975L291.686 111.791L298.767 113.054L298.309 115.625L288.172 113.817Z" fill="#111111"/>
<path d="M299.735 115.879L302.422 100.815L305.477 101.36L303.249 113.853L310.33 115.116L309.871 117.687L299.735 115.879Z" fill="#111111"/>
<path d="M311.294 113.429C311.128 112.41 311.145 111.337 311.346 110.21C311.547 109.082 311.902 108.069 312.411 107.167C312.92 106.265 313.553 105.519 314.313 104.933C315.074 104.348 315.937 103.936 316.906 103.703C317.876 103.47 318.915 103.453 320.025 103.651C321.135 103.849 322.105 104.225 322.923 104.776C323.745 105.329 324.409 106.013 324.913 106.824C325.421 107.636 325.754 108.554 325.919 109.576C326.085 110.599 326.067 111.676 325.866 112.8C325.666 113.923 325.311 114.937 324.802 115.839C324.294 116.737 323.665 117.481 322.908 118.067C322.152 118.649 321.292 119.061 320.333 119.296C319.371 119.53 318.335 119.549 317.225 119.351C316.115 119.153 315.142 118.776 314.316 118.223C313.488 117.669 312.82 116.985 312.308 116.176C311.796 115.367 311.459 114.452 311.294 113.429ZM314.465 110.766C314.184 112.343 314.321 113.69 314.874 114.811C315.428 115.932 316.366 116.606 317.687 116.842C319.007 117.077 320.111 116.763 320.996 115.903C321.882 115.042 322.465 113.824 322.747 112.243C323.029 110.663 322.903 109.317 322.375 108.194C321.846 107.074 320.917 106.394 319.589 106.157C318.261 105.92 317.147 106.236 316.242 107.104C315.337 107.971 314.742 109.192 314.462 110.762L314.465 110.766Z" fill="#111111"/>
</g>
<defs>
<clipPath id="clip0_2590_2474">
<rect width="100" height="100" fill="white" transform="translate(253.347 48) rotate(10.1138)"/>
</clipPath>
</defs>
</svg>
