<svg width="322" height="356" viewBox="0 0 322 356" fill="none" xmlns="http://www.w3.org/2000/svg">
<g clip-path="url(#clip0_2382_4042)">
<path d="M32.316 8.7749C31.941 8.7749 31.545 8.81218 31.1225 8.89205C28.4767 9.40321 26.5544 11.794 26.5544 14.5841C26.5544 17.6777 28.2919 19.9407 31.207 20.6382C33.5887 21.208 36.4246 20.0791 37.6551 18.0611C37.8821 17.7043 37.6339 17.3263 37.3593 17.108C37.0689 16.879 36.6622 16.7619 36.4774 16.9589C36.0338 17.4062 35.1466 18.2049 34.1802 18.5137C33.2507 18.8172 31.1278 18.8651 30.4993 17.0867C30.4254 16.8737 30.4148 16.7246 30.4782 16.6075C30.5521 16.4637 30.7211 16.3945 30.8901 16.3466L30.9482 16.3306C31.5027 16.1655 32.8071 15.7768 34.1749 15.2603C35.4054 14.7971 36.583 14.2007 36.958 13.9451C37.5283 13.5671 37.6709 13.0453 37.3805 12.3903C36.9791 11.4798 35.5163 8.78023 32.3213 8.78023M30.9007 14.7225C30.5733 14.7225 30.3356 14.5841 30.1983 14.1954C30.0029 13.6523 30.0663 12.4649 30.4624 11.6236C30.7053 11.1177 31.0327 10.7876 31.4394 10.6492C32.0203 10.4468 32.5272 10.4575 32.9497 10.6758C33.4408 10.9314 33.8105 11.4639 34.0429 12.2572C34.1907 12.7631 34.1643 13.3168 33.9795 13.5458C33.7313 13.844 33.3088 14.0197 32.9286 14.1475L31.9569 14.4723C31.545 14.616 31.1911 14.7225 30.906 14.7225" fill="#111111"/>
<path d="M64.0124 8.7749C63.6374 8.7749 63.2413 8.81218 62.8242 8.89205C60.1784 9.40321 58.2561 11.794 58.2561 14.5841C58.2561 17.6777 59.9935 19.9407 62.9087 20.6382C65.2904 21.208 68.1263 20.0791 69.362 18.0611C69.5891 17.7043 69.3409 17.3263 69.0663 17.108C68.7758 16.879 68.3639 16.7619 68.1791 16.9589C67.7355 17.4062 66.8535 18.1995 65.8871 18.5137C64.9577 18.8172 62.8294 18.8651 62.2063 17.0867C62.1323 16.8737 62.1271 16.7246 62.1852 16.6128C62.2591 16.469 62.4281 16.3998 62.5971 16.3466L62.6446 16.3306C63.1991 16.1655 64.5035 15.7715 65.8818 15.255C67.1651 14.7705 68.3005 14.1847 68.6649 13.9398C69.2353 13.5618 69.3778 13.0399 69.0874 12.385C68.686 11.4745 67.2179 8.7749 64.0229 8.7749M62.5971 14.7066C62.2696 14.7066 62.0426 14.5681 61.9 14.1847C61.7363 13.7215 61.7468 12.7098 62.0531 11.8792C62.2908 11.2349 62.634 10.8409 63.1357 10.6385C63.7061 10.4096 64.25 10.4309 64.7147 10.7024C65.1742 10.9687 65.5227 11.4905 65.7445 12.2466C65.8977 12.7524 65.866 13.3062 65.6812 13.5351C65.4382 13.828 65.0791 13.9771 64.6303 14.1368C64.1866 14.2966 63.8011 14.419 63.6533 14.467C63.2308 14.6001 62.877 14.7012 62.5971 14.7012" fill="#111111"/>
<path d="M88.1729 8.77481C87.798 8.77481 87.4019 8.81208 86.9794 8.89195C84.3337 9.40312 82.4114 11.7939 82.4114 14.584C82.4114 17.6776 84.1488 19.9406 87.0639 20.6328C89.4456 21.2025 92.2815 20.0737 93.5173 18.0557C93.7444 17.6989 93.4962 17.3156 93.2215 17.1026C92.9311 16.8736 92.5192 16.7565 92.3343 16.9535C91.8907 17.4007 91.0088 18.1941 90.0424 18.5083C89.1129 18.8118 86.99 18.8597 86.3615 17.0813C86.2876 16.8683 86.2771 16.7192 86.3404 16.602C86.4144 16.4583 86.5834 16.3891 86.7523 16.3358L86.7999 16.3198C87.3544 16.1548 88.6588 15.7661 90.0371 15.2443C91.2676 14.781 92.4452 14.1847 92.8202 13.9291C93.3905 13.551 93.5278 13.0292 93.2427 12.3743C92.8413 11.4638 91.3785 8.76416 88.1835 8.76416M86.7576 14.6958C86.4302 14.6958 86.2031 14.5574 86.0605 14.1793C85.8968 13.7161 85.9074 12.7044 86.2137 11.8738C86.4513 11.2295 86.7946 10.8354 87.2963 10.6331C87.8666 10.4042 88.4106 10.4255 88.8753 10.697C89.3347 10.9632 89.678 11.4851 89.9051 12.2412C90.053 12.747 90.0265 13.3008 89.8417 13.5297C89.5988 13.8226 89.2397 13.9717 88.7908 14.1314C88.3419 14.2911 87.9617 14.4136 87.8138 14.4615C87.3913 14.5947 87.0375 14.6958 86.7576 14.6958" fill="#111111"/>
<path d="M17.6296 13.1463H20.6503C20.8932 13.1463 21.0886 13.3433 21.0886 13.5883V17.5285C21.0833 18.1728 20.8774 18.6201 20.513 18.7851C20.3968 18.8384 20.1856 18.9342 19.9902 19.0247L19.7261 19.1472C19.6522 19.1792 19.6205 19.2377 19.6469 19.472C19.668 19.6477 19.7208 20.1589 19.7367 20.3453C19.7472 20.4517 19.8001 20.5476 20.1275 20.5476H25.7834C26.1003 20.5476 26.1636 20.4784 26.1795 20.3453L26.2006 20.1163C26.2217 19.882 26.2534 19.5679 26.2693 19.4401C26.2957 19.2111 26.2323 19.1632 26.1636 19.1312C26.0686 19.0833 25.9154 19.0141 25.7623 18.9449C25.6144 18.881 25.4718 18.8118 25.3821 18.7692C25.0282 18.6041 24.8276 18.1568 24.8276 17.5338V7.79505C24.8276 7.15076 25.0335 6.72479 25.4296 6.54375L25.7148 6.41064C25.8785 6.33609 26.0527 6.25622 26.1584 6.20298C26.227 6.1657 26.3009 6.10181 26.264 5.88882C26.2376 5.71311 26.1953 5.40428 26.1742 5.21792C26.1531 5.07947 26.0897 5.01025 25.7781 5.01025H20.3915C20.0852 5.01025 20.0219 5.07415 20.0007 5.21792L19.9691 5.4309C19.9479 5.59064 19.9215 5.76635 19.9057 5.8835C19.874 6.09648 19.9374 6.16038 20.0113 6.20298C20.1169 6.26155 20.2437 6.33077 20.3651 6.39999C20.4707 6.45856 20.5658 6.51181 20.645 6.5544C20.946 6.71947 21.0781 7.06025 21.0833 7.66193V10.5053C21.0833 10.7502 20.8879 10.9472 20.645 10.9472H17.6243C17.3814 10.9472 17.186 10.7502 17.186 10.5053V7.66193C17.186 7.06025 17.3286 6.71947 17.6243 6.55973C17.7035 6.51713 17.7986 6.46388 17.8936 6.41064C18.0204 6.34142 18.1524 6.26687 18.258 6.2083C18.3319 6.17103 18.3953 6.10181 18.3636 5.88882C18.3372 5.71311 18.295 5.40428 18.2739 5.21792C18.2527 5.07947 18.1894 5.01025 17.8831 5.01025H12.4965C12.1849 5.01025 12.1215 5.07415 12.1004 5.21792C12.074 5.40428 12.0317 5.70778 12.0106 5.88882C11.9789 6.10181 12.0476 6.1657 12.1215 6.20298C12.2324 6.25622 12.412 6.33609 12.5757 6.41596C12.6813 6.46388 12.7869 6.51181 12.8556 6.54375C13.2516 6.73012 13.4523 7.15076 13.4576 7.79505V17.5392C13.4576 18.1515 13.2516 18.6094 12.9031 18.7745C12.8133 18.8171 12.6707 18.881 12.5229 18.9502C12.3697 19.0194 12.2166 19.0886 12.1215 19.1366C12.0529 19.1685 11.9895 19.2164 12.0159 19.4454C12.0317 19.5732 12.0634 19.8873 12.0845 20.1216L12.1057 20.3453C12.1215 20.4784 12.1849 20.5476 12.5017 20.5476H18.1524C18.5221 20.5476 18.5326 20.4145 18.5432 20.3453L18.5802 19.9992C18.6013 19.7968 18.6224 19.5785 18.633 19.472C18.6541 19.2643 18.633 19.1845 18.5537 19.1472L18.3161 19.0354C18.1154 18.9449 17.8936 18.8384 17.7669 18.7851C17.4025 18.6201 17.1965 18.1728 17.1965 17.5285V13.5883C17.1965 13.3433 17.3919 13.1463 17.6349 13.1463" fill="#111111"/>
<path d="M75.7149 15.2603L75.773 15.3668C75.773 15.3668 78.2973 19.9992 78.4452 20.2654C78.5508 20.4624 78.6564 20.5423 79.0261 20.5423H82.0468C82.332 20.5423 82.4164 20.4944 82.4323 20.324L82.4587 20.0737C82.4745 19.8874 82.4957 19.6744 82.5115 19.5147C82.5379 19.2271 82.5009 19.2058 82.3742 19.1313L82.2052 19.0354C81.6349 18.716 81.186 18.4604 80.7846 17.7256C80.2248 16.6979 78.1758 12.96 78.1758 12.96L78.1389 12.8961L78.1917 12.8429C78.1917 12.8429 79.0577 12.0122 79.6017 11.4851C80.473 10.6385 80.7529 10.4627 81.4236 10.2178C81.6982 10.1166 81.7141 10.0368 81.7088 9.96223C81.6982 9.85041 81.6771 9.68002 81.6613 9.50963C81.6454 9.36054 81.6296 9.20613 81.619 9.11028C81.6085 8.99847 81.5821 8.91327 81.3233 8.91327H76.8873C76.5334 8.91327 76.5282 8.99314 76.5123 9.14756C76.5018 9.24872 76.4859 9.41911 76.4648 9.5895L76.4278 9.91963C76.4067 10.122 76.4648 10.1592 76.5651 10.2072L76.6919 10.2657C76.8186 10.3243 76.9876 10.3988 77.1408 10.4681C77.2252 10.5107 77.2886 10.5905 77.2992 10.6917C77.3097 10.7716 77.2992 10.926 77.1302 11.0857C76.8292 11.3573 74.7907 13.2103 74.7907 13.2103L74.6323 13.354V5.58536C74.6323 5.21796 74.3418 5.01562 74.0725 5.01562H70.4392C70.1276 5.01562 70.0642 5.06887 70.0431 5.22329L70.022 5.38303C70.0009 5.53212 69.9797 5.68653 69.9586 5.81432C69.9269 6.03796 69.9903 6.10718 70.0537 6.13913C70.1012 6.16575 70.2385 6.24562 70.3811 6.32549L70.698 6.5012C70.8511 6.5864 71.2049 6.87393 71.2049 7.69393V17.5925C71.2049 18.1835 71.0254 18.6254 70.7085 18.8012C70.5342 18.897 70.2649 19.0461 70.0748 19.1579C69.9797 19.2111 69.9375 19.275 69.9639 19.4827C69.9797 19.6158 70.0114 19.946 70.0326 20.1749L70.0484 20.3453C70.0642 20.4784 70.1276 20.5476 70.4445 20.5476H75.472C75.8099 20.5476 75.8522 20.4518 75.8628 20.3453V20.3027C75.8892 20.095 75.9314 19.685 75.942 19.52C75.9631 19.2644 75.942 19.2165 75.8416 19.1632C75.6357 19.0514 75.3769 18.9076 75.2079 18.8118C74.928 18.6574 74.627 18.258 74.627 17.6138V16.2932L75.699 15.2603H75.7149Z" fill="#111111"/>
<path d="M39.0017 9.29688C38.6901 9.29688 38.6268 9.36077 38.6057 9.50454L38.5687 9.79207C38.5476 9.93051 38.5317 10.069 38.5159 10.1701C38.4842 10.3725 38.537 10.447 38.6162 10.4896L38.7271 10.5535C38.8275 10.6121 38.9542 10.6813 39.0545 10.7399C39.2816 10.873 39.5562 11.2031 39.5615 12.0497V17.598C39.5615 18.189 39.382 18.631 39.0651 18.8067C38.8908 18.9025 38.6215 19.0516 38.4314 19.1635C38.3363 19.2167 38.2941 19.2806 38.3205 19.4883C38.3363 19.632 38.3733 19.9781 38.3944 20.2071L38.4103 20.3509C38.4261 20.484 38.4895 20.5532 38.8063 20.5532H43.8338C44.1771 20.5532 44.214 20.4573 44.2246 20.3509L44.2352 20.2444C44.2563 20.026 44.2933 19.6746 44.3091 19.5255C44.3302 19.2699 44.3091 19.222 44.2088 19.1688C44.0028 19.057 43.7493 18.9132 43.5751 18.8174C43.2582 18.6363 43.0734 18.2103 43.0681 17.6406V9.54713C43.0681 9.41402 42.9572 9.3022 42.8252 9.3022H39.0123L39.0017 9.29688Z" fill="#111111"/>
<path d="M41.0085 4.69629C39.947 4.69629 39.0862 5.53226 39.0862 6.56524C39.0862 7.59822 39.947 8.4342 41.0085 8.4342C42.0699 8.4342 42.9307 7.59822 42.9307 6.56524C42.9307 5.53226 42.0699 4.69629 41.0085 4.69629Z" fill="#111111"/>
<path d="M51.6548 11.2084C51.9241 11.2084 52.1935 11.3096 52.3889 11.4799C52.5684 11.6397 52.7797 11.9379 52.7797 12.4703V18.4073C52.7797 19.9515 54.0471 20.649 55.23 20.649C56.413 20.649 57.3635 20.1059 57.7966 19.2007C57.9022 18.9771 57.8071 18.8067 57.6329 18.6097C57.4586 18.4126 57.353 18.3115 57.1523 18.418C57.0731 18.4552 56.9939 18.5085 56.9147 18.5617C56.7087 18.7002 56.508 18.828 56.3443 18.7374C56.17 18.6416 56.1648 18.4765 56.1648 18.2156V12.0444C56.1648 10.3724 55.5574 9.39801 54.253 8.98269C53.0067 8.58334 51.4488 9.31281 50.8627 9.58437C50.5616 9.72281 50.2765 9.8719 50.2712 9.87723L50.1814 9.92515L50.1392 9.8293C49.9385 9.35541 49.8593 9.29684 49.6375 9.29684H46.0517C45.7401 9.29684 45.6767 9.36074 45.6556 9.5045L45.6186 9.77606C45.5975 9.9145 45.5817 10.0583 45.5658 10.1648C45.5341 10.3671 45.5817 10.4416 45.6662 10.4842L45.7771 10.5481C45.8774 10.6067 46.0042 10.6812 46.0992 10.7345C46.3263 10.8676 46.6009 11.1977 46.6062 12.0444V17.5926C46.6062 18.1837 46.4266 18.6256 46.1098 18.8013C45.9355 18.8972 45.6662 19.0463 45.4761 19.1581C45.381 19.2113 45.3388 19.2752 45.3652 19.4829C45.381 19.632 45.418 19.9941 45.4391 20.223L45.4497 20.3455C45.4602 20.4839 45.5289 20.5478 45.8457 20.5478H50.8732C51.2112 20.5478 51.2534 20.452 51.264 20.3455L51.2746 20.239C51.2957 20.0207 51.3327 19.6693 51.3485 19.5202C51.3696 19.2646 51.3485 19.2167 51.2482 19.1634L51.227 19.1528C51.0264 19.041 50.7782 18.9025 50.6145 18.8067C50.2395 18.5937 50.1022 18.0506 50.1022 17.6139V13.2051C50.1022 12.087 50.6409 11.3255 51.5122 11.219C51.5597 11.2137 51.6073 11.2084 51.6548 11.2084" fill="#111111"/>
<path d="M100.472 11.2084C100.742 11.2084 101.011 11.3096 101.206 11.4799C101.386 11.6397 101.597 11.9379 101.597 12.4703V18.4073C101.597 19.9515 102.87 20.649 104.048 20.649C105.225 20.649 106.181 20.1059 106.614 19.2007C106.72 18.9771 106.625 18.8013 106.45 18.6097C106.276 18.4126 106.17 18.3115 105.975 18.418C105.896 18.4552 105.817 18.5085 105.737 18.5617C105.526 18.7002 105.331 18.828 105.167 18.7374C104.993 18.6416 104.988 18.4765 104.988 18.2156V12.0444C104.988 10.3724 104.38 9.39801 103.076 8.98269C101.835 8.58334 100.272 9.31281 99.6854 9.58437C99.3844 9.72281 99.0992 9.8719 99.094 9.87723L99.0042 9.92515L98.9672 9.8293C98.7665 9.35541 98.6873 9.29684 98.4655 9.29684H94.8797C94.5682 9.29684 94.5048 9.36074 94.4837 9.5045L94.4625 9.68554C94.4414 9.8506 94.415 10.037 94.3992 10.1648C94.3675 10.3671 94.415 10.4363 94.4995 10.4842L94.5946 10.5375C94.6949 10.5961 94.8322 10.6759 94.9378 10.7345C95.1702 10.8676 95.4395 11.1977 95.4448 12.0444V17.5926C95.4448 18.1837 95.2653 18.6256 94.9484 18.8013C94.7741 18.8972 94.5048 19.0463 94.3147 19.1581C94.2196 19.2113 94.1774 19.2752 94.2038 19.4829C94.2196 19.6213 94.2513 19.9461 94.2777 20.1751L94.2936 20.3455C94.3094 20.4786 94.3728 20.5478 94.6896 20.5478H99.7171C100.055 20.5478 100.097 20.452 100.108 20.3455L100.124 20.1698C100.145 19.9515 100.177 19.6533 100.187 19.5202C100.208 19.2646 100.187 19.2167 100.087 19.1634C99.8808 19.0516 99.6221 18.9078 99.4531 18.812C99.0781 18.599 98.9408 18.0559 98.9408 17.6193V13.2105C98.9408 12.0923 99.4848 11.3309 100.351 11.2244C100.398 11.219 100.446 11.2137 100.493 11.2137" fill="#111111"/>
<path d="M120.952 7.96554C118.94 7.98684 115.317 8.10399 113.696 8.16256C113.183 8.17853 112.877 8.19983 112.877 8.19983C112.682 8.21048 112.534 8.35424 112.486 8.46606C112.449 8.55658 112.423 8.64178 112.423 8.64178C112.423 8.64178 112.391 8.72697 112.37 8.82281C112.344 8.93996 112.375 9.14762 112.529 9.27008C112.529 9.27008 112.766 9.4671 113.168 9.78658C114.446 10.7929 117.308 13.0293 118.924 14.2433C118.322 16.1762 117.313 19.6851 116.864 21.2559C116.722 21.7511 116.648 22.0492 116.648 22.0492C116.595 22.2409 116.69 22.4273 116.78 22.5072C116.854 22.5711 116.928 22.6243 116.928 22.6243C116.928 22.6243 116.996 22.6776 117.081 22.7308C117.181 22.7947 117.387 22.8266 117.551 22.7148C117.551 22.7148 117.815 22.5498 118.237 22.2622C119.579 21.3464 122.578 19.2964 124.221 18.1197C125.863 19.2964 128.863 21.3464 130.204 22.2622C130.627 22.5498 130.891 22.7148 130.891 22.7148C131.054 22.8213 131.26 22.7947 131.361 22.7308C131.445 22.6776 131.514 22.6243 131.514 22.6243C131.514 22.6243 131.588 22.5764 131.662 22.5072C131.751 22.4273 131.846 22.2409 131.794 22.0492C131.794 22.0492 131.72 21.7511 131.577 21.2559C131.128 19.6851 130.12 16.1762 129.518 14.2433C131.134 13.0346 133.996 10.7929 135.274 9.78658C135.675 9.4671 135.913 9.27008 135.913 9.27008C136.066 9.14762 136.098 8.93996 136.071 8.82281C136.05 8.72697 136.018 8.64178 136.018 8.64178C136.018 8.64178 135.992 8.55658 135.955 8.46606C135.908 8.35424 135.76 8.21048 135.564 8.19983C135.564 8.19983 135.258 8.17853 134.746 8.16256C133.124 8.10399 129.502 7.98684 127.49 7.96554C126.851 6.04335 125.62 2.60895 125.066 1.07012C124.891 0.585578 124.775 0.298047 124.775 0.298047C124.707 0.111684 124.522 0.0158403 124.406 0.00519097C124.305 -0.00545833 124.215 -0.000133681 124.215 -0.000133681C124.215 -0.000133681 124.126 -0.000133681 124.031 0.00519097C123.909 0.0158403 123.724 0.111684 123.656 0.298047C123.656 0.298047 123.539 0.585578 123.365 1.07012C122.811 2.60895 121.58 6.04335 120.941 7.96554" fill="#111111"/>
<path d="M119.917 13.9186L117.329 21.9269C117.329 21.9269 117.329 21.9535 117.34 21.9642C117.34 21.9642 117.361 21.9802 117.377 21.9961C117.398 22.0121 117.419 22.0228 117.419 22.0228C117.43 22.0334 117.445 22.0334 117.456 22.0228L124.221 17.0708L130.986 22.0228C130.986 22.0228 131.012 22.0334 131.023 22.0228C131.023 22.0228 131.044 22.0121 131.065 21.9961C131.086 21.9802 131.102 21.9642 131.102 21.9642C131.113 21.9535 131.118 21.9429 131.113 21.9269L128.525 13.9186L135.29 8.96671C135.29 8.96671 135.306 8.94541 135.3 8.92943C135.3 8.92943 135.3 8.90281 135.29 8.88151C135.279 8.85489 135.269 8.83359 135.269 8.83359C135.269 8.81761 135.253 8.81229 135.237 8.81229H126.877L124.295 0.804013C124.295 0.793364 124.279 0.782715 124.263 0.782715C124.263 0.782715 124.237 0.782715 124.216 0.782715C124.195 0.782715 124.163 0.782715 124.163 0.782715C124.147 0.782715 124.136 0.793364 124.131 0.804013L121.549 8.81761H113.189C113.189 8.81761 113.163 8.81762 113.157 8.83891C113.157 8.83891 113.147 8.86021 113.141 8.88684C113.136 8.91346 113.131 8.93476 113.131 8.93476C113.131 8.95073 113.131 8.96138 113.141 8.97203L119.906 13.924L119.917 13.9186Z" fill="#111111"/>
<path d="M107.57 6.18169C107.57 7.41701 106.577 8.41804 105.352 8.41804C104.127 8.41804 103.129 7.41701 103.129 6.18169C103.129 4.94637 104.127 3.94001 105.352 3.94533C106.577 3.94533 107.57 4.94104 107.57 6.18169ZM107.121 6.18169C107.121 5.1913 106.329 4.39793 105.357 4.39793C104.386 4.39793 103.578 5.19663 103.578 6.18169C103.578 7.16675 104.375 7.97077 105.357 7.97077C106.339 7.97077 107.121 7.17207 107.121 6.18169ZM106.276 6.71415C106.313 6.97506 106.435 7.16142 106.498 7.29986C106.234 7.29986 106.134 7.29986 105.901 7.29986C105.785 7.04428 105.764 6.86857 105.706 6.69285C105.627 6.43195 105.468 6.3574 105.194 6.3574H104.988V7.29986H104.438V4.8878H105.584C105.848 4.8878 106.313 5.04754 106.313 5.5587C106.313 5.88351 106.139 6.10182 105.954 6.17104C106.155 6.30415 106.239 6.45324 106.276 6.70883M105.743 5.58533C105.743 5.38831 105.542 5.32442 105.373 5.32442H104.988V5.87818H105.426C105.611 5.87818 105.743 5.75039 105.743 5.58533" fill="#111111"/>
</g>
<g clip-path="url(#clip1_2382_4042)">
<path d="M294.566 13.06C294.566 13.06 297.001 11.5869 297.001 8.70442C297.001 5.58245 294.642 3.38086 291.637 3.38086H280.907V19.5224H287.757V17.1456C287.757 16.1163 288.202 15.5023 288.948 15.5023C289.835 15.5023 290.151 16.3305 290.151 17.1054V19.5224H297.001V18.7072C297.001 16.1367 296.453 13.9865 294.566 13.06ZM289.353 10.3341H287.756V7.9326H289.313C290.34 7.9326 290.952 8.37948 290.952 9.12778C290.952 10.0172 290.126 10.3335 289.353 10.3335V10.3341Z" fill="#111111"/>
<path d="M253.612 3C249.353 3 245.547 5.75184 245.547 10.7337V12.2669C245.547 17.2494 249.353 20 253.612 20C257.871 20 261.676 17.2494 261.676 12.2669V10.7337C261.676 5.75184 257.87 3 253.612 3ZM254.809 12.6902C254.809 13.7195 254.364 14.3335 253.617 14.3335C252.731 14.3335 252.415 13.5054 252.415 12.7305V10.2683C252.415 9.23899 252.861 8.62499 253.608 8.62499C254.494 8.62499 254.81 9.45314 254.81 10.2281V12.6902H254.809Z" fill="#111111"/>
<path d="M237.258 13.1383C237.258 14.1676 236.813 14.7816 236.066 14.7816C235.18 14.7816 234.864 13.9535 234.864 13.1785V10.7325H228V11.9196C228 16.6824 231.222 19.9993 236.061 19.9993C240.426 19.9993 244.122 17.4505 244.122 12.5831V3.38184H237.258V13.1383Z" fill="#111111"/>
<path d="M279.338 3.38184H272.488V5.75797C272.488 6.78728 272.042 7.40128 271.296 7.40128C270.409 7.40128 270.094 6.57313 270.094 5.79821V3.38184H263.244V19.5221H270.094V17.146C270.094 16.1167 270.539 15.5027 271.286 15.5027C272.172 15.5027 272.488 16.3308 272.488 17.1057V19.5227H279.338V18.7076C279.338 14.0166 277.812 12.2024 275.61 11.4523C275.61 11.4523 279.338 9.92472 279.338 4.19761V3.38184Z" fill="#111111"/>
</g>
<g clip-path="url(#clip2_2382_4042)">
<path d="M63.5783 117.447L58.5021 131.312H54.1603L49.1697 117.447H53.8494L56.5424 126.709L59.2353 117.447H63.5783Z" fill="#111111"/>
<path d="M71.4735 130.584C71.4735 130.663 71.4352 130.738 71.3677 130.779C71.0061 130.997 70.4734 131.179 69.9789 131.326C69.4338 131.487 68.8695 131.569 68.2873 131.569C67.554 131.569 66.9571 131.469 66.4965 131.269C66.0358 131.069 65.6743 130.76 65.4107 130.34C65.2418 130.072 65.119 129.758 65.0435 129.396C64.9681 129.034 64.9309 128.578 64.9309 128.024V117.475H69.6681V127.68C69.6681 128.195 69.8843 128.452 70.3168 128.452C70.5241 128.452 70.7392 128.414 70.9656 128.338C71.0354 128.315 71.0996 128.29 71.1582 128.265C71.308 128.201 71.4724 128.313 71.4724 128.477V130.584H71.4735Z" fill="#111111"/>
<path d="M86.1413 131.311H81.4041V122.906C81.4041 122.62 81.3906 122.359 81.3624 122.12C81.3343 121.881 81.2633 121.668 81.1507 121.477C81.0381 121.268 80.859 121.096 80.6146 120.962C80.3702 120.83 80.0886 120.762 79.7687 120.762C79.3926 120.762 79.0817 120.839 78.8384 120.991C78.594 121.144 78.3969 121.335 78.2471 121.563C78.0962 121.791 77.9982 122.058 77.9509 122.363C77.9036 122.668 77.8799 122.983 77.8799 123.307V131.311H73.1428V120.791H71.4792V117.446H75.3672C75.7118 117.446 76.0238 117.653 76.1635 117.973L76.7807 119.391C77.2695 118.685 77.9273 118.143 78.7539 117.762C79.5806 117.38 80.4738 117.189 81.4323 117.189C82.3344 117.189 83.1476 117.347 83.8707 117.661C84.5949 117.975 85.1445 118.466 85.5207 119.133C85.7268 119.495 85.8822 119.905 85.9858 120.363C86.0895 120.821 86.1413 121.42 86.1413 122.164V131.311V131.311Z" fill="#111111"/>
<path d="M43.9797 125.108C43.7916 125.032 43.5753 124.96 43.3309 124.893C43.0865 124.827 42.814 124.794 42.5132 124.794C41.9107 124.794 41.4748 124.98 41.2022 125.351C40.9285 125.722 40.7934 126.184 40.7934 126.737C40.7934 127.347 40.9432 127.805 41.2439 128.11C41.5446 128.415 41.949 128.568 42.4569 128.568C42.9649 128.568 43.3118 128.425 43.5562 128.138C43.8378 127.853 43.9797 127.443 43.9797 126.908V125.108V125.108ZM50.5211 130.585C50.5211 130.664 50.4806 130.736 50.413 130.774C49.9738 131.019 48.8272 131.568 47.2786 131.568C46.64 131.568 46.0802 131.411 45.6004 131.154C45.1217 130.897 44.7872 130.511 44.5991 129.996C44.2229 130.492 43.6925 130.878 43.0065 131.154C42.3206 131.43 41.5829 131.568 40.7934 131.568C39.327 131.568 38.1613 131.178 37.2963 130.397C36.4313 129.616 35.9988 128.491 35.9988 127.024C35.9988 126.262 36.126 125.594 36.3795 125.023C36.634 124.451 36.9955 123.975 37.4652 123.594C37.9349 123.213 38.4901 122.922 39.1287 122.722C39.7673 122.522 40.4724 122.422 41.2439 122.422C42.2204 122.422 43.1327 122.584 43.9785 122.908V122.509C43.9785 122.127 43.9549 121.798 43.9076 121.522C43.8603 121.246 43.733 121.004 43.5269 120.792C43.3388 120.583 43.0707 120.43 42.7227 120.336C42.3747 120.241 41.985 120.193 41.5525 120.193C40.8384 120.193 40.0816 120.298 39.283 120.507C38.4834 120.717 37.793 120.974 37.2107 121.279V118.134C37.8493 117.867 38.6253 117.644 39.5365 117.463C40.4476 117.282 41.3644 117.191 42.2857 117.191C43.4706 117.191 44.4707 117.305 45.2884 117.535C46.1061 117.763 46.8066 118.125 47.3889 118.621C47.8777 119.04 48.2201 119.555 48.4184 120.164C48.6155 120.774 48.7146 121.498 48.7146 122.337V127.654C48.7146 128.267 48.9781 128.455 49.3633 128.455C49.6404 128.455 49.9648 128.371 50.2171 128.259C50.3601 128.196 50.5189 128.298 50.5189 128.456V130.588L50.5211 130.585Z" fill="#111111"/>
<path d="M109.372 125.108C109.184 125.032 108.968 124.96 108.723 124.893C108.479 124.827 108.206 124.794 107.906 124.794C107.303 124.794 106.867 124.98 106.595 125.351C106.321 125.722 106.186 126.184 106.186 126.737C106.186 127.347 106.336 127.805 106.638 128.11C106.938 128.415 107.343 128.568 107.851 128.568C108.359 128.568 108.705 128.425 108.95 128.138C109.231 127.853 109.373 127.443 109.373 126.908V125.108H109.372ZM115.745 130.55C115.745 130.632 115.705 130.711 115.637 130.754C115.296 130.97 114.877 131.152 114.377 131.297C113.823 131.459 113.255 131.54 112.672 131.54C112.032 131.54 111.474 131.411 110.994 131.154C110.515 130.897 110.181 130.511 109.993 129.996C109.617 130.492 109.086 130.878 108.4 131.154C107.714 131.43 106.977 131.568 106.187 131.568C104.721 131.568 103.555 131.178 102.69 130.397C101.826 129.616 101.394 128.491 101.394 127.024C101.394 126.262 101.521 125.594 101.774 125.023C102.028 124.451 102.39 123.975 102.86 123.594C103.33 123.213 103.885 122.922 104.524 122.722C105.162 122.522 105.867 122.422 106.639 122.422C107.615 122.422 108.527 122.584 109.373 122.908V122.509C109.373 122.127 109.35 121.798 109.302 121.522C109.255 121.246 109.128 121.004 108.922 120.794C108.734 120.585 108.466 120.432 108.117 120.336C107.769 120.241 107.38 120.193 106.947 120.193C106.233 120.193 105.476 120.298 104.678 120.507C103.878 120.717 103.188 120.974 102.605 121.279V118.134C103.244 117.867 104.02 117.644 104.931 117.463C105.842 117.281 106.759 117.191 107.68 117.191C108.865 117.191 109.866 117.305 110.683 117.535C111.501 117.763 112.201 118.125 112.784 118.621C113.273 119.04 113.616 119.555 113.813 120.164C114.01 120.774 114.109 121.498 114.109 122.337V127.654C114.109 128.169 114.326 128.426 114.758 128.426C114.996 128.426 115.224 128.36 115.408 128.274C115.566 128.201 115.745 128.318 115.745 128.493V130.552V130.55Z" fill="#111111"/>
<path d="M69.8235 113.787C69.8235 114.53 69.5735 115.145 69.0768 115.631C68.5778 116.118 67.9809 116.36 67.286 116.36C66.5911 116.36 65.975 116.116 65.4952 115.631C65.0154 115.145 64.7766 114.53 64.7766 113.787C64.7766 113.425 64.8419 113.087 64.9737 112.772C65.1044 112.458 65.2834 112.186 65.5087 111.957C65.734 111.728 66.002 111.552 66.3129 111.428C66.6226 111.305 66.947 111.242 67.2849 111.242C67.9798 111.242 68.5778 111.48 69.0757 111.957C69.5735 112.433 69.8224 113.042 69.8224 113.786" fill="#111111"/>
<path d="M91.4978 110.591H92.6534C95.0163 110.591 96.2755 112.1 96.5807 113.587C96.5807 113.587 98.1271 113.048 98.1271 110.591H95.6437C95.6437 110.591 96.2361 109.958 96.2361 108.784H93.1512C93.1512 108.784 91.7017 108.97 91.4989 110.591" fill="#111111"/>
<path d="M93.273 113.688C92.898 113.688 92.5939 113.379 92.5939 112.999C92.5939 112.619 92.898 112.311 93.273 112.311C93.6481 112.311 93.9522 112.619 93.9522 112.999C93.9522 113.379 93.6481 113.688 93.273 113.688ZM92.6817 111.187H89.1294C89.9358 112.005 92.756 114.458 89.1294 118.135C87.833 119.45 87.9445 121.31 87.9445 122.602V125.231L96.234 116.828V115.412C96.234 111.074 92.6817 111.186 92.6817 111.186" fill="#111111"/>
<path d="M105.416 113.879C101.518 113.879 98.8468 115.456 95.6617 118.684L87.9443 126.509V131.312H92.6815V127.112L96.8263 131.312H102.156L95.763 124.834C96.298 122.931 100.889 114.407 110.16 116.294C110.76 116.417 108.927 113.879 105.414 113.879" fill="#111111"/>
</g>
<g clip-path="url(#clip3_2382_4042)">
<path d="M237.029 120.739L243.718 102.784H248.201L247.684 110.836L250.686 102.784H254.901L248.214 120.739H243.674L244.19 112.794L241.243 120.739H237.028H237.029ZM252.977 120.739L259.663 102.784H255.449L248.761 120.739H252.976H252.977ZM265.148 119.542L271.25 103.139L264.877 110.184L265.148 119.543V119.542ZM294.001 113.704L245.693 134.227C240.486 136.439 232.319 138.981 228.919 133.483C227.022 130.433 228.225 125.679 231.024 121.345C232.803 118.575 235.095 116.033 237.387 113.493C236.115 115.566 232.528 122.511 237.224 125.982C239.053 127.31 242.271 127.451 246.271 126.399L267.6 120.726L260.966 120.739L260.773 113.231L257.939 120.739H253.726L260.359 102.784H264.628L262.589 108.171L267.005 102.784H279.864L278.732 105.777H274.463L273.074 109.559H277.127L275.881 112.905H271.828L270.214 117.258H275.129L274.553 118.877L294 113.705L294.001 113.704Z" fill="#111111"/>
</g>
<g clip-path="url(#clip4_2382_4042)">
<path d="M5.96997 237.135C5.98285 239.346 4.13365 242.79 1.49893 242.784C0.682503 242.795 0.0128774 242.318 0 241.6C0 240.951 0.484191 240.571 0.893692 240.571C1.35985 240.571 1.73588 240.926 1.72557 241.376C1.7333 241.842 1.48863 242.063 1.48863 242.063C1.48863 242.063 1.60968 242.081 1.73845 242.084C2.60896 242.073 4.24697 241.293 4.25985 238.428L4.23924 226.853L2.7944 225.892L2.78667 225.784L7.26544 225.79L7.26028 225.892L5.98285 226.848L5.96997 237.135ZM25.7832 232.747L30.9728 232.733V229.357L29.8807 228.539V228.434H30.9728H32.6339L33.7259 228.423L33.7208 228.533L32.6288 229.354L32.6365 237.512L33.7259 238.328V238.441H32.6391H30.9805L29.8936 238.444L29.8859 238.328L30.9831 237.52L30.9779 233.579H25.7857L25.7909 237.52L26.8803 238.334V238.436L25.7935 238.444H23.0428V238.331L24.1348 237.523L24.122 229.357L23.0377 228.547L23.0325 228.439L24.1271 228.431H25.7832H26.8726V228.539L25.7857 229.36V232.749L25.7832 232.747ZM37.8364 237.37C37.9446 235.334 37.942 232.712 37.8313 229.494L36.5049 228.53L36.4946 228.425L39.3379 228.42C39.9277 229.411 42.0293 231.848 45.1353 236.12C45.1353 233.619 45.1044 231.409 45.0658 229.513L43.7909 228.533L43.8012 228.415L47.0695 228.42V228.528L45.9492 229.521C45.8487 232.965 45.8668 235.951 46.0367 238.503L44.7104 238.509C44.7181 238.334 44.4915 238.07 44.3241 237.844L38.6554 230.404C38.6554 232.696 38.6915 235.006 38.761 237.367L40.005 238.32V238.433H36.729V238.328L37.839 237.367L37.8364 237.37ZM51.1182 237.362C51.2289 235.337 51.2212 232.706 51.113 229.484L49.7789 228.525V228.417H52.6197C53.212 229.414 55.3111 231.85 58.4171 236.118C58.4119 233.622 58.3888 231.393 58.345 229.513L57.0675 228.522L57.0624 228.423L60.3384 228.412L60.3487 228.522L59.2284 229.516C59.1305 232.965 59.1382 235.953 59.3134 238.503H57.9921C57.9947 238.331 57.7758 238.067 57.6032 237.841L51.932 230.407C51.932 232.688 51.9655 235 52.0428 237.362L53.279 238.317V238.433H50.0081L50.0004 238.312L51.1156 237.362H51.1182ZM64.4077 237.491L64.3999 229.338L63.2976 228.522L63.2873 228.404L64.3999 228.417L66.0482 228.412H67.1634L67.1686 228.528L66.0534 229.335V237.502L67.2124 238.317V238.428L66.0611 238.422L64.4077 238.428H63.2564L63.2513 238.312L64.4077 237.496V237.491ZM77.9882 238.414L70.2772 238.422V238.304L71.3666 237.483V229.338L70.2746 228.522L70.2695 228.412H77.7924V230.364L77.6894 230.359L76.8807 229.244C75.4874 229.204 74.179 229.225 72.9995 229.274C73.0098 230.372 72.9995 231.551 73.0021 232.758C73.3266 232.774 74.3336 232.774 76.0437 232.784L76.7957 231.613H76.891V234.734L76.7829 234.726L76.0488 233.571C74.7611 233.576 73.7489 233.584 73.033 233.606V237.588L76.9554 237.577L77.8826 236.22H77.9959L77.9908 238.414H77.9882ZM110.81 234.777C109.641 234.763 108.412 234.758 107.091 234.777L106.112 237.459L107.336 238.393L107.331 238.501L104.078 238.506V238.393L105.157 237.459L108.626 228.275H110.081L113.651 237.44L114.745 238.382L114.74 238.498L110.563 238.503L110.576 238.387L111.804 237.448L110.81 234.777ZM107.362 234.028L110.532 234.02L108.927 229.704L107.359 234.028H107.362ZM124.342 236.277V238.487L116.984 238.501V238.385L118.078 237.561L118.068 229.414L116.981 228.592L116.976 228.485H118.078H119.783H120.981L120.991 228.6L119.786 229.414V237.588C120.764 237.631 121.954 237.62 123.314 237.62L124.223 236.279H124.349L124.342 236.277ZM133.013 228.579L133.019 228.477H136.253V228.584L134.793 229.379C134.221 229.844 133.026 230.97 131.298 232.661C132.532 234.055 134.018 235.717 135.759 237.601L136.513 238.382L136.506 238.49H133.031L133.019 238.377L133.42 237.596L129.549 233.196L129.554 237.577L130.706 238.387L130.701 238.487L129.552 238.498L127.898 238.492L126.732 238.498L126.742 238.387L127.891 237.572L127.901 229.411L126.786 228.595L126.776 228.485L127.893 228.477L129.552 228.482H130.665L130.657 228.592L129.547 229.397V233.196C130.675 232.195 132.151 230.744 133.487 229.357L133.006 228.584L133.013 228.579ZM146.702 238.476H138.973L138.981 238.369L140.062 237.574V229.408L138.965 228.598L138.97 228.474H146.499L146.496 230.426H146.396L145.595 229.319C144.194 229.276 142.888 229.29 141.693 229.352C141.703 230.45 141.706 231.624 141.706 232.817C142.033 232.841 143.035 232.841 144.747 232.846L145.492 231.681H145.595L145.602 234.801L145.489 234.796L144.742 233.635C143.452 233.635 142.458 233.643 141.726 233.673V237.647L145.651 237.652L146.581 236.279L146.692 236.285L146.699 238.479L146.702 238.476ZM152.687 233.374C153.002 233.388 153.522 233.396 153.772 233.398C155.423 233.398 156.329 232.604 156.329 231.196C156.332 230.116 155.528 229.19 154.21 229.206C153.991 229.206 153.259 229.217 152.703 229.257L152.687 233.371V233.374ZM152.08 228.469L152.932 228.463H154.4C156.695 228.469 158.225 229.567 158.238 231.153C158.23 232.658 156.842 233.748 155.09 233.783C155.737 233.859 156.128 234.174 156.458 234.75L157.972 237.23C158.191 237.585 158.82 238.234 159.005 238.366L158.992 238.474H156.801L154.526 234.532C154.344 234.209 154.13 234.053 153.728 234.069C153.553 234.069 153.146 234.066 152.682 234.093L152.716 237.588L153.823 238.371L153.81 238.482H152.654L151.047 238.479L149.888 238.474V238.371L151.052 237.561L151.047 229.414L149.952 228.587V228.479L152.085 228.471L152.08 228.469ZM15.3112 228.738C13.1993 228.759 11.8318 230.765 11.8266 233.441C11.8369 236.495 13.4157 238.129 15.3241 238.126C17.2454 238.121 18.8474 236.457 18.85 233.441C18.8268 230.754 17.4154 228.735 15.3112 228.738ZM15.3962 228.005C18.2602 228.005 20.5858 230.437 20.591 233.431C20.591 236.427 18.2602 238.861 15.4014 238.859L15.2211 238.864C12.3469 238.872 10.0161 236.435 10.0135 233.436C10.0135 230.434 12.3391 228.005 15.2082 228.003H15.3988L15.3962 228.005ZM92.2898 236.137L94.9014 226.904L93.8248 225.954V225.851L97.9997 225.835V225.962L96.9257 226.958C98.386 231.988 99.3879 235.458 99.5398 236.212L102.162 226.861L101.016 225.948V225.835H104.127V225.954L103.151 226.923C101.623 231.861 100.48 235.792 99.733 238.689L98.4658 238.697C97.7293 235.881 96.6476 232.381 95.4165 228.145C94.2086 232.316 93.2144 235.843 92.4315 238.697L91.2339 238.702C90.8012 236.907 89.6294 232.986 87.7879 226.926L86.8195 225.965V225.843H90.8347L90.8398 225.959L89.6912 226.893L92.2873 236.137H92.2898Z" fill="#111111"/>
</g>
<g clip-path="url(#clip5_2382_4042)">
<path d="M241.018 235.178H243.341V237.352C243.341 239.406 241.857 240.714 240.061 240.714C238.264 240.714 236.781 239.445 236.781 237.352V227.297C236.781 225.203 238.284 223.854 240.138 223.854C241.992 223.854 243.341 225.103 243.341 227.136V229.191H241.018V227.258C241.018 226.573 240.667 226.152 240.101 226.152C239.534 226.152 239.163 226.576 239.163 227.258V237.313C239.163 238.018 239.534 238.419 240.101 238.419C240.667 238.419 241.018 238.016 241.018 237.313V235.178Z" fill="#111111"/>
<path d="M247.748 237.212C247.748 237.977 248.159 238.419 248.783 238.419C249.407 238.419 249.798 237.977 249.798 237.212V227.356C249.798 226.612 249.407 226.147 248.783 226.147C248.159 226.147 247.748 226.609 247.748 227.356V237.21V237.212ZM245.368 227.397C245.368 225.242 246.909 223.854 248.823 223.854C250.737 223.854 252.201 225.162 252.201 227.317V237.192C252.201 239.347 250.64 240.714 248.745 240.714C246.851 240.714 245.368 239.406 245.368 237.251V227.397Z" fill="#111111"/>
<path d="M265.862 238.218H266.604C267.386 238.218 267.814 237.734 267.814 236.809V227.759C267.814 226.834 267.386 226.351 266.604 226.351H265.862V238.218ZM263.482 224.054H266.782C268.852 224.054 270.217 225.242 270.217 227.576V236.928C270.217 239.264 268.792 240.512 266.722 240.512H263.482V224.056V224.054Z" fill="#111111"/>
<path d="M274.938 224.056H272.498V240.515H274.938V224.056Z" fill="#111111"/>
<path d="M277.269 240.515V224.056H279.652V238.078H282.345V240.515H277.269Z" fill="#111111"/>
<path d="M284.234 240.515V224.056H286.615V238.078H289.309V240.515H284.234Z" fill="#111111"/>
<path d="M291.19 240.515V224.056H296.56V226.49H293.573V231.561H295.974V233.835H293.573V238.078H296.658V240.515H291.19Z" fill="#111111"/>
<path d="M310.297 235.804H311.838L311.056 230.431L310.294 235.804H310.297ZM315.002 240.515H312.524L312.113 237.776H310.024L309.613 240.515H307.29L309.983 224.056H312.306L315 240.515H315.002Z" fill="#111111"/>
<path d="M256.716 226.351H257.458C258.237 226.351 258.668 226.834 258.668 227.759V230.397C258.668 231.323 258.237 231.806 257.458 231.806H256.716V226.348V226.351ZM261.655 240.515L259.836 233.416C260.29 233.067 260.633 232.586 260.841 231.984C260.868 231.907 260.893 231.824 260.919 231.741L260.929 231.705C261.019 231.377 261.071 231.013 261.071 230.612V227.583C261.071 225.247 259.706 224.061 257.636 224.061H254.336V240.52H256.716V234.119L256.746 234.111H257.576C257.576 234.111 257.588 234.111 257.596 234.111L259.24 240.522H261.658L261.655 240.515Z" fill="#111111"/>
<path d="M300.975 226.351H301.717C302.496 226.351 302.927 226.834 302.927 227.759V230.397C302.927 231.323 302.499 231.806 301.717 231.806H300.975V226.348V226.351ZM305.914 240.515L304.095 233.416C304.549 233.067 304.892 232.586 305.1 231.984C305.127 231.907 305.153 231.824 305.178 231.741C305.18 231.728 305.185 231.718 305.188 231.705C305.278 231.377 305.33 231.013 305.33 230.612V227.583C305.33 225.247 303.965 224.061 301.895 224.061H298.595V240.52H300.975V234.119L301.005 234.111H301.835C301.835 234.111 301.847 234.111 301.855 234.111L303.499 240.522H305.917L305.914 240.515Z" fill="#111111"/>
<path d="M231.073 242.643C230.419 243.318 229.697 243.93 228.923 244.462C228.148 244.997 227.324 245.452 226.462 245.819C224.74 246.556 222.884 246.933 221.027 246.933C219.17 246.933 217.313 246.556 215.592 245.819C214.733 245.452 213.906 244.997 213.131 244.462C212.357 243.927 211.638 243.318 210.981 242.643C210.327 241.969 209.734 241.224 209.217 240.426C208.699 239.627 208.258 238.777 207.902 237.888C207.188 236.113 206.822 234.198 206.822 232.283C206.822 230.368 207.188 228.453 207.902 226.678C208.258 225.792 208.699 224.939 209.217 224.143C209.736 223.344 210.33 222.603 210.981 221.926C211.635 221.251 212.357 220.639 213.131 220.106C213.906 219.571 214.73 219.117 215.592 218.75C217.313 218.013 219.17 217.636 221.027 217.636C222.884 217.636 224.74 218.013 226.462 218.75C227.321 219.117 228.148 219.571 228.923 220.106C229.697 220.641 230.416 221.254 231.073 221.926L230.782 222.225C230.145 221.572 229.446 220.977 228.695 220.458C227.943 219.938 227.143 219.496 226.307 219.14C224.635 218.427 222.831 218.06 221.029 218.06C219.228 218.06 217.421 218.427 215.752 219.14C214.918 219.496 214.116 219.938 213.364 220.458C212.613 220.977 211.914 221.572 211.277 222.225C210.643 222.882 210.067 223.603 209.563 224.378C209.06 225.153 208.631 225.98 208.285 226.841C207.594 228.564 207.238 230.422 207.238 232.283C207.238 234.144 207.594 236.004 208.285 237.725C208.631 238.586 209.06 239.413 209.563 240.188C210.067 240.963 210.643 241.684 211.277 242.341C211.914 242.997 212.613 243.591 213.364 244.108C214.116 244.628 214.918 245.07 215.752 245.426C217.424 246.14 219.225 246.506 221.029 246.506C222.834 246.506 224.635 246.14 226.307 245.426C227.141 245.07 227.943 244.628 228.695 244.108C229.446 243.589 230.145 242.995 230.782 242.341L231.073 242.643ZM230.489 242.041C229.872 242.677 229.193 243.253 228.464 243.757C227.735 244.261 226.958 244.69 226.149 245.033C224.527 245.726 222.778 246.083 221.029 246.083C219.28 246.083 217.529 245.726 215.91 245.033C215.101 244.687 214.324 244.258 213.595 243.757C212.866 243.256 212.187 242.677 211.57 242.041C210.954 241.405 210.395 240.705 209.906 239.953C209.418 239.201 209.004 238.4 208.669 237.565C207.997 235.893 207.651 234.089 207.651 232.286C207.651 230.482 207.997 228.678 208.669 227.006C209.004 226.171 209.42 225.368 209.906 224.618C210.395 223.866 210.954 223.166 211.57 222.53C212.187 221.895 212.866 221.318 213.595 220.814C214.324 220.31 215.101 219.882 215.91 219.538C217.531 218.845 219.28 218.489 221.029 218.489C222.778 218.489 224.527 218.845 226.149 219.538C226.958 219.884 227.735 220.313 228.464 220.814C229.193 221.318 229.872 221.895 230.489 222.53L230.198 222.83C229.599 222.212 228.94 221.654 228.236 221.168C227.529 220.68 226.778 220.267 225.993 219.931C224.422 219.259 222.728 218.915 221.032 218.915C219.336 218.915 217.639 219.261 216.071 219.931C215.286 220.267 214.532 220.68 213.828 221.168C213.121 221.657 212.465 222.215 211.866 222.83C211.267 223.448 210.726 224.127 210.255 224.853C209.781 225.582 209.38 226.358 209.055 227.169C208.403 228.787 208.07 230.536 208.07 232.286C208.07 234.035 208.406 235.785 209.055 237.402C209.38 238.211 209.781 238.989 210.255 239.715C210.728 240.444 211.27 241.121 211.866 241.739C212.465 242.356 213.124 242.914 213.828 243.4C214.535 243.889 215.286 244.302 216.071 244.638C217.639 245.31 219.336 245.654 221.032 245.654C222.728 245.654 224.425 245.307 225.993 244.638C226.778 244.302 227.532 243.889 228.236 243.4C228.943 242.912 229.599 242.354 230.198 241.739L230.489 242.038V242.041ZM229.381 223.67L229.369 223.657C229.359 223.393 229.341 223.122 229.318 222.846C229.05 222.846 228.787 222.859 228.532 222.874L228.509 222.853C228.477 222.59 228.431 222.324 228.384 222.052C228.351 222.055 227.73 222.14 227.602 222.161L227.577 222.143C227.564 222.075 227.412 221.489 227.374 221.357C227.374 221.357 226.73 221.51 226.607 221.543L226.58 221.528C226.58 221.528 226.354 220.895 226.304 220.765C226.179 220.801 225.68 220.982 225.557 221.029L225.53 221.016C225.517 220.985 225.244 220.409 225.181 220.287C225.181 220.287 224.58 220.566 224.465 220.626L224.435 220.615C224.402 220.556 224.094 220.042 224.019 219.925C223.961 219.956 223.448 220.264 223.337 220.334L223.307 220.326C223.157 220.109 222.996 219.897 222.829 219.68C222.608 219.835 222.395 219.995 222.19 220.155H222.16C221.989 219.954 221.809 219.757 221.621 219.558C221.415 219.737 221.22 219.918 221.029 220.096C221.019 220.096 221.009 220.096 220.999 220.096C220.811 219.918 220.614 219.734 220.408 219.558C220.22 219.757 220.042 219.954 219.872 220.153H219.842C219.739 220.075 219.258 219.719 219.203 219.683C219.118 219.791 218.762 220.272 218.724 220.329L218.694 220.336C218.584 220.267 218.188 220.026 218.188 220.026L218.013 219.928C217.94 220.044 217.599 220.618 217.599 220.618L217.569 220.628C217.454 220.569 216.973 220.341 216.852 220.292C216.79 220.414 216.507 221.021 216.507 221.021L216.479 221.034C216.359 220.988 215.86 220.809 215.732 220.773C215.682 220.902 215.497 221.404 215.457 221.535L215.429 221.551C215.304 221.517 214.79 221.388 214.662 221.365C214.625 221.497 214.482 222.052 214.482 222.052L214.462 222.15L214.437 222.169C214.309 222.148 213.655 222.063 213.655 222.063C213.63 222.2 213.537 222.796 213.53 222.864L213.507 222.884C213.379 222.877 212.786 222.856 212.72 222.856C212.698 223.132 212.683 223.401 212.673 223.665L212.66 223.678C212.405 223.688 212.142 223.704 211.876 223.729C211.876 224.006 211.889 224.277 211.904 224.541L211.883 224.564C211.628 224.598 211.37 224.644 211.107 224.693C211.109 224.727 211.192 225.368 211.212 225.5L211.194 225.525C211.129 225.538 210.56 225.696 210.433 225.735C210.433 225.735 210.465 225.903 210.473 225.936C210.473 225.936 210.581 226.399 210.613 226.528L210.598 226.556C210.598 226.556 209.984 226.789 209.859 226.841C209.894 226.97 210.069 227.484 210.114 227.611L210.102 227.639C210.072 227.652 209.513 227.934 209.395 227.998C209.395 227.998 209.666 228.619 209.724 228.738L209.714 228.769C209.656 228.802 209.157 229.12 209.044 229.198C209.075 229.257 209.373 229.787 209.44 229.9L209.433 229.931C209.222 230.086 209.017 230.252 208.806 230.425C208.957 230.652 209.112 230.872 209.267 231.084L209.262 231.115C209.07 231.291 208.879 231.477 208.686 231.671C208.859 231.883 209.034 232.084 209.207 232.28C209.207 232.291 209.207 232.301 209.207 232.311C209.034 232.505 208.857 232.709 208.686 232.921C208.879 233.115 209.07 233.299 209.262 233.474L209.267 233.505C209.19 233.611 208.842 234.107 208.806 234.164C208.912 234.252 209.378 234.619 209.433 234.658L209.44 234.689C209.373 234.803 209.044 235.392 209.044 235.392C209.157 235.467 209.714 235.818 209.714 235.818L209.724 235.849C209.666 235.968 209.445 236.464 209.398 236.588C209.516 236.653 210.104 236.945 210.104 236.945L210.117 236.973C210.072 237.097 209.899 237.614 209.861 237.743C209.987 237.795 210.473 237.986 210.601 238.028L210.616 238.056C210.583 238.185 210.46 238.715 210.435 238.847C210.563 238.886 211.197 239.054 211.197 239.054L211.214 239.079C211.194 239.211 211.112 239.886 211.112 239.886C211.242 239.912 211.823 240.007 211.889 240.015L211.909 240.038C211.901 240.17 211.881 240.782 211.881 240.85C212.149 240.873 212.41 240.888 212.665 240.899L212.678 240.912C212.688 241.175 212.705 241.447 212.728 241.723C212.996 241.723 213.259 241.71 213.515 241.695L213.537 241.715C213.57 241.979 213.615 242.245 213.663 242.516C213.695 242.514 213.728 242.511 213.76 242.506L213.861 242.493L214.058 242.467C214.189 242.449 214.319 242.429 214.444 242.408L214.469 242.426C214.482 242.493 214.635 243.08 214.672 243.212C214.672 243.212 215.316 243.059 215.439 243.026L215.467 243.041C215.467 243.041 215.692 243.674 215.742 243.803C215.868 243.767 216.366 243.586 216.489 243.54L216.517 243.553C216.529 243.584 216.802 244.16 216.865 244.281C216.865 244.281 217.466 244.002 217.582 243.943L217.612 243.953C217.644 244.013 217.952 244.527 218.028 244.643C218.085 244.612 218.599 244.305 218.709 244.235L218.739 244.243C218.89 244.46 219.05 244.672 219.218 244.889C219.438 244.734 219.651 244.573 219.857 244.413H219.887C220.057 244.615 220.238 244.814 220.426 245.01C220.631 244.832 220.827 244.651 221.017 244.473C221.027 244.473 221.037 244.473 221.047 244.473C221.235 244.651 221.433 244.832 221.638 245.01C221.826 244.811 222.004 244.615 222.175 244.416H222.205C222.307 244.493 222.789 244.85 222.844 244.886C222.929 244.778 223.285 244.297 223.322 244.24L223.352 244.232C223.463 244.302 224.034 244.641 224.034 244.641C224.107 244.524 224.447 243.951 224.447 243.951L224.477 243.94C224.593 244 225.074 244.227 225.194 244.276C225.257 244.155 225.54 243.548 225.54 243.548L225.567 243.535C225.688 243.581 226.186 243.759 226.314 243.798C226.364 243.672 226.55 243.168 226.59 243.036L226.617 243.02C226.743 243.054 227.256 243.183 227.384 243.206C227.422 243.075 227.585 242.421 227.585 242.421L227.61 242.403C227.737 242.423 228.391 242.509 228.391 242.509C228.416 242.374 228.509 241.775 228.517 241.708L228.539 241.687C228.667 241.695 229.261 241.715 229.326 241.715C229.349 241.439 229.364 241.17 229.374 240.907L229.9 241.447C229.318 242.044 228.682 242.584 227.998 243.057C227.314 243.529 226.585 243.93 225.825 244.256C224.307 244.904 222.663 245.24 221.022 245.24C219.381 245.24 217.737 244.907 216.218 244.256C215.459 243.93 214.73 243.529 214.046 243.057C213.362 242.586 212.725 242.044 212.144 241.447C211.565 240.85 211.042 240.191 210.583 239.485C210.124 238.78 209.736 238.03 209.42 237.245C208.791 235.679 208.466 233.983 208.466 232.291C208.466 230.598 208.789 228.903 209.42 227.337C209.736 226.554 210.124 225.802 210.583 225.096C211.039 224.391 211.565 223.735 212.144 223.135C212.725 222.538 213.362 221.998 214.046 221.525C214.73 221.052 215.459 220.652 216.218 220.326C217.737 219.677 219.381 219.341 221.022 219.341C222.663 219.341 224.307 219.675 225.825 220.326C226.585 220.649 227.314 221.052 227.998 221.525C228.682 221.998 229.318 222.538 229.9 223.135L229.374 223.675L229.381 223.67ZM228.592 240.085C227.6 241.105 226.417 241.925 225.121 242.478C223.828 243.031 222.428 243.315 221.027 243.315C220.676 243.315 220.328 243.297 219.98 243.261C220.165 243.17 220.864 242.777 221.027 242.674C220.862 242.563 220.243 242.108 220.1 241.989C219.937 242.075 219.105 242.46 219.06 242.475C219.095 242.511 219.814 243.132 219.98 243.261C219.283 243.191 218.594 243.049 217.922 242.839L219.06 242.475L218.281 241.617L217.171 241.886L217.922 242.839C217.587 242.736 217.256 242.612 216.933 242.475C216.609 242.338 216.294 242.183 215.988 242.015L217.173 241.889L216.572 240.891L215.432 240.93L215.988 242.018C215.371 241.677 214.788 241.273 214.246 240.816C214.297 240.826 215.434 240.93 215.434 240.93C215.434 240.93 215.046 239.875 215.033 239.829C214.85 239.806 214.096 239.676 213.903 239.635C213.951 239.829 214.179 240.615 214.246 240.816C213.976 240.586 213.715 240.343 213.465 240.087C212.475 239.064 211.681 237.844 211.144 236.508C210.608 235.175 210.332 233.73 210.332 232.286C210.332 231.926 210.35 231.565 210.385 231.205C210.473 231.397 210.854 232.115 210.954 232.286C211.062 232.115 211.503 231.477 211.618 231.329C211.535 231.162 211.162 230.304 211.147 230.257C211.112 230.293 210.51 231.035 210.385 231.203C210.453 230.484 210.591 229.774 210.793 229.081L211.147 230.254L211.979 229.451L211.718 228.306L210.793 229.081C210.894 228.735 211.014 228.394 211.147 228.06C211.28 227.727 211.43 227.402 211.593 227.086L211.716 228.309L212.683 227.688L212.645 226.513L211.59 227.086C211.921 226.451 212.312 225.848 212.755 225.29C212.745 225.342 212.645 226.515 212.645 226.515C212.645 226.515 213.668 226.115 213.713 226.102C213.735 225.913 213.861 225.135 213.901 224.936C213.715 224.985 212.951 225.22 212.755 225.29C212.979 225.011 213.214 224.742 213.462 224.484C214.454 223.463 215.637 222.644 216.933 222.091C218.226 221.538 219.626 221.254 221.027 221.251C221.375 221.251 221.726 221.269 222.074 221.305C221.889 221.396 221.19 221.789 221.027 221.889C221.192 222.001 221.811 222.455 221.954 222.574C222.117 222.489 222.946 222.104 222.994 222.088C222.959 222.052 222.24 221.432 222.074 221.303C222.771 221.373 223.46 221.515 224.132 221.724L222.994 222.088L223.773 222.946L224.883 222.678L224.132 221.724C224.467 221.83 224.798 221.951 225.121 222.088C225.445 222.225 225.76 222.38 226.069 222.548L224.883 222.675L225.485 223.673L226.625 223.634L226.069 222.546C226.685 222.887 227.269 223.29 227.81 223.747C227.76 223.737 226.622 223.634 226.622 223.634C226.622 223.634 227.011 224.688 227.023 224.735C227.206 224.758 227.96 224.887 228.153 224.928C228.106 224.735 227.878 223.949 227.81 223.747C228.081 223.977 228.341 224.22 228.592 224.476L228.153 224.928L227.715 225.381C226.835 224.476 225.79 223.753 224.648 223.264C223.505 222.776 222.267 222.523 221.027 222.523C220.716 222.523 220.406 222.538 220.097 222.569C220.243 222.45 220.859 221.995 221.024 221.884C220.859 221.783 220.16 221.391 219.977 221.3C219.814 221.429 219.095 222.05 219.06 222.086C219.105 222.101 219.934 222.486 220.1 222.572C219.483 222.634 218.872 222.76 218.281 222.944L219.06 222.086L217.922 221.721C217.922 221.721 217.226 222.59 217.171 222.675C217.266 222.688 218.281 222.944 218.281 222.944C217.985 223.037 217.694 223.143 217.409 223.264C217.123 223.386 216.842 223.523 216.569 223.673C216.612 223.585 217.171 222.675 217.171 222.675C217.171 222.675 216.086 222.548 215.985 222.548L215.429 223.636L216.569 223.675C216.025 223.975 215.509 224.331 215.031 224.737C215.043 224.691 215.432 223.636 215.432 223.636C215.432 223.636 214.294 223.742 214.244 223.75C214.176 223.952 213.951 224.737 213.903 224.928C214.096 224.887 214.848 224.758 215.031 224.737C214.79 224.939 214.562 225.156 214.342 225.381C213.465 226.288 212.763 227.365 212.292 228.544C211.818 229.722 211.573 230.999 211.573 232.278C211.573 232.598 211.588 232.919 211.618 233.237C211.503 233.087 211.062 232.451 210.954 232.28C210.856 232.451 210.475 233.172 210.388 233.361C210.513 233.529 211.114 234.27 211.149 234.306C211.164 234.26 211.538 233.405 211.62 233.234C211.681 233.87 211.803 234.5 211.981 235.11L211.149 234.306L210.796 235.48C210.796 235.48 211.638 236.198 211.721 236.255C211.733 236.157 211.981 235.11 211.981 235.11C212.071 235.415 212.174 235.715 212.292 236.009C212.41 236.304 212.543 236.593 212.688 236.875C212.603 236.831 211.721 236.255 211.721 236.255C211.721 236.255 211.598 237.374 211.598 237.477L212.653 238.051L212.69 236.875C212.981 237.436 213.327 237.968 213.72 238.462C213.675 238.449 212.653 238.048 212.653 238.048C212.653 238.048 212.755 239.222 212.763 239.273C212.958 239.343 213.72 239.576 213.906 239.625C213.866 239.426 213.743 238.651 213.72 238.462C213.916 238.71 214.126 238.945 214.344 239.173C215.224 240.077 216.269 240.801 217.411 241.289C218.554 241.777 219.792 242.031 221.032 242.031C221.343 242.031 221.653 242.015 221.962 241.984C221.816 242.103 221.2 242.558 221.034 242.669C221.2 242.77 221.899 243.163 222.082 243.253C222.245 243.124 222.964 242.504 222.999 242.467C222.954 242.452 222.124 242.067 221.959 241.982C222.576 241.92 223.187 241.793 223.778 241.609L222.999 242.467L224.137 242.832C224.137 242.832 224.833 241.963 224.888 241.878C224.793 241.865 223.778 241.609 223.778 241.609C224.074 241.516 224.365 241.41 224.65 241.289C224.936 241.168 225.217 241.031 225.49 240.881C225.447 240.969 224.888 241.878 224.888 241.878C224.888 241.878 225.973 242.005 226.074 242.005L226.63 240.917L225.49 240.878C226.033 240.578 226.55 240.222 227.028 239.816C227.016 239.862 226.627 240.917 226.627 240.917C226.627 240.917 227.765 240.811 227.815 240.801C227.883 240.602 228.108 239.813 228.156 239.622C227.963 239.664 227.211 239.793 227.028 239.813C227.266 239.612 227.497 239.397 227.717 239.17L228.156 239.622L228.594 240.074L228.592 240.085ZM229.176 240.687C228.642 241.235 228.058 241.731 227.429 242.165C226.803 242.597 226.134 242.966 225.437 243.263C224.044 243.86 222.535 244.165 221.027 244.165C219.519 244.165 218.01 243.858 216.617 243.263C215.92 242.966 215.251 242.597 214.625 242.165C213.998 241.733 213.412 241.235 212.878 240.687C212.347 240.136 211.866 239.534 211.445 238.886C211.027 238.24 210.668 237.55 210.38 236.831C209.801 235.394 209.506 233.839 209.506 232.283C209.506 230.727 209.804 229.174 210.38 227.735C210.668 227.016 211.027 226.326 211.445 225.68C211.863 225.034 212.347 224.43 212.878 223.879C213.412 223.331 213.996 222.835 214.625 222.401C215.251 221.97 215.92 221.6 216.617 221.303C218.01 220.706 219.519 220.401 221.027 220.398C222.535 220.398 224.041 220.706 225.437 221.303C226.134 221.6 226.803 221.97 227.429 222.401C228.056 222.833 228.642 223.331 229.176 223.879L228.882 224.182C227.855 223.122 226.622 222.269 225.279 221.696C223.936 221.122 222.483 220.825 221.027 220.825C219.574 220.825 218.118 221.122 216.775 221.696C215.429 222.269 214.199 223.12 213.171 224.182C212.144 225.241 211.317 226.51 210.761 227.898C210.205 229.283 209.916 230.782 209.916 232.283C209.916 233.784 210.205 235.283 210.761 236.668C211.317 238.056 212.142 239.325 213.171 240.385C214.199 241.444 215.429 242.297 216.775 242.868C218.118 243.442 219.571 243.739 221.027 243.739C222.483 243.739 223.934 243.442 225.279 242.868C226.625 242.294 227.855 241.444 228.882 240.385L229.176 240.687ZM226.84 238.278C226.074 239.067 225.169 239.695 224.174 240.116C223.182 240.54 222.104 240.759 221.027 240.759C219.947 240.759 218.872 240.54 217.88 240.116C216.887 239.692 215.98 239.067 215.214 238.278C214.449 237.488 213.84 236.555 213.432 235.529C213.021 234.505 212.808 233.394 212.808 232.283C212.808 231.172 213.021 230.061 213.432 229.037C213.843 228.014 214.449 227.078 215.214 226.288C215.98 225.5 216.885 224.872 217.88 224.45C218.872 224.027 219.947 223.807 221.027 223.807C222.104 223.807 223.182 224.027 224.174 224.45C225.166 224.874 226.074 225.5 226.84 226.288L226.55 226.587C225.82 225.838 224.961 225.244 224.019 224.841C223.077 224.437 222.054 224.228 221.029 224.228C220.005 224.228 218.982 224.437 218.04 224.841C217.098 225.241 216.238 225.835 215.509 226.587C214.783 227.339 214.206 228.226 213.815 229.198C213.425 230.169 213.222 231.224 213.222 232.28C213.222 233.337 213.425 234.392 213.815 235.363C214.206 236.335 214.78 237.221 215.509 237.973C216.238 238.723 217.098 239.317 218.04 239.72C218.982 240.124 220.005 240.333 221.029 240.333C222.054 240.333 223.077 240.124 224.019 239.72C224.961 239.32 225.82 238.725 226.55 237.973L226.84 238.273V238.278ZM227.424 238.881C226.582 239.746 225.585 240.439 224.49 240.904C223.397 241.372 222.212 241.612 221.027 241.612C219.842 241.612 218.657 241.369 217.564 240.904C216.472 240.439 215.472 239.749 214.63 238.881C213.79 238.012 213.119 236.984 212.668 235.854C212.214 234.728 211.981 233.505 211.981 232.283C211.981 231.061 212.217 229.838 212.668 228.712C213.119 227.585 213.788 226.554 214.63 225.686C215.472 224.82 216.469 224.127 217.564 223.662C218.657 223.194 219.842 222.954 221.027 222.954C222.212 222.954 223.397 223.197 224.49 223.662C225.582 224.127 226.582 224.82 227.424 225.686L227.133 225.985C226.329 225.158 225.377 224.499 224.335 224.055C223.292 223.611 222.162 223.378 221.029 223.378C219.897 223.378 218.767 223.611 217.724 224.055C216.682 224.499 215.73 225.158 214.925 225.985C214.124 226.815 213.485 227.797 213.054 228.872C212.623 229.947 212.397 231.112 212.397 232.28C212.397 233.449 212.623 234.614 213.054 235.689C213.485 236.764 214.124 237.746 214.925 238.576C215.73 239.403 216.682 240.061 217.724 240.506C218.767 240.95 219.897 241.183 221.029 241.183C222.162 241.183 223.292 240.953 224.335 240.506C225.377 240.061 226.329 239.403 227.133 238.576L227.424 238.875V238.881ZM226.55 236.774L225.966 237.377C225.312 238.048 224.545 238.578 223.703 238.937C222.864 239.297 221.947 239.485 221.029 239.485C220.112 239.485 219.195 239.297 218.356 238.937C217.514 238.578 216.747 238.048 216.093 237.377C215.439 236.702 214.928 235.911 214.58 235.043C214.231 234.177 214.048 233.231 214.048 232.286C214.048 231.34 214.231 230.394 214.58 229.528C214.928 228.66 215.442 227.869 216.093 227.195C216.747 226.52 217.514 225.993 218.356 225.634C219.195 225.275 220.112 225.086 221.029 225.086C221.947 225.086 222.864 225.275 223.703 225.634C224.545 225.993 225.312 226.523 225.966 227.195L226.55 227.797L232.24 221.928L231.656 221.326C230.965 220.613 230.201 219.964 229.381 219.401C228.562 218.835 227.69 218.354 226.778 217.964C224.956 217.186 222.991 216.786 221.027 216.786C219.062 216.786 217.098 217.186 215.276 217.964C214.367 218.352 213.492 218.835 212.673 219.401C211.853 219.967 211.092 220.613 210.4 221.326C209.709 222.039 209.08 222.827 208.533 223.67C207.985 224.515 207.518 225.414 207.14 226.355C206.388 228.231 206 230.257 206 232.283C206 234.309 206.388 236.335 207.143 238.214C207.518 239.152 207.987 240.054 208.536 240.899C209.085 241.744 209.711 242.529 210.403 243.243C211.094 243.956 211.858 244.604 212.675 245.168C213.495 245.734 214.369 246.214 215.279 246.605C217.1 247.383 219.065 247.783 221.029 247.783C222.994 247.783 224.958 247.383 226.78 246.605C227.69 246.217 228.564 245.734 229.384 245.168C230.203 244.602 230.965 243.956 231.659 243.243L232.243 242.641L226.552 236.772L226.55 236.774Z" fill="#111111"/>
</g>
<g clip-path="url(#clip6_2382_4042)">
<path d="M245.318 342.585C244.447 344.061 241.741 348.69 238.627 348.685C237.387 348.68 236.964 347.451 236.967 346.374C236.975 343.269 242.858 339.29 242.866 337.969C242.866 337.78 242.694 337.543 242.402 337.543C240.424 337.537 232.362 346.488 231.186 348.127H228.191L236.421 337.31L239.509 337.334C239.509 337.334 238.399 338.622 235.578 342.321L232.729 346.065C235.337 342.969 240.531 337.106 242.571 337.106C243.739 337.119 244.165 338.111 244.16 339.037C244.152 342.461 238.381 346.503 238.381 347.753C238.381 348.158 238.648 348.267 238.96 348.267C241.431 348.272 244.587 343.78 245.323 342.587M206.5 350.213C205.834 350.213 205.273 350.262 204.819 350.34C206.364 349.963 208.45 349.413 210.336 346.805L218.41 335.643C220.147 333.242 222.167 331.497 223.696 331.249C229.59 331.259 234.294 329.816 234.684 328.481L234.381 328.489C234.381 328.489 234.13 329.346 231.33 329.336C226.42 329.323 221.744 327.795 216.496 327.784C211.123 327.771 204.688 331.153 204.673 336.223C204.673 336.97 205.011 336.98 205.142 336.98L206.003 336.939C206.003 336.939 205.411 336.755 205.414 335.201C205.419 333.306 207.533 329.811 211.299 329.816C215.886 329.826 218.674 331.091 223.02 331.231C219.778 331.44 215.53 334.063 212.916 337.713C212.916 337.713 205.493 347.918 204.768 349.049C204.099 350.071 203.205 350.797 202.997 350.962C205.957 349.893 208.099 351.003 209.455 351.006C210.031 351.006 210.431 350.905 210.764 350.422C209.893 350.786 208.458 350.213 206.498 350.211M224.273 348.708C222.028 348.703 221.841 346.059 223.532 343.669C221.611 346.132 219.673 348.644 217.754 348.633C215.671 348.633 214.666 345.262 217.639 341.477C219.532 339.066 223.194 337.199 225.38 337.204C227.084 337.212 226.735 338.836 225.803 340.493L228.104 337.303L231.299 337.308L225.095 345.53C223.801 347.239 223.876 348.29 224.708 348.292C226.056 348.3 228.575 346.883 232.608 342.019C228.075 348.241 225.536 348.716 224.273 348.711M223.97 342.876C225.862 340.506 227.084 337.579 225.613 337.571C224.675 337.571 223.535 338.684 222.71 339.698C221.575 341.079 220.132 342.85 218.941 344.521C217.567 346.418 216.686 348.251 217.931 348.254C219.645 348.254 222.054 345.282 223.973 342.876M316.019 350.74C312.604 353.675 308.814 354.331 308.814 354.331C308.814 354.331 309.319 353.814 310.1 352.81L322 337.571L318.91 337.563L316.537 340.664C314.451 343.354 309.483 348.243 308.073 348.236C307.381 348.23 307.282 347.193 308.34 345.899L315.163 337.553L311.83 337.537L307.41 343C305.452 345.414 305.626 348.644 307.745 348.646C309.534 348.646 313.07 345.04 315.297 342.306L311.522 347.273C309.183 350.334 306.554 353.848 304.845 355.616L305.06 355.792C306.331 355.095 311.691 354.493 315.304 351.878C318.756 349.366 320.936 345.2 319.314 342.812C320.352 345.476 317.913 349.116 316.019 350.745M307.102 343.085C305.052 346.328 302.505 348.711 300.471 348.711C298.331 348.698 298.69 345.466 300.445 343.075C298.349 345.731 296.414 348.7 294.126 348.693C292.048 348.68 291.092 345.435 294.054 341.645C295.945 339.234 299.51 337.21 301.842 337.215C303.392 337.215 302.718 339.665 301.501 341.627L304.504 337.527L307.704 337.532L301.193 345.881C300.007 347.407 299.907 348.331 300.663 348.331C302.462 348.339 305.014 345.781 307.102 343.083M301.877 337.62C300.858 337.62 299.671 338.821 298.867 339.848C296.445 342.949 291.887 348.303 294.213 348.313C296.168 348.318 298.69 345.001 300.181 343.08C301.975 340.824 303.256 337.623 301.877 337.618M292.804 340.901C295.12 340.901 296.781 337.192 294.695 337.184C293.119 337.179 289.588 340.713 284.704 346.904L285.683 345.401L291.756 337.481L288.74 337.46L280.648 348.269L283.802 348.282C285.019 346.447 291.182 339.443 292.714 338.735C292.181 339.138 291.554 340.896 292.804 340.901ZM260.039 343.447C254.442 351.313 251.521 353.678 246.871 354.801C245.728 355.069 244.421 355.185 243.478 355.521C244.621 354.284 247.693 350.242 252.946 343.408C250.817 345.964 248.213 348.551 246.315 348.545C244.229 348.538 243.516 345.254 246.494 341.462C248.38 339.048 252.198 337.06 254.527 337.075C256.518 337.081 255.8 339.249 254.627 341.167L257.348 337.385L260.605 337.398L248.808 352.802C248.024 353.817 247.316 354.233 247.316 354.233C247.316 354.233 249.971 353.737 252.838 351.292C254.74 349.663 257.289 346.968 260.041 343.452M253.151 342.814C255.027 340.444 256.533 337.465 254.568 337.452C253.548 337.452 252.513 338.565 251.706 339.598L246.953 345.682C245.594 347.428 245.987 348.078 246.496 348.088C248.065 348.088 251.229 345.228 253.151 342.814ZM286.726 340.052C286.726 340.052 279.679 348.455 275.902 348.44C275.393 348.44 275.082 348.228 275.082 347.714C275.09 346.418 276.769 344.425 278.234 342.543L280.674 339.438C282.534 337.044 283.505 337.228 283.505 338.103C283.505 338.978 282.086 341.017 280.476 342.409C279.118 343.584 277.65 344.273 276.515 344.81C276.515 344.81 284.148 342.19 284.151 338.472C284.151 337.736 283.705 337.158 282.718 337.158C281.171 337.158 277.619 339.21 275.608 341.456C275.462 341.622 275.318 341.797 275.185 341.962C275.09 342.084 275.011 342.205 274.929 342.326C271.713 346.299 269.061 348.362 267.782 348.357C266.929 348.352 267.252 347.211 268.441 345.68L274.872 337.434L271.641 337.429L269.056 340.857C265.115 345.757 262.278 348.223 261.048 348.218C260.059 348.218 260.533 346.981 261.725 345.455L268.003 337.419L264.769 337.406L260.659 342.657C258.663 345.223 258.414 348.646 260.718 348.649C262.099 348.654 263.844 347.613 266.957 343.656C265.438 345.964 265.566 348.76 267.608 348.767C268.948 348.773 270.801 347.916 274.588 342.856C272.961 345.649 273.476 348.731 275.7 348.739C280.371 348.757 286.726 340.049 286.726 340.049" fill="#111111"/>
</g>
<g clip-path="url(#clip7_2382_4042)">
<path d="M139.968 332.061C138.808 332.061 137.937 332.952 137.937 334.132C137.937 335.312 138.811 336.204 139.968 336.204C141.125 336.204 142 335.312 142 334.132C142 332.952 141.125 332.061 139.968 332.061ZM139.968 335.599C139.113 335.599 138.529 334.938 138.529 334.132C138.529 333.326 139.113 332.665 139.968 332.665C140.823 332.665 141.408 333.326 141.408 334.132C141.408 334.938 140.823 335.599 139.968 335.599Z" fill="#111111"/>
<path d="M140.248 333.172H139.739C139.708 333.309 139.675 333.454 139.639 333.602C139.605 333.75 139.56 333.927 139.51 334.129C139.462 334.332 139.418 334.508 139.379 334.656C139.34 334.805 139.303 334.95 139.267 335.087H139.549C139.563 335.004 139.585 334.901 139.613 334.779C139.641 334.656 139.672 334.525 139.706 334.38C139.736 334.38 139.762 334.38 139.781 334.38C139.801 334.38 139.82 334.38 139.834 334.38H139.94C139.985 334.38 140.019 334.386 140.041 334.4C140.066 334.411 140.083 334.44 140.094 334.48C140.105 334.52 140.111 334.577 140.111 334.654C140.111 334.728 140.111 334.83 140.108 334.956C140.114 335.013 140.119 335.05 140.125 335.067C140.13 335.084 140.144 335.092 140.167 335.092H140.399C140.396 335.05 140.393 334.993 140.39 334.919C140.39 334.844 140.385 334.765 140.385 334.682C140.385 334.554 140.368 334.463 140.34 334.411C140.312 334.36 140.259 334.329 140.181 334.312V334.3C140.304 334.277 140.399 334.226 140.469 334.146C140.538 334.067 140.592 333.947 140.628 333.796C140.681 333.582 140.67 333.425 140.597 333.326C140.524 333.226 140.407 333.175 140.242 333.175L140.248 333.172ZM140.374 333.813C140.343 333.93 140.301 334.018 140.242 334.075C140.184 334.135 140.111 334.163 140.024 334.163C139.968 334.163 139.918 334.163 139.871 334.163C139.823 334.163 139.787 334.163 139.759 334.161C139.787 334.044 139.817 333.918 139.848 333.79C139.879 333.662 139.912 333.531 139.943 333.403C139.98 333.403 140.021 333.4 140.063 333.4C140.108 333.4 140.139 333.4 140.161 333.4C140.267 333.4 140.337 333.428 140.374 333.485C140.41 333.542 140.41 333.651 140.374 333.813Z" fill="#111111"/>
<path d="M49.4747 336.346C49.4747 333.987 48.0103 331.784 44.4218 331.784C37.9409 331.784 33.0808 339.295 33.0808 346.373C33.0808 350.305 35.3166 352.784 38.8268 352.784C43.7259 352.784 46.3474 349.245 47.3507 344.84H41.7585C41.451 346.373 40.8334 347.672 39.8692 347.672C39.0979 347.672 38.6731 347.003 38.6731 345.55C38.6731 345.077 38.7122 344.567 38.7877 344.057C45.5369 343.82 49.4719 340.911 49.4719 336.349L49.4747 336.346ZM43.3431 336.699C43.9216 336.699 44.2681 337.053 44.2681 337.603C44.229 338.742 42.8791 339.885 39.9475 340.042C40.7971 338.155 41.9904 336.699 43.3431 336.699Z" fill="#111111"/>
<path d="M61.8556 332.061H51.2887L50.0143 337.369H52.8705L49.1675 352.508H55.0308L58.7339 337.369H60.584L61.8556 332.061Z" fill="#111111"/>
<path d="M34.319 336.189C34.319 333.554 32.6226 332.061 28.8804 332.061H21.9746L17 352.508H23.6738C29.5372 352.508 32.3123 349.675 32.3123 345.703C32.3123 343.854 31.2336 342.401 28.5339 342.164L28.573 341.968C32.3151 341.575 34.319 339.099 34.319 336.186V336.189ZM24.0595 347.709H23.7129L24.638 344.014H25.4876C26.7592 344.014 27.2231 344.487 27.2231 345.193C27.2231 346.53 25.8733 347.709 24.0595 347.709ZM25.7559 340.395H25.4848L26.3735 336.816H27.2231C28.4556 336.816 28.8441 337.209 28.8441 337.996C28.8441 339.372 27.416 340.395 25.7587 340.395H25.7559Z" fill="#111111"/>
<path d="M117.937 347.199L121.64 332.061H115.931L110.956 352.508H121.255L122.529 347.199H117.937Z" fill="#111111"/>
<path d="M73.3503 332.061H62.8197L61.5481 337.369H63.401L59.698 352.508H65.5586L69.2616 337.369H72.0787L73.3503 332.061Z" fill="#111111"/>
<path d="M128.082 340.751H127.889L128.929 332.061H122.644L123.801 346.413L122.297 352.508H128.004L129.508 346.413L137.609 332.061H131.05L128.082 340.751Z" fill="#111111"/>
<path d="M112.809 340.238H107.871L108.564 337.369H113.617L114.891 332.061H104.129L99.1541 352.508H104.864L106.56 345.547H111.496L112.809 340.238Z" fill="#111111"/>
<path d="M79.1353 344.84C78.8279 346.373 78.2102 347.672 77.246 347.672C76.4747 347.672 76.0499 347.003 76.0499 345.55C76.0499 345.077 76.089 344.567 76.1645 344.057C82.9137 343.82 86.8487 340.911 86.8487 336.349C86.8487 333.99 85.3843 331.787 81.7959 331.787C75.3149 331.787 70.4548 339.298 70.4548 346.376C70.4548 350.308 72.6934 352.787 76.2008 352.787C81.1 352.787 83.7214 349.248 84.7247 344.843H79.1325L79.1353 344.84ZM80.7171 336.699C81.2956 336.699 81.6421 337.053 81.6421 337.603C81.603 338.742 80.2532 339.885 77.3215 340.042C78.1711 338.155 79.3672 336.699 80.7143 336.699H80.7171Z" fill="#111111"/>
<path d="M95.7612 343.307L95.8003 343.071C99.1931 342.794 101.471 340.161 101.546 336.622C101.622 333.79 100.004 332.061 95.7612 332.061H89.1656L84.1519 352.511H89.6687L91.4042 345.51H92.4466C93.5254 345.51 93.9111 345.943 93.6428 347.122L92.4075 352.511H98.1535L98.9639 347.359C99.3496 345.04 98.5 343.623 95.7612 343.31V343.307ZM92.8295 340.948H92.5584L93.5617 336.859H94.4113C95.722 336.859 96.186 337.332 96.1469 338.118C96.0714 339.808 94.6042 340.951 92.8295 340.951V340.948Z" fill="#111111"/>
</g>
<defs>
<clipPath id="clip0_2382_4042">
<rect width="124.092" height="22.7842" fill="white" transform="translate(12)"/>
</clipPath>
<clipPath id="clip1_2382_4042">
<rect width="69" height="17" fill="white" transform="translate(228 3)"/>
</clipPath>
<clipPath id="clip2_2382_4042">
<rect width="79.7447" height="22.7842" fill="white" transform="translate(36 108.784)"/>
</clipPath>
<clipPath id="clip3_2382_4042">
<rect width="66" height="34" fill="white" transform="translate(228 102.784)"/>
</clipPath>
<clipPath id="clip4_2382_4042">
<rect width="159" height="17" fill="white" transform="translate(0 225.784)"/>
</clipPath>
<clipPath id="clip5_2382_4042">
<rect width="109" height="31" fill="white" transform="translate(206 216.784)"/>
</clipPath>
<clipPath id="clip6_2382_4042">
<rect width="119" height="28" fill="white" transform="translate(203 327.784)"/>
</clipPath>
<clipPath id="clip7_2382_4042">
<rect width="125" height="21" fill="white" transform="translate(17 331.784)"/>
</clipPath>
</defs>
</svg>
