<svg width="324" height="137" viewBox="0 0 324 137" fill="none" xmlns="http://www.w3.org/2000/svg">
<path d="M0.298431 1.27686H7.04843L15.2047 34.7456C15.4859 35.7534 15.8141 37.2065 16.1891 39.105C16.5641 41.0034 16.8805 42.4565 17.1383 43.4644H17.2789C18.0523 39.9956 18.7672 37.0425 19.4234 34.605L28.7398 1.27686H35.7008L44.7008 34.605C44.9352 35.4722 45.2047 36.644 45.5094 38.1206C45.8375 39.5737 46.2711 41.355 46.8102 43.4644H46.9508C47.1852 42.4097 47.4195 41.3901 47.6539 40.4058C47.8883 39.4214 48.0992 38.437 48.2867 37.4526C48.4977 36.4683 48.7203 35.5659 48.9547 34.7456L57.5328 1.27686H64.0719L49.7633 52.7456H43.5758L34.1187 16.4644C33.8844 15.6909 33.6266 14.6362 33.3453 13.3003C33.0641 11.9644 32.7008 10.4058 32.2555 8.62451H32.1148C31.8805 9.58545 31.5641 10.9097 31.1656 12.5972C30.7672 14.2847 30.4391 15.5737 30.1812 16.4644L20.0914 52.7456H13.6227L0.298431 1.27686ZM68.1078 52.7456V1.27686H104.459V6.93701H74.6117V23.2144H101.752V28.6987H74.6117V46.769H105.338V52.7456H68.1078ZM126.813 52.7456L122.709 1.2656H129.189L131.277 34.7456C131.565 38.2016 131.709 43.4576 131.709 43.4576H131.853C131.853 43.4576 134.013 37.9856 135.525 34.6016L150.285 1.2656H157.197L160.365 34.6016C160.725 38.0576 160.869 43.4576 160.869 43.4576H161.013C161.013 43.4576 163.173 37.9136 164.469 34.7456L178.653 1.2656H185.133L162.381 52.7456H156.261L153.093 16.4576C152.805 13.3616 152.661 8.4656 152.661 8.4656H152.517C152.517 8.4656 150.717 13.1456 149.277 16.4576L133.149 52.7456H126.813ZM203.996 53.8256C190.964 53.8256 180.812 45.3296 180.812 30.2816C180.812 13.9376 191.54 0.113605 207.884 0.113605C220.916 0.113605 230.852 8.6816 230.852 23.8016C230.852 40.3616 220.772 53.8256 203.996 53.8256ZM187.436 30.2816C187.436 41.5136 193.844 48.2096 204.14 48.2096C217.388 48.2096 224.3 37.4096 224.3 23.8736C224.3 13.0016 218.036 5.6576 207.596 5.6576C194.564 5.6576 187.436 16.8176 187.436 30.2816ZM231.126 52.7456L241.062 1.2656H260.574C264.678 1.2656 268.35 2.2736 270.942 4.2176C274.11 6.5936 275.694 10.3376 275.694 14.7296C275.694 21.7856 271.446 26.3936 265.686 28.3376V28.5536C270.222 30.6416 271.158 33.8096 270.654 41.4416C270.078 49.7216 271.158 51.8096 272.022 52.4576V52.7456H265.542C264.606 51.4496 263.886 49.4336 264.462 41.2256C264.966 33.6656 262.95 30.9296 256.11 30.9296H241.638L237.462 52.7456H231.126ZM246.318 6.8096L242.646 25.7456H257.118C264.39 25.7456 269.07 21.9296 269.07 14.8736C269.07 9.5456 265.758 6.8096 259.638 6.8096H246.318ZM323.103 1.2656L300.063 22.0016L316.263 52.7456H309.135L295.239 26.3216L285.735 34.8896L282.279 52.7456H275.943L285.879 1.2656H292.215L287.247 26.6816L315.039 1.2656H323.103ZM75.0828 85.2769H81.8328L89.9891 118.746C90.2703 119.753 90.5984 121.207 90.9734 123.105C91.3484 125.003 91.6648 126.457 91.9227 127.464H92.0633C92.8367 123.996 93.5516 121.042 94.2078 118.605L103.524 85.2769H110.485L119.485 118.605C119.72 119.472 119.989 120.644 120.294 122.121C120.622 123.574 121.055 125.355 121.595 127.464H121.735C121.97 126.41 122.204 125.39 122.438 124.406C122.673 123.421 122.884 122.437 123.071 121.453C123.282 120.468 123.505 119.566 123.739 118.746L132.317 85.2769H138.856L124.548 136.746H118.36L108.903 100.464C108.669 99.6909 108.411 98.6362 108.13 97.3003C107.848 95.9644 107.485 94.4058 107.04 92.6245H106.899C106.665 93.5854 106.348 94.9097 105.95 96.5972C105.552 98.2847 105.223 99.5737 104.966 100.464L94.8758 136.746H88.407L75.0828 85.2769ZM143.033 136.746V85.2769H149.537V136.746H143.033ZM154.241 90.937V85.2769H194.987V90.937H177.866V136.746H171.362V90.937H154.241ZM199.62 136.746V85.2769H206.124V107.144H233.616V85.2769H240.085V136.746H233.616V112.417H206.124V136.746H199.62Z" fill="#111111"/>
</svg>
