<svg width="375" height="155" viewBox="0 0 375 155" fill="none" xmlns="http://www.w3.org/2000/svg">
<path d="M130.34 15V0.699999H132.14V6.78H139.78V0.699999H141.58V15H139.78V8.24H132.14V15H130.34ZM147.946 15.28C144.786 15.28 142.946 12.84 142.946 9.84C142.946 6.84 144.906 4.4 147.846 4.4C150.946 4.4 152.606 6.8 152.606 10.22H144.606C144.726 12.32 145.866 13.92 147.946 13.92C149.446 13.92 150.446 13.2 150.806 11.8H152.386C151.906 14.02 150.286 15.28 147.946 15.28ZM147.846 5.68C145.926 5.68 144.886 7.12 144.646 9H150.866C150.766 6.94 149.706 5.68 147.846 5.68ZM153.69 15V4.66H155.31V15H153.69ZM153.69 2.7V0.699999H155.31V2.7H153.69ZM158.638 4.66V6.02H158.678C159.418 5.04 160.458 4.42 161.958 4.42C164.118 4.42 165.438 5.6 165.438 7.74V15H163.818V7.88C163.818 6.54 162.938 5.78 161.478 5.78C159.838 5.78 158.638 6.94 158.638 8.64V15H157.018V4.66H158.638ZM171.504 15.28C168.344 15.28 166.504 12.84 166.504 9.84C166.504 6.84 168.464 4.4 171.404 4.4C174.504 4.4 176.164 6.8 176.164 10.22H168.164C168.284 12.32 169.424 13.92 171.504 13.92C173.004 13.92 174.004 13.2 174.364 11.8H175.944C175.464 14.02 173.844 15.28 171.504 15.28ZM171.404 5.68C169.484 5.68 168.444 7.12 168.204 9H174.424C174.324 6.94 173.264 5.68 171.404 5.68ZM184.048 15L180.388 9.42L178.868 10.86V15H177.248V0.699999H178.868V9.08L183.408 4.66H185.468L181.508 8.38L185.948 15H184.048ZM190.348 15.28C187.188 15.28 185.348 12.84 185.348 9.84C185.348 6.84 187.308 4.4 190.248 4.4C193.348 4.4 195.008 6.8 195.008 10.22H187.008C187.128 12.32 188.268 13.92 190.348 13.92C191.848 13.92 192.848 13.2 193.208 11.8H194.788C194.308 14.02 192.688 15.28 190.348 15.28ZM190.248 5.68C188.328 5.68 187.288 7.12 187.048 9H193.268C193.168 6.94 192.108 5.68 190.248 5.68ZM197.712 4.66V6.02H197.752C198.492 5.04 199.532 4.42 201.032 4.42C203.192 4.42 204.512 5.6 204.512 7.74V15H202.892V7.88C202.892 6.54 202.012 5.78 200.552 5.78C198.912 5.78 197.712 6.94 197.712 8.64V15H196.092V4.66H197.712ZM209.082 15V0.699999H215.042C216.542 0.699999 217.702 1.2 218.442 2.08C219.042 2.78 219.402 3.72 219.402 4.8C219.402 7.42 217.902 9 214.782 9H210.882V15H209.082ZM210.882 2.26V7.54H214.642C216.662 7.54 217.622 6.52 217.622 4.88C217.622 3.16 216.562 2.26 214.742 2.26H210.882ZM224.52 15.28C221.36 15.28 219.52 12.84 219.52 9.84C219.52 6.84 221.48 4.4 224.42 4.4C227.52 4.4 229.18 6.8 229.18 10.22H221.18C221.3 12.32 222.44 13.92 224.52 13.92C226.02 13.92 227.02 13.2 227.38 11.8H228.96C228.48 14.02 226.86 15.28 224.52 15.28ZM224.42 5.68C222.5 5.68 221.46 7.12 221.22 9H227.44C227.34 6.94 226.28 5.68 224.42 5.68ZM231.884 4.66V6.38H231.924C232.544 5.38 233.624 4.54 235.004 4.54C235.304 4.54 235.464 4.58 235.664 4.66V6.22H235.604C235.364 6.14 235.204 6.12 234.884 6.12C233.284 6.12 231.884 7.32 231.884 9.26V15H230.264V4.66H231.884ZM244.82 15H243.2V13.58H243.16C242.42 14.58 241.54 15.24 240.04 15.24C237.92 15.24 236.56 13.96 236.56 11.82V4.66H238.18V11.78C238.18 13.12 239.04 13.9 240.5 13.9C242.14 13.9 243.2 12.66 243.2 11.02V4.66H244.82V15ZM240.12 3.04L241.14 0.5H243.14L241.5 3.04H240.12Z" fill="white"/>
<path d="M34.1154 88V39.38H40.2354V60.052H66.2114V39.38H72.3314V88H66.2114V65.016H40.2354V88H34.1154ZM79.763 88V39.38H114.103V44.752H85.883V60.12H111.519V65.288H85.883V82.356H114.919V88H79.763ZM120.5 88V39.38H126.62V88H120.5ZM134.136 88V39.38H140.596L162.764 73.176L166.3 79.432H166.436V39.38H172.148V88H165.892L143.588 54.136L139.984 48.084H139.848V88H134.136ZM179.585 88V39.38H213.925V44.752H185.705V60.12H211.341V65.288H185.705V82.356H214.741V88H179.585ZM220.186 88V39.38H226.306V63.52L250.242 39.38H257.926L238.274 58.828L259.558 88H252.418L234.126 62.976L226.306 70.796V88H220.186ZM262.247 88V39.38H296.587V44.752H268.367V60.12H294.003V65.288H268.367V82.356H297.403V88H262.247ZM302.848 88V39.38H309.308L331.476 73.176L335.012 79.432H335.148V39.38H340.86V88H334.604L312.3 54.136L308.696 48.084H308.56V88H302.848ZM113.292 154V105.38H146.272V110.752H119.412V125.916H141.784V131.084H119.412V154H113.292ZM150.904 154V105.38H185.244V110.752H157.024V126.12H182.66V131.288H157.024V148.356H186.06V154H150.904ZM208.521 154.952C201.993 154.952 196.961 153.343 193.425 150.124C189.934 146.905 188.053 142.712 187.781 137.544H193.765C194.581 145.885 199.59 150.056 208.793 150.056C212.283 150.056 215.071 149.285 217.157 147.744C219.287 146.157 220.353 143.891 220.353 140.944C220.353 139.629 220.103 138.473 219.605 137.476C219.106 136.479 218.494 135.663 217.769 135.028C217.089 134.393 216.046 133.804 214.641 133.26C213.235 132.716 211.921 132.285 210.697 131.968C209.518 131.651 207.886 131.265 205.801 130.812C203.307 130.268 201.245 129.724 199.613 129.18C197.981 128.591 196.349 127.797 194.717 126.8C193.085 125.803 191.861 124.533 191.045 122.992C190.274 121.405 189.889 119.501 189.889 117.28C189.889 113.291 191.385 110.163 194.377 107.896C197.414 105.584 201.426 104.428 206.413 104.428C217.338 104.428 223.481 109.483 224.841 119.592H219.061C218.607 116.147 217.315 113.563 215.185 111.84C213.054 110.072 210.175 109.188 206.549 109.188C203.194 109.188 200.519 109.868 198.525 111.228C196.575 112.588 195.601 114.515 195.601 117.008C195.601 118.096 195.805 119.071 196.213 119.932C196.666 120.748 197.233 121.451 197.913 122.04C198.638 122.584 199.567 123.083 200.701 123.536C201.879 123.989 203.035 124.375 204.169 124.692C205.302 124.964 206.685 125.259 208.317 125.576C210.583 126.029 212.442 126.46 213.893 126.868C215.343 127.231 216.953 127.797 218.721 128.568C220.489 129.339 221.849 130.223 222.801 131.22C223.798 132.217 224.637 133.532 225.317 135.164C226.042 136.751 226.405 138.609 226.405 140.74C226.405 145.183 224.75 148.673 221.441 151.212C218.177 153.705 213.87 154.952 208.521 154.952ZM226.257 110.752V105.38H264.745V110.752H248.561V154H242.441V110.752H226.257Z" fill="white"/>
</svg>
