<svg width="1577" height="459" viewBox="0 0 1577 459" fill="none" xmlns="http://www.w3.org/2000/svg">
<path d="M223.9 0H247.9L276.9 119C277.9 122.583 279.067 127.75 280.4 134.5C281.733 141.25 282.858 146.417 283.775 150H284.275C287.025 137.667 289.567 127.167 291.9 118.5L325.025 0H349.775L381.775 118.5C382.608 121.583 383.567 125.75 384.65 131C385.817 136.167 387.358 142.5 389.275 150H389.775C390.608 146.25 391.442 142.625 392.275 139.125C393.108 135.625 393.858 132.125 394.525 128.625C395.275 125.125 396.067 121.917 396.9 119L427.4 0H450.65L399.775 183H377.775L344.15 54C343.317 51.25 342.4 47.5 341.4 42.75C340.4 38 339.108 32.4583 337.525 26.125H337.025C336.192 29.5417 335.067 34.25 333.65 40.25C332.233 46.25 331.067 50.8333 330.15 54L294.275 183H271.275L223.9 0ZM465 183V0H594.25V20.125H488.125V78H584.625V97.5H488.125V161.75H597.375V183H465ZM652.2 183V0H681.7L741.075 152H741.575L800.45 0H830.45V183H808.325V32.5H807.825C806.825 35.25 805.867 38.0417 804.95 40.875C804.033 43.7083 802.283 48.5833 799.7 55.5L749.45 183H731.825L681.7 55.5C680.867 53.0833 679.95 50.625 678.95 48.125C678.033 45.5417 677.158 42.9583 676.325 40.375C675.492 37.7917 674.533 35.1667 673.45 32.5H672.95V183H652.2ZM843.675 183L911.05 0H936.925L1004.55 183H979.425L959.925 127.25H887.05L867.3 183H843.675ZM893.675 108.5H953.55L932.55 47.125C929.967 39.2083 928.217 33.6667 927.3 30.5C926.383 27.3333 925.425 24.25 924.425 21.25H923.925C922.925 24.0833 922.008 26.9167 921.175 29.75C920.342 32.5833 919.383 35.5417 918.3 38.625C917.217 41.7083 916.258 44.5417 915.425 47.125L893.675 108.5ZM1017.9 183V0H1041.03V90.875L1131.03 0H1160.03L1086.03 73.125L1166.15 183H1139.28L1070.4 88.75L1041.03 118.25V183H1017.9ZM1176.25 183V0H1305.5V20.125H1199.38V78H1295.88V97.5H1199.38V161.75H1308.62V183H1176.25ZM76.463 458.584C26.287 458.584 0.175 425.56 0.175 377.944C0.175 323.16 35.759 267.864 96.687 267.864C134.831 267.864 159.407 289.112 162.479 326.232H139.695C136.367 301.656 121.007 287.576 94.383 287.576C48.559 287.576 23.727 331.096 23.727 377.176C23.727 410.712 39.343 438.616 77.231 438.616C109.999 438.616 128.175 414.552 134.063 387.928H156.591C153.263 405.848 145.071 422.488 132.527 436.056C119.215 450.392 98.991 458.584 76.463 458.584ZM251.207 458.84C204.871 458.84 168.775 428.632 168.775 375.128C168.775 317.016 206.919 267.864 265.031 267.864C311.367 267.864 346.695 298.328 346.695 352.088C346.695 410.968 310.855 458.84 251.207 458.84ZM192.327 375.128C192.327 415.064 215.111 438.872 251.719 438.872C298.823 438.872 323.399 400.472 323.399 352.344C323.399 313.688 301.127 287.576 264.007 287.576C217.671 287.576 192.327 327.256 192.327 375.128ZM438.807 458.84C392.471 458.84 356.375 428.632 356.375 375.128C356.375 317.016 394.519 267.864 452.631 267.864C498.967 267.864 534.295 298.328 534.295 352.088C534.295 410.968 498.455 458.84 438.807 458.84ZM379.927 375.128C379.927 415.064 402.711 438.872 439.319 438.872C486.423 438.872 510.999 400.472 510.999 352.344C510.999 313.688 488.727 287.576 451.607 287.576C405.271 287.576 379.927 327.256 379.927 375.128ZM535.271 455L570.599 271.96H593.127L561.895 434.008H653.799L649.703 455H535.271ZM702.75 292.125V272H847.625V292.125H786.75V455H763.625V292.125H702.75ZM864.1 455V272H887.225V349.75H984.975V272H1007.97V455H984.975V368.5H887.225V455H864.1ZM1036.45 455V272H1059.57V455H1036.45ZM1087.8 455V272H1112.18L1195.55 399.25C1200.55 407.25 1205.01 415.083 1208.93 422.75H1209.43V272H1230.93V455H1207.43L1123.43 327.5C1121.84 325.167 1119.59 321.417 1116.68 316.25C1113.68 311.083 1111.38 307.25 1109.8 304.75H1109.3V455H1087.8ZM1275.9 432.5C1259.98 414.917 1252.03 392.083 1252.03 364C1252.03 335.917 1259.73 312.917 1275.15 295C1290.57 277.083 1312.19 268.125 1340.03 268.125C1360.61 268.125 1377.36 273.333 1390.28 283.75C1403.28 294.167 1411.36 308.583 1414.53 327H1390.78C1388.19 314.75 1382.61 305.208 1374.03 298.375C1365.53 291.542 1354.86 288.125 1342.03 288.125C1329.19 288.125 1318.78 290.083 1310.78 294C1302.86 297.917 1294.98 304.917 1287.15 315C1279.4 325.083 1275.53 341.375 1275.53 363.875C1275.53 386.375 1281.4 404.5 1293.15 418.25C1304.9 432 1319.94 438.875 1338.28 438.875C1356.53 438.875 1370.4 433.583 1379.9 423C1389.4 412.333 1394.15 398.833 1394.15 382.5V378.25H1339.03V358.25H1417.15V455H1402.28L1395.65 430.875H1395.15C1381.9 449.542 1362.69 458.875 1337.53 458.875C1312.36 458.875 1291.82 450.083 1275.9 432.5ZM1431 393H1453.5C1456.58 424.417 1475.46 440.125 1510.12 440.125C1530.71 440.125 1543.08 435.833 1547.25 427.25C1551.5 418.583 1553.62 411.25 1553.62 405.25C1553.62 399.25 1552.29 394.25 1549.62 390.25C1547.04 386.167 1543.33 382.75 1538.5 380C1533.75 377.25 1528 375 1521.25 373.25C1514.5 371.417 1507.08 369.625 1499 367.875C1479.5 363.625 1464.62 358 1454.38 351C1444.12 343.917 1439 332.708 1439 317.375C1439 302.042 1444.62 290.042 1455.88 281.375C1467.21 272.708 1482.29 268.375 1501.12 268.375C1533.29 268.375 1552.58 275.792 1559 290.625C1565.5 305.458 1569.33 317.083 1570.5 325.5H1548.75C1547.08 312.333 1542.17 302.5 1534 296C1525.92 289.5 1515.38 286.25 1502.38 286.25C1489.38 286.25 1479.12 288.792 1471.62 293.875C1464.21 298.875 1460.5 306.167 1460.5 315.75C1460.5 329.417 1466.75 337.875 1479.25 341.125C1491.83 344.375 1502.04 346.833 1509.88 348.5C1517.71 350.167 1530.75 353.542 1549 358.625C1567.25 363.625 1576.38 379.125 1576.38 405.125C1576.38 421.958 1570.12 435.083 1557.62 444.5C1545.12 453.917 1527.75 458.625 1505.5 458.625C1483.25 458.625 1465.54 452.542 1452.38 440.375C1439.21 428.208 1432.08 412.417 1431 393Z" fill="#111111"/>
</svg>
