<svg width="69" height="68" viewBox="0 0 69 68" fill="none" xmlns="http://www.w3.org/2000/svg">
<g clip-path="url(#clip0_3059_2941)">
<path d="M31.5876 31.8972C25.9365 22.7191 20.5982 14.0476 15.101 5.12025C16.3872 4.35787 17.6137 3.62991 19.024 2.79866C24.0048 11.9325 28.906 20.9287 34.1152 30.4807C36.613 20.0188 38.9717 10.1618 41.395 0.00488281C42.9146 0.378698 44.2901 0.713165 45.8891 1.10665C42.8649 11.0718 39.9252 20.7713 36.7669 31.184C46.2119 25.508 55.0312 20.2106 63.9696 14.8395C64.7393 16.1724 65.3849 17.2889 66.0851 18.5038C56.9231 23.4372 47.8953 28.3017 38.2219 33.5106C48.8189 35.9994 58.7605 38.3308 69.005 40.736C68.5878 42.2952 68.2253 43.6429 67.8181 45.1579C57.7077 42.1575 47.8804 39.2408 37.4025 36.1322C43.0884 45.2661 48.4515 53.8737 53.9734 62.7419C52.732 63.5142 51.5203 64.2667 50.0802 65.1619C45.1343 56.087 40.2628 47.1548 35.014 37.5192C32.4317 48.0795 30.0184 57.966 27.5652 67.995C26.1301 67.6606 24.8042 67.3507 23.101 66.9572C26.1053 57.0068 29.0699 47.1696 32.1934 36.8159C22.9371 42.4428 14.1277 47.7992 5.19921 53.2293C4.42951 51.8767 3.74919 50.6815 2.96459 49.2993C12.196 44.425 21.3232 39.6097 30.9619 34.5189C20.335 31.9956 10.2445 29.6003 0 27.1705C0.402231 25.7145 0.739906 24.4849 1.17193 22.906C11.1483 25.8523 21.0799 28.7887 31.5826 31.8972H31.5876Z" fill="white"/>
</g>
<defs>
<clipPath id="clip0_3059_2941">
<rect width="69" height="68" fill="white"/>
</clipPath>
</defs>
</svg>
