<svg width="63" height="58" viewBox="0 0 63 58" fill="none" xmlns="http://www.w3.org/2000/svg">
<path fill-rule="evenodd" clip-rule="evenodd" d="M0 13.5664H21.7077V16.0664H2.5V55.3166H60.5V16.0664H41.1675V13.5664H63V57.8166H0V13.5664Z" fill="black"/>
<path fill-rule="evenodd" clip-rule="evenodd" d="M13.375 28.4485V30.9555H13.75C22.7771 30.9555 30.1098 38.2047 30.2446 47.1997C30.2436 47.2837 30.243 47.3678 30.243 47.4521V47.8271H32.7535V47.4521C32.7535 47.3678 32.7529 47.2837 32.7518 47.1997C32.8866 38.2047 40.2194 30.9555 49.2465 30.9555H49.6215V28.4485H49.2465C42.1888 28.4485 36.0307 32.2953 32.7534 38.0054V0.941406L30.2465 0.941406V38.0113C26.97 32.2979 20.8102 28.4485 13.75 28.4485H13.375Z" fill="#111111"/>
</svg>
