<svg width="318" height="118" viewBox="0 0 318 118" fill="none" xmlns="http://www.w3.org/2000/svg">
<path d="M0.556 50V1.38H8.376L24.152 41.772H24.288L39.928 1.38H47.884V50H42.036V10.016H41.9C41.0387 12.5547 40.3133 14.5947 39.724 16.136L26.396 50H21.704L8.376 16.136L6.2 10.016H6.064V50H0.556ZM55.3013 50V1.38H89.6413V6.752H61.4213V22.12H87.0573V27.288H61.4213V44.356H90.4573V50H55.3013ZM95.9021 50V1.38H130.242V6.752H102.022V22.12H127.658V27.288H102.022V44.356H131.058V50H95.9021ZM133.443 6.752V1.38H171.931V6.752H155.747V50H149.627V6.752H133.443ZM224.667 43.88C220.36 48.64 214.603 51.02 207.395 51.02C200.187 51.02 194.407 48.64 190.055 43.88C185.748 39.12 183.595 33.0453 183.595 25.656C183.595 18.2667 185.748 12.192 190.055 7.432C194.407 2.672 200.187 0.292 207.395 0.292C214.603 0.292 220.36 2.672 224.667 7.432C229.019 12.192 231.195 18.2667 231.195 25.656C231.195 33.0453 229.019 39.12 224.667 43.88ZM194.475 40.072C197.558 43.7893 201.864 45.648 207.395 45.648C212.926 45.648 217.232 43.7893 220.315 40.072C223.398 36.3547 224.939 31.5493 224.939 25.656C224.939 19.7627 223.398 14.9573 220.315 11.24C217.232 7.47733 212.926 5.596 207.395 5.596C201.864 5.596 197.558 7.47733 194.475 11.24C191.392 14.9573 189.851 19.7627 189.851 25.656C189.851 31.5493 191.392 36.3547 194.475 40.072ZM254.606 50.748C248.939 50.748 244.406 49.4107 241.006 46.736C237.651 44.0613 235.974 39.9133 235.974 34.292V1.38H242.094V33.68C242.094 41.568 246.332 45.512 254.81 45.512C263.015 45.512 267.118 41.568 267.118 33.68V1.38H273.238V34.292C273.238 39.868 271.515 44.016 268.07 46.736C264.67 49.4107 260.182 50.748 254.606 50.748ZM279.847 50V1.38H302.559C306.821 1.38 310.266 2.604 312.895 5.052C315.57 7.5 316.907 10.7187 316.907 14.708C316.907 20.9187 314.097 24.9307 308.475 26.744V26.948C310.878 27.8093 312.578 29.1693 313.575 31.028C314.618 32.8413 315.253 35.6067 315.479 39.324C315.933 45.5347 316.681 49.0027 317.723 49.728V50H311.127C310.629 49.592 310.266 48.7307 310.039 47.416C309.858 46.1013 309.631 43.336 309.359 39.12C309.133 35.584 308.249 33.0907 306.707 31.64C305.211 30.1893 302.809 29.464 299.499 29.464H285.967V50H279.847ZM285.967 6.684V24.5H300.383C303.738 24.5 306.277 23.7293 307.999 22.188C309.722 20.6013 310.583 18.4027 310.583 15.592C310.583 12.5547 309.813 10.3107 308.271 8.86C306.73 7.40933 304.214 6.684 300.723 6.684H285.967ZM0.556 116V67.38H20.82C25.8973 67.38 29.7507 68.944 32.38 72.072C34.556 74.6107 35.644 77.6933 35.644 81.32C35.644 85.8533 34.3293 89.3667 31.7 91.86C29.0707 94.3533 25.1493 95.6 19.936 95.6H6.676V116H0.556ZM6.676 72.684V90.636H19.46C22.8147 90.636 25.3307 89.8427 27.008 88.256C28.7307 86.6693 29.592 84.448 29.592 81.592C29.592 78.6907 28.7307 76.492 27.008 74.996C25.3307 73.4547 22.928 72.684 19.8 72.684H6.676ZM39.8287 116V67.38H74.1687V72.752H45.9487V88.12H71.5847V93.288H45.9487V110.356H74.9847V116H39.8287ZM118.669 109.88C114.363 114.64 108.605 117.02 101.397 117.02C94.1893 117.02 88.4093 114.64 84.0573 109.88C79.7507 105.12 77.5973 99.0453 77.5973 91.656C77.5973 84.2667 79.7507 78.192 84.0573 73.432C88.4093 68.672 94.1893 66.292 101.397 66.292C108.605 66.292 114.363 68.672 118.669 73.432C123.021 78.192 125.197 84.2667 125.197 91.656C125.197 99.0453 123.021 105.12 118.669 109.88ZM88.4773 106.072C91.56 109.789 95.8667 111.648 101.397 111.648C106.928 111.648 111.235 109.789 114.317 106.072C117.4 102.355 118.941 97.5493 118.941 91.656C118.941 85.7627 117.4 80.9573 114.317 77.24C111.235 73.4773 106.928 71.596 101.397 71.596C95.8667 71.596 91.56 73.4773 88.4773 77.24C85.3947 80.9573 83.8533 85.7627 83.8533 91.656C83.8533 97.5493 85.3947 102.355 88.4773 106.072ZM130.792 116V67.38H151.056C156.133 67.38 159.987 68.944 162.616 72.072C164.792 74.6107 165.88 77.6933 165.88 81.32C165.88 85.8533 164.565 89.3667 161.936 91.86C159.307 94.3533 155.385 95.6 150.172 95.6H136.912V116H130.792ZM136.912 72.684V90.636H149.696C153.051 90.636 155.567 89.8427 157.244 88.256C158.967 86.6693 159.828 84.448 159.828 81.592C159.828 78.6907 158.967 76.492 157.244 74.996C155.567 73.4547 153.164 72.684 150.036 72.684H136.912ZM170.065 116V67.38H176.185V110.356H201.685V116H170.065ZM206.017 116V67.38H240.357V72.752H212.137V88.12H237.773V93.288H212.137V110.356H241.173V116H206.017Z" fill="white"/>
</svg>
