<svg width="307" height="116" viewBox="0 0 307 116" fill="none" xmlns="http://www.w3.org/2000/svg">
<path d="M0.592331 49V0.379998H8.41233L24.1883 40.772H24.3243L39.9643 0.379998H47.9203V49H42.0723V9.016H41.9363C41.9363 9.016 40.6443 12.824 39.7603 15.136L26.4323 49H21.7403L8.41233 15.136C7.46033 12.688 6.23633 9.016 6.23633 9.016H6.10033V49H0.592331ZM55.3376 49V0.379998H89.6776V5.752H61.4576V21.12H87.0936V26.288H61.4576V43.356H90.4937V49H55.3376ZM95.9384 49V0.379998H130.278V5.752H102.058V21.12H127.694V26.288H102.058V43.356H131.094V49H95.9384ZM133.479 5.752V0.379998H171.967V5.752H155.783V49H149.663V5.752H133.479ZM182.407 5.752V0.379998H220.895V5.752H204.711V49H198.591V5.752H182.407ZM225.271 49V0.379998H231.391V21.052H257.367V0.379998H263.487V49H257.367V26.016H231.391V49H225.271ZM270.919 49V0.379998H305.259V5.752H277.039V21.12H302.675V26.288H277.039V43.356H306.075V49H270.919ZM24.2247 115L33.6087 66.38H41.0887L48.5687 106.908H48.7047L71.2127 66.38H79.2367L69.8527 115H64.0727L71.8247 75.016H71.6887C71.6887 75.016 69.8527 78.688 68.4247 81.204L49.4527 115H44.8287L38.3687 81.136C37.8247 78.416 37.5527 75.016 37.5527 75.016H37.4167L29.6647 115H24.2247ZM108.935 115L106.487 100.176H87.3107L79.6267 115H73.3707L99.4147 66.38H106.147L115.327 115H108.935ZM98.4627 78.892L89.8947 95.28H105.671L102.951 78.892C102.475 76.172 101.999 72.024 101.999 72.024H101.863C101.863 72.024 100.027 75.968 98.4627 78.892ZM163.314 66.38L141.554 85.964L156.854 115H150.122L136.998 90.044L128.022 98.136L124.758 115H118.774L128.158 66.38H134.142L129.45 90.384L155.698 66.38H163.314ZM159.508 115L168.892 66.38H200.648L199.628 71.684H173.856L170.864 87.12H194.528L193.508 92.22H169.844L166.58 109.424H193.848L192.76 115H159.508ZM198.05 115L207.434 66.38H225.862C229.738 66.38 233.206 67.332 235.654 69.168C238.646 71.412 240.142 74.948 240.142 79.096C240.142 85.76 236.13 90.112 230.69 91.948V92.152C234.974 94.124 235.858 97.116 235.382 104.324C234.838 112.144 235.858 114.116 236.674 114.728V115H230.554C229.67 113.776 228.99 111.872 229.534 104.12C230.01 96.98 228.106 94.396 221.646 94.396H207.978L204.034 115H198.05ZM212.398 71.616L208.93 89.5H222.598C229.466 89.5 233.886 85.896 233.886 79.232C233.886 74.2 230.758 71.616 224.978 71.616H212.398ZM258.609 115.952C248.681 115.952 239.297 111.464 239.637 98.544H245.417C245.417 107.384 250.517 110.988 258.745 110.988C266.157 110.988 270.917 107.52 270.917 101.196C270.917 96.164 266.701 94.532 258.745 91.608C250.517 88.616 245.349 85.556 245.349 78.688C245.349 70.528 252.217 65.428 261.329 65.428C271.189 65.428 278.397 69.644 278.941 80.592H273.229C272.889 73.384 268.673 70.324 261.329 70.324C255.889 70.324 250.993 72.16 250.993 78.144C250.993 82.224 254.937 83.992 261.261 86.304C270.373 89.636 276.833 92.22 276.833 100.516C276.833 109.628 270.033 115.952 258.609 115.952Z" fill="white"/>
</svg>
