<svg width="303" height="117" viewBox="0 0 303 117" fill="none" xmlns="http://www.w3.org/2000/svg">
<path d="M20.9813 49.952C14.4533 49.952 9.42132 48.3427 5.88532 45.124C2.39465 41.9053 0.513316 37.712 0.241316 32.544H6.22532C7.04132 40.8853 12.0506 45.056 21.2533 45.056C24.744 45.056 27.532 44.2853 29.6173 42.744C31.748 41.1573 32.8133 38.8907 32.8133 35.944C32.8133 34.6293 32.564 33.4733 32.0653 32.476C31.5667 31.4787 30.9547 30.6627 30.2293 30.028C29.5493 29.3933 28.5067 28.804 27.1013 28.26C25.696 27.716 24.3813 27.2853 23.1573 26.968C21.9786 26.6507 20.3466 26.2653 18.2613 25.812C15.768 25.268 13.7053 24.724 12.0733 24.18C10.4413 23.5907 8.80932 22.7973 7.17732 21.8C5.54532 20.8027 4.32132 19.5333 3.50532 17.992C2.73465 16.4053 2.34932 14.5013 2.34932 12.28C2.34932 8.29067 3.84532 5.16266 6.83732 2.896C9.87465 0.583998 13.8866 -0.572002 18.8733 -0.572002C29.7986 -0.572002 35.9413 4.48266 37.3013 14.592H31.5213C31.068 11.1467 29.776 8.56267 27.6453 6.84C25.5147 5.072 22.636 4.188 19.0093 4.188C15.6546 4.188 12.98 4.868 10.9853 6.228C9.03598 7.588 8.06132 9.51466 8.06132 12.008C8.06132 13.096 8.26532 14.0707 8.67332 14.932C9.12665 15.748 9.69332 16.4507 10.3733 17.04C11.0986 17.584 12.028 18.0827 13.1613 18.536C14.34 18.9893 15.496 19.3747 16.6293 19.692C17.7626 19.964 19.1453 20.2587 20.7773 20.576C23.044 21.0293 24.9026 21.46 26.3533 21.868C27.804 22.2307 29.4133 22.7973 31.1813 23.568C32.9493 24.3387 34.3093 25.2227 35.2613 26.22C36.2586 27.2173 37.0973 28.532 37.7773 30.164C38.5027 31.7507 38.8653 33.6093 38.8653 35.74C38.8653 40.1827 37.2107 43.6733 33.9013 46.212C30.6373 48.7053 26.3307 49.952 20.9813 49.952ZM62.6478 49.748C56.9811 49.748 52.4478 48.4107 49.0478 45.736C45.6931 43.0613 44.0158 38.9133 44.0158 33.292V0.379998H50.1358V32.68C50.1358 40.568 54.3745 44.512 62.8518 44.512C71.0571 44.512 75.1598 40.568 75.1598 32.68V0.379998H81.2798V33.292C81.2798 38.868 79.5571 43.016 76.1118 45.736C72.7118 48.4107 68.2238 49.748 62.6478 49.748ZM87.8896 49V0.379998H110.602C114.863 0.379998 118.308 1.604 120.938 4.052C123.612 6.5 124.95 9.71866 124.95 13.708C124.95 19.9187 122.139 23.9307 116.518 25.744V25.948C118.92 26.8093 120.62 28.1693 121.618 30.028C122.66 31.8413 123.295 34.6067 123.522 38.324C123.975 44.5347 124.723 48.0027 125.766 48.728V49H119.17C118.671 48.592 118.308 47.7307 118.082 46.416C117.9 45.1013 117.674 42.336 117.402 38.12C117.175 34.584 116.291 32.0907 114.75 30.64C113.254 29.1893 110.851 28.464 107.542 28.464H94.0096V49H87.8896ZM94.0096 5.684V23.5H108.426C111.78 23.5 114.319 22.7293 116.042 21.188C117.764 19.6013 118.626 17.4027 118.626 14.592C118.626 11.5547 117.855 9.31067 116.314 7.86C114.772 6.40933 112.256 5.684 108.766 5.684H94.0096ZM130.682 49V0.379998H150.946C156.023 0.379998 159.876 1.944 162.506 5.072C164.682 7.61066 165.77 10.6933 165.77 14.32C165.77 18.8533 164.455 22.3667 161.826 24.86C159.196 27.3533 155.275 28.6 150.062 28.6H136.802V49H130.682ZM136.802 5.684V23.636H149.586C152.94 23.636 155.456 22.8427 157.134 21.256C158.856 19.6693 159.718 17.448 159.718 14.592C159.718 11.6907 158.856 9.492 157.134 7.996C155.456 6.45466 153.054 5.684 149.926 5.684H136.802ZM169.954 49V0.379998H192.666C196.928 0.379998 200.373 1.604 203.002 4.052C205.677 6.5 207.014 9.71866 207.014 13.708C207.014 19.9187 204.204 23.9307 198.582 25.744V25.948C200.985 26.8093 202.685 28.1693 203.682 30.028C204.725 31.8413 205.36 34.6067 205.586 38.324C206.04 44.5347 206.788 48.0027 207.83 48.728V49H201.234C200.736 48.592 200.373 47.7307 200.146 46.416C199.965 45.1013 199.738 42.336 199.466 38.12C199.24 34.584 198.356 32.0907 196.814 30.64C195.318 29.1893 192.916 28.464 189.606 28.464H176.074V49H169.954ZM176.074 5.684V23.5H190.49C193.845 23.5 196.384 22.7293 198.106 21.188C199.829 19.6013 200.69 17.4027 200.69 14.592C200.69 11.5547 199.92 9.31067 198.378 7.86C196.837 6.40933 194.321 5.684 190.83 5.684H176.074ZM212.883 49V0.379998H219.003V49H212.883ZM244.199 49.952C237.671 49.952 232.639 48.3427 229.103 45.124C225.613 41.9053 223.731 37.712 223.459 32.544H229.443C230.259 40.8853 235.269 45.056 244.471 45.056C247.962 45.056 250.75 44.2853 252.835 42.744C254.966 41.1573 256.031 38.8907 256.031 35.944C256.031 34.6293 255.782 33.4733 255.283 32.476C254.785 31.4787 254.173 30.6627 253.447 30.028C252.767 29.3933 251.725 28.804 250.319 28.26C248.914 27.716 247.599 27.2853 246.375 26.968C245.197 26.6507 243.565 26.2653 241.479 25.812C238.986 25.268 236.923 24.724 235.291 24.18C233.659 23.5907 232.027 22.7973 230.395 21.8C228.763 20.8027 227.539 19.5333 226.723 17.992C225.953 16.4053 225.567 14.5013 225.567 12.28C225.567 8.29067 227.063 5.16266 230.055 2.896C233.093 0.583998 237.105 -0.572002 242.091 -0.572002C253.017 -0.572002 259.159 4.48266 260.519 14.592H254.739C254.286 11.1467 252.994 8.56267 250.863 6.84C248.733 5.072 245.854 4.188 242.227 4.188C238.873 4.188 236.198 4.868 234.203 6.228C232.254 7.588 231.279 9.51466 231.279 12.008C231.279 13.096 231.483 14.0707 231.891 14.932C232.345 15.748 232.911 16.4507 233.591 17.04C234.317 17.584 235.246 18.0827 236.379 18.536C237.558 18.9893 238.714 19.3747 239.847 19.692C240.981 19.964 242.363 20.2587 243.995 20.576C246.262 21.0293 248.121 21.46 249.571 21.868C251.022 22.2307 252.631 22.7973 254.399 23.568C256.167 24.3387 257.527 25.2227 258.479 26.22C259.477 27.2173 260.315 28.532 260.995 30.164C261.721 31.7507 262.083 33.6093 262.083 35.74C262.083 40.1827 260.429 43.6733 257.119 46.212C253.855 48.7053 249.549 49.952 244.199 49.952ZM267.386 49V0.379998H301.726V5.752H273.506V21.12H299.142V26.288H273.506V43.356H302.542V49H267.386ZM112.387 117V68.38H118.507V92.52L142.443 68.38H150.127L130.475 87.828L151.759 117H144.619L126.327 91.976L118.507 99.796V117H112.387ZM154.585 117V68.38H160.705V117H154.585ZM165.161 73.752V68.38H203.649V73.752H187.465V117H181.345V73.752H165.161Z" fill="white"/>
</svg>
