<svg width="318" height="117" viewBox="0 0 318 117" fill="none" xmlns="http://www.w3.org/2000/svg">
<path d="M0.0142063 50V1.38H7.83421L23.6102 41.772H23.7462L39.3862 1.38H47.3422V50H41.4942V10.016H41.3582C41.3582 10.016 40.0662 13.824 39.1822 16.136L25.8542 50H21.1622L7.83421 16.136C6.88221 13.688 5.65821 10.016 5.65821 10.016H5.52221V50H0.0142063ZM54.7595 50V1.38H89.0995V6.752H60.8795V22.12H86.5155V27.288H60.8795V44.356H89.9155V50H54.7595ZM95.3603 50V1.38H129.7V6.752H101.48V22.12H127.116V27.288H101.48V44.356H130.516V50H95.3603ZM132.901 6.752V1.38H171.389V6.752H155.205V50H149.085V6.752H132.901ZM206.853 51.02C192.165 51.02 183.053 40.208 183.053 25.656C183.053 11.104 192.165 0.292 206.853 0.292C221.541 0.292 230.653 11.104 230.653 25.656C230.653 40.208 221.541 51.02 206.853 51.02ZM206.853 45.648C218.277 45.648 224.397 37.08 224.397 25.656C224.397 14.232 218.277 5.596 206.853 5.596C195.429 5.596 189.309 14.232 189.309 25.656C189.309 37.08 195.429 45.648 206.853 45.648ZM254.064 50.748C243.456 50.748 235.432 46.056 235.432 34.292V1.38H241.552V33.68C241.552 41.976 246.244 45.512 254.268 45.512C261.952 45.512 266.576 41.976 266.576 33.68V1.38H272.696V34.292C272.696 46.056 264.468 50.748 254.064 50.748ZM279.306 50V1.38H302.018C310.586 1.38 316.366 6.752 316.366 14.708C316.366 20.624 313.782 24.84 307.934 26.744V26.948C312.898 28.716 314.462 32.116 314.938 39.324C315.482 47.144 316.298 49.116 317.182 49.728V50H310.586C309.566 49.116 309.362 47.28 308.818 39.12C308.342 31.98 305.486 29.464 298.958 29.464H285.426V50H279.306ZM285.426 6.684V24.5H299.842C306.642 24.5 310.042 21.1 310.042 15.592C310.042 9.676 307.322 6.684 300.182 6.684H285.426ZM15.3325 116L24.7165 67.38H56.4725L55.4525 72.684H29.6805L26.6885 88.12H50.3525L49.3325 93.22H25.6685L22.4045 110.424H49.6725L48.5845 116H15.3325ZM72.4387 116.952C62.5107 116.952 53.1267 112.464 53.4667 99.544H59.2467C59.2467 108.384 64.3467 111.988 72.5747 111.988C79.9867 111.988 84.7467 108.52 84.7467 102.196C84.7467 97.164 80.5307 95.532 72.5747 92.608C64.3467 89.616 59.1787 86.556 59.1787 79.688C59.1787 71.528 66.0467 66.428 75.1587 66.428C85.0187 66.428 92.2267 70.644 92.7707 81.592H87.0587C86.7187 74.384 82.5027 71.324 75.1587 71.324C69.7187 71.324 64.8227 73.16 64.8227 79.144C64.8227 83.224 68.7667 84.992 75.0907 87.304C84.2027 90.636 90.6627 93.22 90.6627 101.516C90.6627 110.628 83.8627 116.952 72.4387 116.952ZM111.645 116.952C101.717 116.952 92.333 112.464 92.673 99.544H98.453C98.453 108.384 103.553 111.988 111.781 111.988C119.193 111.988 123.953 108.52 123.953 102.196C123.953 97.164 119.737 95.532 111.781 92.608C103.553 89.616 98.385 86.556 98.385 79.688C98.385 71.528 105.253 66.428 114.365 66.428C124.225 66.428 131.433 70.644 131.977 81.592H126.265C125.925 74.384 121.709 71.324 114.365 71.324C108.925 71.324 104.029 73.16 104.029 79.144C104.029 83.224 107.973 84.992 114.297 87.304C123.409 90.636 129.869 93.22 129.869 101.516C129.869 110.628 123.069 116.952 111.645 116.952ZM132.287 116L141.671 67.38H173.427L172.407 72.684H146.635L143.643 88.12H167.307L166.287 93.22H142.623L139.359 110.424H166.627L165.539 116H132.287ZM170.829 116L180.213 67.38H186.537L201.157 101.312C202.381 104.1 203.401 107.568 203.401 107.568H203.537L211.289 67.38H216.933L207.549 116H201.361L186.673 82C185.517 79.416 184.361 75.948 184.361 75.948H184.225L176.473 116H170.829ZM237.393 116.952C224.065 116.952 217.129 108.18 217.129 95.532C217.129 80.98 226.581 66.292 242.765 66.292C252.897 66.292 259.425 71.936 260.241 81.796H254.189C253.305 75.268 249.225 71.528 242.153 71.528C229.981 71.528 223.385 83.088 223.385 95.328C223.385 104.236 227.533 111.648 237.597 111.648C246.301 111.648 251.129 105.256 252.693 98.184H258.677C257.793 102.944 255.617 107.364 252.285 110.968C248.749 114.776 243.377 116.952 237.393 116.952ZM259.601 116L268.985 67.38H300.741L299.721 72.684H273.949L270.957 88.12H294.621L293.601 93.22H269.937L266.673 110.424H293.941L292.853 116H259.601Z" fill="white"/>
</svg>
