<svg width="375" height="182" viewBox="0 0 375 182" fill="none" xmlns="http://www.w3.org/2000/svg">
<path d="M87.0672 6.73633V1.39062H125.55V6.73633H109.38V50H103.237V6.73633H87.0672ZM129.926 50V1.39062H136.068V22.043H162.033V1.39062H168.143V50H162.033V27.0234H136.068V50H129.926ZM175.706 50V1.39062H181.849V50H175.706ZM186.291 33.5312H192.268C193.087 41.8763 198.101 46.0488 207.309 46.0488C212.776 46.0488 216.064 44.9089 217.17 42.6289C218.299 40.3268 218.864 38.3789 218.864 36.7852C218.864 35.1914 218.51 33.8633 217.801 32.8008C217.115 31.7161 216.13 30.8086 214.846 30.0781C213.584 29.3477 212.057 28.75 210.264 28.2852C208.471 27.7982 206.501 27.3223 204.354 26.8574C199.174 25.7285 195.223 24.2344 192.5 22.375C189.778 20.4935 188.416 17.5163 188.416 13.4434C188.416 9.37044 189.911 6.18294 192.899 3.88086C195.909 1.57878 199.916 0.427734 204.918 0.427734C213.463 0.427734 218.587 2.39779 220.291 6.33789C222.018 10.278 223.036 13.3659 223.346 15.6016H217.569C217.126 12.1042 215.82 9.49219 213.651 7.76562C211.504 6.03906 208.704 5.17578 205.25 5.17578C201.797 5.17578 199.075 5.85091 197.082 7.20117C195.112 8.5293 194.127 10.4661 194.127 13.0117C194.127 16.6419 195.788 18.8887 199.108 19.752C202.45 20.6152 205.162 21.2682 207.243 21.7109C209.323 22.1536 212.788 23.0501 217.635 24.4004C222.483 25.7285 224.907 29.8457 224.907 36.752C224.907 41.2233 223.246 44.7096 219.926 47.2109C216.606 49.7122 211.991 50.9629 206.08 50.9629C200.17 50.9629 195.467 49.347 191.969 46.1152C188.472 42.8835 186.579 38.6888 186.291 33.5312ZM239.47 50V1.39062H245.612V50H239.47ZM250.055 33.5312H256.031C256.85 41.8763 261.864 46.0488 271.072 46.0488C276.54 46.0488 279.827 44.9089 280.934 42.6289C282.062 40.3268 282.627 38.3789 282.627 36.7852C282.627 35.1914 282.273 33.8633 281.564 32.8008C280.878 31.7161 279.893 30.8086 278.609 30.0781C277.348 29.3477 275.82 28.75 274.027 28.2852C272.234 27.7982 270.264 27.3223 268.117 26.8574C262.938 25.7285 258.986 24.2344 256.264 22.375C253.541 20.4935 252.18 17.5163 252.18 13.4434C252.18 9.37044 253.674 6.18294 256.662 3.88086C259.673 1.57878 263.679 0.427734 268.682 0.427734C277.226 0.427734 282.35 2.39779 284.055 6.33789C285.781 10.278 286.799 13.3659 287.109 15.6016H281.332C280.889 12.1042 279.583 9.49219 277.414 7.76562C275.267 6.03906 272.467 5.17578 269.014 5.17578C265.561 5.17578 262.838 5.85091 260.846 7.20117C258.876 8.5293 257.891 10.4661 257.891 13.0117C257.891 16.6419 259.551 18.8887 262.871 19.752C266.214 20.6152 268.925 21.2682 271.006 21.7109C273.087 22.1536 276.551 23.0501 281.398 24.4004C286.246 25.7285 288.67 29.8457 288.67 36.752C288.67 41.2233 287.01 44.7096 283.689 47.2109C280.369 49.7122 275.754 50.9629 269.844 50.9629C263.934 50.9629 259.23 49.347 255.732 46.1152C252.235 42.8835 250.342 38.6888 250.055 33.5312ZM68.7274 116L64.8514 67.38H70.9714L72.9434 99C73.2154 102.264 73.3514 107.228 73.3514 107.228H73.4874C73.4874 107.228 75.5274 102.06 76.9554 98.864L90.8954 67.38H97.4234L100.415 98.864C100.755 102.128 100.891 107.228 100.891 107.228H101.027C101.027 107.228 103.067 101.992 104.291 99L117.687 67.38H123.807L102.319 116H96.5394L93.5474 81.728C93.2754 78.804 93.1394 74.18 93.1394 74.18H93.0034C93.0034 74.18 91.3034 78.6 89.9434 81.728L74.7114 116H68.7274ZM118.078 116L127.462 67.38H133.446L129.434 88.052H153.642L157.654 67.38H163.706L154.322 116H148.27L152.69 92.948H128.482L124.062 116H118.078ZM185.809 117.02C173.501 117.02 163.913 108.996 163.913 94.784C163.913 79.348 174.045 66.292 189.481 66.292C201.789 66.292 211.173 74.384 211.173 88.664C211.173 104.304 201.653 117.02 185.809 117.02ZM170.169 94.784C170.169 105.392 176.221 111.716 185.945 111.716C198.457 111.716 204.985 101.516 204.985 88.732C204.985 78.464 199.069 71.528 189.209 71.528C176.901 71.528 170.169 82.068 170.169 94.784ZM229.736 116L225.86 67.38H231.98L233.952 99C234.224 102.264 234.36 107.228 234.36 107.228H234.496C234.496 107.228 236.536 102.06 237.964 98.864L251.904 67.38H258.432L261.424 98.864C261.764 102.128 261.9 107.228 261.9 107.228H262.036C262.036 107.228 264.076 101.992 265.3 99L278.696 67.38H284.816L263.328 116H257.548L254.556 81.728C254.284 78.804 254.148 74.18 254.148 74.18H254.012C254.012 74.18 252.312 78.6 250.952 81.728L235.72 116H229.736ZM279.086 116L288.47 67.38H320.226L319.206 72.684H293.434L290.442 88.12H314.106L313.086 93.22H289.422L286.158 110.424H313.426L312.338 116H279.086ZM124.421 182L142.317 133.391H149.19L167.153 182H160.479L155.3 167.191H135.942L130.696 182H124.421ZM137.702 162.211H153.606L148.028 145.908C147.342 143.805 146.877 142.333 146.634 141.492C146.39 140.651 146.136 139.832 145.87 139.035H145.737C145.471 139.788 145.228 140.54 145.007 141.293C144.785 142.046 144.531 142.831 144.243 143.65C143.955 144.469 143.701 145.222 143.479 145.908L137.702 162.211ZM170.699 182V133.391H193.41C197.749 133.391 201.224 134.63 203.836 137.109C206.448 139.589 207.754 142.787 207.754 146.705C207.754 152.925 204.943 156.943 199.32 158.758V158.957C202.84 160.241 204.854 162.178 205.363 164.768C205.872 167.357 206.193 169.582 206.326 171.441C206.769 177.684 207.521 181.115 208.584 181.734V182H201.977C201.49 181.602 201.135 180.716 200.914 179.344C200.715 177.949 200.493 175.337 200.25 171.508C200.007 167.656 199.11 165.022 197.561 163.605C196.033 162.189 193.632 161.48 190.355 161.48H176.842V182H170.699ZM176.842 156.5H191.252C194.661 156.5 197.206 155.714 198.889 154.143C200.593 152.549 201.445 150.313 201.445 147.436C201.445 144.558 200.693 142.378 199.188 140.895C197.704 139.411 195.17 138.67 191.584 138.67H176.842V156.5ZM213.491 182V133.391H247.823V138.736H219.634V154.109H245.267V159.289H219.634V176.355H248.654V182H213.491Z" fill="white"/>
</svg>
