<svg width="292" height="115" viewBox="0 0 292 115" fill="none" xmlns="http://www.w3.org/2000/svg">
<path d="M0.962891 0.390625H7.33789L15.041 32C15.3066 32.9518 15.6165 34.3242 15.9707 36.1172C16.3249 37.9102 16.6237 39.2826 16.8672 40.2344H17C17.7305 36.9583 18.4056 34.1693 19.0254 31.8672L27.8242 0.390625H34.3984L42.8984 31.8672C43.1198 32.6862 43.3743 33.793 43.6621 35.1875C43.972 36.5599 44.3815 38.2422 44.8906 40.2344H45.0234C45.2448 39.2383 45.4661 38.2754 45.6875 37.3457C45.9089 36.416 46.1081 35.4863 46.2852 34.5566C46.4844 33.627 46.6947 32.7747 46.916 32L55.0176 0.390625H61.1934L47.6797 49H41.8359L32.9043 14.7344C32.6829 14.0039 32.4395 13.0078 32.1738 11.7461C31.9082 10.4844 31.5651 9.01237 31.1445 7.33008H31.0117C30.7904 8.23763 30.4915 9.48828 30.1152 11.082C29.7389 12.6758 29.429 13.8932 29.1855 14.7344L19.6562 49H13.5469L0.962891 0.390625ZM65.0051 49V0.390625H71.1477V21.043H97.1125V0.390625H103.222V49H97.1125V26.0234H71.1477V49H65.0051ZM106.768 49L124.664 0.390625H131.537L149.5 49H142.827L137.647 34.1914H118.289L113.043 49H106.768ZM120.049 29.2109H135.954L130.375 12.9082C129.689 10.8053 129.224 9.33333 128.981 8.49219C128.737 7.65104 128.483 6.83203 128.217 6.03516H128.084C127.819 6.78776 127.575 7.54036 127.354 8.29297C127.133 9.04557 126.878 9.83138 126.59 10.6504C126.302 11.4694 126.048 12.222 125.827 12.9082L120.049 29.2109ZM143.882 5.73633V0.390625H182.365V5.73633H166.195V49H160.052V5.73633H143.882ZM192.279 0.390625H198.654L206.357 32C206.623 32.9518 206.933 34.3242 207.287 36.1172C207.641 37.9102 207.94 39.2826 208.184 40.2344H208.316C209.047 36.9583 209.722 34.1693 210.342 31.8672L219.141 0.390625H225.715L234.215 31.8672C234.436 32.6862 234.691 33.793 234.979 35.1875C235.288 36.5599 235.698 38.2422 236.207 40.2344H236.34C236.561 39.2383 236.783 38.2754 237.004 37.3457C237.225 36.416 237.424 35.4863 237.602 34.5566C237.801 33.627 238.011 32.7747 238.232 32L246.334 0.390625H252.51L238.996 49H233.152L224.221 14.7344C223.999 14.0039 223.756 13.0078 223.49 11.7461C223.225 10.4844 222.882 9.01237 222.461 7.33008H222.328C222.107 8.23763 221.808 9.48828 221.432 11.082C221.055 12.6758 220.745 13.8932 220.502 14.7344L210.973 49H204.863L192.279 0.390625ZM256.321 49V0.390625H290.654V5.73633H262.464V21.1094H288.097V26.2891H262.464V43.3555H291.484V49H256.321ZM4.54883 115V66.3906H25.168C30.2812 66.3906 34.1771 67.7962 36.8555 70.6074C38.9362 72.7767 39.9766 75.5436 39.9766 78.9082C39.9766 84.0436 37.3757 87.4414 32.1738 89.1016V89.3008C35.0514 89.9648 37.3978 91.304 39.2129 93.3184C41.0501 95.3327 41.9688 98.0553 41.9688 101.486C41.9688 104.917 40.7845 107.883 38.416 110.385C35.5827 113.462 31.5319 115 26.2637 115H4.54883ZM10.6914 109.488H25.9648C29.3294 109.488 31.875 108.669 33.6016 107.031C35.0404 105.504 35.7598 103.622 35.7598 101.387C35.7598 98.3542 34.7969 96.0964 32.8711 94.6133C30.9453 93.1081 28.5104 92.3555 25.5664 92.3555H10.6914V109.488ZM10.6914 87.1758H24.4043C27.3926 87.1758 29.7168 86.4896 31.377 85.1172C33.0371 83.7227 33.8672 81.8079 33.8672 79.373C33.8672 76.9382 33.1035 75.0456 31.5762 73.6953C30.071 72.3451 27.957 71.6699 25.2344 71.6699H10.6914V87.1758ZM46.6105 115V66.3906H80.9426V71.7363H52.7531V87.1094H78.3859V92.2891H52.7531V109.355H81.7727V115H46.6105ZM87.2113 115V66.3906H93.3539V109.355H118.854V115H87.2113ZM123.296 115V66.3906H129.439V115H123.296ZM136.936 115V66.3906H171.268V71.7363H143.079V87.1094H168.712V92.2891H143.079V109.355H172.098V115H136.936ZM173.652 66.3906H180.26L192.246 102.549C192.423 103.146 192.622 103.866 192.844 104.707C193.087 105.548 193.519 107.009 194.139 109.09H194.271C194.515 108.271 194.747 107.485 194.969 106.732C195.19 105.98 195.389 105.238 195.566 104.508C195.743 103.755 195.943 103.102 196.164 102.549L208.018 66.3906H214.393L197.326 115H190.586L173.652 66.3906ZM217.939 115V66.3906H252.271V71.7363H224.081V87.1094H249.714V92.2891H224.081V109.355H253.101V115H217.939Z" fill="#111111"/>
</svg>
