<svg width="319" height="118" viewBox="0 0 319 118" fill="none" xmlns="http://www.w3.org/2000/svg">
<path d="M12.5771 50L21.9611 1.38H27.9451L18.5611 50H12.5771ZM25.9481 50L35.3322 1.38H41.6561L56.2762 35.312C57.5002 38.1 58.5202 41.568 58.5202 41.568H58.6561L66.4081 1.38H72.0521L62.6682 50H56.4802L41.7922 16C40.6361 13.416 39.4801 9.948 39.4801 9.948H39.3442L31.5921 50H25.9481ZM74.9676 6.684L75.9876 1.38H112.912L111.892 6.684H96.3877L88.0236 50H82.0396L90.4036 6.684H74.9676ZM107.415 50L116.799 1.38H135.227C139.103 1.38 142.571 2.332 145.019 4.168C148.011 6.412 149.507 9.948 149.507 14.096C149.507 20.76 145.495 25.112 140.055 26.948V27.152C144.339 29.124 145.223 32.116 144.747 39.324C144.203 47.144 145.223 49.116 146.039 49.728V50H139.919C139.035 48.776 138.355 46.872 138.899 39.12C139.375 31.98 137.471 29.396 131.011 29.396H117.343L113.399 50H107.415ZM121.763 6.616L118.295 24.5H131.963C138.831 24.5 143.251 20.896 143.251 14.232C143.251 9.2 140.123 6.616 134.343 6.616H121.763ZM149.879 50L159.263 1.38H165.247L155.863 50H149.879ZM163.25 50L172.634 1.38H178.958L193.578 35.312C194.802 38.1 195.822 41.568 195.822 41.568H195.958L203.71 1.38H209.354L199.97 50H193.782L179.094 16C177.938 13.416 176.782 9.948 176.782 9.948H176.646L168.894 50H163.25ZM225.801 50.952C215.873 50.952 206.489 46.464 206.829 33.544H212.609C212.609 42.384 217.709 45.988 225.937 45.988C233.349 45.988 238.109 42.52 238.109 36.196C238.109 31.164 233.893 29.532 225.937 26.608C217.709 23.616 212.541 20.556 212.541 13.688C212.541 5.528 219.409 0.427998 228.521 0.427998C238.381 0.427998 245.589 4.644 246.133 15.592H240.421C240.081 8.384 235.865 5.324 228.521 5.324C223.081 5.324 218.185 7.16 218.185 13.144C218.185 17.224 222.129 18.992 228.453 21.304C237.565 24.636 244.025 27.22 244.025 35.516C244.025 44.628 237.225 50.952 225.801 50.952ZM246.579 50L255.963 1.38H261.947L252.563 50H246.579ZM282.526 50.952C269.198 50.952 262.262 42.18 262.262 29.532C262.262 14.98 271.714 0.292 287.898 0.292C298.03 0.292 304.558 5.936 305.374 15.796H299.322C298.438 9.268 294.358 5.528 287.286 5.528C275.114 5.528 268.518 17.088 268.518 29.328C268.518 38.236 272.666 45.648 282.73 45.648C291.434 45.648 296.262 39.256 297.826 32.184H303.81C302.926 36.944 300.75 41.364 297.418 44.968C293.882 48.776 288.51 50.952 282.526 50.952ZM0.83145 116V67.38H6.95145V116H0.83145ZM14.4681 116V67.38H32.1481C46.7681 67.38 53.7041 77.308 53.7041 91.86C53.7041 106.412 46.2921 116 31.6721 116H14.4681ZM20.5881 110.628H31.4681C42.8921 110.628 47.4481 103.284 47.4481 91.86C47.4481 80.436 43.3681 72.684 31.9441 72.684H20.5881V110.628ZM59.2525 116V67.38H93.5925V72.752H65.3725V88.12H91.0085V93.288H65.3725V110.356H94.4085V116H59.2525ZM120.821 117.02C106.133 117.02 97.0212 106.208 97.0212 91.656C97.0212 77.104 106.133 66.292 120.821 66.292C135.509 66.292 144.621 77.104 144.621 91.656C144.621 106.208 135.509 117.02 120.821 117.02ZM120.821 111.648C132.245 111.648 138.365 103.08 138.365 91.656C138.365 80.232 132.245 71.596 120.821 71.596C109.397 71.596 103.277 80.232 103.277 91.656C103.277 103.08 109.397 111.648 120.821 111.648ZM150.216 116V67.38H156.336V110.356H181.836V116H150.216ZM205.077 117.02C190.389 117.02 181.277 106.208 181.277 91.656C181.277 77.104 190.389 66.292 205.077 66.292C219.765 66.292 228.877 77.104 228.877 91.656C228.877 106.208 219.765 117.02 205.077 117.02ZM205.077 111.648C216.501 111.648 222.621 103.08 222.621 91.656C222.621 80.232 216.501 71.596 205.077 71.596C193.653 71.596 187.533 80.232 187.533 91.656C187.533 103.08 193.653 111.648 205.077 111.648ZM272.552 116L270.784 109.608H270.648C267.112 114.572 261.876 117.02 255.484 117.02C241.816 117.02 232.636 106.616 232.636 91.86C232.636 77.58 240.728 66.36 256.028 66.36C267.316 66.36 274.252 72.48 275.816 82H269.492C268.132 75.54 263.576 71.664 255.892 71.664C244.196 71.664 238.892 80.436 238.892 91.86C238.892 103.76 245.828 111.716 255.688 111.716C265.684 111.716 270.376 104.916 270.376 96.756V95.6H255.756V90.296H276.496V116H272.552ZM294.254 116V95.396L276.642 67.38H283.442L297.382 90.5H297.518L311.662 67.38H318.19L300.374 95.532V116H294.254Z" fill="#111111"/>
</svg>
