<svg width="311" height="118" viewBox="0 0 311 118" fill="none" xmlns="http://www.w3.org/2000/svg">
<path d="M39.6476 50L27.0676 1.38H33.4596L41.1436 33C41.9596 36.264 42.9796 41.228 42.9796 41.228H43.1156C43.1156 41.228 44.2716 36.06 45.1556 32.864L53.9276 1.38H60.5236L69.0236 32.864C69.9076 36.128 70.9956 41.228 70.9956 41.228H71.1316C71.1316 41.228 72.2876 35.992 73.0356 33L81.1276 1.38H87.3156L73.7836 50H67.9356L59.0276 15.728C58.2796 12.872 57.2596 8.316 57.2596 8.316H57.1236C57.1236 8.316 56.1036 12.872 55.2876 15.728L45.7676 50H39.6476ZM111.033 51.02C96.3453 51.02 87.2333 40.208 87.2333 25.656C87.2333 11.104 96.3453 0.292 111.033 0.292C125.721 0.292 134.833 11.104 134.833 25.656C134.833 40.208 125.721 51.02 111.033 51.02ZM111.033 45.648C122.457 45.648 128.577 37.08 128.577 25.656C128.577 14.232 122.457 5.596 111.033 5.596C99.6093 5.596 93.4893 14.232 93.4893 25.656C93.4893 37.08 99.6093 45.648 111.033 45.648ZM140.428 50V1.38H163.14C171.708 1.38 177.488 6.752 177.488 14.708C177.488 20.624 174.904 24.84 169.056 26.744V26.948C174.02 28.716 175.584 32.116 176.06 39.324C176.604 47.144 177.42 49.116 178.304 49.728V50H171.708C170.688 49.116 170.484 47.28 169.94 39.12C169.464 31.98 166.608 29.464 160.08 29.464H146.548V50H140.428ZM146.548 6.684V24.5H160.964C167.764 24.5 171.164 21.1 171.164 15.592C171.164 9.676 168.444 6.684 161.304 6.684H146.548ZM183.22 50V1.38H189.34V25.52L213.276 1.38H220.96L201.308 20.828L222.592 50H215.452L197.16 24.976L189.34 32.796V50H183.22ZM246.442 50.952C239.37 50.952 232.502 45.92 232.502 37.964C232.502 30.756 236.922 27.084 243.042 23.344L241.682 21.576C238.894 17.972 237.942 15.116 237.942 11.58C237.942 6.072 242.498 1.856 248.414 1.856C253.786 1.856 258.954 5.188 258.954 11.988C258.954 17.904 254.67 21.168 250.046 24.16L259.702 36.468C260.722 33.816 261.334 30.824 261.334 27.492H266.094C266.094 32.116 265.006 36.74 262.966 40.616L270.31 50H263.714L259.906 45.104C256.642 48.64 252.154 50.952 246.442 50.952ZM246.782 46.124C250.862 46.124 254.33 44.288 256.914 41.228L245.762 26.88C241.342 29.804 238.01 32.592 238.01 37.964C238.01 42.792 241.954 46.124 246.782 46.124ZM243.11 11.648C243.11 14.368 243.994 16.34 246.102 19.06L247.394 20.76C251.61 18.04 253.65 15.592 253.65 11.852C253.65 8.52 251.61 6.412 248.414 6.412C245.286 6.412 243.11 8.52 243.11 11.648ZM4.1766 116L0.3006 67.38H6.4206L8.3926 99C8.6646 102.264 8.8006 107.228 8.8006 107.228H8.9366C8.9366 107.228 10.9766 102.06 12.4046 98.864L26.3446 67.38H32.8726L35.8646 98.864C36.2046 102.128 36.3406 107.228 36.3406 107.228H36.4766C36.4766 107.228 38.5166 101.992 39.7406 99L53.1366 67.38H59.2566L37.7686 116H31.9886L28.9966 81.728C28.7246 78.804 28.5886 74.18 28.5886 74.18H28.4526C28.4526 74.18 26.7526 78.6 25.3926 81.728L10.1606 116H4.1766ZM77.071 117.02C64.763 117.02 55.175 108.996 55.175 94.784C55.175 79.348 65.307 66.292 80.743 66.292C93.051 66.292 102.435 74.384 102.435 88.664C102.435 104.304 92.915 117.02 77.071 117.02ZM61.431 94.784C61.431 105.392 67.483 111.716 77.207 111.716C89.719 111.716 96.247 101.516 96.247 88.732C96.247 78.464 90.331 71.528 80.471 71.528C68.163 71.528 61.431 82.068 61.431 94.784ZM102.694 116L112.078 67.38H118.402L133.022 101.312C134.246 104.1 135.266 107.568 135.266 107.568H135.402L143.154 67.38H148.798L139.414 116H133.226L118.538 82C117.382 79.416 116.226 75.948 116.226 75.948H116.09L108.338 116H102.694ZM146.682 116L156.066 67.38H171.298C184.422 67.38 190.542 74.996 190.542 86.76C190.542 102.536 181.634 116 164.158 116H146.682ZM153.686 110.696H164.022C177.894 110.696 184.354 100.292 184.354 87.168C184.354 78.328 180.546 72.616 170.958 72.616H161.03L153.686 110.696ZM190.736 116L200.12 67.38H231.876L230.856 72.684H205.084L202.092 88.12H225.756L224.736 93.22H201.072L197.808 110.424H225.076L223.988 116H190.736ZM229.278 116L238.662 67.38H257.09C260.966 67.38 264.434 68.332 266.882 70.168C269.874 72.412 271.37 75.948 271.37 80.096C271.37 86.76 267.358 91.112 261.918 92.948V93.152C266.202 95.124 267.086 98.116 266.61 105.324C266.066 113.144 267.086 115.116 267.902 115.728V116H261.782C260.898 114.776 260.218 112.872 260.762 105.12C261.238 97.98 259.334 95.396 252.874 95.396H239.206L235.262 116H229.278ZM243.626 72.616L240.158 90.5H253.826C260.694 90.5 265.114 86.896 265.114 80.232C265.114 75.2 261.986 72.616 256.206 72.616H243.626ZM289.837 116.952C279.909 116.952 270.525 112.464 270.865 99.544H276.645C276.645 108.384 281.745 111.988 289.973 111.988C297.385 111.988 302.145 108.52 302.145 102.196C302.145 97.164 297.929 95.532 289.973 92.608C281.745 89.616 276.577 86.556 276.577 79.688C276.577 71.528 283.445 66.428 292.557 66.428C302.417 66.428 309.625 70.644 310.169 81.592H304.457C304.117 74.384 299.901 71.324 292.557 71.324C287.117 71.324 282.221 73.16 282.221 79.144C282.221 83.224 286.165 84.992 292.489 87.304C301.601 90.636 308.061 93.22 308.061 101.516C308.061 110.628 301.261 116.952 289.837 116.952Z" fill="white"/>
</svg>
