<svg width="375" height="117" viewBox="0 0 375 117" fill="none" xmlns="http://www.w3.org/2000/svg">
<path d="M50.4906 49V0.390625H83.4613V5.73633H56.6332V20.9102H78.9789V26.0898H56.6332V49H50.4906ZM88.1031 49V0.390625H122.435V5.73633H94.2457V21.1094H119.879V26.2891H94.2457V43.3555H123.265V49H88.1031ZM125.483 49L143.38 0.390625H150.253L168.216 49H161.542L156.362 34.1914H137.005L131.759 49H125.483ZM138.764 29.2109H154.669L149.091 12.9082C148.404 10.8053 147.94 9.33333 147.696 8.49219C147.453 7.65104 147.198 6.83203 146.932 6.03516H146.8C146.534 6.78776 146.29 7.54036 146.069 8.29297C145.848 9.04557 145.593 9.83138 145.305 10.6504C145.018 11.4694 144.763 12.222 144.542 12.9082L138.764 29.2109ZM162.598 5.73633V0.390625H201.08V5.73633H184.91V49H178.768V5.73633H162.598ZM204.659 33.2949V0.390625H210.769V32.6641C210.769 40.5664 214.963 44.5176 223.353 44.5176C227.293 44.5176 230.348 43.5879 232.517 41.7285C234.708 39.8691 235.804 36.8477 235.804 32.6641V0.390625H241.913V33.2949C241.913 38.873 240.187 43.0124 236.734 45.7129C233.28 48.4134 228.776 49.7637 223.22 49.7637C217.598 49.7637 213.093 48.4134 209.706 45.7129C206.342 43.0124 204.659 38.873 204.659 33.2949ZM248.514 49V0.390625H271.225C275.564 0.390625 279.039 1.63021 281.651 4.10938C284.263 6.58854 285.569 9.78711 285.569 13.7051C285.569 19.9251 282.758 23.9427 277.135 25.7578V25.957C280.655 27.2409 282.669 29.1777 283.178 31.7676C283.687 34.3574 284.008 36.582 284.141 38.4414C284.584 44.6836 285.336 48.1146 286.399 48.7344V49H279.791C279.304 48.6016 278.95 47.7161 278.729 46.3438C278.53 44.9492 278.308 42.3372 278.065 38.5078C277.821 34.6562 276.925 32.0221 275.375 30.6055C273.848 29.1888 271.446 28.4805 268.17 28.4805H254.657V49H248.514ZM254.657 23.5H269.067C272.476 23.5 275.021 22.7142 276.704 21.1426C278.408 19.5488 279.26 17.3132 279.26 14.4355C279.26 11.5579 278.508 9.3776 277.002 7.89453C275.519 6.41146 272.985 5.66992 269.399 5.66992H254.657V23.5ZM291.306 49V0.390625H325.638V5.73633H297.449V21.1094H323.082V26.2891H297.449V43.3555H326.468V49H291.306ZM101.539 115L97.6627 66.38H103.783L105.755 98C106.027 101.264 106.163 106.228 106.163 106.228H106.299C106.299 106.228 108.339 101.06 109.767 97.864L123.707 66.38H130.235L133.227 97.864C133.567 101.128 133.703 106.228 133.703 106.228H133.839C133.839 106.228 135.879 100.992 137.103 98L150.499 66.38H156.619L135.131 115H129.351L126.359 80.728C126.087 77.804 125.951 73.18 125.951 73.18H125.815C125.815 73.18 124.115 77.6 122.755 80.728L107.523 115H101.539ZM174.433 116.02C162.125 116.02 152.537 107.996 152.537 93.784C152.537 78.348 162.669 65.292 178.105 65.292C190.413 65.292 199.797 73.384 199.797 87.664C199.797 103.304 190.277 116.02 174.433 116.02ZM158.793 93.784C158.793 104.392 164.845 110.716 174.569 110.716C187.081 110.716 193.609 100.516 193.609 87.732C193.609 77.464 187.693 70.528 177.833 70.528C165.525 70.528 158.793 81.068 158.793 93.784ZM200.056 115L209.44 66.38H227.868C231.744 66.38 235.212 67.332 237.66 69.168C240.652 71.412 242.148 74.948 242.148 79.096C242.148 85.76 238.136 90.112 232.696 91.948V92.152C236.98 94.124 237.864 97.116 237.388 104.324C236.844 112.144 237.864 114.116 238.68 114.728V115H232.56C231.676 113.776 230.996 111.872 231.54 104.12C232.016 96.98 230.112 94.396 223.652 94.396H209.984L206.04 115H200.056ZM214.404 71.616L210.936 89.5H224.604C231.472 89.5 235.892 85.896 235.892 79.232C235.892 74.2 232.764 71.616 226.984 71.616H214.404ZM286.924 66.38L265.164 85.964L280.464 115H273.732L260.608 90.044L251.632 98.136L248.368 115H242.384L251.768 66.38H257.752L253.06 90.384L279.308 66.38H286.924Z" fill="white"/>
</svg>
