<svg width="334" height="101" viewBox="0 0 334 101" fill="none" xmlns="http://www.w3.org/2000/svg">
<path d="M0.88 101V0.899995H14.18L59.82 70.48C63.18 75.66 67.1 83.36 67.1 83.36H67.38V0.899995H79.14V101H66.26L20.34 31.28C17.12 26.38 12.92 18.82 12.92 18.82H12.64V101H0.88ZM94.4503 101V0.899995H165.15V11.96H107.05V43.6H159.83V54.24H107.05V89.38H166.83V101H94.4503ZM170.62 101L205.34 49.76L173.14 0.899995H187.7L212.48 40.94H212.76L238.1 0.899995H251.96L219.2 49.9L252.94 101H237.82L212.06 58.86H211.78L184.9 101H170.62ZM254.51 11.96V0.899995H333.75V11.96H300.43V101H287.83V11.96H254.51Z" fill="white"/>
</svg>
