<svg width="321" height="58" viewBox="0 0 321 58" fill="none" xmlns="http://www.w3.org/2000/svg">
<path d="M2.47969 37.918C1.30782 34.6367 0.721878 31.0742 0.721878 27.2305C0.721878 23.3867 1.30782 19.8242 2.47969 16.543C3.65157 13.2383 5.31563 10.3906 7.47188 8C9.65157 5.60938 12.3 3.74609 15.4172 2.41016C18.5344 1.05078 22.9875 0.371094 28.7766 0.371094C34.5656 0.371094 39.7336 2.90234 44.2805 7.96484C48.8508 13.0039 51.1359 19.625 51.1359 27.8281C51.1359 36.0312 48.4641 42.6406 43.1203 47.6562L49.9758 53.1406L46.6711 57.3242L38.6555 50.9961C34.9523 53.0586 30.9328 54.0898 26.5969 54.0898C22.2609 54.0898 18.5344 53.4219 15.4172 52.0859C12.3 50.7266 9.65157 48.8516 7.47188 46.4609C5.31563 44.0469 3.65157 41.1992 2.47969 37.918ZM12.2531 11.9023C8.97188 15.8398 7.33125 20.9609 7.33125 27.2656C7.33125 33.5469 8.97188 38.6445 12.2531 42.5586C15.5578 46.4492 20.1164 48.3945 25.9289 48.3945C28.7648 48.3945 31.3313 47.9141 33.6281 46.9531L28.425 42.7695L31.7648 38.5859L38.3039 43.8594C42.4289 39.9219 44.4914 34.5781 44.4914 27.8281C44.4914 21.0781 42.8508 15.7578 39.5695 11.8672C36.2883 7.95313 31.7297 5.99609 25.8938 5.99609C20.0813 5.99609 15.5344 7.96484 12.2531 11.9023ZM56.1914 36.3711V1.53125H62.6602V35.7031C62.6602 44.0703 67.1016 48.2539 75.9844 48.2539C80.1563 48.2539 83.3906 47.2695 85.6875 45.3008C88.0078 43.332 89.168 40.1328 89.168 35.7031V1.53125H95.6367V36.3711C95.6367 42.2773 93.8086 46.6602 90.1523 49.5195C86.4961 52.3789 81.7266 53.8086 75.8438 53.8086C69.8906 53.8086 65.1211 52.3789 61.5352 49.5195C57.9727 46.6602 56.1914 42.2773 56.1914 36.3711ZM102.766 53V1.53125H109.27V53H102.766ZM121.849 46.4961C117.466 41.4805 115.275 35.0586 115.275 27.2305C115.275 19.4023 117.478 12.9687 121.884 7.92969C126.291 2.89063 132.22 0.371094 139.673 0.371094C145.556 0.371094 150.302 1.89453 153.912 4.94141C157.521 7.98828 159.666 11.9375 160.345 16.7891H154.017C153.384 13.5781 151.826 10.9766 149.341 8.98438C146.88 6.99219 143.611 5.99609 139.533 5.99609C134.048 5.99609 129.736 7.97656 126.595 11.9375C123.455 15.875 121.884 20.9844 121.884 27.2656C121.884 33.5469 123.49 38.6328 126.701 42.5234C129.912 46.3906 134.213 48.3242 139.603 48.3242C144.173 48.3242 147.736 46.9883 150.291 44.3164C152.845 41.6445 154.275 38.2461 154.58 34.1211H160.978C160.931 36.7227 159.759 40.6953 157.463 46.0391C155.166 51.3594 149.142 54.0195 139.392 54.0195C132.103 54.0195 126.255 51.5117 121.849 46.4961ZM166.455 53V1.53125H172.959V27.0898L198.272 1.53125H206.428L185.616 22.0977L208.151 53H200.592L181.221 26.4922L172.959 34.7891V53H166.455ZM210.991 53V1.53125H217.495V47.0234H244.495V53H210.991ZM237.352 1.53125H244.559L259.324 26H259.465L274.441 1.53125H281.367L262.488 31.3438V53H256.02V31.168L237.352 1.53125ZM279.673 35.5625H286.001C286.868 44.3984 292.177 48.8164 301.927 48.8164C307.716 48.8164 311.196 47.6094 312.368 45.1953C313.563 42.7578 314.161 40.6953 314.161 39.0078C314.161 37.3203 313.786 35.9141 313.036 34.7891C312.309 33.6406 311.266 32.6797 309.907 31.9062C308.571 31.1328 306.954 30.5 305.055 30.0078C303.157 29.4922 301.071 28.9883 298.798 28.4961C293.313 27.3008 289.13 25.7188 286.247 23.75C283.364 21.7578 281.923 18.6055 281.923 14.293C281.923 9.98047 283.505 6.60547 286.669 4.16797C289.856 1.73047 294.098 0.511719 299.395 0.511719C308.442 0.511719 313.868 2.59766 315.673 6.76953C317.501 10.9414 318.579 14.2109 318.907 16.5781H312.79C312.321 12.875 310.938 10.1094 308.641 8.28125C306.368 6.45312 303.403 5.53906 299.747 5.53906C296.091 5.53906 293.208 6.25391 291.098 7.68359C289.013 9.08984 287.97 11.1406 287.97 13.8359C287.97 17.6797 289.727 20.0586 293.243 20.9727C296.782 21.8867 299.653 22.5781 301.856 23.0469C304.059 23.5156 307.727 24.4648 312.86 25.8945C317.993 27.3008 320.559 31.6602 320.559 38.9727C320.559 43.707 318.802 47.3984 315.286 50.0469C311.77 52.6953 306.884 54.0195 300.626 54.0195C294.368 54.0195 289.388 52.3086 285.684 48.8867C281.981 45.4648 279.977 41.0234 279.673 35.5625Z" fill="#111111"/>
</svg>
