<svg width="375" height="58" viewBox="0 0 375 58" fill="none" xmlns="http://www.w3.org/2000/svg">
<path d="M29.4797 37.918C28.3078 34.6367 27.7219 31.0742 27.7219 27.2305C27.7219 23.3867 28.3078 19.8242 29.4797 16.543C30.6516 13.2383 32.3156 10.3906 34.4719 8C36.6516 5.60938 39.3 3.74609 42.4172 2.41016C45.5344 1.05078 49.9875 0.371094 55.7766 0.371094C61.5656 0.371094 66.7336 2.90234 71.2805 7.96484C75.8508 13.0039 78.1359 19.625 78.1359 27.8281C78.1359 36.0312 75.4641 42.6406 70.1203 47.6562L76.9758 53.1406L73.6711 57.3242L65.6555 50.9961C61.9523 53.0586 57.9328 54.0898 53.5969 54.0898C49.2609 54.0898 45.5344 53.4219 42.4172 52.0859C39.3 50.7266 36.6516 48.8516 34.4719 46.4609C32.3156 44.0469 30.6516 41.1992 29.4797 37.918ZM39.2531 11.9023C35.9719 15.8398 34.3313 20.9609 34.3313 27.2656C34.3313 33.5469 35.9719 38.6445 39.2531 42.5586C42.5578 46.4492 47.1164 48.3945 52.9289 48.3945C55.7648 48.3945 58.3313 47.9141 60.6281 46.9531L55.425 42.7695L58.7648 38.5859L65.3039 43.8594C69.4289 39.9219 71.4914 34.5781 71.4914 27.8281C71.4914 21.0781 69.8508 15.7578 66.5695 11.8672C63.2883 7.95313 58.7297 5.99609 52.8938 5.99609C47.0813 5.99609 42.5344 7.96484 39.2531 11.9023ZM83.1914 36.3711V1.53125H89.6602V35.7031C89.6602 44.0703 94.1016 48.2539 102.984 48.2539C107.156 48.2539 110.391 47.2695 112.688 45.3008C115.008 43.332 116.168 40.1328 116.168 35.7031V1.53125H122.637V36.3711C122.637 42.2773 120.809 46.6602 117.152 49.5195C113.496 52.3789 108.727 53.8086 102.844 53.8086C96.8906 53.8086 92.1211 52.3789 88.5352 49.5195C84.9727 46.6602 83.1914 42.2773 83.1914 36.3711ZM129.766 53V1.53125H136.27V53H129.766ZM148.849 46.4961C144.466 41.4805 142.275 35.0586 142.275 27.2305C142.275 19.4023 144.478 12.9687 148.884 7.92969C153.291 2.89063 159.22 0.371094 166.673 0.371094C172.556 0.371094 177.302 1.89453 180.912 4.94141C184.521 7.98828 186.666 11.9375 187.345 16.7891H181.017C180.384 13.5781 178.826 10.9766 176.341 8.98438C173.88 6.99219 170.611 5.99609 166.533 5.99609C161.048 5.99609 156.736 7.97656 153.595 11.9375C150.455 15.875 148.884 20.9844 148.884 27.2656C148.884 33.5469 150.49 38.6328 153.701 42.5234C156.912 46.3906 161.213 48.3242 166.603 48.3242C171.173 48.3242 174.736 46.9883 177.291 44.3164C179.845 41.6445 181.275 38.2461 181.58 34.1211H187.978C187.931 36.7227 186.759 40.6953 184.463 46.0391C182.166 51.3594 176.142 54.0195 166.392 54.0195C159.103 54.0195 153.255 51.5117 148.849 46.4961ZM193.455 53V1.53125H199.959V27.0898L225.272 1.53125H233.428L212.616 22.0977L235.151 53H227.592L208.221 26.4922L199.959 34.7891V53H193.455ZM237.991 53V1.53125H244.495V47.0234H271.495V53H237.991ZM264.352 1.53125H271.559L286.324 26H286.465L301.441 1.53125H308.367L289.488 31.3438V53H283.02V31.168L264.352 1.53125ZM306.673 35.5625H313.001C313.868 44.3984 319.177 48.8164 328.927 48.8164C334.716 48.8164 338.196 47.6094 339.368 45.1953C340.563 42.7578 341.161 40.6953 341.161 39.0078C341.161 37.3203 340.786 35.9141 340.036 34.7891C339.309 33.6406 338.266 32.6797 336.907 31.9062C335.571 31.1328 333.954 30.5 332.055 30.0078C330.157 29.4922 328.071 28.9883 325.798 28.4961C320.313 27.3008 316.13 25.7188 313.247 23.75C310.364 21.7578 308.923 18.6055 308.923 14.293C308.923 9.98047 310.505 6.60547 313.669 4.16797C316.856 1.73047 321.098 0.511719 326.395 0.511719C335.442 0.511719 340.868 2.59766 342.673 6.76953C344.501 10.9414 345.579 14.2109 345.907 16.5781H339.79C339.321 12.875 337.938 10.1094 335.641 8.28125C333.368 6.45312 330.403 5.53906 326.747 5.53906C323.091 5.53906 320.208 6.25391 318.098 7.68359C316.013 9.08984 314.97 11.1406 314.97 13.8359C314.97 17.6797 316.727 20.0586 320.243 20.9727C323.782 21.8867 326.653 22.5781 328.856 23.0469C331.059 23.5156 334.727 24.4648 339.86 25.8945C344.993 27.3008 347.559 31.6602 347.559 38.9727C347.559 43.707 345.802 47.3984 342.286 50.0469C338.77 52.6953 333.884 54.0195 327.626 54.0195C321.368 54.0195 316.388 52.3086 312.684 48.8867C308.981 45.4648 306.977 41.0234 306.673 35.5625Z" fill="#111111"/>
</svg>
