<svg width="285" height="147" viewBox="0 0 285 147" fill="none" xmlns="http://www.w3.org/2000/svg">
<path d="M1.95938 35V0.6875H6.29532V31.0156H24.2953V35H1.95938ZM27.3375 35V0.6875H51.5719V4.46094H31.6734V15.3125H49.7672V18.9688H31.6734V31.0156H52.1578V35H27.3375ZM53.8406 4.46094V0.6875H81.0047V4.46094H69.5906V35H65.2547V4.46094H53.8406ZM83.3672 10.9531V0.6875H86.9297V10.9531H83.3672ZM88.8 23.375H93.0188C93.5969 29.2656 97.1359 32.2109 103.636 32.2109C107.495 32.2109 109.816 31.4062 110.597 29.7969C111.394 28.1719 111.792 26.7969 111.792 25.6719C111.792 24.5469 111.542 23.6094 111.042 22.8594C110.558 22.0938 109.863 21.4531 108.956 20.9375C108.066 20.4219 106.988 20 105.722 19.6719C104.456 19.3281 103.066 18.9922 101.55 18.6641C97.8938 17.8672 95.1047 16.8125 93.1828 15.5C91.2609 14.1719 90.3 12.0703 90.3 9.19531C90.3 6.32031 91.3547 4.07031 93.4641 2.44531C95.5891 0.820313 98.4172 0.0078125 101.948 0.0078125C107.98 0.0078125 111.597 1.39844 112.8 4.17969C114.019 6.96094 114.738 9.14063 114.956 10.7188H110.878C110.566 8.25 109.644 6.40625 108.113 5.1875C106.597 3.96875 104.62 3.35938 102.183 3.35938C99.7453 3.35938 97.8234 3.83594 96.4172 4.78906C95.0266 5.72656 94.3313 7.09375 94.3313 8.89062C94.3313 11.4531 95.5031 13.0391 97.8469 13.6484C100.206 14.2578 102.12 14.7188 103.589 15.0312C105.058 15.3438 107.503 15.9766 110.925 16.9297C114.347 17.8672 116.058 20.7734 116.058 25.6484C116.058 28.8047 114.886 31.2656 112.542 33.0312C110.198 34.7969 106.941 35.6797 102.769 35.6797C98.5969 35.6797 95.2766 34.5391 92.8078 32.2578C90.3391 29.9766 89.0031 27.0156 88.8 23.375ZM124.088 4.46094V0.6875H151.252V4.46094H139.838V35H135.502V4.46094H124.088ZM147.286 35L159.919 0.6875H164.77L177.45 35H172.739L169.083 24.5469H155.419L151.716 35H147.286ZM156.661 21.0312H167.888L163.95 9.52344C163.466 8.03906 163.138 7 162.966 6.40625C162.794 5.8125 162.614 5.23438 162.427 4.67188H162.333C162.145 5.20313 161.973 5.73437 161.817 6.26562C161.661 6.79688 161.481 7.35156 161.278 7.92969C161.075 8.50781 160.895 9.03906 160.739 9.52344L156.661 21.0312ZM179.953 35V0.6875H184.289V31.0156H202.289V35H179.953ZM205.331 35V0.6875H209.667V17.7266L226.542 0.6875H231.98L218.105 14.3984L233.128 35H228.089L215.175 17.3281L209.667 22.8594V35H205.331ZM243.056 24.4297V21.125H281.447V24.4297H243.056ZM0.9375 91L13.5703 56.6875H18.4219L31.1016 91H26.3906L22.7344 80.5469H9.07031L5.36719 91H0.9375ZM10.3125 77.0312H21.5391L17.6016 65.5234C17.1172 64.0391 16.7891 63 16.6172 62.4062C16.4453 61.8125 16.2656 61.2344 16.0781 60.6719H15.9844C15.7969 61.2031 15.625 61.7344 15.4688 62.2656C15.3125 62.7969 15.1328 63.3516 14.9297 63.9297C14.7266 64.5078 14.5469 65.0391 14.3906 65.5234L10.3125 77.0312ZM33.6047 91V56.6875H48.1594C51.7687 56.6875 54.5187 57.6797 56.4094 59.6641C57.8781 61.1953 58.6125 63.1484 58.6125 65.5234C58.6125 69.1484 56.7766 71.5469 53.1047 72.7188V72.8594C55.1359 73.3281 56.7922 74.2734 58.0734 75.6953C59.3703 77.1172 60.0187 79.0391 60.0187 81.4609C60.0187 83.8828 59.1828 85.9766 57.5109 87.7422C55.5109 89.9141 52.6516 91 48.9328 91H33.6047ZM37.9406 87.1094H48.7219C51.0969 87.1094 52.8937 86.5312 54.1125 85.375C55.1281 84.2969 55.6359 82.9688 55.6359 81.3906C55.6359 79.25 54.9562 77.6562 53.5969 76.6094C52.2375 75.5469 50.5187 75.0156 48.4406 75.0156H37.9406V87.1094ZM37.9406 71.3594H47.6203C49.7297 71.3594 51.3703 70.875 52.5422 69.9062C53.7141 68.9219 54.3 67.5703 54.3 65.8516C54.3 64.1328 53.7609 62.7969 52.6828 61.8438C51.6203 60.8906 50.1281 60.4141 48.2062 60.4141H37.9406V71.3594ZM63.4125 80.9453C62.6312 78.7578 62.2406 76.3828 62.2406 73.8203C62.2406 71.2578 62.6312 68.8828 63.4125 66.6953C64.1937 64.4922 65.3031 62.5938 66.7406 61C68.1937 59.4062 69.9594 58.1641 72.0375 57.2734C74.1156 56.3672 76.4516 55.9141 79.0453 55.9141C81.6391 55.9141 83.975 56.3672 86.0531 57.2734C88.1312 58.1641 89.8891 59.4062 91.3266 61C92.7641 62.5938 93.8734 64.4922 94.6547 66.6953C95.4516 68.8828 95.85 71.2578 95.85 73.8203C95.85 76.3828 95.4516 78.7578 94.6547 80.9453C93.8734 83.1328 92.7641 85.0312 91.3266 86.6406C89.8891 88.2344 88.1312 89.4844 86.0531 90.3906C83.975 91.2812 81.6391 91.7266 79.0453 91.7266C76.4516 91.7266 74.1156 91.2812 72.0375 90.3906C69.9594 89.4844 68.1937 88.2344 66.7406 86.6406C65.3031 85.0312 64.1937 83.1328 63.4125 80.9453ZM67.4437 68.2188C66.9125 69.9375 66.6469 71.8047 66.6469 73.8203C66.6469 75.8359 66.9125 77.7109 67.4437 79.4453C67.975 81.1641 68.7641 82.6484 69.8109 83.8984C70.8734 85.1484 72.1703 86.1328 73.7016 86.8516C75.2484 87.5703 77.0297 87.9297 79.0453 87.9297C81.0609 87.9297 82.8344 87.5703 84.3656 86.8516C85.8969 86.1328 87.1937 85.1484 88.2562 83.8984C89.3187 82.6484 90.1078 81.1641 90.6234 79.4453C91.1547 77.7109 91.4203 75.8359 91.4203 73.8203C91.4203 71.8047 91.1547 69.9375 90.6234 68.2188C90.1078 66.4844 89.3187 64.9844 88.2562 63.7188C87.1937 62.4531 85.8969 61.4609 84.3656 60.7422C82.8344 60.0234 81.0609 59.6641 79.0453 59.6641C77.0297 59.6641 75.2484 60.0234 73.7016 60.7422C72.1703 61.4609 70.8734 62.4531 69.8109 63.7188C68.7641 64.9844 67.975 66.4844 67.4437 68.2188ZM99.2203 79.9141V56.6875H103.533V79.4688C103.533 85.0469 106.494 87.8359 112.416 87.8359C115.197 87.8359 117.353 87.1797 118.884 85.8672C120.431 84.5547 121.205 82.4219 121.205 79.4688V56.6875H125.517V79.9141C125.517 83.8516 124.298 86.7734 121.861 88.6797C119.423 90.5859 116.244 91.5391 112.322 91.5391C108.353 91.5391 105.173 90.5859 102.783 88.6797C100.408 86.7734 99.2203 83.8516 99.2203 79.9141ZM128.02 60.4609V56.6875H155.184V60.4609H143.77V91H139.434V60.4609H128.02ZM161.972 56.6875H166.777L176.62 73H176.714L186.698 56.6875H191.316L178.73 76.5625V91H174.417V76.4453L161.972 56.6875ZM190.772 80.9453C189.991 78.7578 189.6 76.3828 189.6 73.8203C189.6 71.2578 189.991 68.8828 190.772 66.6953C191.553 64.4922 192.663 62.5938 194.1 61C195.553 59.4062 197.319 58.1641 199.397 57.2734C201.475 56.3672 203.811 55.9141 206.405 55.9141C208.998 55.9141 211.334 56.3672 213.413 57.2734C215.491 58.1641 217.248 59.4062 218.686 61C220.123 62.5938 221.233 64.4922 222.014 66.6953C222.811 68.8828 223.209 71.2578 223.209 73.8203C223.209 76.3828 222.811 78.7578 222.014 80.9453C221.233 83.1328 220.123 85.0312 218.686 86.6406C217.248 88.2344 215.491 89.4844 213.413 90.3906C211.334 91.2812 208.998 91.7266 206.405 91.7266C203.811 91.7266 201.475 91.2812 199.397 90.3906C197.319 89.4844 195.553 88.2344 194.1 86.6406C192.663 85.0312 191.553 83.1328 190.772 80.9453ZM194.803 68.2188C194.272 69.9375 194.006 71.8047 194.006 73.8203C194.006 75.8359 194.272 77.7109 194.803 79.4453C195.334 81.1641 196.123 82.6484 197.17 83.8984C198.233 85.1484 199.53 86.1328 201.061 86.8516C202.608 87.5703 204.389 87.9297 206.405 87.9297C208.42 87.9297 210.194 87.5703 211.725 86.8516C213.256 86.1328 214.553 85.1484 215.616 83.8984C216.678 82.6484 217.467 81.1641 217.983 79.4453C218.514 77.7109 218.78 75.8359 218.78 73.8203C218.78 71.8047 218.514 69.9375 217.983 68.2188C217.467 66.4844 216.678 64.9844 215.616 63.7188C214.553 62.4531 213.256 61.4609 211.725 60.7422C210.194 60.0234 208.42 59.6641 206.405 59.6641C204.389 59.6641 202.608 60.0234 201.061 60.7422C199.53 61.4609 198.233 62.4531 197.17 63.7188C196.123 64.9844 195.334 66.4844 194.803 68.2188ZM226.58 79.9141V56.6875H230.892V79.4688C230.892 85.0469 233.853 87.8359 239.775 87.8359C242.556 87.8359 244.712 87.1797 246.244 85.8672C247.791 84.5547 248.564 82.4219 248.564 79.4688V56.6875H252.877V79.9141C252.877 83.8516 251.658 86.7734 249.22 88.6797C246.783 90.5859 243.603 91.5391 239.681 91.5391C235.712 91.5391 232.533 90.5859 230.142 88.6797C227.767 86.7734 226.58 83.8516 226.58 79.9141ZM257.536 91V56.6875H273.567C276.63 56.6875 279.083 57.5625 280.927 59.3125C282.77 61.0625 283.692 63.3203 283.692 66.0859C283.692 70.4766 281.708 73.3125 277.739 74.5938V74.7344C280.223 75.6406 281.645 77.0078 282.005 78.8359C282.364 80.6641 282.591 82.2344 282.684 83.5469C282.997 87.9531 283.528 90.375 284.278 90.8125V91H279.614C279.27 90.7188 279.02 90.0938 278.864 89.125C278.723 88.1406 278.567 86.2969 278.395 83.5938C278.223 80.875 277.591 79.0156 276.497 78.0156C275.419 77.0156 273.723 76.5156 271.411 76.5156H261.872V91H257.536ZM261.872 73H272.044C274.45 73 276.247 72.4453 277.434 71.3359C278.638 70.2109 279.239 68.6328 279.239 66.6016C279.239 64.5703 278.708 63.0312 277.645 61.9844C276.598 60.9375 274.809 60.4141 272.278 60.4141H261.872V73ZM68.3531 147V112.688H82.9078C86.5172 112.688 89.2672 113.68 91.1578 115.664C92.6266 117.195 93.3609 119.148 93.3609 121.523C93.3609 125.148 91.525 127.547 87.8531 128.719V128.859C89.8844 129.328 91.5406 130.273 92.8219 131.695C94.1188 133.117 94.7672 135.039 94.7672 137.461C94.7672 139.883 93.9313 141.977 92.2594 143.742C90.2594 145.914 87.4 147 83.6813 147H68.3531ZM72.6891 143.109H83.4703C85.8453 143.109 87.6422 142.531 88.8609 141.375C89.8766 140.297 90.3844 138.969 90.3844 137.391C90.3844 135.25 89.7047 133.656 88.3453 132.609C86.9859 131.547 85.2672 131.016 83.1891 131.016H72.6891V143.109ZM72.6891 127.359H82.3688C84.4781 127.359 86.1188 126.875 87.2906 125.906C88.4625 124.922 89.0484 123.57 89.0484 121.852C89.0484 120.133 88.5094 118.797 87.4313 117.844C86.3688 116.891 84.8766 116.414 82.9547 116.414H72.6891V127.359ZM98.0437 147V112.688H114.075C117.137 112.688 119.591 113.562 121.434 115.312C123.278 117.062 124.2 119.32 124.2 122.086C124.2 126.477 122.216 129.312 118.247 130.594V130.734C120.731 131.641 122.153 133.008 122.512 134.836C122.872 136.664 123.098 138.234 123.192 139.547C123.505 143.953 124.036 146.375 124.786 146.812V147H120.122C119.778 146.719 119.528 146.094 119.372 145.125C119.231 144.141 119.075 142.297 118.903 139.594C118.731 136.875 118.098 135.016 117.005 134.016C115.927 133.016 114.231 132.516 111.919 132.516H102.38V147H98.0437ZM102.38 129H112.552C114.958 129 116.755 128.445 117.942 127.336C119.145 126.211 119.747 124.633 119.747 122.602C119.747 120.57 119.216 119.031 118.153 117.984C117.106 116.938 115.317 116.414 112.786 116.414H102.38V129ZM125.508 147L138.141 112.688H142.992L155.672 147H150.961L147.305 136.547H133.641L129.938 147H125.508ZM134.883 133.031H146.109L142.172 121.523C141.688 120.039 141.359 119 141.188 118.406C141.016 117.812 140.836 117.234 140.648 116.672H140.555C140.367 117.203 140.195 117.734 140.039 118.266C139.883 118.797 139.703 119.352 139.5 119.93C139.297 120.508 139.117 121.039 138.961 121.523L134.883 133.031ZM158.175 147V112.688H162.745L178.378 136.547C179.316 138.047 180.152 139.516 180.886 140.953H180.98V112.688H185.011V147H180.605L164.855 123.094C164.558 122.656 164.136 121.953 163.589 120.984C163.027 120.016 162.597 119.297 162.3 118.828H162.206V147H158.175ZM190.256 147V112.688H202.748C207.78 112.688 211.569 114.242 214.116 117.352C216.678 120.461 217.959 124.648 217.959 129.914C217.959 135.18 216.631 139.344 213.975 142.406C211.319 145.469 207.459 147 202.397 147H190.256ZM194.592 143.203H202.256C209.772 143.203 213.53 138.742 213.53 129.82C213.53 120.883 209.889 116.414 202.608 116.414H194.592V143.203Z" fill="white"/>
</svg>
