<svg width="306" height="126" viewBox="0 0 306 126" fill="none" xmlns="http://www.w3.org/2000/svg">
<g clip-path="url(#clip0_1541_918)">
<path d="M180.279 25.7861C180.279 28.8731 182.783 31.3769 185.87 31.3769C188.957 31.3769 191.461 28.8731 191.461 25.7861C191.461 22.699 188.957 20.1953 185.87 20.1953C182.783 20.1953 180.279 22.699 180.279 25.7861Z" fill="#FF4040"/>
<path d="M184.204 34.8438L183.288 49.5313L188.532 49.5215L187.614 34.8535L184.204 34.8438Z" fill="#FF4040"/>
<path d="M171.766 45.0395L176.314 47.6547L182.852 34.4922L179.904 32.7793L171.766 45.0395Z" fill="#FF4040"/>
<path d="M177.211 28.8379L164.033 35.3859L166.664 39.9255L178.909 31.7958L177.211 28.8379Z" fill="#FF4040"/>
<path d="M176.852 24.0802L162.164 23.1621L162.172 28.4064L176.842 27.4903L176.852 24.0802Z" fill="#FF4040"/>
<path d="M178.916 19.7782L166.656 11.6406L164.041 16.188L177.204 22.7263L178.916 19.7782Z" fill="#FF4040"/>
<path d="M182.857 17.0865L176.309 3.9082L171.77 6.53916L179.899 18.7837L182.857 17.0865Z" fill="#FF4040"/>
<path d="M187.614 16.7266L188.532 2.03906L183.288 2.04689L184.204 16.7168L187.614 16.7266Z" fill="#FF4040"/>
<path d="M200.054 6.53131L195.507 3.91602L188.969 17.0786L191.917 18.7915L200.054 6.53131Z" fill="#FF4040"/>
<path d="M194.608 22.7321L207.787 16.1841L205.156 11.6445L192.911 19.7743L194.608 22.7321Z" fill="#FF4040"/>
<path d="M194.969 27.4883L209.656 28.4064L209.648 23.1621L194.979 24.0782L194.969 27.4883Z" fill="#FF4040"/>
<path d="M192.903 31.7918L205.163 39.9294L207.779 35.382L194.616 28.8438L192.903 31.7918Z" fill="#FF4040"/>
<path d="M188.963 34.4843L195.511 47.6626L200.05 45.0316L191.921 32.7871L188.963 34.4843Z" fill="#FF4040"/>
</g>
<path d="M16.9629 0.390625H23.3379L31.041 32C31.3066 32.9518 31.6165 34.3242 31.9707 36.1172C32.3249 37.9102 32.6237 39.2826 32.8672 40.2344H33C33.7305 36.9583 34.4056 34.1693 35.0254 31.8672L43.8242 0.390625H50.3984L58.8984 31.8672C59.1198 32.6862 59.3743 33.793 59.6621 35.1875C59.972 36.5599 60.3815 38.2422 60.8906 40.2344H61.0234C61.2448 39.2383 61.4661 38.2754 61.6875 37.3457C61.9089 36.416 62.1081 35.4863 62.2852 34.5566C62.4844 33.627 62.6947 32.7747 62.916 32L71.0176 0.390625H77.1934L63.6797 49H57.8359L48.9043 14.7344C48.6829 14.0039 48.4395 13.0078 48.1738 11.7461C47.9082 10.4844 47.5651 9.01237 47.1445 7.33008H47.0117C46.7904 8.23763 46.4915 9.48828 46.1152 11.082C45.7389 12.6758 45.429 13.8932 45.1855 14.7344L35.6562 49H29.5469L16.9629 0.390625ZM81.0051 49V0.390625H115.337V5.73633H87.1477V21.1094H112.78V26.2891H87.1477V43.3555H116.167V49H81.0051ZM130.73 49V0.390625H136.873V43.3555H162.373V49H130.73ZM208.419 0.390625H215.026L227.012 36.5488C227.19 37.1465 227.389 37.8659 227.61 38.707C227.854 39.5482 228.285 41.0091 228.905 43.0898H229.038C229.281 42.2708 229.514 41.485 229.735 40.7324C229.957 39.9798 230.156 39.2383 230.333 38.5078C230.51 37.7552 230.709 37.1022 230.93 36.5488L242.784 0.390625H249.159L232.093 49H225.352L208.419 0.390625ZM252.705 49V0.390625H287.037V5.73633H258.848V21.1094H284.48V26.2891H258.848V43.3555H287.867V49H252.705Z" fill="white"/>
<path d="M23.664 124.952C10.336 124.952 3.4 116.18 3.4 103.532C3.4 88.98 12.852 74.292 29.036 74.292C39.168 74.292 45.696 79.936 46.512 89.796H40.46C39.576 83.268 35.496 79.528 28.424 79.528C16.252 79.528 9.656 91.088 9.656 103.328C9.656 112.236 13.804 119.648 23.868 119.648C32.572 119.648 37.4 113.256 38.964 106.184H44.948C44.064 110.944 41.888 115.364 38.556 118.968C35.02 122.776 29.648 124.952 23.664 124.952ZM45.8724 124L55.2564 75.38H73.6844C77.5604 75.38 81.0284 76.332 83.4764 78.168C86.4684 80.412 87.9644 83.948 87.9644 88.096C87.9644 94.76 83.9524 99.112 78.5124 100.948V101.152C82.7964 103.124 83.6804 106.116 83.2044 113.324C82.6604 121.144 83.6804 123.116 84.4964 123.728V124H78.3764C77.4924 122.776 76.8124 120.872 77.3564 113.12C77.8324 105.98 75.9284 103.396 69.4684 103.396H55.8004L51.8564 124H45.8724ZM60.2204 80.616L56.7524 98.5H70.4204C77.2884 98.5 81.7084 94.896 81.7084 88.232C81.7084 83.2 78.5804 80.616 72.8004 80.616H60.2204ZM88.1997 124L97.5837 75.38H129.34L128.32 80.684H102.548L99.5557 96.12H123.22L122.2 101.22H98.5357L95.2717 118.424H122.54L121.452 124H88.1997ZM158.898 124L156.45 109.176H137.274L129.59 124H123.334L149.378 75.38H156.11L165.29 124H158.898ZM148.426 87.892L139.858 104.28H155.634L152.914 87.892C152.438 85.172 151.962 81.024 151.962 81.024H151.826C151.826 81.024 149.99 84.968 148.426 87.892ZM167.66 80.684L168.68 75.38H205.604L204.584 80.684H189.08L180.716 124H174.732L183.096 80.684H167.66ZM200.244 124L209.628 75.38H215.612L206.228 124H200.244ZM213.615 124L222.999 75.38H229.323L243.943 109.312C245.167 112.1 246.187 115.568 246.187 115.568H246.323L254.075 75.38H259.719L250.335 124H244.147L229.459 90C228.303 87.416 227.147 83.948 227.147 83.948H227.011L219.259 124H213.615ZM294.186 124V117.608H294.05C290.514 122.232 285.958 125.02 279.362 125.02C268.278 125.02 259.914 117.676 259.914 103.804C259.914 89.32 269.366 74.292 285.89 74.292C295.546 74.292 303.026 79.392 303.706 90H297.654C297.11 83.744 292.69 79.596 285.754 79.596C272.766 79.596 266.17 91.292 266.17 103.668C266.17 113.256 271.066 119.852 280.042 119.852C289.29 119.852 294.458 113.46 296.09 104.62L296.294 103.532H281.946L282.966 98.296H303.366L298.402 124H294.186Z" fill="white"/>
<defs>
<clipPath id="clip0_1541_918">
<rect width="47.4922" height="47.4922" fill="white" transform="translate(162.164 2.03906)"/>
</clipPath>
</defs>
</svg>
