<svg width="69" height="69" viewBox="0 0 69 69" fill="none" xmlns="http://www.w3.org/2000/svg">
<path d="M67.3515 4.42277C68.1783 3.49117 68.2045 2.41564 67.4326 1.61488C66.6241 0.777483 65.5121 0.806268 64.5335 1.69338C64.3532 1.8573 64.1831 2.03135 64.0134 2.20496C63.9392 2.2808 63.8652 2.35655 63.7904 2.43134L63.7706 2.45119C54.376 11.8469 44.9789 21.2453 35.5844 30.6463M67.3515 4.42277L34.0956 31.3188M67.3515 4.42277C67.2004 4.59275 67.0358 4.7526 66.871 4.91265C66.7846 4.99653 66.6982 5.08047 66.6136 5.16596L38.3134 33.4699C38.2446 33.5387 38.1766 33.6092 38.1085 33.6798C37.9641 33.8293 37.8192 33.9794 37.6646 34.1163L67.3515 4.42277ZM35.5844 30.6463L35.4076 30.4695C44.8066 21.0641 54.2082 11.6612 63.6072 2.26097L63.6136 2.25457C63.6841 2.18407 63.7558 2.11078 63.8286 2.03627C64.0006 1.86028 64.1794 1.67748 64.3653 1.50841L64.3656 1.50816C64.8878 1.03473 65.4653 0.772904 66.0401 0.757529C66.6192 0.74204 67.165 0.977775 67.6124 1.44123L67.6126 1.44138C68.0404 1.88522 68.2569 2.4177 68.2414 2.97666C68.2261 3.53261 67.9823 4.08863 67.5385 4.58872L67.5383 4.58885C67.3816 4.76518 67.2046 4.93716 67.0356 5.10143C66.951 5.18362 66.8684 5.26387 66.7913 5.34178L66.7904 5.34272L52.6403 19.4947L38.4902 33.6467C38.428 33.7089 38.3635 33.7757 38.2972 33.8443C38.1493 33.9975 37.9923 34.1601 37.8303 34.3035L37.829 34.3046C37.6988 34.4182 37.6811 34.4804 37.6799 34.4997C37.6794 34.5074 37.6776 34.5625 37.808 34.6764L37.8083 34.6766C37.9814 34.8281 38.1444 34.9977 38.2983 35.1578C38.3567 35.2187 38.4139 35.2782 38.4698 35.3347C47.9335 44.7998 57.3973 54.2648 66.8611 63.7325C66.9237 63.7951 66.9891 63.8589 67.0557 63.924C67.3325 64.1942 67.6321 64.4869 67.8628 64.8184L67.8629 64.8185C68.4983 65.7331 68.3264 66.8962 67.533 67.6374C66.7803 68.3433 65.6843 68.4676 64.8168 67.8615L64.8162 67.8611C64.4787 67.6239 64.1825 67.3195 63.9074 67.0369C63.8477 66.9756 63.789 66.9154 63.7312 66.857C56.6338 59.7626 49.5378 52.6653 42.4423 45.5683C40.0738 43.1993 37.7054 40.8304 35.337 38.4617C35.2752 38.3999 35.2086 38.3358 35.1399 38.2697C34.9867 38.1223 34.8231 37.9648 34.6793 37.8006L34.6792 37.8004C34.5644 37.669 34.5104 37.6728 34.5043 37.6733C34.4843 37.6748 34.4219 37.694 34.3068 37.8247L34.3064 37.8252C34.1543 37.9971 33.9846 38.1608 33.8236 38.3161C33.7637 38.3739 33.7051 38.4305 33.649 38.486C33.6488 38.4861 33.6487 38.4862 33.6486 38.4863L33.5604 38.5745C24.0635 48.0727 14.5691 57.5683 5.07481 67.0666L4.898 66.8898L5.07478 67.0666C5.04501 67.0964 5.01506 67.1266 4.98485 67.157C4.49074 67.6552 3.9256 68.225 2.85836 68.2415L2.6045 68.2454V68.2187C2.02851 68.1325 1.46607 67.7727 1.08907 67.1502L1.08899 67.15C0.652329 66.428 0.619352 65.6302 1.09645 64.9052C1.34051 64.5329 1.66459 64.2114 1.96289 63.9155C2.00284 63.8759 2.04233 63.8367 2.0811 63.7979C11.5424 54.3301 21.0064 44.8649 30.4729 35.3997C30.5324 35.3402 30.5943 35.2756 30.6584 35.2089C30.8078 35.0532 30.9686 34.8855 31.1364 34.7425L31.1366 34.7423C31.2918 34.6103 31.3215 34.5328 31.324 34.5C31.3254 34.4827 31.3231 34.4132 31.1625 34.2799L31.1623 34.2797C30.9964 34.1417 30.8367 33.975 30.6897 33.8215C30.6219 33.7507 30.5567 33.6827 30.4949 33.6216L30.4938 33.6205C25.7632 28.8879 21.0319 24.1553 16.3002 19.4224C11.5686 14.6895 6.83664 9.95623 2.10467 5.22232C2.03757 5.15521 1.96671 5.08677 1.89409 5.01664C1.65128 4.78215 1.38883 4.52869 1.1815 4.24224L1.18126 4.2419C0.530753 3.33994 0.656014 2.18567 1.42702 1.41456L1.60381 1.59133M35.5844 30.6463C35.5171 30.7136 35.448 30.78 35.3787 30.8464C35.2273 30.9916 35.0754 31.1373 34.9408 31.2953M35.5844 30.6463L35.4076 30.4696C35.3481 30.5291 35.2836 30.591 35.2168 30.6551C35.0612 30.8044 34.8937 30.9651 34.7508 31.1328M1.60381 1.59133L1.42669 1.4149C2.19542 0.643129 3.34972 0.518418 4.25381 1.17119C4.5395 1.37596 4.79284 1.63903 5.02632 1.88148C5.0974 1.95529 5.16664 2.02718 5.23439 2.09494C14.6902 11.5494 24.1459 21.0064 33.6043 30.466L33.6288 30.4905C33.686 30.5477 33.7489 30.6077 33.8143 30.67C33.9721 30.8205 34.1448 30.985 34.2886 31.1599M1.60381 1.59133C2.28934 0.903092 3.30716 0.795801 4.10781 1.37413L30.8843 33.663C30.8137 33.5891 30.743 33.5153 30.6706 33.4437C25.9401 28.7113 21.2089 23.9788 16.4774 19.246C11.7456 14.5129 7.01356 9.77959 2.28149 5.04558C2.20759 4.97167 2.13219 4.89881 2.05677 4.82593C1.81707 4.5943 1.57708 4.36239 1.38402 4.09566C0.808391 3.29752 0.915668 2.27956 1.60381 1.59133ZM34.2886 31.1599C34.2886 31.1599 34.2887 31.16 34.2887 31.1601L34.0956 31.3188M34.2886 31.1599C34.2884 31.1596 34.2882 31.1594 34.288 31.1592L34.0956 31.3188M34.2886 31.1599C34.4219 31.3204 34.4905 31.322 34.5071 31.3208C34.5396 31.3183 34.6171 31.2885 34.7508 31.1328M34.0956 31.3188C34.4018 31.6878 34.6556 31.6276 34.9408 31.2953M34.7508 31.1328C34.7507 31.1329 34.7506 31.133 34.7505 31.1331L34.9408 31.2953M34.7508 31.1328C34.7509 31.1327 34.7509 31.1326 34.751 31.1325L34.9408 31.2953" fill="#111111" stroke="#111111" stroke-width="0.5"/>
</svg>
