<svg width="50" height="298" viewBox="0 0 50 298" fill="none" xmlns="http://www.w3.org/2000/svg">
<path d="M25.3535 11.6464C25.1583 11.4512 24.8417 11.4512 24.6464 11.6464L21.4645 14.8284C21.2692 15.0237 21.2692 15.3403 21.4645 15.5355C21.6597 15.7308 21.9763 15.7308 22.1716 15.5355L25 12.7071L27.8284 15.5355C28.0237 15.7308 28.3403 15.7308 28.5355 15.5355C28.7308 15.3403 28.7308 15.0237 28.5355 14.8284L25.3535 11.6464ZM25.5 90L25.5 12L24.5 12L24.5 90L25.5 90Z" fill="black"/>
<path d="M40 283.99L40 274.42C40 272.11 39.25 270.25 37.96 269.05C36.91 268.06 35.5 267.49 33.85 267.49C30.97 267.49 29.23 269.38 28.66 271.81L28.57 271.81C27.91 269.68 26.44 268.36 24.07 268.36C22.54 268.36 21.31 268.87 20.41 269.74C19.15 270.94 18.55 272.65 18.55 274.9L18.55 283.99L40 283.99ZM37.57 281.29L30.01 281.29L30.01 274.72C30.01 272.11 31.33 270.22 34 270.22C35.02 270.22 35.86 270.58 36.49 271.18C37.18 271.9 37.57 273.01 37.57 274.54L37.57 281.29ZM27.73 281.29L20.89 281.29L20.89 274.87C20.89 272.47 22.15 271.06 24.22 271.06C26.44 271.06 27.73 272.62 27.73 275.23L27.73 281.29ZM40 266.393L40 263.633L33.46 261.323L33.46 252.773L40 250.493L40 247.553L18.55 255.473L18.55 258.503L40 266.393ZM24.07 257.993C22.84 257.573 21.04 257.003 21.04 257.003L21.04 256.943C21.04 256.943 22.87 256.403 24.07 255.983L31.27 253.523L31.27 260.543L24.07 257.993ZM40.42 237.045C40.42 234.315 39.64 232.125 38.17 230.625C36.67 229.095 34.27 228.075 32.14 228.045L32.14 230.715C35.29 230.985 38.05 232.905 38.05 236.955C38.05 241.425 34.51 244.335 29.26 244.335C24.22 244.335 20.41 241.695 20.41 236.985C20.41 233.595 22.24 231.465 24.91 230.955L24.91 228.315C20.95 228.885 18.07 231.915 18.07 236.925C18.07 243.315 22.96 247.095 29.26 247.095C35.77 247.095 40.42 243.135 40.42 237.045ZM40 225.015L40 222.315L32.41 222.315L28.96 218.865L40 210.795L40 207.645L27.13 217.035L18.55 208.365L18.55 211.755L29.2 222.315L18.55 222.315L18.55 225.015L40 225.015ZM20.92 202.283L20.92 195.143L40 195.143L40 192.443L20.92 192.443L20.92 185.303L18.55 185.303L18.55 202.283L20.92 202.283ZM40.45 174.28C40.45 167.8 35.68 163.78 29.26 163.78C22.84 163.78 18.07 167.8 18.07 174.28C18.07 180.76 22.84 184.78 29.26 184.78C35.68 184.78 40.45 180.76 40.45 174.28ZM38.08 174.28C38.08 179.32 34.3 182.02 29.26 182.02C24.22 182.02 20.41 179.32 20.41 174.28C20.41 169.24 24.22 166.54 29.26 166.54C34.3 166.54 38.08 169.24 38.08 174.28ZM20.92 157.137L20.92 149.997L40 149.997L40 147.297L20.92 147.297L20.92 140.157L18.55 140.157L18.55 157.137L20.92 157.137ZM40.45 129.134C40.45 122.654 35.68 118.634 29.26 118.634C22.84 118.634 18.07 122.654 18.07 129.134C18.07 135.614 22.84 139.634 29.26 139.634C35.68 139.634 40.45 135.614 40.45 129.134ZM38.08 129.134C38.08 134.174 34.3 136.874 29.26 136.874C24.22 136.874 20.41 134.174 20.41 129.134C20.41 124.094 24.22 121.394 29.26 121.394C34.3 121.394 38.08 124.094 38.08 129.134ZM40 115.416L40 112.716L31 112.716L31 106.866C31 102.186 28.63 99.9358 24.7 99.9358C23.08 99.9358 21.67 100.476 20.62 101.376C19.3 102.486 18.55 104.226 18.55 106.476L18.55 115.416L40 115.416ZM20.89 112.716L20.89 106.926C20.89 104.196 22.24 102.606 24.82 102.606C27.28 102.606 28.81 104.046 28.81 107.076L28.81 112.716L20.89 112.716Z" fill="black"/>
</svg>
