<svg width="62" height="62" viewBox="0 0 62 62" fill="none" xmlns="http://www.w3.org/2000/svg">
<g clip-path="url(#clip0_1440_104)">
<circle cx="31" cy="31" r="31" fill="#4077FE"/>
<path d="M11.7953 29V17.5625H16.6469C17.85 17.5625 18.7667 17.8932 19.3969 18.5547C19.8865 19.0651 20.1313 19.7161 20.1313 20.5078C20.1313 21.7161 19.5193 22.5156 18.2953 22.9062V22.9531C18.9724 23.1094 19.5245 23.4245 19.9516 23.8984C20.3839 24.3724 20.6 25.013 20.6 25.8203C20.6 26.6276 20.3214 27.3255 19.7641 27.9141C19.0974 28.638 18.1443 29 16.9047 29H11.7953ZM13.2406 27.7031H16.8344C17.626 27.7031 18.225 27.5104 18.6313 27.125C18.9698 26.7656 19.1391 26.3229 19.1391 25.7969C19.1391 25.0833 18.9125 24.5521 18.4594 24.2031C18.0063 23.849 17.4333 23.6719 16.7406 23.6719H13.2406V27.7031ZM13.2406 22.4531H16.4672C17.1703 22.4531 17.7172 22.2917 18.1078 21.9688C18.4984 21.6406 18.6938 21.1901 18.6938 20.6172C18.6938 20.0443 18.5141 19.599 18.1547 19.2812C17.8005 18.9635 17.3031 18.8047 16.6625 18.8047H13.2406V22.4531ZM20.7781 29L24.9891 17.5625H26.6063L30.8328 29H29.2625L28.0438 25.5156H23.4891L22.2547 29H20.7781ZM23.9031 24.3438H27.6453L26.3328 20.5078C26.1714 20.013 26.062 19.6667 26.0047 19.4688C25.9474 19.2708 25.8875 19.0781 25.825 18.8906H25.7938C25.7313 19.0677 25.674 19.2448 25.6219 19.4219C25.5698 19.599 25.5099 19.7839 25.4422 19.9766C25.3745 20.1693 25.3146 20.3464 25.2625 20.5078L23.9031 24.3438ZM32.1359 27.5547C31.162 26.4401 30.675 25.013 30.675 23.2734C30.675 21.5339 31.1646 20.1042 32.1438 18.9844C33.1229 17.8646 34.4406 17.3047 36.0969 17.3047C37.4042 17.3047 38.4589 17.6432 39.2609 18.3203C40.063 18.9974 40.5396 19.875 40.6906 20.9531H39.2844C39.1438 20.2396 38.7974 19.6615 38.2453 19.2188C37.6984 18.776 36.9719 18.5547 36.0656 18.5547C34.8469 18.5547 33.8885 18.9948 33.1906 19.875C32.4927 20.75 32.1438 21.8854 32.1438 23.2812C32.1438 24.6771 32.5005 25.8073 33.2141 26.6719C33.9276 27.5312 34.8833 27.9609 36.0813 27.9609C37.0969 27.9609 37.8885 27.6641 38.4563 27.0703C39.024 26.4766 39.3417 25.7214 39.4094 24.8047H40.8313C40.8208 25.3828 40.5604 26.2656 40.05 27.4531C39.5396 28.6354 38.201 29.2266 36.0344 29.2266C34.4146 29.2266 33.1151 28.6693 32.1359 27.5547ZM42.0484 29V17.5625H43.4937V23.2422L49.1187 17.5625H50.9312L46.3062 22.1328L51.3141 29H49.6344L45.3297 23.1094L43.4937 24.9531V29H42.0484ZM10.9875 45C11.0448 43.7031 11.3859 42.7448 12.0109 42.125C12.6411 41.5052 13.1932 41.0495 13.6672 40.7578C14.1464 40.4609 14.5969 40.1927 15.0187 39.9531C15.8833 39.4635 16.5005 39.0286 16.8703 38.6484C17.2401 38.2682 17.425 37.7604 17.425 37.125C17.425 36.4896 17.2115 35.9635 16.7844 35.5469C16.3573 35.1302 15.7766 34.9219 15.0422 34.9219C14.3078 34.9219 13.7245 35.151 13.2922 35.6094C13.0786 35.8438 12.9224 36.1276 12.8234 36.4609C12.7245 36.7891 12.675 37.2344 12.675 37.7969H11.2609C11.2609 36.5156 11.6073 35.5234 12.3 34.8203C13.0031 34.138 13.9328 33.7969 15.0891 33.7969C16.2453 33.7969 17.1542 34.112 17.8156 34.7422C18.4823 35.3672 18.8156 36.1615 18.8156 37.125C18.8156 38.0833 18.5865 38.7865 18.1281 39.2344C17.6698 39.6771 17.2427 40.013 16.8469 40.2422C16.4562 40.4714 16.0786 40.6875 15.7141 40.8906C14.8443 41.3698 14.1437 41.8281 13.6125 42.2656C13.0812 42.6979 12.7453 43.1823 12.6047 43.7188H18.5891V45H10.9875ZM21.4844 34.8203V33.5625H30.5391V34.8203H26.7344V45H25.2891V34.8203H21.4844ZM30.8109 41.6484C30.5505 40.9193 30.4203 40.1276 30.4203 39.2734C30.4203 38.4193 30.5505 37.6276 30.8109 36.8984C31.0714 36.1641 31.4411 35.5312 31.9203 35C32.4047 34.4688 32.9932 34.0547 33.6859 33.7578C34.3786 33.4557 35.1573 33.3047 36.0219 33.3047C36.8865 33.3047 37.6651 33.4557 38.3578 33.7578C39.0505 34.0547 39.6365 34.4688 40.1156 35C40.5948 35.5312 40.9646 36.1641 41.225 36.8984C41.4906 37.6276 41.6234 38.4193 41.6234 39.2734C41.6234 40.1276 41.4906 40.9193 41.225 41.6484C40.9646 42.3776 40.5948 43.0104 40.1156 43.5469C39.6365 44.0781 39.0505 44.4948 38.3578 44.7969C37.6651 45.0938 36.8865 45.2422 36.0219 45.2422C35.1573 45.2422 34.3786 45.0938 33.6859 44.7969C32.9932 44.4948 32.4047 44.0781 31.9203 43.5469C31.4411 43.0104 31.0714 42.3776 30.8109 41.6484ZM32.1547 37.4062C31.9776 37.9792 31.8891 38.6016 31.8891 39.2734C31.8891 39.9453 31.9776 40.5703 32.1547 41.1484C32.3318 41.7214 32.5948 42.2161 32.9437 42.6328C33.2979 43.0495 33.7302 43.3776 34.2406 43.6172C34.7562 43.8568 35.35 43.9766 36.0219 43.9766C36.6937 43.9766 37.2849 43.8568 37.7953 43.6172C38.3057 43.3776 38.738 43.0495 39.0922 42.6328C39.4464 42.2161 39.7094 41.7214 39.8812 41.1484C40.0583 40.5703 40.1469 39.9453 40.1469 39.2734C40.1469 38.6016 40.0583 37.9792 39.8812 37.4062C39.7094 36.8281 39.4464 36.3281 39.0922 35.9062C38.738 35.4844 38.3057 35.1536 37.7953 34.9141C37.2849 34.6745 36.6937 34.5547 36.0219 34.5547C35.35 34.5547 34.7562 34.6745 34.2406 34.9141C33.7302 35.1536 33.2979 35.4844 32.9437 35.9062C32.5948 36.3281 32.3318 36.8281 32.1547 37.4062ZM42.9344 45V33.5625H47.7078C48.8953 33.5625 49.8016 33.9297 50.4266 34.6641C50.937 35.2422 51.1922 36.013 51.1922 36.9766C51.1922 37.9453 50.8901 38.7266 50.2859 39.3203C49.687 39.9089 48.7573 40.2031 47.4969 40.2031H44.3797V45H42.9344ZM44.3797 39.0312H47.3875C48.2 39.0312 48.799 38.8438 49.1844 38.4688C49.575 38.0885 49.7703 37.5599 49.7703 36.8828C49.7703 36.2057 49.5698 35.6901 49.1687 35.3359C48.7677 34.9818 48.2 34.8047 47.4656 34.8047H44.3797V39.0312Z" fill="white"/>
</g>
<defs>
<clipPath id="clip0_1440_104">
<rect width="62" height="62" fill="white"/>
</clipPath>
</defs>
</svg>
