<svg width="62" height="62" viewBox="0 0 62 62" fill="none" xmlns="http://www.w3.org/2000/svg">
<g clip-path="url(#clip0_2875_3506)">
<circle cx="31" cy="31" r="31" fill="#FF4040"/>
<path d="M11.797 29V17.56H16.645C17.845 17.56 18.757 17.88 19.397 18.552C19.861 19.032 20.133 19.688 20.133 20.504C20.133 21.768 19.429 22.552 18.293 22.904V22.952C19.589 23.256 20.597 24.184 20.597 25.72C20.597 26.6 20.293 27.352 19.765 27.912C19.125 28.6 18.133 29 16.901 29H11.797ZM13.237 27.704H16.837C17.653 27.704 18.245 27.496 18.629 27.128C18.949 26.792 19.141 26.344 19.141 25.8C19.141 24.376 18.133 23.672 16.741 23.672H13.237V27.704ZM13.237 22.456H16.469C17.861 22.456 18.693 21.768 18.693 20.584C18.693 19.48 17.941 18.808 16.661 18.808H13.237V22.456ZM20.7819 29L24.9899 17.56H26.6059L30.8299 29H29.2619L28.0459 25.512H23.4859L22.2539 29H20.7819ZM25.2619 20.504L23.9019 24.344H27.6459L26.3339 20.504C26.1099 19.864 25.8219 18.888 25.8219 18.888H25.7899C25.7899 18.888 25.4859 19.848 25.2619 20.504ZM36.0344 29.224C32.7864 29.224 30.6744 26.744 30.6744 23.272C30.6744 19.912 32.6904 17.304 36.0984 17.304C38.7704 17.304 40.3864 18.84 40.6904 20.952H39.2824C39.0104 19.528 37.8744 18.552 36.0664 18.552C33.5544 18.552 32.1464 20.584 32.1464 23.272C32.1464 26.072 33.6984 27.96 36.0824 27.96C38.2424 27.96 39.2664 26.488 39.4104 24.808H40.8344C40.8184 25.944 40.2744 27.224 39.4584 28.024C38.6584 28.808 37.4904 29.224 36.0344 29.224ZM42.0501 29V17.56H43.4901V23.24L49.1221 17.56H50.9301L46.3061 22.136L51.3141 29H49.6341L45.3301 23.112L43.4901 24.952V29H42.0501ZM10.9913 45C11.1193 42.072 13.1833 41 15.1033 39.896C16.5433 39.064 17.4233 38.504 17.4233 37.176C17.4233 35.832 16.4953 34.92 15.0393 34.92C14.2713 34.92 13.6953 35.176 13.2953 35.608C12.8633 36.072 12.6713 36.68 12.6713 37.8H11.2633C11.2633 36.392 11.6313 35.496 12.3033 34.824C13.0073 34.136 14.0313 33.8 15.1513 33.8C17.3753 33.8 18.8153 35.208 18.8153 37.16C18.8153 39.272 17.3753 39.976 15.6153 40.952C14.4313 41.608 12.9113 42.504 12.6073 43.72H18.5913V45H10.9913ZM21.4848 34.824V33.56H30.5408V34.824H26.7328V45H25.2928V34.824H21.4848ZM36.0197 45.24C32.5637 45.24 30.4197 42.696 30.4197 39.272C30.4197 35.848 32.5637 33.304 36.0197 33.304C39.4757 33.304 41.6197 35.848 41.6197 39.272C41.6197 42.696 39.4757 45.24 36.0197 45.24ZM36.0197 43.976C38.7077 43.976 40.1477 41.96 40.1477 39.272C40.1477 36.584 38.7077 34.552 36.0197 34.552C33.3317 34.552 31.8917 36.584 31.8917 39.272C31.8917 41.96 33.3317 43.976 36.0197 43.976ZM42.9361 45V33.56H47.7041C48.9041 33.56 49.8321 33.96 50.4241 34.664C50.9041 35.224 51.1921 35.976 51.1921 36.84C51.1921 38.936 49.9921 40.2 47.4961 40.2H44.3761V45H42.9361ZM44.3761 34.808V39.032H47.3841C49.0001 39.032 49.7681 38.216 49.7681 36.904C49.7681 35.528 48.9201 34.808 47.4641 34.808H44.3761Z" fill="white"/>
</g>
<defs>
<clipPath id="clip0_2875_3506">
<rect width="62" height="62" fill="white"/>
</clipPath>
</defs>
</svg>
