<svg width="40" height="40" viewBox="0 0 40 40" fill="none" xmlns="http://www.w3.org/2000/svg">
<path d="M10.5536 29.9967C10.3849 29.9943 10.2068 29.8998 10.0904 29.7077C9.97326 29.5139 9.96623 29.3069 10.0912 29.1171C10.1685 28.9992 10.2747 28.8992 10.3755 28.7984C13.1998 25.9722 16.0248 23.1468 18.8507 20.3213C18.9147 20.2573 18.9756 20.1878 19.0444 20.1292C19.1435 20.0448 19.1615 19.9683 19.0514 19.8769C18.9819 19.8191 18.9217 19.7488 18.8569 19.6847C16.0326 16.8593 13.2076 14.0338 10.3825 11.2076C10.2904 11.1155 10.1904 11.0288 10.1146 10.9241C9.9428 10.6858 9.97483 10.382 10.1802 10.1765C10.3849 9.97107 10.6887 9.93905 10.9277 10.1117C11.0324 10.1867 11.1191 10.2874 11.2112 10.3796C14.0363 13.2043 16.8613 16.0297 19.6872 18.8559C19.7512 18.9199 19.8215 18.9801 19.8793 19.0504C19.9707 19.1605 20.0464 19.1426 20.1316 19.0434C20.1902 18.9746 20.2597 18.9137 20.3237 18.8496C23.13 16.0414 25.9371 13.2339 28.7434 10.4273C28.8168 10.3538 28.8879 10.2773 28.9652 10.207C29.2573 9.94217 29.5893 9.93358 29.8306 10.1835C30.061 10.4226 30.0532 10.7436 29.8064 11.0217C29.7377 11.0991 29.6596 11.1694 29.5862 11.2436C26.7705 14.0596 23.954 16.8765 21.1383 19.6925C21.0743 19.7566 21.0126 19.8253 20.9446 19.8855C20.8587 19.9604 20.8462 20.0284 20.9384 20.1089C21.0071 20.169 21.068 20.237 21.1321 20.3018C23.9571 23.1272 26.7822 25.9527 29.6072 28.7789C29.708 28.8796 29.8173 28.9773 29.8978 29.0929C30.0649 29.3335 30.0212 29.6397 29.8095 29.8373C29.6088 30.0256 29.3206 30.0568 29.0925 29.8975C28.9769 29.8162 28.8793 29.7077 28.7786 29.6061C25.9527 26.7815 23.1277 23.9553 20.3026 21.1298C20.2386 21.0658 20.1698 21.0048 20.1097 20.9361C20.0285 20.8431 19.9613 20.858 19.8863 20.9431C19.8262 21.0111 19.7582 21.0728 19.6934 21.1369C16.8496 23.981 14.0066 26.8244 11.1636 29.6686C11.0066 29.8256 10.8574 29.9928 10.5536 29.9975V29.9967Z" fill="white"/>
</svg>
