<svg width="17" height="17" viewBox="0 0 17 17" fill="none" xmlns="http://www.w3.org/2000/svg">
<path d="M15.2239 1.15524C15.443 0.956627 15.692 0.950183 15.873 1.13766C16.0458 1.31693 16.0399 1.55772 15.8548 1.76629C15.821 1.80435 15.7841 1.84013 15.7472 1.87596C15.7279 1.89474 15.7086 1.91354 15.6896 1.93268L9.35376 8.26938C9.33835 8.28479 9.32312 8.30056 9.30786 8.31637C9.27555 8.34984 9.2431 8.38345 9.20848 8.41409C9.14405 8.47033 9.13467 8.5213 9.2038 8.58165C9.24061 8.61387 9.27445 8.64908 9.30828 8.68429C9.32181 8.69838 9.33535 8.71246 9.34907 8.72636C11.4679 10.8454 13.5866 12.9645 15.7054 15.0842M15.2239 1.15524L1.87269 15.7514C4.0035 13.6198 6.13431 11.4887 8.26571 9.35699L8.27005 9.35264C8.28366 9.3392 8.29745 9.32589 8.31125 9.31258C8.34674 9.27833 8.38226 9.24405 8.41474 9.20735C8.47098 9.14349 8.52135 9.13236 8.58228 9.20208C8.61286 9.23703 8.6464 9.2693 8.67981 9.30142C8.69567 9.31668 8.7115 9.3319 8.72697 9.34737C9.25803 9.87851 9.7891 10.4097 10.3202 10.9409C11.9079 12.5289 13.4958 14.1171 15.0839 15.7046C15.0977 15.7185 15.1115 15.7326 15.1252 15.7467C15.1867 15.8098 15.2485 15.8733 15.3194 15.9231C15.4904 16.0426 15.7066 16.0192 15.8572 15.878M15.2239 1.15524C15.1836 1.19194 15.1455 1.23091 15.1075 1.26978C15.0909 1.28675 15.0743 1.30371 15.0576 1.32045C12.9528 3.42546 10.8475 5.53105 8.74278 7.63723M15.2239 1.15524L8.74278 7.63723M15.7054 15.0842C15.7205 15.0992 15.7359 15.1142 15.7512 15.1292C15.8129 15.1895 15.875 15.2503 15.9233 15.3197C16.0487 15.5001 16.0159 15.7298 15.8572 15.878M15.7054 15.0842L15.8822 14.9074M15.7054 15.0842L15.8822 14.9074C15.8822 14.9074 15.8822 14.9074 15.8822 14.9074M15.8572 15.878L16.0278 16.0607C16.0278 16.0607 16.0278 16.0607 16.0279 16.0606M15.8572 15.878L16.0282 16.0603C16.0281 16.0604 16.028 16.0605 16.0279 16.0606M16.0279 16.0606C15.7971 16.2768 15.4506 16.3198 15.1762 16.128L15.1756 16.1276C15.0835 16.0629 15.0015 15.9783 14.9403 15.9153C14.9281 15.9028 14.9168 15.8911 14.9064 15.8807L15.0839 15.7046L14.9072 15.8814C13.3192 14.2941 11.7315 12.7061 10.144 11.1182C9.61271 10.5868 9.08144 10.0555 8.55018 9.52414C8.54135 9.51531 8.52983 9.50422 8.5167 9.49157C8.51176 9.48681 8.50659 9.48184 8.50125 9.47668M16.0279 16.0606C16.2712 15.8333 16.3295 15.4662 16.1287 15.177L16.1286 15.1769C16.0651 15.0857 15.9805 15.0034 15.9185 14.943C15.9052 14.9301 15.893 14.9182 15.8822 14.9074M8.50125 9.47668L8.56599 7.46047C10.6707 5.35428 12.7761 3.24867 14.8808 1.14368C14.8935 1.13099 14.9076 1.11654 14.9227 1.10104C14.9627 1.06022 15.0096 1.0122 15.0557 0.970261L15.056 0.970015C15.1985 0.840832 15.3704 0.756722 15.556 0.751755C15.746 0.746675 15.9191 0.825515 16.0528 0.964013L16.053 0.964159C16.1813 1.09726 16.253 1.26569 16.248 1.44789C16.2431 1.6271 16.1648 1.79367 16.0418 1.93224L16.0417 1.93237C16.0019 1.97707 15.9517 2.02597 15.9114 2.0652C15.8944 2.08168 15.8792 2.09646 15.8673 2.1085L15.8664 2.10944L12.6985 5.27779L9.53054 8.44615C9.52118 8.45552 9.50966 8.46743 9.49671 8.48083C9.49077 8.48697 9.48454 8.49342 9.47807 8.50009C9.4843 8.50655 9.49031 8.5128 9.49605 8.51877C9.50735 8.53055 9.5176 8.54121 9.52642 8.55015C11.645 10.669 13.7636 12.7879 15.8822 14.9074M8.50125 9.47668C8.53365 9.44522 8.57017 9.40895 8.60196 9.37303L8.60236 9.37257C8.60405 9.37065 8.60491 9.36982 8.60493 9.36981C8.60496 9.3698 8.60401 9.37075 8.60209 9.37233C8.60194 9.37246 8.60178 9.37259 8.60161 9.37272C8.59972 9.37426 8.597 9.37632 8.59346 9.37865C8.58108 9.38679 8.55428 9.401 8.51552 9.40392C8.4437 9.40932 8.40219 9.3742 8.3942 9.36662C8.39416 9.36659 8.39412 9.36655 8.39409 9.36652C8.39321 9.36568 8.39277 9.36521 8.39277 9.3652C8.39278 9.3652 8.39319 9.36563 8.39402 9.36658L8.39412 9.36669C8.42693 9.40419 8.4675 9.44407 8.50125 9.47668ZM8.50125 9.47668C8.49324 9.48446 8.48548 9.49195 8.4781 9.49907C8.46633 9.51042 8.45553 9.52083 8.44627 9.52998L8.44684 9.52941L8.27007 9.35266L8.44577 9.53048L8.42958 9.54667C6.30249 11.674 4.17599 13.8008 2.0495 15.9282L2.04947 15.9282C2.04239 15.9353 2.035 15.9428 2.02729 15.9506C1.91677 16.0629 1.73925 16.2431 1.41904 16.2481L1.16519 16.252V16.192M8.50125 9.47668L1.41171 16.2475C1.32665 16.2463 1.24309 16.2272 1.16519 16.192M1.16519 16.192C1.04176 16.1362 0.932527 16.04 0.853974 15.9102L0.853893 15.9101C0.721837 15.6918 0.707147 15.4322 0.859322 15.2008C0.92608 15.0989 1.01443 15.0115 1.07985 14.9468C1.08861 14.9382 1.09696 14.9299 1.10479 14.9221C3.22302 12.8024 5.34182 10.6833 7.4612 8.56424C7.46121 8.56423 7.46122 8.56422 7.46123 8.56421M1.16519 16.192L7.46123 8.56421M7.46123 8.56421C7.46924 8.5562 7.47951 8.5455 7.49137 8.53313C7.50113 8.52296 7.51198 8.51166 7.52352 8.49982M7.46123 8.56421L7.52352 8.49982M7.52352 8.49982C7.51332 8.48932 7.50381 8.4794 7.49533 8.47056C7.48358 8.45831 7.47382 8.44813 7.46696 8.44136L7.46586 8.44027L7.46586 8.44026L4.28821 5.2616L1.11011 2.08249C1.09967 2.07205 1.08718 2.06002 1.0733 2.04666C1.01823 1.99362 0.941249 1.91949 0.883456 1.83964L0.883208 1.8393C0.679512 1.55686 0.721446 1.19275 0.958226 0.955789C1.19491 0.718319 1.55915 0.676952 1.84178 0.880819C1.92199 0.938369 1.99684 1.01633 2.04959 1.07127C2.06298 1.08522 2.07494 1.09768 2.08518 1.10792C4.20371 3.22614 6.32223 5.34495 8.44133 7.46433L8.44215 7.46516C8.44903 7.47203 8.45869 7.48124 8.47016 7.49217C8.47968 7.50124 8.49043 7.51148 8.50184 7.52255C8.51359 7.51109 8.5248 7.50034 8.53489 7.49065C8.54724 7.47879 8.55794 7.46853 8.56594 7.46052L7.52352 8.49982ZM8.74278 7.63723C8.72771 7.65231 8.71223 7.66715 8.69673 7.68202C8.66284 7.71453 8.62883 7.74715 8.59868 7.78253C8.53483 7.85693 8.47801 7.87041 8.40947 7.7878M8.74278 7.63723L8.26452 7.64107L8.26537 7.64192C8.2802 7.65676 8.29549 7.67132 8.3108 7.68591C8.34508 7.71856 8.37951 7.75136 8.40947 7.7878M8.40947 7.7878L8.50892 7.70604L8.59864 7.7825L8.50924 7.70578L8.60242 7.62917C8.60311 7.6298 8.60366 7.63032 8.60406 7.63072M8.40947 7.7878L8.50847 7.70566M8.60406 7.63072C8.60464 7.63137 8.60493 7.63165 8.60493 7.63163C8.60492 7.63161 8.60463 7.63129 8.60406 7.63072ZM8.60406 7.63072C8.60355 7.63016 8.60282 7.62932 8.60187 7.62817L8.60157 7.62842M8.60157 7.62842C8.59043 7.61858 8.5516 7.58983 8.48684 7.59477C8.44776 7.59774 8.42176 7.61249 8.41143 7.6195C8.4109 7.61986 8.41039 7.62021 8.40992 7.62054M8.60157 7.62842L8.50879 7.70539M8.60157 7.62842L8.50879 7.70539M8.40992 7.62054L8.40896 7.61972C8.40886 7.61983 8.40877 7.61994 8.40867 7.62005C8.40199 7.6278 8.40212 7.62616 8.4092 7.62106M8.40992 7.62054C8.40967 7.62072 8.40943 7.62089 8.4092 7.62106M8.40992 7.62054L8.50879 7.70539M8.4092 7.62106L8.50847 7.70566M8.4092 7.62106L8.4084 7.62038L8.4092 7.62106ZM8.4092 7.62106L8.50847 7.70566M8.50847 7.70566L8.50879 7.70539M7.6322 8.60295C7.63218 8.60295 7.6319 8.60269 7.63139 8.60218C7.63196 8.6027 7.63222 8.60295 7.6322 8.60295Z" fill="#111111" stroke="#111111" stroke-width="0.5"/>
</svg>
