<svg width="268" height="26" viewBox="0 0 268 26" fill="none" xmlns="http://www.w3.org/2000/svg">
<path d="M14.4461 9.35746H7.06366V0H0V25.498H7.06366V15.4251H14.4461V25.498H21.5025V0H14.4461V9.35746Z" fill="black"/>
<path d="M24.1541 25.498H43.3238V19.6338H31.2105V15.362H41.8531V9.49074H31.2105V5.8642H43.3238V0H24.1541V25.498Z" fill="black"/>
<path d="M60.6533 13.2926L53.4954 0.231481L53.365 0H45.816V25.498H52.5826V11.7915L59.5738 25.2595L59.7042 25.498H66.9635V0H60.6533V13.2926Z" fill="black"/>
<path d="M89.5817 8.2211C89.5817 2.84091 85.981 0 79.1709 0H69.3687V25.498H76.4251V16.8841H78.6275L83.2859 25.498H91.2117L85.4087 15.5303C88.0892 14.0993 89.5817 11.5811 89.5817 8.2211V8.2211ZM78.7 11.2865H76.4251V5.59063H78.7C81.9819 5.59063 82.6556 6.64282 82.6556 8.2211C82.6556 10.2553 81.3226 11.2865 78.7 11.2865Z" fill="black"/>
<path d="M99.5722 0H92.5158V25.5051H99.5722V0Z" fill="black"/>
<path d="M126.392 11.8757C128.211 10.7464 129.153 8.46661 129.153 6.55864C129.153 2.20959 125.806 0 119.22 0H109.882V25.498H119.974C126.487 25.498 130.384 22.6221 130.384 17.796C130.384 14.9691 128.943 12.8507 126.4 11.8687L126.392 11.8757ZM116.938 5.45735H119.024C121.691 5.45735 122.241 6.25 122.241 7.44248C122.241 8.97867 121.154 9.75729 119.003 9.75729H116.938V5.45735V5.45735ZM119.503 20.0407H116.938V15.0182H119.503C122.98 15.0182 123.458 16.1616 123.458 17.3962C123.458 18.5255 123.053 20.0337 119.503 20.0337V20.0407Z" fill="black"/>
<path d="M146.605 0H138.549L130.558 24.9299L130.377 25.498H137.636L139.085 19.8934H145.866L147.308 25.498H154.777L146.707 0.308641L146.605 0V0ZM140.498 14.401L140.882 12.9068C141.425 10.9498 141.969 8.66302 142.461 6.51655C142.606 7.10578 142.751 7.70202 142.896 8.30527C143.28 9.86953 143.671 11.4899 144.062 12.8998L144.446 14.401H140.498Z" fill="black"/>
<path d="M176.309 8.2211C176.309 2.84091 172.708 0 165.898 0H156.096V25.498H163.152V16.8841H165.355L170.013 25.498H177.939L172.143 15.5303C174.824 14.0993 176.316 11.5811 176.316 8.2211H176.309ZM165.427 11.2865H163.152V5.59063H165.427C168.709 5.59063 169.383 6.64282 169.383 8.2211C169.383 10.2553 168.05 11.2865 165.427 11.2865Z" fill="black"/>
<path d="M199.463 8.2211C199.463 2.84091 195.863 0 189.052 0H179.25V25.498H186.307V16.8841H188.509L193.167 25.498H201.093L195.297 15.5303C197.978 14.0993 199.47 11.5811 199.47 8.2211H199.463ZM188.581 11.2865H186.307V5.59063H188.581C191.863 5.59063 192.537 6.64282 192.537 8.2211C192.537 10.2553 191.204 11.2865 188.581 11.2865Z" fill="black"/>
<path d="M202.397 0V25.498H219.444H221.567V19.6338H219.444H209.454V15.362H217.974H220.096V9.49074H217.974H209.454V5.8642H219.444H221.567V0H219.444H202.397Z" fill="black"/>
<path d="M223.9 5.8642H230.79V25.498H237.853V5.8642H244.743V0H223.9V5.8642Z" fill="black"/>
<path d="M246.808 0V5.8642H253.698V25.498H260.754V5.8642H267.644V0H246.808Z" fill="black"/>
</svg>
