<svg width="70" height="70" viewBox="0 0 70 70" fill="none" xmlns="http://www.w3.org/2000/svg">
<path d="M26.7019 35.0001C26.7019 39.5469 30.3944 43.2394 34.9413 43.2394C39.4881 43.2394 43.1806 39.5469 43.1806 35.0001C43.1806 30.4532 39.4881 26.7607 34.9413 26.7607C30.3944 26.7607 26.7019 30.4532 26.7019 35.0001Z" fill="#FF0000"/>
<path d="M32.486 48.356L31.1406 70.0001L38.8693 69.9903L37.5141 48.3658L32.486 48.356Z" fill="#FF0000"/>
<path d="M14.1514 63.3807L20.8587 67.2401L30.4926 47.835L26.1519 45.3112L14.1514 63.3807Z" fill="#FF0000"/>
<path d="M22.1848 39.4977L2.76001 49.1511L6.62926 55.8486L24.6792 43.8579L22.1848 39.4977Z" fill="#FF0000"/>
<path d="M21.6442 32.4859L0 31.1405L0.00982044 38.8692L21.6344 37.5139L21.6442 32.4859Z" fill="#FF0000"/>
<path d="M24.6981 26.1521L6.61865 14.1516L2.76904 20.8589L22.1644 30.4927L24.6981 26.1521Z" fill="#FF0000"/>
<path d="M30.5026 22.1843L20.8491 2.75952L14.1614 6.62876L26.1423 24.6786L30.5026 22.1843Z" fill="#FF0000"/>
<path d="M37.5141 21.6442L38.8693 0L31.1406 0.0098204L32.486 21.6343L37.5141 21.6442Z" fill="#FF0000"/>
<path d="M55.8483 6.61864L49.1507 2.76904L39.5071 22.1643L43.8575 24.698L55.8483 6.61864Z" fill="#FF0000"/>
<path d="M47.8255 30.502L67.2503 20.8486L63.3713 14.1609L45.3213 26.1418L47.8255 30.502Z" fill="#FF0000"/>
<path d="M48.3557 37.5139L70 38.8692L69.9901 31.1405L48.3655 32.4859L48.3557 37.5139Z" fill="#FF0000"/>
<path d="M45.3113 43.8579L63.3809 55.8486L67.2403 49.1511L47.8351 39.5074L45.3113 43.8579Z" fill="#FF0000"/>
<path d="M39.5071 47.8252L49.1507 67.25L55.8483 63.3709L43.8674 45.321L39.5071 47.8252Z" fill="#FF0000"/>
</svg>
