<svg width="80" height="29" viewBox="0 0 80 29" fill="none" xmlns="http://www.w3.org/2000/svg">
<g clip-path="url(#clip0_2508_2474)">
<path d="M3.57825 8.1082H7.3255V13.4067H10.9037V0H7.3255V4.91875H3.57825V0H0V13.4067H3.57825V8.1082Z" fill="#111111"/>
<path d="M21.9691 10.3205H15.8266V8.07502H21.2196V4.98881H15.8266V3.08252H21.9691V0H12.2446V13.4067H21.9691V10.3205Z" fill="#111111"/>
<path d="M26.6642 6.19822L30.2094 13.2777L30.2719 13.4067H33.953V0H30.7568V6.98729L27.1271 0.121678L27.061 0H23.2292V13.4067H26.6642V6.19822Z" fill="#111111"/>
<path d="M45.4261 4.32142C45.4261 1.49332 43.6002 0 40.1469 0H35.1763V13.4067H38.7545V8.87883H39.8713L42.2336 13.4067H46.2527L43.31 8.1672C44.6693 7.415 45.4261 6.09129 45.4261 4.32511V4.32142ZM39.9081 5.93274H38.7545V2.9424H39.9081C41.5723 2.9424 41.914 3.49549 41.914 4.32511C41.914 5.39441 41.238 5.93643 39.9081 5.93643V5.93274Z" fill="#111111"/>
<path d="M50.4923 0H46.9141V13.4067H50.4923V0Z" fill="#111111"/>
<path d="M8.37619 21.8394C9.29831 21.2457 9.7759 20.0474 9.7759 19.0445C9.7759 16.7584 8.07862 15.5969 4.73916 15.5969H0V29.0037H5.11756C8.42028 29.0037 10.3968 27.4919 10.3968 24.9551C10.3968 23.4691 9.66569 22.3556 8.37619 21.8394ZM3.58193 18.4656H4.63997C5.99192 18.4656 6.27112 18.8822 6.27112 19.5091C6.27112 20.3166 5.72006 20.7258 4.62895 20.7258H3.58193V18.4656ZM4.88244 26.1313H3.58193V23.4913H4.88244C6.64585 23.4913 6.88832 24.0923 6.88832 24.7412C6.88832 25.3349 6.68259 26.1276 4.88244 26.1276V26.1313Z" fill="#111111"/>
<path d="M18.626 15.5969H14.5407L10.4886 28.7013L10.3967 29H14.0778L14.8126 26.0539H18.2512L18.9823 29H22.77L18.6774 15.7592L18.626 15.5969ZM15.529 23.1668L15.7237 22.3814C15.9992 21.3527 16.2748 20.1506 16.5246 19.0224C16.5981 19.3321 16.6715 19.6455 16.745 19.9626C16.9397 20.7848 17.1381 21.6366 17.3365 22.3777L17.5312 23.1668H15.529Z" fill="#111111"/>
<path d="M33.6849 19.9183C33.6849 17.0902 31.859 15.5969 28.4057 15.5969H23.4351V29.0037H27.0133V24.4758H28.1301L30.4924 29.0037H34.5115L31.5688 23.7641C32.9281 23.0119 33.6849 21.6882 33.6849 19.922V19.9183ZM28.1669 21.5297H27.0133V18.5356H28.1669C29.8311 18.5356 30.1728 19.0887 30.1728 19.9183C30.1728 20.9876 29.4968 21.5297 28.1669 21.5297Z" fill="#111111"/>
<path d="M45.4261 19.9183C45.4261 17.0902 43.6002 15.5969 40.1469 15.5969H35.1763V29.0037H38.7545V24.4758H39.8713L42.2336 29.0037H46.2527L43.31 23.7641C44.6693 23.0119 45.4261 21.6882 45.4261 19.922V19.9183ZM39.9081 21.5297H38.7545V18.5356H39.9081C41.5723 18.5356 41.914 19.0887 41.914 19.9183C41.914 20.9876 41.238 21.5297 39.9081 21.5297Z" fill="#111111"/>
<path d="M46.9141 15.5969V29H55.5584H56.6349V25.9175H55.5584H50.4923V23.6683H54.8127H55.8891V20.5857H54.8127H50.4923V18.6794H55.5584H56.6349V15.5969H55.5584H46.9141Z" fill="#111111"/>
<path d="M57.8215 18.6794H61.3153V29H64.8935V18.6794H68.3873V15.5969H57.8215V18.6794Z" fill="#111111"/>
<path d="M69.4343 15.5969V18.6794H72.9281V29H76.5063V18.6794H80.0001V15.5969H69.4343Z" fill="#111111"/>
</g>
<defs>
<clipPath id="clip0_2508_2474">
<rect width="80" height="29" fill="white"/>
</clipPath>
</defs>
</svg>
