<svg width="22" height="16" viewBox="0 0 22 16" fill="none" xmlns="http://www.w3.org/2000/svg">
<path fill-rule="evenodd" clip-rule="evenodd" d="M21.9041 8.39597C17.5047 8.44442 13.9547 11.83 13.9547 16L13.1169 16C13.1169 12.6371 15.2081 9.73611 18.2284 8.39555L5.05724e-06 8.39555L4.98801e-06 7.60364L18.2267 7.60364C15.2073 6.26273 13.1169 3.36227 13.1169 -2.21116e-05L13.9547 -2.21849e-05C13.9547 4.16995 17.5047 7.55557 21.9041 7.60401C21.9359 7.60369 21.9678 7.60353 21.9998 7.60353L21.9998 7.60454L21.9998 8.39544L21.9998 8.39644C21.9678 8.39644 21.9359 8.39628 21.9041 8.39597Z" fill="white"/>
</svg>
