<svg width="160" height="24" viewBox="0 0 160 24" fill="none" xmlns="http://www.w3.org/2000/svg">
<g clip-path="url(#clip0_2715_2820)">
<path d="M131.261 4.22363C130.268 4.22363 129.522 4.94561 129.522 5.90057C129.522 6.85552 130.271 7.5775 131.261 7.5775C132.251 7.5775 133 6.85552 133 5.90057C133 4.94561 132.251 4.22363 131.261 4.22363ZM131.261 7.08849C130.529 7.08849 130.029 6.55335 130.029 5.90057C130.029 5.24778 130.529 4.71264 131.261 4.71264C131.993 4.71264 132.493 5.24778 132.493 5.90057C132.493 6.55335 131.993 7.08849 131.261 7.08849Z" fill="#111111"/>
<path d="M131.5 5.12354H131.065C131.038 5.23425 131.01 5.35189 130.979 5.47184C130.95 5.59178 130.912 5.7348 130.869 5.89857C130.828 6.06234 130.79 6.20535 130.756 6.3253C130.723 6.44524 130.692 6.56288 130.66 6.6736H130.902C130.914 6.60671 130.933 6.52367 130.957 6.42449C130.981 6.3253 131.007 6.21919 131.036 6.10155C131.062 6.10155 131.084 6.10155 131.101 6.10155C131.117 6.10155 131.134 6.10155 131.146 6.10155H131.237C131.275 6.10155 131.304 6.10617 131.323 6.1177C131.345 6.12693 131.359 6.14999 131.369 6.18229C131.378 6.21458 131.383 6.26071 131.383 6.32299C131.383 6.38297 131.383 6.466 131.38 6.5675C131.385 6.61363 131.39 6.64362 131.395 6.65746C131.4 6.6713 131.412 6.67822 131.431 6.67822H131.629C131.627 6.64362 131.624 6.59748 131.622 6.53751C131.622 6.47754 131.617 6.41295 131.617 6.34606C131.617 6.24226 131.603 6.16845 131.579 6.12693C131.555 6.08541 131.51 6.06003 131.443 6.04619V6.03697C131.548 6.01851 131.629 5.977 131.689 5.91241C131.749 5.84782 131.794 5.75094 131.825 5.62869C131.871 5.45569 131.861 5.32883 131.799 5.24809C131.737 5.16736 131.636 5.12584 131.495 5.12584L131.5 5.12354ZM131.608 5.64253C131.581 5.7371 131.546 5.80861 131.495 5.85474C131.445 5.90318 131.383 5.92625 131.309 5.92625C131.261 5.92625 131.218 5.92625 131.177 5.92625C131.136 5.92625 131.105 5.92625 131.081 5.92394C131.105 5.82937 131.132 5.72788 131.158 5.62408C131.184 5.52028 131.213 5.41417 131.239 5.31037C131.27 5.31037 131.306 5.30807 131.342 5.30807C131.38 5.30807 131.407 5.30807 131.426 5.30807C131.517 5.30807 131.577 5.33113 131.608 5.37727C131.639 5.4234 131.639 5.51105 131.608 5.64253Z" fill="#111111"/>
<path d="M53.7983 7.69294C53.7983 5.78304 52.5448 4 49.4731 4C43.9253 4 39.7651 10.0803 39.7651 15.81C39.7651 18.9932 41.679 21 44.6837 21C48.8774 21 51.1213 18.1351 51.9802 14.5691H47.1932C46.93 15.81 46.4014 16.8619 45.576 16.8619C44.9157 16.8619 44.5521 16.3198 44.5521 15.1434C44.5521 14.7605 44.5856 14.3476 44.6502 13.9347C50.4276 13.7433 53.7959 11.3882 53.7959 7.69525L53.7983 7.69294ZM48.5496 7.97897C49.0448 7.97897 49.3415 8.26499 49.3415 8.71018C49.308 9.63284 48.1525 10.5578 45.643 10.6847C46.3703 9.15767 47.3918 7.97897 48.5496 7.97897Z" fill="#111111"/>
<path d="M64.3962 4.22363H55.3509L54.26 8.52092H56.7049L53.5352 20.7761H58.5542L61.724 8.52092H63.3077L64.3962 4.22363Z" fill="#111111"/>
<path d="M40.825 7.56597C40.825 5.43232 39.3729 4.22363 36.1696 4.22363H30.2583L26 20.7761H31.7128C36.7318 20.7761 39.1074 18.4833 39.1074 15.2679C39.1074 13.7709 38.1839 12.5945 35.873 12.403L35.9065 12.2439C39.1098 11.9255 40.825 9.92105 40.825 7.56366V7.56597ZM32.0429 16.8917H31.7463L32.5381 13.9H33.2654C34.3539 13.9 34.751 14.2829 34.751 14.855C34.751 15.9368 33.5955 16.8917 32.0429 16.8917ZM33.495 10.9706H33.263L34.0237 8.07343H34.751C35.806 8.07343 36.1385 8.39175 36.1385 9.02838C36.1385 10.1425 34.9161 10.9706 33.4974 10.9706H33.495Z" fill="#111111"/>
<path d="M112.402 16.4789L115.572 4.22363H110.685L106.426 20.7761H115.242L116.333 16.4789H112.402Z" fill="#111111"/>
<path d="M74.2357 4.22363H65.2215L64.133 8.52092H65.7191L62.5493 20.7761H67.566L70.7357 8.52092H73.1472L74.2357 4.22363Z" fill="#111111"/>
<path d="M121.086 11.2589H120.921L121.811 4.22363H116.431L117.421 15.8422L116.134 20.7761H121.019L122.306 15.8422L129.242 4.22363H123.627L121.086 11.2589Z" fill="#111111"/>
<path d="M108.012 10.8437H103.785L104.379 8.52092H108.704L109.795 4.22363H100.582L96.3237 20.7761H101.211L102.663 15.141H106.888L108.012 10.8437Z" fill="#111111"/>
<path d="M79.1878 14.5692C78.9246 15.8102 78.3959 16.862 77.5706 16.862C76.9103 16.862 76.5467 16.3199 76.5467 15.1436C76.5467 14.7607 76.5802 14.3478 76.6448 13.9349C82.4222 13.7434 85.7905 11.3883 85.7905 7.69539C85.7905 5.78548 84.5369 4.00244 81.4652 4.00244C75.9175 4.00244 71.7573 10.0828 71.7573 15.8125C71.7573 18.9957 73.6735 21.0024 76.6759 21.0024C80.8696 21.0024 83.1135 18.1376 83.9724 14.5715H79.1854L79.1878 14.5692ZM80.5418 7.9791C81.037 7.9791 81.3337 8.26513 81.3337 8.71031C81.3002 9.63297 80.1447 10.5579 77.6352 10.6848C78.3624 9.1578 79.3863 7.9791 80.5394 7.9791H80.5418Z" fill="#111111"/>
<path d="M93.4195 13.328L93.453 13.1365C96.3572 12.9128 98.307 10.7814 98.3716 7.91658C98.4361 5.62377 97.051 4.22363 93.4195 4.22363H87.7737L83.4819 20.7785H88.2043L89.6899 15.111H90.5823C91.5057 15.111 91.8358 15.4616 91.6062 16.4166L90.5488 20.7785H95.4673L96.1611 16.608C96.4912 14.7304 95.764 13.584 93.4195 13.3303V13.328ZM90.91 11.4181H90.6779L91.5368 8.10803H92.264C93.386 8.10803 93.7831 8.49093 93.7497 9.12757C93.6851 10.4954 92.4291 11.4204 90.91 11.4204V11.4181Z" fill="#111111"/>
</g>
<defs>
<clipPath id="clip0_2715_2820">
<rect width="107" height="17" fill="white" transform="translate(26 4)"/>
</clipPath>
</defs>
</svg>
