<svg width="232" height="8" viewBox="0 0 232 8" fill="none" xmlns="http://www.w3.org/2000/svg">
<path d="M0.935216 6.24609V0.526093H1.65522V2.95809H4.71122V0.526093H5.43122V6.24609H4.71122V3.54209H1.65522V6.24609H0.935216ZM6.30553 6.24609V0.526093H10.3455V1.15809H7.02553V2.96609H10.0415V3.57409H7.02553V5.58209H10.4415V6.24609H6.30553ZM11.0821 6.24609V0.526093H11.8421L14.4501 4.50209L14.8661 5.23809H14.8821V0.526093H15.5541V6.24609H14.8181L12.1941 2.26209L11.7701 1.55009H11.7541V6.24609H11.0821ZM16.429 6.24609V0.526093H19.101C19.6023 0.526093 20.0076 0.670094 20.317 0.958094C20.6316 1.24609 20.789 1.62476 20.789 2.09409C20.789 2.82476 20.4583 3.29676 19.797 3.51009V3.53409C20.0796 3.63543 20.2796 3.79543 20.397 4.01409C20.5196 4.22743 20.5943 4.55276 20.621 4.99009C20.6743 5.72076 20.7623 6.12876 20.885 6.21409V6.24609H20.109C20.0503 6.19809 20.0076 6.09676 19.981 5.94209C19.9596 5.78743 19.933 5.46209 19.901 4.96609C19.8743 4.55009 19.7703 4.25676 19.589 4.08609C19.413 3.91543 19.1303 3.83009 18.741 3.83009H17.149V6.24609H16.429ZM17.149 1.15009V3.24609H18.845C19.2396 3.24609 19.5383 3.15543 19.741 2.97409C19.9436 2.78743 20.045 2.52876 20.045 2.19809C20.045 1.84076 19.9543 1.57676 19.773 1.40609C19.5916 1.23543 19.2956 1.15009 18.885 1.15009H17.149ZM21.4793 6.24609V0.526093H22.1993V6.24609H21.4793ZM24.1571 6.24609V0.526093H26.5811C27.1838 0.526093 27.6424 0.691427 27.9571 1.02209C28.2024 1.27809 28.3251 1.60343 28.3251 1.99809C28.3251 2.60609 28.0184 3.00609 27.4051 3.19809V3.22209C27.7464 3.30209 28.0238 3.46209 28.2371 3.70209C28.4504 3.93676 28.5571 4.23809 28.5571 4.60609C28.5571 5.04343 28.4184 5.40876 28.1411 5.70209C27.8051 6.06476 27.3278 6.24609 26.7091 6.24609H24.1571ZM24.8771 5.59809H26.6771C27.0718 5.59809 27.3704 5.50209 27.5731 5.31009C27.7438 5.12876 27.8291 4.90743 27.8291 4.64609C27.8291 4.29943 27.7198 4.03543 27.5011 3.85409C27.2824 3.67276 26.9918 3.58209 26.6291 3.58209H24.8771V5.59809ZM24.8771 2.97409H26.4931C26.8398 2.97409 27.1118 2.89143 27.3091 2.72609C27.5064 2.56076 27.6051 2.33143 27.6051 2.03809C27.6051 1.76076 27.5144 1.54476 27.3331 1.39009C27.1571 1.23009 26.9091 1.15009 26.5891 1.15009H24.8771V2.97409ZM28.6495 6.24609L30.7535 0.526093H31.5615L33.6735 6.24609H32.8895L32.2815 4.50209H30.0015L29.3855 6.24609H28.6495ZM30.8895 1.99809L30.2095 3.91809H32.0815L31.4255 1.99809L31.1695 1.19009H31.1535C31.0522 1.51009 30.9642 1.77943 30.8895 1.99809ZM34.093 6.24609V0.526093H36.765C37.2664 0.526093 37.6717 0.670094 37.981 0.958094C38.2957 1.24609 38.453 1.62476 38.453 2.09409C38.453 2.82476 38.1224 3.29676 37.461 3.51009V3.53409C37.7437 3.63543 37.9437 3.79543 38.061 4.01409C38.1837 4.22743 38.2584 4.55276 38.285 4.99009C38.3384 5.72076 38.4264 6.12876 38.549 6.21409V6.24609H37.773C37.7144 6.19809 37.6717 6.09676 37.645 5.94209C37.6237 5.78743 37.597 5.46209 37.565 4.96609C37.5384 4.55009 37.4344 4.25676 37.253 4.08609C37.077 3.91543 36.7944 3.83009 36.405 3.83009H34.813V6.24609H34.093ZM34.813 1.15009V3.24609H36.509C36.9037 3.24609 37.2024 3.15543 37.405 2.97409C37.6077 2.78743 37.709 2.52876 37.709 2.19809C37.709 1.84076 37.6184 1.57676 37.437 1.40609C37.2557 1.23543 36.9597 1.15009 36.549 1.15009H34.813ZM39.1274 6.24609V0.526093H41.7994C42.3007 0.526093 42.7061 0.670094 43.0154 0.958094C43.3301 1.24609 43.4874 1.62476 43.4874 2.09409C43.4874 2.82476 43.1567 3.29676 42.4954 3.51009V3.53409C42.7781 3.63543 42.9781 3.79543 43.0954 4.01409C43.2181 4.22743 43.2927 4.55276 43.3194 4.99009C43.3727 5.72076 43.4607 6.12876 43.5834 6.21409V6.24609H42.8074C42.7487 6.19809 42.7061 6.09676 42.6794 5.94209C42.6581 5.78743 42.6314 5.46209 42.5994 4.96609C42.5727 4.55009 42.4687 4.25676 42.2874 4.08609C42.1114 3.91543 41.8287 3.83009 41.4394 3.83009H39.8474V6.24609H39.1274ZM39.8474 1.15009V3.24609H41.5434C41.9381 3.24609 42.2367 3.15543 42.4394 2.97409C42.6421 2.78743 42.7434 2.52876 42.7434 2.19809C42.7434 1.84076 42.6527 1.57676 42.4714 1.40609C42.2901 1.23543 41.9941 1.15009 41.5834 1.15009H39.8474ZM44.1618 6.24609V0.526093H48.2018V1.15809H44.8818V2.96609H47.8978V3.57409H44.8818V5.58209H48.2978V6.24609H44.1618ZM48.5783 1.15809V0.526093H53.1063V1.15809H51.2023V6.24609H50.4823V1.15809H48.5783ZM53.3783 1.15809V0.526093H57.9063V1.15809H56.0023V6.24609H55.2823V1.15809H53.3783ZM60.28 6.24609C60.296 5.91009 60.352 5.61409 60.448 5.35809C60.5494 5.10209 60.7174 4.86743 60.952 4.65409C61.192 4.44076 61.3787 4.28876 61.512 4.19809C61.6507 4.10209 61.8907 3.95543 62.232 3.75809C62.2427 3.74743 62.2507 3.74209 62.256 3.74209C62.2614 3.73676 62.2694 3.73143 62.28 3.72609C62.2907 3.72076 62.2987 3.71543 62.304 3.71009C62.3147 3.70476 62.3254 3.69943 62.336 3.69409C62.7574 3.44876 63.056 3.23809 63.232 3.06209C63.408 2.88076 63.496 2.63809 63.496 2.33409C63.496 1.99809 63.3867 1.72609 63.168 1.51809C62.9547 1.31009 62.6667 1.20609 62.304 1.20609C61.936 1.20609 61.6454 1.32076 61.432 1.55009C61.224 1.77409 61.12 2.13943 61.12 2.64609H60.416C60.416 2.00076 60.5894 1.50476 60.936 1.15809C61.2827 0.81676 61.7574 0.646093 62.36 0.646093C62.9094 0.646093 63.352 0.803427 63.688 1.11809C64.024 1.43276 64.192 1.83543 64.192 2.32609C64.192 2.52343 64.1627 2.70476 64.104 2.87009C64.0454 3.03543 63.984 3.16876 63.92 3.27009C63.856 3.37143 63.7387 3.48876 63.568 3.62209C63.3974 3.75009 63.2694 3.83809 63.184 3.88609C63.104 3.93409 62.944 4.02476 62.704 4.15809C62.656 4.18476 62.6187 4.20609 62.592 4.22209C62.336 4.36609 62.1227 4.49143 61.952 4.59809C61.7867 4.70476 61.6134 4.85409 61.432 5.04609C61.2507 5.23276 61.136 5.41943 61.088 5.60609H64.08V6.24609H60.28ZM66.7573 6.36609C66.0907 6.36609 65.568 6.11009 65.1893 5.59809C64.816 5.08076 64.6293 4.38209 64.6293 3.50209C64.6293 2.61676 64.8213 1.91809 65.2053 1.40609C65.5947 0.894094 66.1147 0.638093 66.7653 0.638093C67.416 0.638093 67.9307 0.894094 68.3093 1.40609C68.6933 1.91276 68.8853 2.61143 68.8853 3.50209C68.8853 4.38743 68.6987 5.08609 68.3253 5.59809C67.9573 6.11009 67.4347 6.36609 66.7573 6.36609ZM65.6853 5.18209C65.9307 5.58209 66.2907 5.78209 66.7653 5.78209C67.24 5.78209 67.5947 5.58476 67.8293 5.19009C68.0693 4.79009 68.1893 4.22743 68.1893 3.50209C68.1893 2.78743 68.0667 2.22743 67.8213 1.82209C67.5813 1.41676 67.2293 1.21409 66.7653 1.21409C66.2907 1.21409 65.9307 1.41409 65.6853 1.81409C65.4453 2.21409 65.3253 2.77676 65.3253 3.50209C65.3253 4.21676 65.4453 4.77676 65.6853 5.18209ZM69.2472 6.24609C69.2632 5.91009 69.3192 5.61409 69.4152 5.35809C69.5165 5.10209 69.6845 4.86743 69.9192 4.65409C70.1592 4.44076 70.3459 4.28876 70.4792 4.19809C70.6179 4.10209 70.8579 3.95543 71.1992 3.75809C71.2099 3.74743 71.2179 3.74209 71.2232 3.74209C71.2285 3.73676 71.2365 3.73143 71.2472 3.72609C71.2579 3.72076 71.2659 3.71543 71.2712 3.71009C71.2819 3.70476 71.2925 3.69943 71.3032 3.69409C71.7245 3.44876 72.0232 3.23809 72.1992 3.06209C72.3752 2.88076 72.4632 2.63809 72.4632 2.33409C72.4632 1.99809 72.3539 1.72609 72.1352 1.51809C71.9219 1.31009 71.6339 1.20609 71.2712 1.20609C70.9032 1.20609 70.6125 1.32076 70.3992 1.55009C70.1912 1.77409 70.0872 2.13943 70.0872 2.64609H69.3832C69.3832 2.00076 69.5565 1.50476 69.9032 1.15809C70.2499 0.81676 70.7245 0.646093 71.3272 0.646093C71.8765 0.646093 72.3192 0.803427 72.6552 1.11809C72.9912 1.43276 73.1592 1.83543 73.1592 2.32609C73.1592 2.52343 73.1299 2.70476 73.0712 2.87009C73.0125 3.03543 72.9512 3.16876 72.8872 3.27009C72.8232 3.37143 72.7059 3.48876 72.5352 3.62209C72.3645 3.75009 72.2365 3.83809 72.1512 3.88609C72.0712 3.93409 71.9112 4.02476 71.6712 4.15809C71.6232 4.18476 71.5859 4.20609 71.5592 4.22209C71.3032 4.36609 71.0899 4.49143 70.9192 4.59809C70.7539 4.70476 70.5805 4.85409 70.3992 5.04609C70.2179 5.23276 70.1032 5.41943 70.0552 5.60609H73.0472V6.24609H69.2472ZM75.5725 6.36609C74.9485 6.36609 74.4312 6.19543 74.0205 5.85409C73.6099 5.51276 73.3992 5.04076 73.3885 4.43809H74.0525C74.0632 4.87543 74.1992 5.21409 74.4605 5.45409C74.7272 5.68876 75.0899 5.80609 75.5485 5.80609C75.9432 5.80609 76.2579 5.71009 76.4925 5.51809C76.7272 5.32076 76.8445 5.03276 76.8445 4.65409C76.8445 4.30743 76.7192 4.04343 76.4685 3.86209C76.2232 3.68076 75.8685 3.59009 75.4045 3.59009H75.0605V3.07009H75.3965C75.8179 3.07009 76.1379 2.98743 76.3565 2.82209C76.5752 2.65676 76.6845 2.42476 76.6845 2.12609C76.6845 1.83276 76.5699 1.60076 76.3405 1.43009C76.1165 1.25409 75.8339 1.16609 75.4925 1.16609C75.1032 1.16609 74.7939 1.28343 74.5645 1.51809C74.3405 1.74743 74.2285 2.05409 74.2285 2.43809H73.5725C73.5779 1.89409 73.7539 1.45943 74.1005 1.13409C74.4472 0.803427 74.9192 0.638093 75.5165 0.638093C76.0392 0.638093 76.4739 0.774093 76.8205 1.04609C77.1672 1.31276 77.3405 1.67809 77.3405 2.14209C77.3405 2.70743 77.0392 3.09143 76.4365 3.29409V3.31809C77.1725 3.51009 77.5405 3.97676 77.5405 4.71809C77.5405 5.23009 77.3539 5.63276 76.9805 5.92609C76.6125 6.21943 76.1432 6.36609 75.5725 6.36609ZM82.1287 3.74209C81.7607 4.11009 81.3127 4.29409 80.7847 4.29409C80.2567 4.29409 79.806 4.11009 79.4327 3.74209C79.0647 3.37409 78.8807 2.91276 78.8807 2.35809C78.8807 1.80876 79.0647 1.35009 79.4327 0.982093C79.806 0.60876 80.2567 0.422093 80.7847 0.422093C81.3127 0.422093 81.7607 0.60876 82.1287 0.982093C82.502 1.35009 82.6887 1.80876 82.6887 2.35809C82.6887 2.91276 82.502 3.37409 82.1287 3.74209ZM79.6487 3.55009C79.9473 3.85943 80.326 4.01409 80.7847 4.01409C81.2433 4.01409 81.6193 3.85943 81.9127 3.55009C82.2113 3.23543 82.3607 2.83809 82.3607 2.35809C82.3607 1.88343 82.2113 1.48876 81.9127 1.17409C81.614 0.859427 81.238 0.702094 80.7847 0.702094C80.3313 0.702094 79.9553 0.859427 79.6567 1.17409C79.358 1.48876 79.2087 1.88343 79.2087 2.35809C79.2087 2.83809 79.3553 3.23543 79.6487 3.55009ZM80.0407 3.35809V1.31009H80.9847C81.1713 1.31009 81.326 1.36609 81.4487 1.47809C81.5713 1.58476 81.6327 1.72076 81.6327 1.88609C81.6327 2.14743 81.5047 2.31009 81.2487 2.37409V2.38209C81.4407 2.43543 81.5473 2.57409 81.5687 2.79809C81.574 2.84609 81.5793 2.89943 81.5847 2.95809C81.59 3.01676 81.5927 3.06476 81.5927 3.10209C81.598 3.13943 81.6007 3.17676 81.6007 3.21409C81.606 3.25143 81.6113 3.28076 81.6167 3.30209C81.6273 3.31809 81.6407 3.32876 81.6567 3.33409V3.35809H81.2647C81.2167 3.33676 81.1873 3.17943 81.1767 2.88609C81.166 2.65143 81.0353 2.53409 80.7847 2.53409H80.4487V3.35809H80.0407ZM80.4487 1.64609V2.22209H80.8967C81.1207 2.22209 81.2327 2.12609 81.2327 1.93409C81.2327 1.74209 81.1207 1.64609 80.8967 1.64609H80.4487ZM88.6824 7.19009V0.214094H89.2424V7.19009H88.6824ZM96.2721 1.15809V0.526093H100.8V1.15809H98.8961V6.24609H98.1761V1.15809H96.2721ZM105.572 5.52609C105.065 6.08609 104.388 6.36609 103.54 6.36609C102.692 6.36609 102.012 6.08609 101.5 5.52609C100.993 4.96609 100.74 4.25143 100.74 3.38209C100.74 2.51276 100.993 1.79809 101.5 1.23809C102.012 0.678094 102.692 0.398094 103.54 0.398094C104.388 0.398094 105.065 0.678094 105.572 1.23809C106.084 1.79809 106.34 2.51276 106.34 3.38209C106.34 4.25143 106.084 4.96609 105.572 5.52609ZM102.02 5.07809C102.382 5.51543 102.889 5.73409 103.54 5.73409C104.19 5.73409 104.697 5.51543 105.06 5.07809C105.422 4.64076 105.604 4.07543 105.604 3.38209C105.604 2.68876 105.422 2.12343 105.06 1.68609C104.697 1.24343 104.19 1.02209 103.54 1.02209C102.889 1.02209 102.382 1.24343 102.02 1.68609C101.657 2.12343 101.476 2.68876 101.476 3.38209C101.476 4.07543 101.657 4.64076 102.02 5.07809ZM106.998 6.24609V0.526093H109.078C109.915 0.526093 110.547 0.78476 110.974 1.30209C111.4 1.81943 111.614 2.52076 111.614 3.40609C111.614 4.28609 111.392 4.97943 110.95 5.48609C110.507 5.99276 109.864 6.24609 109.022 6.24609H106.998ZM107.718 5.61409H108.998C110.251 5.61409 110.878 4.87809 110.878 3.40609C110.878 1.90209 110.27 1.15009 109.054 1.15009H107.718V5.61409ZM116.882 5.52609C116.376 6.08609 115.698 6.36609 114.85 6.36609C114.002 6.36609 113.322 6.08609 112.81 5.52609C112.304 4.96609 112.05 4.25143 112.05 3.38209C112.05 2.51276 112.304 1.79809 112.81 1.23809C113.322 0.678094 114.002 0.398094 114.85 0.398094C115.698 0.398094 116.376 0.678094 116.882 1.23809C117.394 1.79809 117.65 2.51276 117.65 3.38209C117.65 4.25143 117.394 4.96609 116.882 5.52609ZM113.33 5.07809C113.693 5.51543 114.2 5.73409 114.85 5.73409C115.501 5.73409 116.008 5.51543 116.37 5.07809C116.733 4.64076 116.914 4.07543 116.914 3.38209C116.914 2.68876 116.733 2.12343 116.37 1.68609C116.008 1.24343 115.501 1.02209 114.85 1.02209C114.2 1.02209 113.693 1.24343 113.33 1.68609C112.968 2.12343 112.786 2.68876 112.786 3.38209C112.786 4.07543 112.968 4.64076 113.33 5.07809ZM120.389 6.35809C119.621 6.35809 119.029 6.16876 118.613 5.79009C118.202 5.41143 117.981 4.91809 117.949 4.31009H118.653C118.749 5.29143 119.338 5.78209 120.421 5.78209C120.831 5.78209 121.159 5.69143 121.405 5.51009C121.655 5.32343 121.781 5.05676 121.781 4.71009C121.781 4.55543 121.751 4.41943 121.693 4.30209C121.634 4.18476 121.562 4.08876 121.477 4.01409C121.397 3.93943 121.274 3.87009 121.109 3.80609C120.943 3.74209 120.789 3.69143 120.645 3.65409C120.506 3.61676 120.314 3.57143 120.069 3.51809C119.775 3.45409 119.533 3.39009 119.341 3.32609C119.149 3.25676 118.957 3.16343 118.765 3.04609C118.573 2.92876 118.429 2.77943 118.333 2.59809C118.242 2.41143 118.197 2.18743 118.197 1.92609C118.197 1.45676 118.373 1.08876 118.725 0.822093C119.082 0.550093 119.554 0.414093 120.141 0.414093C121.426 0.414093 122.149 1.00876 122.309 2.19809H121.629C121.575 1.79276 121.423 1.48876 121.173 1.28609C120.922 1.07809 120.583 0.974093 120.157 0.974093C119.762 0.974093 119.447 1.05409 119.213 1.21409C118.983 1.37409 118.869 1.60076 118.869 1.89409C118.869 2.02209 118.893 2.13676 118.941 2.23809C118.994 2.33409 119.061 2.41676 119.141 2.48609C119.226 2.55009 119.335 2.60876 119.469 2.66209C119.607 2.71543 119.743 2.76076 119.877 2.79809C120.01 2.83009 120.173 2.86476 120.365 2.90209C120.631 2.95543 120.85 3.00609 121.021 3.05409C121.191 3.09676 121.381 3.16343 121.589 3.25409C121.797 3.34476 121.957 3.44876 122.069 3.56609C122.186 3.68343 122.285 3.83809 122.365 4.03009C122.45 4.21676 122.493 4.43543 122.493 4.68609C122.493 5.20876 122.298 5.61943 121.909 5.91809C121.525 6.21143 121.018 6.35809 120.389 6.35809ZM124.19 6.24609V0.526093H124.91V5.58209H127.91V6.24609H124.19ZM132.676 5.52609C132.17 6.08609 131.492 6.36609 130.644 6.36609C129.796 6.36609 129.116 6.08609 128.604 5.52609C128.098 4.96609 127.844 4.25143 127.844 3.38209C127.844 2.51276 128.098 1.79809 128.604 1.23809C129.116 0.678094 129.796 0.398094 130.644 0.398094C131.492 0.398094 132.17 0.678094 132.676 1.23809C133.188 1.79809 133.444 2.51276 133.444 3.38209C133.444 4.25143 133.188 4.96609 132.676 5.52609ZM129.124 5.07809C129.487 5.51543 129.994 5.73409 130.644 5.73409C131.295 5.73409 131.802 5.51543 132.164 5.07809C132.527 4.64076 132.708 4.07543 132.708 3.38209C132.708 2.68876 132.527 2.12343 132.164 1.68609C131.802 1.24343 131.295 1.02209 130.644 1.02209C129.994 1.02209 129.487 1.24343 129.124 1.68609C128.762 2.12343 128.58 2.68876 128.58 3.38209C128.58 4.07543 128.762 4.64076 129.124 5.07809ZM136.182 6.35809C135.414 6.35809 134.822 6.16876 134.406 5.79009C133.996 5.41143 133.774 4.91809 133.742 4.31009H134.446C134.542 5.29143 135.132 5.78209 136.214 5.78209C136.625 5.78209 136.953 5.69143 137.198 5.51009C137.449 5.32343 137.574 5.05676 137.574 4.71009C137.574 4.55543 137.545 4.41943 137.486 4.30209C137.428 4.18476 137.356 4.08876 137.27 4.01409C137.19 3.93943 137.068 3.87009 136.902 3.80609C136.737 3.74209 136.582 3.69143 136.438 3.65409C136.3 3.61676 136.108 3.57143 135.862 3.51809C135.569 3.45409 135.326 3.39009 135.134 3.32609C134.942 3.25676 134.75 3.16343 134.558 3.04609C134.366 2.92876 134.222 2.77943 134.126 2.59809C134.036 2.41143 133.99 2.18743 133.99 1.92609C133.99 1.45676 134.166 1.08876 134.518 0.822093C134.876 0.550093 135.348 0.414093 135.934 0.414093C137.22 0.414093 137.942 1.00876 138.102 2.19809H137.422C137.369 1.79276 137.217 1.48876 136.966 1.28609C136.716 1.07809 136.377 0.974093 135.95 0.974093C135.556 0.974093 135.241 1.05409 135.006 1.21409C134.777 1.37409 134.662 1.60076 134.662 1.89409C134.662 2.02209 134.686 2.13676 134.734 2.23809C134.788 2.33409 134.854 2.41676 134.934 2.48609C135.02 2.55009 135.129 2.60876 135.262 2.66209C135.401 2.71543 135.537 2.76076 135.67 2.79809C135.804 2.83009 135.966 2.86476 136.158 2.90209C136.425 2.95543 136.644 3.00609 136.814 3.05409C136.985 3.09676 137.174 3.16343 137.382 3.25409C137.59 3.34476 137.75 3.44876 137.862 3.56609C137.98 3.68343 138.078 3.83809 138.158 4.03009C138.244 4.21676 138.286 4.43543 138.286 4.68609C138.286 5.20876 138.092 5.61943 137.702 5.91809C137.318 6.21143 136.812 6.35809 136.182 6.35809ZM139.984 6.24609V0.526093H142.064C142.901 0.526093 143.533 0.78476 143.96 1.30209C144.386 1.81943 144.6 2.52076 144.6 3.40609C144.6 4.28609 144.378 4.97943 143.936 5.48609C143.493 5.99276 142.85 6.24609 142.008 6.24609H139.984ZM140.704 5.61409H141.984C143.237 5.61409 143.864 4.87809 143.864 3.40609C143.864 1.90209 143.256 1.15009 142.04 1.15009H140.704V5.61409ZM145.252 6.24609V0.526093H149.292V1.15809H145.972V2.96609H148.988V3.57409H145.972V5.58209H149.388V6.24609H145.252ZM150.029 6.24609V0.526093H152.701C153.202 0.526093 153.608 0.670094 153.917 0.958094C154.232 1.24609 154.389 1.62476 154.389 2.09409C154.389 2.82476 154.058 3.29676 153.397 3.51009V3.53409C153.68 3.63543 153.88 3.79543 153.997 4.01409C154.12 4.22743 154.194 4.55276 154.221 4.99009C154.274 5.72076 154.362 6.12876 154.485 6.21409V6.24609H153.709C153.65 6.19809 153.608 6.09676 153.581 5.94209C153.56 5.78743 153.533 5.46209 153.501 4.96609C153.474 4.55009 153.37 4.25676 153.189 4.08609C153.013 3.91543 152.73 3.83009 152.341 3.83009H150.749V6.24609H150.029ZM150.749 1.15009V3.24609H152.445C152.84 3.24609 153.138 3.15543 153.341 2.97409C153.544 2.78743 153.645 2.52876 153.645 2.19809C153.645 1.84076 153.554 1.57676 153.373 1.40609C153.192 1.23543 152.896 1.15009 152.485 1.15009H150.749ZM155.063 6.24609V0.526093H159.103V1.15809H155.783V2.96609H158.799V3.57409H155.783V5.58209H159.199V6.24609H155.063ZM162.187 6.35809C161.381 6.35809 160.733 6.08076 160.243 5.52609C159.752 4.97143 159.507 4.25676 159.507 3.38209C159.507 2.51809 159.749 1.80609 160.235 1.24609C160.725 0.68076 161.387 0.398094 162.219 0.398094C162.869 0.398094 163.395 0.566094 163.795 0.902093C164.195 1.23809 164.435 1.67809 164.515 2.22209H163.811C163.741 1.85943 163.565 1.56876 163.283 1.35009C163.005 1.13143 162.645 1.02209 162.203 1.02209C161.589 1.02209 161.109 1.24343 160.763 1.68609C160.416 2.12343 160.243 2.68876 160.243 3.38209C160.243 4.08609 160.421 4.65409 160.779 5.08609C161.141 5.51276 161.619 5.72609 162.211 5.72609C162.723 5.72609 163.117 5.57676 163.395 5.27809C163.677 4.97943 163.837 4.60343 163.875 4.15009H164.587C164.581 4.43276 164.515 4.72343 164.387 5.02209C164.264 5.31543 164.101 5.56076 163.899 5.75809C163.488 6.15809 162.917 6.35809 162.187 6.35809ZM165.195 6.24609V0.526093H165.915V2.95809H168.971V0.526093H169.691V6.24609H168.971V3.54209H165.915V6.24609H165.195ZM175.181 5.52609C174.674 6.08609 173.997 6.36609 173.149 6.36609C172.301 6.36609 171.621 6.08609 171.109 5.52609C170.602 4.96609 170.349 4.25143 170.349 3.38209C170.349 2.51276 170.602 1.79809 171.109 1.23809C171.621 0.678094 172.301 0.398094 173.149 0.398094C173.997 0.398094 174.674 0.678094 175.181 1.23809C175.693 1.79809 175.949 2.51276 175.949 3.38209C175.949 4.25143 175.693 4.96609 175.181 5.52609ZM171.629 5.07809C171.992 5.51543 172.498 5.73409 173.149 5.73409C173.8 5.73409 174.306 5.51543 174.669 5.07809C175.032 4.64076 175.213 4.07543 175.213 3.38209C175.213 2.68876 175.032 2.12343 174.669 1.68609C174.306 1.24343 173.8 1.02209 173.149 1.02209C172.498 1.02209 171.992 1.24343 171.629 1.68609C171.266 2.12343 171.085 2.68876 171.085 3.38209C171.085 4.07543 171.266 4.64076 171.629 5.07809ZM178.687 6.35809C177.919 6.35809 177.327 6.16876 176.911 5.79009C176.5 5.41143 176.279 4.91809 176.247 4.31009H176.951C177.047 5.29143 177.636 5.78209 178.719 5.78209C179.13 5.78209 179.458 5.69143 179.703 5.51009C179.954 5.32343 180.079 5.05676 180.079 4.71009C180.079 4.55543 180.05 4.41943 179.991 4.30209C179.932 4.18476 179.86 4.08876 179.775 4.01409C179.695 3.93943 179.572 3.87009 179.407 3.80609C179.242 3.74209 179.087 3.69143 178.943 3.65409C178.804 3.61676 178.612 3.57143 178.367 3.51809C178.074 3.45409 177.831 3.39009 177.639 3.32609C177.447 3.25676 177.255 3.16343 177.063 3.04609C176.871 2.92876 176.727 2.77943 176.631 2.59809C176.54 2.41143 176.495 2.18743 176.495 1.92609C176.495 1.45676 176.671 1.08876 177.023 0.822093C177.38 0.550093 177.852 0.414093 178.439 0.414093C179.724 0.414093 180.447 1.00876 180.607 2.19809H179.927C179.874 1.79276 179.722 1.48876 179.471 1.28609C179.22 1.07809 178.882 0.974093 178.455 0.974093C178.06 0.974093 177.746 1.05409 177.511 1.21409C177.282 1.37409 177.167 1.60076 177.167 1.89409C177.167 2.02209 177.191 2.13676 177.239 2.23809C177.292 2.33409 177.359 2.41676 177.439 2.48609C177.524 2.55009 177.634 2.60876 177.767 2.66209C177.906 2.71543 178.042 2.76076 178.175 2.79809C178.308 2.83009 178.471 2.86476 178.663 2.90209C178.93 2.95543 179.148 3.00609 179.319 3.05409C179.49 3.09676 179.679 3.16343 179.887 3.25409C180.095 3.34476 180.255 3.44876 180.367 3.56609C180.484 3.68343 180.583 3.83809 180.663 4.03009C180.748 4.21676 180.791 4.43543 180.791 4.68609C180.791 5.20876 180.596 5.61943 180.207 5.91809C179.823 6.21143 179.316 6.35809 178.687 6.35809ZM182.488 6.24609V0.526093H185.16C185.662 0.526093 186.067 0.670094 186.376 0.958094C186.691 1.24609 186.848 1.62476 186.848 2.09409C186.848 2.82476 186.518 3.29676 185.856 3.51009V3.53409C186.139 3.63543 186.339 3.79543 186.456 4.01409C186.579 4.22743 186.654 4.55276 186.68 4.99009C186.734 5.72076 186.822 6.12876 186.944 6.21409V6.24609H186.168C186.11 6.19809 186.067 6.09676 186.04 5.94209C186.019 5.78743 185.992 5.46209 185.96 4.96609C185.934 4.55009 185.83 4.25676 185.648 4.08609C185.472 3.91543 185.19 3.83009 184.8 3.83009H183.208V6.24609H182.488ZM183.208 1.15009V3.24609H184.904C185.299 3.24609 185.598 3.15543 185.8 2.97409C186.003 2.78743 186.104 2.52876 186.104 2.19809C186.104 1.84076 186.014 1.57676 185.832 1.40609C185.651 1.23543 185.355 1.15009 184.944 1.15009H183.208ZM187.523 6.24609V0.526093H191.563V1.15809H188.243V2.96609H191.259V3.57409H188.243V5.58209H191.659V6.24609H187.523ZM194.301 6.35809C193.533 6.35809 192.941 6.16876 192.525 5.79009C192.114 5.41143 191.893 4.91809 191.861 4.31009H192.565C192.661 5.29143 193.25 5.78209 194.333 5.78209C194.744 5.78209 195.072 5.69143 195.317 5.51009C195.568 5.32343 195.693 5.05676 195.693 4.71009C195.693 4.55543 195.664 4.41943 195.605 4.30209C195.546 4.18476 195.474 4.08876 195.389 4.01409C195.309 3.93943 195.186 3.87009 195.021 3.80609C194.856 3.74209 194.701 3.69143 194.557 3.65409C194.418 3.61676 194.226 3.57143 193.981 3.51809C193.688 3.45409 193.445 3.39009 193.253 3.32609C193.061 3.25676 192.869 3.16343 192.677 3.04609C192.485 2.92876 192.341 2.77943 192.245 2.59809C192.154 2.41143 192.109 2.18743 192.109 1.92609C192.109 1.45676 192.285 1.08876 192.637 0.822093C192.994 0.550093 193.466 0.414093 194.053 0.414093C195.338 0.414093 196.061 1.00876 196.221 2.19809H195.541C195.488 1.79276 195.336 1.48876 195.085 1.28609C194.834 1.07809 194.496 0.974093 194.069 0.974093C193.674 0.974093 193.36 1.05409 193.125 1.21409C192.896 1.37409 192.781 1.60076 192.781 1.89409C192.781 2.02209 192.805 2.13676 192.853 2.23809C192.906 2.33409 192.973 2.41676 193.053 2.48609C193.138 2.55009 193.248 2.60876 193.381 2.66209C193.52 2.71543 193.656 2.76076 193.789 2.79809C193.922 2.83009 194.085 2.86476 194.277 2.90209C194.544 2.95543 194.762 3.00609 194.933 3.05409C195.104 3.09676 195.293 3.16343 195.501 3.25409C195.709 3.34476 195.869 3.44876 195.981 3.56609C196.098 3.68343 196.197 3.83809 196.277 4.03009C196.362 4.21676 196.405 4.43543 196.405 4.68609C196.405 5.20876 196.21 5.61943 195.821 5.91809C195.437 6.21143 194.93 6.35809 194.301 6.35809ZM197.029 6.24609V0.526093H201.069V1.15809H197.749V2.96609H200.765V3.57409H197.749V5.58209H201.165V6.24609H197.029ZM201.806 6.24609V0.526093H204.478C204.979 0.526093 205.384 0.670094 205.694 0.958094C206.008 1.24609 206.166 1.62476 206.166 2.09409C206.166 2.82476 205.835 3.29676 205.174 3.51009V3.53409C205.456 3.63543 205.656 3.79543 205.774 4.01409C205.896 4.22743 205.971 4.55276 205.998 4.99009C206.051 5.72076 206.139 6.12876 206.262 6.21409V6.24609H205.486C205.427 6.19809 205.384 6.09676 205.358 5.94209C205.336 5.78743 205.31 5.46209 205.278 4.96609C205.251 4.55009 205.147 4.25676 204.966 4.08609C204.79 3.91543 204.507 3.83009 204.118 3.83009H202.526V6.24609H201.806ZM202.526 1.15009V3.24609H204.222C204.616 3.24609 204.915 3.15543 205.118 2.97409C205.32 2.78743 205.422 2.52876 205.422 2.19809C205.422 1.84076 205.331 1.57676 205.15 1.40609C204.968 1.23543 204.672 1.15009 204.262 1.15009H202.526ZM208.376 6.24609L206.384 0.526093H207.16L208.568 4.78209L208.792 5.55009H208.808C208.899 5.20876 208.973 4.95276 209.032 4.78209L210.424 0.526093H211.176L209.168 6.24609H208.376ZM210.575 6.24609L212.679 0.526093H213.487L215.599 6.24609H214.815L214.207 4.50209H211.927L211.311 6.24609H210.575ZM212.815 1.99809L212.135 3.91809H214.007L213.351 1.99809L213.095 1.19009H213.079C212.977 1.51009 212.889 1.77943 212.815 1.99809ZM216.018 6.24609V0.526093H218.098C218.935 0.526093 219.567 0.78476 219.994 1.30209C220.421 1.81943 220.634 2.52076 220.634 3.40609C220.634 4.28609 220.413 4.97943 219.97 5.48609C219.527 5.99276 218.885 6.24609 218.042 6.24609H216.018ZM216.738 5.61409H218.018C219.271 5.61409 219.898 4.87809 219.898 3.40609C219.898 1.90209 219.29 1.15009 218.074 1.15009H216.738V5.61409ZM225.903 5.52609C225.396 6.08609 224.719 6.36609 223.871 6.36609C223.023 6.36609 222.343 6.08609 221.831 5.52609C221.324 4.96609 221.071 4.25143 221.071 3.38209C221.071 2.51276 221.324 1.79809 221.831 1.23809C222.343 0.678094 223.023 0.398094 223.871 0.398094C224.719 0.398094 225.396 0.678094 225.903 1.23809C226.415 1.79809 226.671 2.51276 226.671 3.38209C226.671 4.25143 226.415 4.96609 225.903 5.52609ZM222.351 5.07809C222.713 5.51543 223.22 5.73409 223.871 5.73409C224.521 5.73409 225.028 5.51543 225.391 5.07809C225.753 4.64076 225.935 4.07543 225.935 3.38209C225.935 2.68876 225.753 2.12343 225.391 1.68609C225.028 1.24343 224.521 1.02209 223.871 1.02209C223.22 1.02209 222.713 1.24343 222.351 1.68609C221.988 2.12343 221.807 2.68876 221.807 3.38209C221.807 4.07543 221.988 4.64076 222.351 5.07809ZM229.409 6.35809C228.641 6.35809 228.049 6.16876 227.633 5.79009C227.222 5.41143 227.001 4.91809 226.969 4.31009H227.673C227.769 5.29143 228.358 5.78209 229.441 5.78209C229.852 5.78209 230.18 5.69143 230.425 5.51009C230.676 5.32343 230.801 5.05676 230.801 4.71009C230.801 4.55543 230.772 4.41943 230.713 4.30209C230.654 4.18476 230.582 4.08876 230.497 4.01409C230.417 3.93943 230.294 3.87009 230.129 3.80609C229.964 3.74209 229.809 3.69143 229.665 3.65409C229.526 3.61676 229.334 3.57143 229.089 3.51809C228.796 3.45409 228.553 3.39009 228.361 3.32609C228.169 3.25676 227.977 3.16343 227.785 3.04609C227.593 2.92876 227.449 2.77943 227.353 2.59809C227.262 2.41143 227.217 2.18743 227.217 1.92609C227.217 1.45676 227.393 1.08876 227.745 0.822093C228.102 0.550093 228.574 0.414093 229.161 0.414093C230.446 0.414093 231.169 1.00876 231.329 2.19809H230.649C230.596 1.79276 230.444 1.48876 230.193 1.28609C229.942 1.07809 229.604 0.974093 229.177 0.974093C228.782 0.974093 228.468 1.05409 228.233 1.21409C228.004 1.37409 227.889 1.60076 227.889 1.89409C227.889 2.02209 227.913 2.13676 227.961 2.23809C228.014 2.33409 228.081 2.41676 228.161 2.48609C228.246 2.55009 228.356 2.60876 228.489 2.66209C228.628 2.71543 228.764 2.76076 228.897 2.79809C229.03 2.83009 229.193 2.86476 229.385 2.90209C229.652 2.95543 229.87 3.00609 230.041 3.05409C230.212 3.09676 230.401 3.16343 230.609 3.25409C230.817 3.34476 230.977 3.44876 231.089 3.56609C231.206 3.68343 231.305 3.83809 231.385 4.03009C231.47 4.21676 231.513 4.43543 231.513 4.68609C231.513 5.20876 231.318 5.61943 230.929 5.91809C230.545 6.21143 230.038 6.35809 229.409 6.35809Z" fill="white"/>
</svg>
