<svg width="391" height="25" viewBox="0 0 391 25" fill="none" xmlns="http://www.w3.org/2000/svg">
<path d="M25.804 16V7.42H26.884V11.068H31.468V7.42H32.548V16H31.468V11.944H26.884V16H25.804ZM34.1595 16V7.42H40.2195V8.368H35.2395V11.08H39.7635V11.992H35.2395V15.004H40.3635V16H34.1595ZM41.6243 16V7.42H42.7643L46.6763 13.384L47.3003 14.488H47.3243V7.42H48.3323V16H47.2283L43.2923 10.024L42.6563 8.956H42.6323V16H41.6243ZM49.9446 16V7.42H53.9526C54.7046 7.42 55.3126 7.636 55.7766 8.068C56.2486 8.5 56.4846 9.068 56.4846 9.772C56.4846 10.868 55.9886 11.576 54.9966 11.896V11.932C55.4206 12.084 55.7206 12.324 55.8966 12.652C56.0806 12.972 56.1926 13.46 56.2326 14.116C56.3126 15.212 56.4446 15.824 56.6286 15.952V16H55.4646C55.3766 15.928 55.3126 15.776 55.2726 15.544C55.2406 15.312 55.2006 14.824 55.1526 14.08C55.1126 13.456 54.9566 13.016 54.6846 12.76C54.4206 12.504 53.9966 12.376 53.4126 12.376H51.0246V16H49.9446ZM51.0246 8.356V11.5H53.5686C54.1606 11.5 54.6086 11.364 54.9126 11.092C55.2166 10.812 55.3686 10.424 55.3686 9.928C55.3686 9.392 55.2326 8.996 54.9606 8.74C54.6886 8.484 54.2446 8.356 53.6286 8.356H51.0246ZM57.8202 16V7.42H58.9002V16H57.8202ZM62.4368 16V7.42H66.0728C66.9768 7.42 67.6648 7.668 68.1368 8.164C68.5048 8.548 68.6888 9.036 68.6888 9.628C68.6888 10.54 68.2288 11.14 67.3088 11.428V11.464C67.8208 11.584 68.2368 11.824 68.5568 12.184C68.8768 12.536 69.0368 12.988 69.0368 13.54C69.0368 14.196 68.8288 14.744 68.4128 15.184C67.9088 15.728 67.1928 16 66.2648 16H62.4368ZM63.5168 15.028H66.2168C66.8088 15.028 67.2568 14.884 67.5608 14.596C67.8168 14.324 67.9448 13.992 67.9448 13.6C67.9448 13.08 67.7808 12.684 67.4528 12.412C67.1248 12.14 66.6888 12.004 66.1448 12.004H63.5168V15.028ZM63.5168 11.092H65.9408C66.4608 11.092 66.8688 10.968 67.1648 10.72C67.4608 10.472 67.6088 10.128 67.6088 9.688C67.6088 9.272 67.4728 8.948 67.2008 8.716C66.9368 8.476 66.5648 8.356 66.0848 8.356H63.5168V11.092ZM69.4755 16L72.6315 7.42H73.8435L77.0115 16H75.8355L74.9235 13.384H71.5035L70.5795 16H69.4755ZM72.8355 9.628L71.8155 12.508H74.6235L73.6395 9.628L73.2555 8.416H73.2315C73.0795 8.896 72.9475 9.3 72.8355 9.628ZM77.9407 16V7.42H81.9487C82.7007 7.42 83.3087 7.636 83.7727 8.068C84.2447 8.5 84.4807 9.068 84.4807 9.772C84.4807 10.868 83.9847 11.576 82.9927 11.896V11.932C83.4167 12.084 83.7167 12.324 83.8927 12.652C84.0767 12.972 84.1887 13.46 84.2287 14.116C84.3087 15.212 84.4407 15.824 84.6247 15.952V16H83.4607C83.3727 15.928 83.3087 15.776 83.2687 15.544C83.2367 15.312 83.1967 14.824 83.1487 14.08C83.1087 13.456 82.9527 13.016 82.6807 12.76C82.4167 12.504 81.9927 12.376 81.4087 12.376H79.0207V16H77.9407ZM79.0207 8.356V11.5H81.5647C82.1567 11.5 82.6047 11.364 82.9087 11.092C83.2127 10.812 83.3647 10.424 83.3647 9.928C83.3647 9.392 83.2287 8.996 82.9567 8.74C82.6847 8.484 82.2407 8.356 81.6247 8.356H79.0207ZM85.7923 16V7.42H89.8003C90.5523 7.42 91.1603 7.636 91.6243 8.068C92.0963 8.5 92.3323 9.068 92.3323 9.772C92.3323 10.868 91.8363 11.576 90.8443 11.896V11.932C91.2683 12.084 91.5683 12.324 91.7443 12.652C91.9283 12.972 92.0403 13.46 92.0803 14.116C92.1603 15.212 92.2923 15.824 92.4763 15.952V16H91.3123C91.2243 15.928 91.1603 15.776 91.1203 15.544C91.0883 15.312 91.0483 14.824 91.0003 14.08C90.9603 13.456 90.8043 13.016 90.5323 12.76C90.2683 12.504 89.8443 12.376 89.2603 12.376H86.8723V16H85.7923ZM86.8723 8.356V11.5H89.4163C90.0083 11.5 90.4563 11.364 90.7603 11.092C91.0643 10.812 91.2163 10.424 91.2163 9.928C91.2163 9.392 91.0803 8.996 90.8083 8.74C90.5363 8.484 90.0923 8.356 89.4763 8.356H86.8723ZM93.6438 16V7.42H99.7038V8.368H94.7238V11.08H99.2478V11.992H94.7238V15.004H99.8478V16H93.6438ZM100.569 8.368V7.42H107.361V8.368H104.505V16H103.425V8.368H100.569ZM108.069 8.368V7.42H114.861V8.368H112.005V16H110.925V8.368H108.069ZM119.321 16C119.345 15.496 119.429 15.052 119.573 14.668C119.725 14.284 119.977 13.932 120.329 13.612C120.689 13.292 120.969 13.064 121.169 12.928C121.377 12.784 121.737 12.564 122.249 12.268C122.265 12.252 122.277 12.244 122.285 12.244C122.293 12.236 122.305 12.228 122.321 12.22C122.337 12.212 122.349 12.204 122.357 12.196C122.373 12.188 122.389 12.18 122.405 12.172C123.037 11.804 123.485 11.488 123.749 11.224C124.013 10.952 124.145 10.588 124.145 10.132C124.145 9.628 123.981 9.22 123.653 8.908C123.333 8.596 122.901 8.44 122.357 8.44C121.805 8.44 121.369 8.612 121.049 8.956C120.737 9.292 120.581 9.84 120.581 10.6H119.525C119.525 9.632 119.785 8.888 120.305 8.368C120.825 7.856 121.537 7.6 122.441 7.6C123.265 7.6 123.929 7.836 124.433 8.308C124.937 8.78 125.189 9.384 125.189 10.12C125.189 10.416 125.145 10.688 125.057 10.936C124.969 11.184 124.877 11.384 124.781 11.536C124.685 11.688 124.509 11.864 124.253 12.064C123.997 12.256 123.805 12.388 123.677 12.46C123.557 12.532 123.317 12.668 122.957 12.868C122.885 12.908 122.829 12.94 122.789 12.964C122.405 13.18 122.085 13.368 121.829 13.528C121.581 13.688 121.321 13.912 121.049 14.2C120.777 14.48 120.605 14.76 120.533 15.04H125.021V16H119.321ZM129.337 16.18C128.337 16.18 127.553 15.796 126.985 15.028C126.425 14.252 126.145 13.204 126.145 11.884C126.145 10.556 126.433 9.508 127.009 8.74C127.593 7.972 128.373 7.588 129.349 7.588C130.325 7.588 131.097 7.972 131.665 8.74C132.241 9.5 132.529 10.548 132.529 11.884C132.529 13.212 132.249 14.26 131.689 15.028C131.137 15.796 130.353 16.18 129.337 16.18ZM127.729 14.404C128.097 15.004 128.637 15.304 129.349 15.304C130.061 15.304 130.593 15.008 130.945 14.416C131.305 13.816 131.485 12.972 131.485 11.884C131.485 10.812 131.301 9.972 130.933 9.364C130.573 8.756 130.045 8.452 129.349 8.452C128.637 8.452 128.097 8.752 127.729 9.352C127.369 9.952 127.189 10.796 127.189 11.884C127.189 12.956 127.369 13.796 127.729 14.404ZM133.372 16C133.396 15.496 133.48 15.052 133.624 14.668C133.776 14.284 134.028 13.932 134.38 13.612C134.74 13.292 135.02 13.064 135.22 12.928C135.428 12.784 135.788 12.564 136.3 12.268C136.316 12.252 136.328 12.244 136.336 12.244C136.344 12.236 136.356 12.228 136.372 12.22C136.388 12.212 136.4 12.204 136.408 12.196C136.424 12.188 136.44 12.18 136.456 12.172C137.088 11.804 137.536 11.488 137.8 11.224C138.064 10.952 138.196 10.588 138.196 10.132C138.196 9.628 138.032 9.22 137.704 8.908C137.384 8.596 136.952 8.44 136.408 8.44C135.856 8.44 135.42 8.612 135.1 8.956C134.788 9.292 134.632 9.84 134.632 10.6H133.576C133.576 9.632 133.836 8.888 134.356 8.368C134.876 7.856 135.588 7.6 136.492 7.6C137.316 7.6 137.98 7.836 138.484 8.308C138.988 8.78 139.24 9.384 139.24 10.12C139.24 10.416 139.196 10.688 139.108 10.936C139.02 11.184 138.928 11.384 138.832 11.536C138.736 11.688 138.56 11.864 138.304 12.064C138.048 12.256 137.856 12.388 137.728 12.46C137.608 12.532 137.368 12.668 137.008 12.868C136.936 12.908 136.88 12.94 136.84 12.964C136.456 13.18 136.136 13.368 135.88 13.528C135.632 13.688 135.372 13.912 135.1 14.2C134.828 14.48 134.656 14.76 134.584 15.04H139.072V16H133.372ZM143.16 16.18C142.224 16.18 141.448 15.924 140.832 15.412C140.216 14.9 139.9 14.192 139.884 13.288H140.88C140.896 13.944 141.1 14.452 141.492 14.812C141.892 15.164 142.436 15.34 143.124 15.34C143.716 15.34 144.188 15.196 144.54 14.908C144.892 14.612 145.068 14.18 145.068 13.612C145.068 13.092 144.88 12.696 144.504 12.424C144.136 12.152 143.604 12.016 142.908 12.016H142.392V11.236H142.896C143.528 11.236 144.008 11.112 144.336 10.864C144.664 10.616 144.828 10.268 144.828 9.82C144.828 9.38 144.656 9.032 144.312 8.776C143.976 8.512 143.552 8.38 143.04 8.38C142.456 8.38 141.992 8.556 141.648 8.908C141.312 9.252 141.144 9.712 141.144 10.288H140.16C140.168 9.472 140.432 8.82 140.952 8.332C141.472 7.836 142.18 7.588 143.076 7.588C143.86 7.588 144.512 7.792 145.032 8.2C145.552 8.6 145.812 9.148 145.812 9.844C145.812 10.692 145.36 11.268 144.456 11.572V11.608C145.56 11.896 146.112 12.596 146.112 13.708C146.112 14.476 145.832 15.08 145.272 15.52C144.72 15.96 144.016 16.18 143.16 16.18ZM153.594 12.244C153.042 12.796 152.37 13.072 151.578 13.072C150.786 13.072 150.11 12.796 149.55 12.244C148.998 11.692 148.722 11 148.722 10.168C148.722 9.344 148.998 8.656 149.55 8.104C150.11 7.544 150.786 7.264 151.578 7.264C152.37 7.264 153.042 7.544 153.594 8.104C154.154 8.656 154.434 9.344 154.434 10.168C154.434 11 154.154 11.692 153.594 12.244ZM149.874 11.956C150.322 12.42 150.89 12.652 151.578 12.652C152.266 12.652 152.83 12.42 153.27 11.956C153.718 11.484 153.942 10.888 153.942 10.168C153.942 9.456 153.718 8.864 153.27 8.392C152.822 7.92 152.258 7.684 151.578 7.684C150.898 7.684 150.334 7.92 149.886 8.392C149.438 8.864 149.214 9.456 149.214 10.168C149.214 10.888 149.434 11.484 149.874 11.956ZM150.462 11.668V8.596H151.878C152.158 8.596 152.39 8.68 152.574 8.848C152.758 9.008 152.85 9.212 152.85 9.46C152.85 9.852 152.658 10.096 152.274 10.192V10.204C152.562 10.284 152.722 10.492 152.754 10.828C152.762 10.9 152.77 10.98 152.778 11.068C152.786 11.156 152.79 11.228 152.79 11.284C152.798 11.34 152.802 11.396 152.802 11.452C152.81 11.508 152.818 11.552 152.826 11.584C152.842 11.608 152.862 11.624 152.886 11.632V11.668H152.298C152.226 11.636 152.182 11.4 152.166 10.96C152.15 10.608 151.954 10.432 151.578 10.432H151.074V11.668H150.462ZM151.074 9.1V9.964H151.746C152.082 9.964 152.25 9.82 152.25 9.532C152.25 9.244 152.082 9.1 151.746 9.1H151.074ZM165.225 17.416V6.952H166.065V17.416H165.225ZM178.709 8.368V7.42H185.501V8.368H182.645V16H181.565V8.368H178.709ZM192.958 14.92C192.198 15.76 191.182 16.18 189.91 16.18C188.638 16.18 187.618 15.76 186.85 14.92C186.09 14.08 185.71 13.008 185.71 11.704C185.71 10.4 186.09 9.328 186.85 8.488C187.618 7.648 188.638 7.228 189.91 7.228C191.182 7.228 192.198 7.648 192.958 8.488C193.726 9.328 194.11 10.4 194.11 11.704C194.11 13.008 193.726 14.08 192.958 14.92ZM187.63 14.248C188.174 14.904 188.934 15.232 189.91 15.232C190.886 15.232 191.646 14.904 192.19 14.248C192.734 13.592 193.006 12.744 193.006 11.704C193.006 10.664 192.734 9.816 192.19 9.16C191.646 8.496 190.886 8.164 189.91 8.164C188.934 8.164 188.174 8.496 187.63 9.16C187.086 9.816 186.814 10.664 186.814 11.704C186.814 12.744 187.086 13.592 187.63 14.248ZM195.398 16V7.42H198.518C199.774 7.42 200.722 7.808 201.362 8.584C202.002 9.36 202.322 10.412 202.322 11.74C202.322 13.06 201.99 14.1 201.326 14.86C200.662 15.62 199.698 16 198.434 16H195.398ZM196.478 15.052H198.398C200.278 15.052 201.218 13.948 201.218 11.74C201.218 9.484 200.306 8.356 198.482 8.356H196.478V15.052ZM210.525 14.92C209.765 15.76 208.749 16.18 207.477 16.18C206.205 16.18 205.185 15.76 204.417 14.92C203.657 14.08 203.277 13.008 203.277 11.704C203.277 10.4 203.657 9.328 204.417 8.488C205.185 7.648 206.205 7.228 207.477 7.228C208.749 7.228 209.765 7.648 210.525 8.488C211.293 9.328 211.677 10.4 211.677 11.704C211.677 13.008 211.293 14.08 210.525 14.92ZM205.197 14.248C205.741 14.904 206.501 15.232 207.477 15.232C208.453 15.232 209.213 14.904 209.757 14.248C210.301 13.592 210.573 12.744 210.573 11.704C210.573 10.664 210.301 9.816 209.757 9.16C209.213 8.496 208.453 8.164 207.477 8.164C206.501 8.164 205.741 8.496 205.197 9.16C204.653 9.816 204.381 10.664 204.381 11.704C204.381 12.744 204.653 13.592 205.197 14.248ZM216.084 16.168C214.932 16.168 214.044 15.884 213.42 15.316C212.804 14.748 212.472 14.008 212.424 13.096H213.48C213.624 14.568 214.508 15.304 216.132 15.304C216.748 15.304 217.24 15.168 217.608 14.896C217.984 14.616 218.172 14.216 218.172 13.696C218.172 13.464 218.128 13.26 218.04 13.084C217.952 12.908 217.844 12.764 217.716 12.652C217.596 12.54 217.412 12.436 217.164 12.34C216.916 12.244 216.684 12.168 216.468 12.112C216.26 12.056 215.972 11.988 215.604 11.908C215.164 11.812 214.8 11.716 214.512 11.62C214.224 11.516 213.936 11.376 213.648 11.2C213.36 11.024 213.144 10.8 213 10.528C212.864 10.248 212.796 9.912 212.796 9.52C212.796 8.816 213.06 8.264 213.588 7.864C214.124 7.456 214.832 7.252 215.712 7.252C217.64 7.252 218.724 8.144 218.964 9.928H217.944C217.864 9.32 217.636 8.864 217.26 8.56C216.884 8.248 216.376 8.092 215.736 8.092C215.144 8.092 214.672 8.212 214.32 8.452C213.976 8.692 213.804 9.032 213.804 9.472C213.804 9.664 213.84 9.836 213.912 9.988C213.992 10.132 214.092 10.256 214.212 10.36C214.34 10.456 214.504 10.544 214.704 10.624C214.912 10.704 215.116 10.772 215.316 10.828C215.516 10.876 215.76 10.928 216.048 10.984C216.448 11.064 216.776 11.14 217.032 11.212C217.288 11.276 217.572 11.376 217.884 11.512C218.196 11.648 218.436 11.804 218.604 11.98C218.78 12.156 218.928 12.388 219.048 12.676C219.176 12.956 219.24 13.284 219.24 13.66C219.24 14.444 218.948 15.06 218.364 15.508C217.788 15.948 217.028 16.168 216.084 16.168ZM222.386 16V7.42H223.466V15.004H227.966V16H222.386ZM235.416 14.92C234.656 15.76 233.64 16.18 232.368 16.18C231.096 16.18 230.076 15.76 229.308 14.92C228.548 14.08 228.168 13.008 228.168 11.704C228.168 10.4 228.548 9.328 229.308 8.488C230.076 7.648 231.096 7.228 232.368 7.228C233.64 7.228 234.656 7.648 235.416 8.488C236.184 9.328 236.568 10.4 236.568 11.704C236.568 13.008 236.184 14.08 235.416 14.92ZM230.088 14.248C230.632 14.904 231.392 15.232 232.368 15.232C233.344 15.232 234.104 14.904 234.648 14.248C235.192 13.592 235.464 12.744 235.464 11.704C235.464 10.664 235.192 9.816 234.648 9.16C234.104 8.496 233.344 8.164 232.368 8.164C231.392 8.164 230.632 8.496 230.088 9.16C229.544 9.816 229.271 10.664 229.271 11.704C229.271 12.744 229.544 13.592 230.088 14.248ZM240.975 16.168C239.823 16.168 238.935 15.884 238.311 15.316C237.695 14.748 237.363 14.008 237.315 13.096H238.371C238.515 14.568 239.399 15.304 241.023 15.304C241.639 15.304 242.131 15.168 242.499 14.896C242.875 14.616 243.063 14.216 243.063 13.696C243.063 13.464 243.019 13.26 242.931 13.084C242.843 12.908 242.735 12.764 242.607 12.652C242.487 12.54 242.303 12.436 242.055 12.34C241.807 12.244 241.575 12.168 241.359 12.112C241.151 12.056 240.863 11.988 240.495 11.908C240.055 11.812 239.691 11.716 239.403 11.62C239.115 11.516 238.827 11.376 238.539 11.2C238.251 11.024 238.035 10.8 237.891 10.528C237.755 10.248 237.687 9.912 237.687 9.52C237.687 8.816 237.951 8.264 238.479 7.864C239.015 7.456 239.723 7.252 240.603 7.252C242.531 7.252 243.615 8.144 243.855 9.928H242.835C242.755 9.32 242.527 8.864 242.151 8.56C241.775 8.248 241.267 8.092 240.627 8.092C240.035 8.092 239.563 8.212 239.211 8.452C238.867 8.692 238.695 9.032 238.695 9.472C238.695 9.664 238.731 9.836 238.803 9.988C238.883 10.132 238.983 10.256 239.103 10.36C239.231 10.456 239.395 10.544 239.595 10.624C239.803 10.704 240.007 10.772 240.207 10.828C240.407 10.876 240.651 10.928 240.939 10.984C241.339 11.064 241.667 11.14 241.923 11.212C242.179 11.276 242.463 11.376 242.775 11.512C243.087 11.648 243.327 11.804 243.495 11.98C243.671 12.156 243.819 12.388 243.939 12.676C244.067 12.956 244.131 13.284 244.131 13.66C244.131 14.444 243.839 15.06 243.255 15.508C242.679 15.948 241.919 16.168 240.975 16.168ZM247.277 16V7.42H250.397C251.653 7.42 252.601 7.808 253.241 8.584C253.881 9.36 254.201 10.412 254.201 11.74C254.201 13.06 253.869 14.1 253.205 14.86C252.541 15.62 251.577 16 250.313 16H247.277ZM248.357 15.052H250.277C252.157 15.052 253.097 13.948 253.097 11.74C253.097 9.484 252.185 8.356 250.361 8.356H248.357V15.052ZM255.48 16V7.42H261.54V8.368H256.56V11.08H261.084V11.992H256.56V15.004H261.684V16H255.48ZM262.945 16V7.42H266.953C267.705 7.42 268.313 7.636 268.777 8.068C269.249 8.5 269.485 9.068 269.485 9.772C269.485 10.868 268.989 11.576 267.997 11.896V11.932C268.421 12.084 268.721 12.324 268.897 12.652C269.081 12.972 269.193 13.46 269.233 14.116C269.313 15.212 269.445 15.824 269.629 15.952V16H268.465C268.377 15.928 268.313 15.776 268.273 15.544C268.241 15.312 268.201 14.824 268.153 14.08C268.113 13.456 267.957 13.016 267.685 12.76C267.421 12.504 266.997 12.376 266.413 12.376H264.025V16H262.945ZM264.025 8.356V11.5H266.569C267.161 11.5 267.609 11.364 267.913 11.092C268.217 10.812 268.369 10.424 268.369 9.928C268.369 9.392 268.233 8.996 267.961 8.74C267.689 8.484 267.245 8.356 266.629 8.356H264.025ZM270.796 16V7.42H276.856V8.368H271.876V11.08H276.4V11.992H271.876V15.004H277V16H270.796ZM281.781 16.168C280.573 16.168 279.601 15.752 278.865 14.92C278.129 14.088 277.761 13.016 277.761 11.704C277.761 10.408 278.125 9.34 278.853 8.5C279.589 7.652 280.581 7.228 281.829 7.228C282.805 7.228 283.593 7.48 284.193 7.984C284.793 8.488 285.153 9.148 285.273 9.964H284.217C284.113 9.42 283.849 8.984 283.425 8.656C283.009 8.328 282.469 8.164 281.805 8.164C280.885 8.164 280.165 8.496 279.645 9.16C279.125 9.816 278.865 10.664 278.865 11.704C278.865 12.76 279.133 13.612 279.669 14.26C280.213 14.9 280.929 15.22 281.817 15.22C282.585 15.22 283.177 14.996 283.593 14.548C284.017 14.1 284.257 13.536 284.313 12.856H285.381C285.373 13.28 285.273 13.716 285.081 14.164C284.897 14.604 284.653 14.972 284.349 15.268C283.733 15.868 282.877 16.168 281.781 16.168ZM286.593 16V7.42H287.673V11.068H292.257V7.42H293.337V16H292.257V11.944H287.673V16H286.593ZM301.873 14.92C301.113 15.76 300.097 16.18 298.825 16.18C297.553 16.18 296.533 15.76 295.765 14.92C295.005 14.08 294.625 13.008 294.625 11.704C294.625 10.4 295.005 9.328 295.765 8.488C296.533 7.648 297.553 7.228 298.825 7.228C300.097 7.228 301.113 7.648 301.873 8.488C302.641 9.328 303.025 10.4 303.025 11.704C303.025 13.008 302.641 14.08 301.873 14.92ZM296.545 14.248C297.089 14.904 297.849 15.232 298.825 15.232C299.801 15.232 300.561 14.904 301.105 14.248C301.649 13.592 301.921 12.744 301.921 11.704C301.921 10.664 301.649 9.816 301.105 9.16C300.561 8.496 299.801 8.164 298.825 8.164C297.849 8.164 297.089 8.496 296.545 9.16C296.001 9.816 295.729 10.664 295.729 11.704C295.729 12.744 296.001 13.592 296.545 14.248ZM307.432 16.168C306.28 16.168 305.392 15.884 304.768 15.316C304.152 14.748 303.82 14.008 303.772 13.096H304.828C304.972 14.568 305.856 15.304 307.48 15.304C308.096 15.304 308.588 15.168 308.956 14.896C309.332 14.616 309.52 14.216 309.52 13.696C309.52 13.464 309.476 13.26 309.388 13.084C309.3 12.908 309.192 12.764 309.064 12.652C308.944 12.54 308.76 12.436 308.512 12.34C308.264 12.244 308.032 12.168 307.816 12.112C307.608 12.056 307.32 11.988 306.952 11.908C306.512 11.812 306.148 11.716 305.86 11.62C305.572 11.516 305.284 11.376 304.996 11.2C304.708 11.024 304.492 10.8 304.348 10.528C304.212 10.248 304.144 9.912 304.144 9.52C304.144 8.816 304.408 8.264 304.936 7.864C305.472 7.456 306.18 7.252 307.06 7.252C308.988 7.252 310.072 8.144 310.312 9.928H309.292C309.212 9.32 308.984 8.864 308.608 8.56C308.232 8.248 307.724 8.092 307.084 8.092C306.492 8.092 306.02 8.212 305.668 8.452C305.324 8.692 305.152 9.032 305.152 9.472C305.152 9.664 305.188 9.836 305.26 9.988C305.34 10.132 305.44 10.256 305.56 10.36C305.688 10.456 305.852 10.544 306.052 10.624C306.26 10.704 306.464 10.772 306.664 10.828C306.864 10.876 307.108 10.928 307.396 10.984C307.796 11.064 308.124 11.14 308.38 11.212C308.636 11.276 308.92 11.376 309.232 11.512C309.544 11.648 309.784 11.804 309.952 11.98C310.128 12.156 310.276 12.388 310.396 12.676C310.524 12.956 310.588 13.284 310.588 13.66C310.588 14.444 310.296 15.06 309.712 15.508C309.136 15.948 308.376 16.168 307.432 16.168ZM313.734 16V7.42H317.742C318.494 7.42 319.102 7.636 319.566 8.068C320.038 8.5 320.274 9.068 320.274 9.772C320.274 10.868 319.778 11.576 318.786 11.896V11.932C319.21 12.084 319.51 12.324 319.686 12.652C319.87 12.972 319.982 13.46 320.022 14.116C320.102 15.212 320.234 15.824 320.418 15.952V16H319.254C319.166 15.928 319.102 15.776 319.062 15.544C319.03 15.312 318.99 14.824 318.942 14.08C318.902 13.456 318.746 13.016 318.474 12.76C318.21 12.504 317.786 12.376 317.202 12.376H314.814V16H313.734ZM314.814 8.356V11.5H317.358C317.95 11.5 318.398 11.364 318.702 11.092C319.006 10.812 319.158 10.424 319.158 9.928C319.158 9.392 319.022 8.996 318.75 8.74C318.478 8.484 318.034 8.356 317.418 8.356H314.814ZM321.585 16V7.42H327.645V8.368H322.665V11.08H327.189V11.992H322.665V15.004H327.789V16H321.585ZM332.053 16.168C330.901 16.168 330.013 15.884 329.389 15.316C328.773 14.748 328.441 14.008 328.393 13.096H329.449C329.593 14.568 330.477 15.304 332.101 15.304C332.717 15.304 333.209 15.168 333.577 14.896C333.953 14.616 334.141 14.216 334.141 13.696C334.141 13.464 334.097 13.26 334.009 13.084C333.921 12.908 333.813 12.764 333.685 12.652C333.565 12.54 333.381 12.436 333.133 12.34C332.885 12.244 332.653 12.168 332.437 12.112C332.229 12.056 331.941 11.988 331.573 11.908C331.133 11.812 330.769 11.716 330.481 11.62C330.193 11.516 329.905 11.376 329.617 11.2C329.329 11.024 329.113 10.8 328.969 10.528C328.833 10.248 328.765 9.912 328.765 9.52C328.765 8.816 329.029 8.264 329.557 7.864C330.093 7.456 330.801 7.252 331.681 7.252C333.609 7.252 334.693 8.144 334.933 9.928H333.913C333.833 9.32 333.605 8.864 333.229 8.56C332.853 8.248 332.345 8.092 331.705 8.092C331.113 8.092 330.641 8.212 330.289 8.452C329.945 8.692 329.773 9.032 329.773 9.472C329.773 9.664 329.809 9.836 329.881 9.988C329.961 10.132 330.061 10.256 330.181 10.36C330.309 10.456 330.473 10.544 330.673 10.624C330.881 10.704 331.085 10.772 331.285 10.828C331.485 10.876 331.729 10.928 332.017 10.984C332.417 11.064 332.745 11.14 333.001 11.212C333.257 11.276 333.541 11.376 333.853 11.512C334.165 11.648 334.405 11.804 334.573 11.98C334.749 12.156 334.897 12.388 335.017 12.676C335.145 12.956 335.209 13.284 335.209 13.66C335.209 14.444 334.917 15.06 334.333 15.508C333.757 15.948 332.997 16.168 332.053 16.168ZM336.445 16V7.42H342.505V8.368H337.525V11.08H342.049V11.992H337.525V15.004H342.649V16H336.445ZM343.909 16V7.42H347.917C348.669 7.42 349.277 7.636 349.741 8.068C350.213 8.5 350.449 9.068 350.449 9.772C350.449 10.868 349.953 11.576 348.961 11.896V11.932C349.385 12.084 349.685 12.324 349.861 12.652C350.045 12.972 350.157 13.46 350.197 14.116C350.277 15.212 350.409 15.824 350.593 15.952V16H349.429C349.341 15.928 349.277 15.776 349.237 15.544C349.205 15.312 349.165 14.824 349.117 14.08C349.077 13.456 348.921 13.016 348.649 12.76C348.385 12.504 347.961 12.376 347.377 12.376H344.989V16H343.909ZM344.989 8.356V11.5H347.533C348.125 11.5 348.573 11.364 348.877 11.092C349.181 10.812 349.333 10.424 349.333 9.928C349.333 9.392 349.197 8.996 348.925 8.74C348.653 8.484 348.209 8.356 347.593 8.356H344.989ZM354.065 16L351.077 7.42H352.241L354.353 13.804L354.689 14.956H354.713C354.849 14.444 354.961 14.06 355.049 13.804L357.137 7.42H358.265L355.253 16H354.065ZM357.663 16L360.819 7.42H362.031L365.199 16H364.023L363.111 13.384H359.691L358.767 16H357.663ZM361.023 9.628L360.003 12.508H362.811L361.827 9.628L361.443 8.416H361.419C361.267 8.896 361.135 9.3 361.023 9.628ZM366.128 16V7.42H369.248C370.504 7.42 371.452 7.808 372.092 8.584C372.732 9.36 373.052 10.412 373.052 11.74C373.052 13.06 372.72 14.1 372.056 14.86C371.392 15.62 370.428 16 369.164 16H366.128ZM367.208 15.052H369.128C371.008 15.052 371.948 13.948 371.948 11.74C371.948 9.484 371.036 8.356 369.212 8.356H367.208V15.052ZM381.255 14.92C380.495 15.76 379.479 16.18 378.207 16.18C376.935 16.18 375.915 15.76 375.147 14.92C374.387 14.08 374.007 13.008 374.007 11.704C374.007 10.4 374.387 9.328 375.147 8.488C375.915 7.648 376.935 7.228 378.207 7.228C379.479 7.228 380.495 7.648 381.255 8.488C382.023 9.328 382.407 10.4 382.407 11.704C382.407 13.008 382.023 14.08 381.255 14.92ZM375.927 14.248C376.471 14.904 377.231 15.232 378.207 15.232C379.183 15.232 379.943 14.904 380.487 14.248C381.031 13.592 381.303 12.744 381.303 11.704C381.303 10.664 381.031 9.816 380.487 9.16C379.943 8.496 379.183 8.164 378.207 8.164C377.231 8.164 376.471 8.496 375.927 9.16C375.383 9.816 375.111 10.664 375.111 11.704C375.111 12.744 375.383 13.592 375.927 14.248ZM386.815 16.168C385.663 16.168 384.775 15.884 384.151 15.316C383.535 14.748 383.203 14.008 383.155 13.096H384.211C384.355 14.568 385.239 15.304 386.863 15.304C387.479 15.304 387.971 15.168 388.339 14.896C388.715 14.616 388.903 14.216 388.903 13.696C388.903 13.464 388.859 13.26 388.771 13.084C388.683 12.908 388.575 12.764 388.447 12.652C388.327 12.54 388.143 12.436 387.895 12.34C387.647 12.244 387.415 12.168 387.199 12.112C386.991 12.056 386.703 11.988 386.335 11.908C385.895 11.812 385.531 11.716 385.243 11.62C384.955 11.516 384.667 11.376 384.379 11.2C384.091 11.024 383.875 10.8 383.731 10.528C383.595 10.248 383.527 9.912 383.527 9.52C383.527 8.816 383.791 8.264 384.319 7.864C384.855 7.456 385.563 7.252 386.443 7.252C388.371 7.252 389.455 8.144 389.695 9.928H388.675C388.595 9.32 388.367 8.864 387.991 8.56C387.615 8.248 387.107 8.092 386.467 8.092C385.875 8.092 385.403 8.212 385.051 8.452C384.707 8.692 384.535 9.032 384.535 9.472C384.535 9.664 384.571 9.836 384.643 9.988C384.723 10.132 384.823 10.256 384.943 10.36C385.071 10.456 385.235 10.544 385.435 10.624C385.643 10.704 385.847 10.772 386.047 10.828C386.247 10.876 386.491 10.928 386.779 10.984C387.179 11.064 387.507 11.14 387.763 11.212C388.019 11.276 388.303 11.376 388.615 11.512C388.927 11.648 389.167 11.804 389.335 11.98C389.511 12.156 389.659 12.388 389.779 12.676C389.907 12.956 389.971 13.284 389.971 13.66C389.971 14.444 389.679 15.06 389.095 15.508C388.519 15.948 387.759 16.168 386.815 16.168Z" fill="black"/>
<path d="M6.86621 12C6.86621 13.1692 7.81571 14.1187 8.9849 14.1187C10.1541 14.1187 11.1036 13.1692 11.1036 12C11.1036 10.8308 10.1541 9.88135 8.9849 9.88135C7.81571 9.88135 6.86621 10.8308 6.86621 12Z" fill="black"/>
<path d="M8.35377 15.4346L8.00781 21.0002L9.99519 20.9977L9.6467 15.4371L8.35377 15.4346Z" fill="black"/>
<path d="M3.63867 19.2978L5.36342 20.2902L7.84069 15.3004L6.72453 14.6514L3.63867 19.2978Z" fill="black"/>
<path d="M5.70393 13.1567L0.708984 15.6391L1.70393 17.3613L6.34535 14.2779L5.70393 13.1567Z" fill="black"/>
<path d="M5.56565 11.3533L0 11.0073L0.00252525 12.9947L5.56313 12.6462L5.56565 11.3533Z" fill="black"/>
<path d="M6.35101 9.72452L1.70203 6.63867L0.712128 8.36342L5.6995 10.8407L6.35101 9.72452Z" fill="black"/>
<path d="M7.84367 8.70441L5.36134 3.70947L3.64165 4.70442L6.72245 9.34583L7.84367 8.70441Z" fill="black"/>
<path d="M9.6467 8.56565L9.99519 3L8.00781 3.00253L8.35377 8.56312L9.6467 8.56565Z" fill="black"/>
<path d="M14.3612 4.70181L12.639 3.71191L10.1592 8.69928L11.2779 9.35079L14.3612 4.70181Z" fill="black"/>
<path d="M12.2982 10.8436L17.2932 8.3613L16.2957 6.6416L11.6543 9.7224L12.2982 10.8436Z" fill="black"/>
<path d="M12.4344 12.6462L18.0001 12.9947L17.9975 11.0073L12.4369 11.3533L12.4344 12.6462Z" fill="black"/>
<path d="M11.6513 14.2779L16.2977 17.3612L17.2901 15.639L12.3002 13.1592L11.6513 14.2779Z" fill="black"/>
<path d="M10.1592 15.2977L12.639 20.2927L14.3612 19.2952L11.2804 14.6538L10.1592 15.2977Z" fill="black"/>
</svg>
