<svg width="246" height="9" viewBox="0 0 246 9" fill="none" xmlns="http://www.w3.org/2000/svg">
<path d="M3.43359 4.50075C3.43359 5.08534 3.90834 5.56009 4.49294 5.56009C5.07753 5.56009 5.55228 5.08534 5.55228 4.50075C5.55228 3.91615 5.07753 3.44141 4.49294 3.44141C3.90834 3.44141 3.43359 3.91615 3.43359 4.50075Z" fill="white"/>
<path d="M4.17689 6.21875L4.00391 9.00157L4.99759 9.00031L4.82335 6.22001L4.17689 6.21875Z" fill="white"/>
<path d="M1.82031 8.14745L2.68269 8.64366L3.92132 6.14871L3.36324 5.82422L1.82031 8.14745Z" fill="white"/>
<path d="M2.85294 5.07812L0.355469 6.31928L0.852943 7.18039L3.17365 5.63873L2.85294 5.07812Z" fill="white"/>
<path d="M2.78283 4.17689L0 4.00391L0.00126263 4.99759L2.78156 4.82335L2.78283 4.17689Z" fill="white"/>
<path d="M3.17491 3.36324L0.850418 1.82031L0.355469 2.68268L2.84915 3.92132L3.17491 3.36324Z" fill="white"/>
<path d="M3.92132 2.85294L2.68016 0.355469L1.82031 0.852943L3.36072 3.17365L3.92132 2.85294Z" fill="white"/>
<path d="M4.82335 2.78282L4.99759 0L4.00391 0.00126262L4.17689 2.78156L4.82335 2.78282Z" fill="white"/>
<path d="M7.18109 0.850417L6.31998 0.355469L5.08008 2.84915L5.63942 3.17491L7.18109 0.850417Z" fill="white"/>
<path d="M6.15009 3.92132L8.64757 2.68016L8.14883 1.82031L5.82812 3.36071L6.15009 3.92132Z" fill="white"/>
<path d="M6.2168 4.82335L8.99962 4.99759L8.99836 4.00391L6.21806 4.17689L6.2168 4.82335Z" fill="white"/>
<path d="M5.82617 5.63747L8.1494 7.17913L8.64561 6.31802L6.15067 5.07812L5.82617 5.63747Z" fill="white"/>
<path d="M5.08008 6.15009L6.31998 8.64756L7.18109 8.14883L5.64068 5.82812L5.08008 6.15009Z" fill="white"/>
<path d="M14.9352 7.5V1.78H15.6552V4.212H18.7112V1.78H19.4312V7.5H18.7112V4.796H15.6552V7.5H14.9352ZM20.3055 7.5V1.78H24.3455V2.412H21.0255V4.22H24.0415V4.828H21.0255V6.836H24.4415V7.5H20.3055ZM25.0821 7.5V1.78H25.8421L28.4501 5.756L28.8661 6.492H28.8821V1.78H29.5541V7.5H28.8181L26.1941 3.516L25.7701 2.804H25.7541V7.5H25.0821ZM30.429 7.5V1.78H33.101C33.6023 1.78 34.0076 1.924 34.317 2.212C34.6316 2.5 34.789 2.87867 34.789 3.348C34.789 4.07867 34.4583 4.55067 33.797 4.764V4.788C34.0796 4.88933 34.2796 5.04933 34.397 5.268C34.5196 5.48133 34.5943 5.80667 34.621 6.244C34.6743 6.97467 34.7623 7.38267 34.885 7.468V7.5H34.109C34.0503 7.452 34.0076 7.35067 33.981 7.196C33.9596 7.04133 33.933 6.716 33.901 6.22C33.8743 5.804 33.7703 5.51067 33.589 5.34C33.413 5.16933 33.1303 5.084 32.741 5.084H31.149V7.5H30.429ZM31.149 2.404V4.5H32.845C33.2396 4.5 33.5383 4.40933 33.741 4.228C33.9436 4.04133 34.045 3.78267 34.045 3.452C34.045 3.09467 33.9543 2.83067 33.773 2.66C33.5916 2.48933 33.2956 2.404 32.885 2.404H31.149ZM35.4793 7.5V1.78H36.1993V7.5H35.4793ZM38.1571 7.5V1.78H40.5811C41.1838 1.78 41.6424 1.94533 41.9571 2.276C42.2024 2.532 42.3251 2.85733 42.3251 3.252C42.3251 3.86 42.0184 4.26 41.4051 4.452V4.476C41.7464 4.556 42.0238 4.716 42.2371 4.956C42.4504 5.19067 42.5571 5.492 42.5571 5.86C42.5571 6.29733 42.4184 6.66267 42.1411 6.956C41.8051 7.31867 41.3278 7.5 40.7091 7.5H38.1571ZM38.8771 6.852H40.6771C41.0718 6.852 41.3704 6.756 41.5731 6.564C41.7438 6.38267 41.8291 6.16133 41.8291 5.9C41.8291 5.55333 41.7198 5.28933 41.5011 5.108C41.2824 4.92667 40.9918 4.836 40.6291 4.836H38.8771V6.852ZM38.8771 4.228H40.4931C40.8398 4.228 41.1118 4.14533 41.3091 3.98C41.5064 3.81467 41.6051 3.58533 41.6051 3.292C41.6051 3.01467 41.5144 2.79867 41.3331 2.644C41.1571 2.484 40.9091 2.404 40.5891 2.404H38.8771V4.228ZM42.6495 7.5L44.7535 1.78H45.5615L47.6735 7.5H46.8895L46.2815 5.756H44.0015L43.3855 7.5H42.6495ZM44.8895 3.252L44.2095 5.172H46.0815L45.4255 3.252L45.1695 2.444H45.1535C45.0522 2.764 44.9642 3.03333 44.8895 3.252ZM48.093 7.5V1.78H50.765C51.2664 1.78 51.6717 1.924 51.981 2.212C52.2957 2.5 52.453 2.87867 52.453 3.348C52.453 4.07867 52.1224 4.55067 51.461 4.764V4.788C51.7437 4.88933 51.9437 5.04933 52.061 5.268C52.1837 5.48133 52.2584 5.80667 52.285 6.244C52.3384 6.97467 52.4264 7.38267 52.549 7.468V7.5H51.773C51.7144 7.452 51.6717 7.35067 51.645 7.196C51.6237 7.04133 51.597 6.716 51.565 6.22C51.5384 5.804 51.4344 5.51067 51.253 5.34C51.077 5.16933 50.7944 5.084 50.405 5.084H48.813V7.5H48.093ZM48.813 2.404V4.5H50.509C50.9037 4.5 51.2024 4.40933 51.405 4.228C51.6077 4.04133 51.709 3.78267 51.709 3.452C51.709 3.09467 51.6184 2.83067 51.437 2.66C51.2557 2.48933 50.9597 2.404 50.549 2.404H48.813ZM53.1274 7.5V1.78H55.7994C56.3007 1.78 56.7061 1.924 57.0154 2.212C57.3301 2.5 57.4874 2.87867 57.4874 3.348C57.4874 4.07867 57.1567 4.55067 56.4954 4.764V4.788C56.7781 4.88933 56.9781 5.04933 57.0954 5.268C57.2181 5.48133 57.2927 5.80667 57.3194 6.244C57.3727 6.97467 57.4607 7.38267 57.5834 7.468V7.5H56.8074C56.7487 7.452 56.7061 7.35067 56.6794 7.196C56.6581 7.04133 56.6314 6.716 56.5994 6.22C56.5727 5.804 56.4687 5.51067 56.2874 5.34C56.1114 5.16933 55.8287 5.084 55.4394 5.084H53.8474V7.5H53.1274ZM53.8474 2.404V4.5H55.5434C55.9381 4.5 56.2367 4.40933 56.4394 4.228C56.6421 4.04133 56.7434 3.78267 56.7434 3.452C56.7434 3.09467 56.6527 2.83067 56.4714 2.66C56.2901 2.48933 55.9941 2.404 55.5834 2.404H53.8474ZM58.1618 7.5V1.78H62.2018V2.412H58.8818V4.22H61.8978V4.828H58.8818V6.836H62.2978V7.5H58.1618ZM62.5783 2.412V1.78H67.1063V2.412H65.2023V7.5H64.4823V2.412H62.5783ZM67.3783 2.412V1.78H71.9063V2.412H70.0023V7.5H69.2823V2.412H67.3783ZM74.28 7.5C74.296 7.164 74.352 6.868 74.448 6.612C74.5494 6.356 74.7174 6.12133 74.952 5.908C75.192 5.69467 75.3787 5.54267 75.512 5.452C75.6507 5.356 75.8907 5.20933 76.232 5.012C76.2427 5.00133 76.2507 4.996 76.256 4.996C76.2614 4.99067 76.2694 4.98533 76.28 4.98C76.2907 4.97467 76.2987 4.96933 76.304 4.964C76.3147 4.95867 76.3254 4.95333 76.336 4.948C76.7574 4.70267 77.056 4.492 77.232 4.316C77.408 4.13467 77.496 3.892 77.496 3.588C77.496 3.252 77.3867 2.98 77.168 2.772C76.9547 2.564 76.6667 2.46 76.304 2.46C75.936 2.46 75.6454 2.57467 75.432 2.804C75.224 3.028 75.12 3.39333 75.12 3.9H74.416C74.416 3.25467 74.5894 2.75867 74.936 2.412C75.2827 2.07067 75.7574 1.9 76.36 1.9C76.9094 1.9 77.352 2.05733 77.688 2.372C78.024 2.68667 78.192 3.08933 78.192 3.58C78.192 3.77733 78.1627 3.95867 78.104 4.124C78.0454 4.28933 77.984 4.42267 77.92 4.524C77.856 4.62533 77.7387 4.74267 77.568 4.876C77.3974 5.004 77.2694 5.092 77.184 5.14C77.104 5.188 76.944 5.27867 76.704 5.412C76.656 5.43867 76.6187 5.46 76.592 5.476C76.336 5.62 76.1227 5.74533 75.952 5.852C75.7867 5.95867 75.6134 6.108 75.432 6.3C75.2507 6.48667 75.136 6.67333 75.088 6.86H78.08V7.5H74.28ZM80.7573 7.62C80.0907 7.62 79.568 7.364 79.1893 6.852C78.816 6.33467 78.6293 5.636 78.6293 4.756C78.6293 3.87067 78.8213 3.172 79.2053 2.66C79.5947 2.148 80.1147 1.892 80.7653 1.892C81.416 1.892 81.9307 2.148 82.3093 2.66C82.6933 3.16667 82.8853 3.86533 82.8853 4.756C82.8853 5.64133 82.6987 6.34 82.3253 6.852C81.9573 7.364 81.4347 7.62 80.7573 7.62ZM79.6853 6.436C79.9307 6.836 80.2907 7.036 80.7653 7.036C81.24 7.036 81.5947 6.83867 81.8293 6.444C82.0693 6.044 82.1893 5.48133 82.1893 4.756C82.1893 4.04133 82.0667 3.48133 81.8213 3.076C81.5813 2.67067 81.2293 2.468 80.7653 2.468C80.2907 2.468 79.9307 2.668 79.6853 3.068C79.4453 3.468 79.3253 4.03067 79.3253 4.756C79.3253 5.47067 79.4453 6.03067 79.6853 6.436ZM83.2472 7.5C83.2632 7.164 83.3192 6.868 83.4152 6.612C83.5165 6.356 83.6845 6.12133 83.9192 5.908C84.1592 5.69467 84.3459 5.54267 84.4792 5.452C84.6179 5.356 84.8579 5.20933 85.1992 5.012C85.2099 5.00133 85.2179 4.996 85.2232 4.996C85.2285 4.99067 85.2365 4.98533 85.2472 4.98C85.2579 4.97467 85.2659 4.96933 85.2712 4.964C85.2819 4.95867 85.2925 4.95333 85.3032 4.948C85.7245 4.70267 86.0232 4.492 86.1992 4.316C86.3752 4.13467 86.4632 3.892 86.4632 3.588C86.4632 3.252 86.3539 2.98 86.1352 2.772C85.9219 2.564 85.6339 2.46 85.2712 2.46C84.9032 2.46 84.6125 2.57467 84.3992 2.804C84.1912 3.028 84.0872 3.39333 84.0872 3.9H83.3832C83.3832 3.25467 83.5565 2.75867 83.9032 2.412C84.2499 2.07067 84.7245 1.9 85.3272 1.9C85.8765 1.9 86.3192 2.05733 86.6552 2.372C86.9912 2.68667 87.1592 3.08933 87.1592 3.58C87.1592 3.77733 87.1299 3.95867 87.0712 4.124C87.0125 4.28933 86.9512 4.42267 86.8872 4.524C86.8232 4.62533 86.7059 4.74267 86.5352 4.876C86.3645 5.004 86.2365 5.092 86.1512 5.14C86.0712 5.188 85.9112 5.27867 85.6712 5.412C85.6232 5.43867 85.5859 5.46 85.5592 5.476C85.3032 5.62 85.0899 5.74533 84.9192 5.852C84.7539 5.95867 84.5805 6.108 84.3992 6.3C84.2179 6.48667 84.1032 6.67333 84.0552 6.86H87.0472V7.5H83.2472ZM89.5725 7.62C88.9485 7.62 88.4312 7.44933 88.0205 7.108C87.6099 6.76667 87.3992 6.29467 87.3885 5.692H88.0525C88.0632 6.12933 88.1992 6.468 88.4605 6.708C88.7272 6.94267 89.0899 7.06 89.5485 7.06C89.9432 7.06 90.2579 6.964 90.4925 6.772C90.7272 6.57467 90.8445 6.28667 90.8445 5.908C90.8445 5.56133 90.7192 5.29733 90.4685 5.116C90.2232 4.93467 89.8685 4.844 89.4045 4.844H89.0605V4.324H89.3965C89.8179 4.324 90.1379 4.24133 90.3565 4.076C90.5752 3.91067 90.6845 3.67867 90.6845 3.38C90.6845 3.08667 90.5699 2.85467 90.3405 2.684C90.1165 2.508 89.8339 2.42 89.4925 2.42C89.1032 2.42 88.7939 2.53733 88.5645 2.772C88.3405 3.00133 88.2285 3.308 88.2285 3.692H87.5725C87.5779 3.148 87.7539 2.71333 88.1005 2.388C88.4472 2.05733 88.9192 1.892 89.5165 1.892C90.0392 1.892 90.4739 2.028 90.8205 2.3C91.1672 2.56667 91.3405 2.932 91.3405 3.396C91.3405 3.96133 91.0392 4.34533 90.4365 4.548V4.572C91.1725 4.764 91.5405 5.23067 91.5405 5.972C91.5405 6.484 91.3539 6.88667 90.9805 7.18C90.6125 7.47333 90.1432 7.62 89.5725 7.62ZM96.1287 4.996C95.7607 5.364 95.3127 5.548 94.7847 5.548C94.2567 5.548 93.806 5.364 93.4327 4.996C93.0647 4.628 92.8807 4.16667 92.8807 3.612C92.8807 3.06267 93.0647 2.604 93.4327 2.236C93.806 1.86267 94.2567 1.676 94.7847 1.676C95.3127 1.676 95.7607 1.86267 96.1287 2.236C96.502 2.604 96.6887 3.06267 96.6887 3.612C96.6887 4.16667 96.502 4.628 96.1287 4.996ZM93.6487 4.804C93.9473 5.11333 94.326 5.268 94.7847 5.268C95.2433 5.268 95.6193 5.11333 95.9127 4.804C96.2113 4.48933 96.3607 4.092 96.3607 3.612C96.3607 3.13733 96.2113 2.74267 95.9127 2.428C95.614 2.11333 95.238 1.956 94.7847 1.956C94.3313 1.956 93.9553 2.11333 93.6567 2.428C93.358 2.74267 93.2087 3.13733 93.2087 3.612C93.2087 4.092 93.3553 4.48933 93.6487 4.804ZM94.0407 4.612V2.564H94.9847C95.1713 2.564 95.326 2.62 95.4487 2.732C95.5713 2.83867 95.6327 2.97467 95.6327 3.14C95.6327 3.40133 95.5047 3.564 95.2487 3.628V3.636C95.4407 3.68933 95.5473 3.828 95.5687 4.052C95.574 4.1 95.5793 4.15333 95.5847 4.212C95.59 4.27067 95.5927 4.31867 95.5927 4.356C95.598 4.39333 95.6007 4.43067 95.6007 4.468C95.606 4.50533 95.6113 4.53467 95.6167 4.556C95.6273 4.572 95.6407 4.58267 95.6567 4.588V4.612H95.2647C95.2167 4.59067 95.1873 4.43333 95.1767 4.14C95.166 3.90533 95.0353 3.788 94.7847 3.788H94.4487V4.612H94.0407ZM94.4487 2.9V3.476H94.8967C95.1207 3.476 95.2327 3.38 95.2327 3.188C95.2327 2.996 95.1207 2.9 94.8967 2.9H94.4487ZM102.682 8.444V1.468H103.242V8.444H102.682ZM110.272 2.412V1.78H114.8V2.412H112.896V7.5H112.176V2.412H110.272ZM119.572 6.78C119.065 7.34 118.388 7.62 117.54 7.62C116.692 7.62 116.012 7.34 115.5 6.78C114.993 6.22 114.74 5.50533 114.74 4.636C114.74 3.76667 114.993 3.052 115.5 2.492C116.012 1.932 116.692 1.652 117.54 1.652C118.388 1.652 119.065 1.932 119.572 2.492C120.084 3.052 120.34 3.76667 120.34 4.636C120.34 5.50533 120.084 6.22 119.572 6.78ZM116.02 6.332C116.382 6.76933 116.889 6.988 117.54 6.988C118.19 6.988 118.697 6.76933 119.06 6.332C119.422 5.89467 119.604 5.32933 119.604 4.636C119.604 3.94267 119.422 3.37733 119.06 2.94C118.697 2.49733 118.19 2.276 117.54 2.276C116.889 2.276 116.382 2.49733 116.02 2.94C115.657 3.37733 115.476 3.94267 115.476 4.636C115.476 5.32933 115.657 5.89467 116.02 6.332ZM120.998 7.5V1.78H123.078C123.915 1.78 124.547 2.03867 124.974 2.556C125.4 3.07333 125.614 3.77467 125.614 4.66C125.614 5.54 125.392 6.23333 124.95 6.74C124.507 7.24667 123.864 7.5 123.022 7.5H120.998ZM121.718 6.868H122.998C124.251 6.868 124.878 6.132 124.878 4.66C124.878 3.156 124.27 2.404 123.054 2.404H121.718V6.868ZM130.882 6.78C130.376 7.34 129.698 7.62 128.85 7.62C128.002 7.62 127.322 7.34 126.81 6.78C126.304 6.22 126.05 5.50533 126.05 4.636C126.05 3.76667 126.304 3.052 126.81 2.492C127.322 1.932 128.002 1.652 128.85 1.652C129.698 1.652 130.376 1.932 130.882 2.492C131.394 3.052 131.65 3.76667 131.65 4.636C131.65 5.50533 131.394 6.22 130.882 6.78ZM127.33 6.332C127.693 6.76933 128.2 6.988 128.85 6.988C129.501 6.988 130.008 6.76933 130.37 6.332C130.733 5.89467 130.914 5.32933 130.914 4.636C130.914 3.94267 130.733 3.37733 130.37 2.94C130.008 2.49733 129.501 2.276 128.85 2.276C128.2 2.276 127.693 2.49733 127.33 2.94C126.968 3.37733 126.786 3.94267 126.786 4.636C126.786 5.32933 126.968 5.89467 127.33 6.332ZM134.389 7.612C133.621 7.612 133.029 7.42267 132.613 7.044C132.202 6.66533 131.981 6.172 131.949 5.564H132.653C132.749 6.54533 133.338 7.036 134.421 7.036C134.831 7.036 135.159 6.94533 135.405 6.764C135.655 6.57733 135.781 6.31067 135.781 5.964C135.781 5.80933 135.751 5.67333 135.693 5.556C135.634 5.43867 135.562 5.34267 135.477 5.268C135.397 5.19333 135.274 5.124 135.109 5.06C134.943 4.996 134.789 4.94533 134.645 4.908C134.506 4.87067 134.314 4.82533 134.069 4.772C133.775 4.708 133.533 4.644 133.341 4.58C133.149 4.51067 132.957 4.41733 132.765 4.3C132.573 4.18267 132.429 4.03333 132.333 3.852C132.242 3.66533 132.197 3.44133 132.197 3.18C132.197 2.71067 132.373 2.34267 132.725 2.076C133.082 1.804 133.554 1.668 134.141 1.668C135.426 1.668 136.149 2.26267 136.309 3.452H135.629C135.575 3.04667 135.423 2.74267 135.173 2.54C134.922 2.332 134.583 2.228 134.157 2.228C133.762 2.228 133.447 2.308 133.213 2.468C132.983 2.628 132.869 2.85467 132.869 3.148C132.869 3.276 132.893 3.39067 132.941 3.492C132.994 3.588 133.061 3.67067 133.141 3.74C133.226 3.804 133.335 3.86267 133.469 3.916C133.607 3.96933 133.743 4.01467 133.877 4.052C134.01 4.084 134.173 4.11867 134.365 4.156C134.631 4.20933 134.85 4.26 135.021 4.308C135.191 4.35067 135.381 4.41733 135.589 4.508C135.797 4.59867 135.957 4.70267 136.069 4.82C136.186 4.93733 136.285 5.092 136.365 5.284C136.45 5.47067 136.493 5.68933 136.493 5.94C136.493 6.46267 136.298 6.87333 135.909 7.172C135.525 7.46533 135.018 7.612 134.389 7.612ZM138.19 7.5V1.78H138.91V6.836H141.91V7.5H138.19ZM146.676 6.78C146.17 7.34 145.492 7.62 144.644 7.62C143.796 7.62 143.116 7.34 142.604 6.78C142.098 6.22 141.844 5.50533 141.844 4.636C141.844 3.76667 142.098 3.052 142.604 2.492C143.116 1.932 143.796 1.652 144.644 1.652C145.492 1.652 146.17 1.932 146.676 2.492C147.188 3.052 147.444 3.76667 147.444 4.636C147.444 5.50533 147.188 6.22 146.676 6.78ZM143.124 6.332C143.487 6.76933 143.994 6.988 144.644 6.988C145.295 6.988 145.802 6.76933 146.164 6.332C146.527 5.89467 146.708 5.32933 146.708 4.636C146.708 3.94267 146.527 3.37733 146.164 2.94C145.802 2.49733 145.295 2.276 144.644 2.276C143.994 2.276 143.487 2.49733 143.124 2.94C142.762 3.37733 142.58 3.94267 142.58 4.636C142.58 5.32933 142.762 5.89467 143.124 6.332ZM150.182 7.612C149.414 7.612 148.822 7.42267 148.406 7.044C147.996 6.66533 147.774 6.172 147.742 5.564H148.446C148.542 6.54533 149.132 7.036 150.214 7.036C150.625 7.036 150.953 6.94533 151.198 6.764C151.449 6.57733 151.574 6.31067 151.574 5.964C151.574 5.80933 151.545 5.67333 151.486 5.556C151.428 5.43867 151.356 5.34267 151.27 5.268C151.19 5.19333 151.068 5.124 150.902 5.06C150.737 4.996 150.582 4.94533 150.438 4.908C150.3 4.87067 150.108 4.82533 149.862 4.772C149.569 4.708 149.326 4.644 149.134 4.58C148.942 4.51067 148.75 4.41733 148.558 4.3C148.366 4.18267 148.222 4.03333 148.126 3.852C148.036 3.66533 147.99 3.44133 147.99 3.18C147.99 2.71067 148.166 2.34267 148.518 2.076C148.876 1.804 149.348 1.668 149.934 1.668C151.22 1.668 151.942 2.26267 152.102 3.452H151.422C151.369 3.04667 151.217 2.74267 150.966 2.54C150.716 2.332 150.377 2.228 149.95 2.228C149.556 2.228 149.241 2.308 149.006 2.468C148.777 2.628 148.662 2.85467 148.662 3.148C148.662 3.276 148.686 3.39067 148.734 3.492C148.788 3.588 148.854 3.67067 148.934 3.74C149.02 3.804 149.129 3.86267 149.262 3.916C149.401 3.96933 149.537 4.01467 149.67 4.052C149.804 4.084 149.966 4.11867 150.158 4.156C150.425 4.20933 150.644 4.26 150.814 4.308C150.985 4.35067 151.174 4.41733 151.382 4.508C151.59 4.59867 151.75 4.70267 151.862 4.82C151.98 4.93733 152.078 5.092 152.158 5.284C152.244 5.47067 152.286 5.68933 152.286 5.94C152.286 6.46267 152.092 6.87333 151.702 7.172C151.318 7.46533 150.812 7.612 150.182 7.612ZM153.984 7.5V1.78H156.064C156.901 1.78 157.533 2.03867 157.96 2.556C158.386 3.07333 158.6 3.77467 158.6 4.66C158.6 5.54 158.378 6.23333 157.936 6.74C157.493 7.24667 156.85 7.5 156.008 7.5H153.984ZM154.704 6.868H155.984C157.237 6.868 157.864 6.132 157.864 4.66C157.864 3.156 157.256 2.404 156.04 2.404H154.704V6.868ZM159.252 7.5V1.78H163.292V2.412H159.972V4.22H162.988V4.828H159.972V6.836H163.388V7.5H159.252ZM164.029 7.5V1.78H166.701C167.202 1.78 167.608 1.924 167.917 2.212C168.232 2.5 168.389 2.87867 168.389 3.348C168.389 4.07867 168.058 4.55067 167.397 4.764V4.788C167.68 4.88933 167.88 5.04933 167.997 5.268C168.12 5.48133 168.194 5.80667 168.221 6.244C168.274 6.97467 168.362 7.38267 168.485 7.468V7.5H167.709C167.65 7.452 167.608 7.35067 167.581 7.196C167.56 7.04133 167.533 6.716 167.501 6.22C167.474 5.804 167.37 5.51067 167.189 5.34C167.013 5.16933 166.73 5.084 166.341 5.084H164.749V7.5H164.029ZM164.749 2.404V4.5H166.445C166.84 4.5 167.138 4.40933 167.341 4.228C167.544 4.04133 167.645 3.78267 167.645 3.452C167.645 3.09467 167.554 2.83067 167.373 2.66C167.192 2.48933 166.896 2.404 166.485 2.404H164.749ZM169.063 7.5V1.78H173.103V2.412H169.783V4.22H172.799V4.828H169.783V6.836H173.199V7.5H169.063ZM176.187 7.612C175.381 7.612 174.733 7.33467 174.243 6.78C173.752 6.22533 173.507 5.51067 173.507 4.636C173.507 3.772 173.749 3.06 174.235 2.5C174.725 1.93467 175.387 1.652 176.219 1.652C176.869 1.652 177.395 1.82 177.795 2.156C178.195 2.492 178.435 2.932 178.515 3.476H177.811C177.741 3.11333 177.565 2.82267 177.283 2.604C177.005 2.38533 176.645 2.276 176.203 2.276C175.589 2.276 175.109 2.49733 174.763 2.94C174.416 3.37733 174.243 3.94267 174.243 4.636C174.243 5.34 174.421 5.908 174.779 6.34C175.141 6.76667 175.619 6.98 176.211 6.98C176.723 6.98 177.117 6.83067 177.395 6.532C177.677 6.23333 177.837 5.85733 177.875 5.404H178.587C178.581 5.68667 178.515 5.97733 178.387 6.276C178.264 6.56933 178.101 6.81467 177.899 7.012C177.488 7.412 176.917 7.612 176.187 7.612ZM179.195 7.5V1.78H179.915V4.212H182.971V1.78H183.691V7.5H182.971V4.796H179.915V7.5H179.195ZM189.181 6.78C188.674 7.34 187.997 7.62 187.149 7.62C186.301 7.62 185.621 7.34 185.109 6.78C184.602 6.22 184.349 5.50533 184.349 4.636C184.349 3.76667 184.602 3.052 185.109 2.492C185.621 1.932 186.301 1.652 187.149 1.652C187.997 1.652 188.674 1.932 189.181 2.492C189.693 3.052 189.949 3.76667 189.949 4.636C189.949 5.50533 189.693 6.22 189.181 6.78ZM185.629 6.332C185.992 6.76933 186.498 6.988 187.149 6.988C187.8 6.988 188.306 6.76933 188.669 6.332C189.032 5.89467 189.213 5.32933 189.213 4.636C189.213 3.94267 189.032 3.37733 188.669 2.94C188.306 2.49733 187.8 2.276 187.149 2.276C186.498 2.276 185.992 2.49733 185.629 2.94C185.266 3.37733 185.085 3.94267 185.085 4.636C185.085 5.32933 185.266 5.89467 185.629 6.332ZM192.687 7.612C191.919 7.612 191.327 7.42267 190.911 7.044C190.5 6.66533 190.279 6.172 190.247 5.564H190.951C191.047 6.54533 191.636 7.036 192.719 7.036C193.13 7.036 193.458 6.94533 193.703 6.764C193.954 6.57733 194.079 6.31067 194.079 5.964C194.079 5.80933 194.05 5.67333 193.991 5.556C193.932 5.43867 193.86 5.34267 193.775 5.268C193.695 5.19333 193.572 5.124 193.407 5.06C193.242 4.996 193.087 4.94533 192.943 4.908C192.804 4.87067 192.612 4.82533 192.367 4.772C192.074 4.708 191.831 4.644 191.639 4.58C191.447 4.51067 191.255 4.41733 191.063 4.3C190.871 4.18267 190.727 4.03333 190.631 3.852C190.54 3.66533 190.495 3.44133 190.495 3.18C190.495 2.71067 190.671 2.34267 191.023 2.076C191.38 1.804 191.852 1.668 192.439 1.668C193.724 1.668 194.447 2.26267 194.607 3.452H193.927C193.874 3.04667 193.722 2.74267 193.471 2.54C193.22 2.332 192.882 2.228 192.455 2.228C192.06 2.228 191.746 2.308 191.511 2.468C191.282 2.628 191.167 2.85467 191.167 3.148C191.167 3.276 191.191 3.39067 191.239 3.492C191.292 3.588 191.359 3.67067 191.439 3.74C191.524 3.804 191.634 3.86267 191.767 3.916C191.906 3.96933 192.042 4.01467 192.175 4.052C192.308 4.084 192.471 4.11867 192.663 4.156C192.93 4.20933 193.148 4.26 193.319 4.308C193.49 4.35067 193.679 4.41733 193.887 4.508C194.095 4.59867 194.255 4.70267 194.367 4.82C194.484 4.93733 194.583 5.092 194.663 5.284C194.748 5.47067 194.791 5.68933 194.791 5.94C194.791 6.46267 194.596 6.87333 194.207 7.172C193.823 7.46533 193.316 7.612 192.687 7.612ZM196.488 7.5V1.78H199.16C199.662 1.78 200.067 1.924 200.376 2.212C200.691 2.5 200.848 2.87867 200.848 3.348C200.848 4.07867 200.518 4.55067 199.856 4.764V4.788C200.139 4.88933 200.339 5.04933 200.456 5.268C200.579 5.48133 200.654 5.80667 200.68 6.244C200.734 6.97467 200.822 7.38267 200.944 7.468V7.5H200.168C200.11 7.452 200.067 7.35067 200.04 7.196C200.019 7.04133 199.992 6.716 199.96 6.22C199.934 5.804 199.83 5.51067 199.648 5.34C199.472 5.16933 199.19 5.084 198.8 5.084H197.208V7.5H196.488ZM197.208 2.404V4.5H198.904C199.299 4.5 199.598 4.40933 199.8 4.228C200.003 4.04133 200.104 3.78267 200.104 3.452C200.104 3.09467 200.014 2.83067 199.832 2.66C199.651 2.48933 199.355 2.404 198.944 2.404H197.208ZM201.523 7.5V1.78H205.563V2.412H202.243V4.22H205.259V4.828H202.243V6.836H205.659V7.5H201.523ZM208.301 7.612C207.533 7.612 206.941 7.42267 206.525 7.044C206.114 6.66533 205.893 6.172 205.861 5.564H206.565C206.661 6.54533 207.25 7.036 208.333 7.036C208.744 7.036 209.072 6.94533 209.317 6.764C209.568 6.57733 209.693 6.31067 209.693 5.964C209.693 5.80933 209.664 5.67333 209.605 5.556C209.546 5.43867 209.474 5.34267 209.389 5.268C209.309 5.19333 209.186 5.124 209.021 5.06C208.856 4.996 208.701 4.94533 208.557 4.908C208.418 4.87067 208.226 4.82533 207.981 4.772C207.688 4.708 207.445 4.644 207.253 4.58C207.061 4.51067 206.869 4.41733 206.677 4.3C206.485 4.18267 206.341 4.03333 206.245 3.852C206.154 3.66533 206.109 3.44133 206.109 3.18C206.109 2.71067 206.285 2.34267 206.637 2.076C206.994 1.804 207.466 1.668 208.053 1.668C209.338 1.668 210.061 2.26267 210.221 3.452H209.541C209.488 3.04667 209.336 2.74267 209.085 2.54C208.834 2.332 208.496 2.228 208.069 2.228C207.674 2.228 207.36 2.308 207.125 2.468C206.896 2.628 206.781 2.85467 206.781 3.148C206.781 3.276 206.805 3.39067 206.853 3.492C206.906 3.588 206.973 3.67067 207.053 3.74C207.138 3.804 207.248 3.86267 207.381 3.916C207.52 3.96933 207.656 4.01467 207.789 4.052C207.922 4.084 208.085 4.11867 208.277 4.156C208.544 4.20933 208.762 4.26 208.933 4.308C209.104 4.35067 209.293 4.41733 209.501 4.508C209.709 4.59867 209.869 4.70267 209.981 4.82C210.098 4.93733 210.197 5.092 210.277 5.284C210.362 5.47067 210.405 5.68933 210.405 5.94C210.405 6.46267 210.21 6.87333 209.821 7.172C209.437 7.46533 208.93 7.612 208.301 7.612ZM211.029 7.5V1.78H215.069V2.412H211.749V4.22H214.765V4.828H211.749V6.836H215.165V7.5H211.029ZM215.806 7.5V1.78H218.478C218.979 1.78 219.384 1.924 219.694 2.212C220.008 2.5 220.166 2.87867 220.166 3.348C220.166 4.07867 219.835 4.55067 219.174 4.764V4.788C219.456 4.88933 219.656 5.04933 219.774 5.268C219.896 5.48133 219.971 5.80667 219.998 6.244C220.051 6.97467 220.139 7.38267 220.262 7.468V7.5H219.486C219.427 7.452 219.384 7.35067 219.358 7.196C219.336 7.04133 219.31 6.716 219.278 6.22C219.251 5.804 219.147 5.51067 218.966 5.34C218.79 5.16933 218.507 5.084 218.118 5.084H216.526V7.5H215.806ZM216.526 2.404V4.5H218.222C218.616 4.5 218.915 4.40933 219.118 4.228C219.32 4.04133 219.422 3.78267 219.422 3.452C219.422 3.09467 219.331 2.83067 219.15 2.66C218.968 2.48933 218.672 2.404 218.262 2.404H216.526ZM222.376 7.5L220.384 1.78H221.16L222.568 6.036L222.792 6.804H222.808C222.899 6.46267 222.973 6.20667 223.032 6.036L224.424 1.78H225.176L223.168 7.5H222.376ZM224.575 7.5L226.679 1.78H227.487L229.599 7.5H228.815L228.207 5.756H225.927L225.311 7.5H224.575ZM226.815 3.252L226.135 5.172H228.007L227.351 3.252L227.095 2.444H227.079C226.977 2.764 226.889 3.03333 226.815 3.252ZM230.018 7.5V1.78H232.098C232.935 1.78 233.567 2.03867 233.994 2.556C234.421 3.07333 234.634 3.77467 234.634 4.66C234.634 5.54 234.413 6.23333 233.97 6.74C233.527 7.24667 232.885 7.5 232.042 7.5H230.018ZM230.738 6.868H232.018C233.271 6.868 233.898 6.132 233.898 4.66C233.898 3.156 233.29 2.404 232.074 2.404H230.738V6.868ZM239.903 6.78C239.396 7.34 238.719 7.62 237.871 7.62C237.023 7.62 236.343 7.34 235.831 6.78C235.324 6.22 235.071 5.50533 235.071 4.636C235.071 3.76667 235.324 3.052 235.831 2.492C236.343 1.932 237.023 1.652 237.871 1.652C238.719 1.652 239.396 1.932 239.903 2.492C240.415 3.052 240.671 3.76667 240.671 4.636C240.671 5.50533 240.415 6.22 239.903 6.78ZM236.351 6.332C236.713 6.76933 237.22 6.988 237.871 6.988C238.521 6.988 239.028 6.76933 239.391 6.332C239.753 5.89467 239.935 5.32933 239.935 4.636C239.935 3.94267 239.753 3.37733 239.391 2.94C239.028 2.49733 238.521 2.276 237.871 2.276C237.22 2.276 236.713 2.49733 236.351 2.94C235.988 3.37733 235.807 3.94267 235.807 4.636C235.807 5.32933 235.988 5.89467 236.351 6.332ZM243.409 7.612C242.641 7.612 242.049 7.42267 241.633 7.044C241.222 6.66533 241.001 6.172 240.969 5.564H241.673C241.769 6.54533 242.358 7.036 243.441 7.036C243.852 7.036 244.18 6.94533 244.425 6.764C244.676 6.57733 244.801 6.31067 244.801 5.964C244.801 5.80933 244.772 5.67333 244.713 5.556C244.654 5.43867 244.582 5.34267 244.497 5.268C244.417 5.19333 244.294 5.124 244.129 5.06C243.964 4.996 243.809 4.94533 243.665 4.908C243.526 4.87067 243.334 4.82533 243.089 4.772C242.796 4.708 242.553 4.644 242.361 4.58C242.169 4.51067 241.977 4.41733 241.785 4.3C241.593 4.18267 241.449 4.03333 241.353 3.852C241.262 3.66533 241.217 3.44133 241.217 3.18C241.217 2.71067 241.393 2.34267 241.745 2.076C242.102 1.804 242.574 1.668 243.161 1.668C244.446 1.668 245.169 2.26267 245.329 3.452H244.649C244.596 3.04667 244.444 2.74267 244.193 2.54C243.942 2.332 243.604 2.228 243.177 2.228C242.782 2.228 242.468 2.308 242.233 2.468C242.004 2.628 241.889 2.85467 241.889 3.148C241.889 3.276 241.913 3.39067 241.961 3.492C242.014 3.588 242.081 3.67067 242.161 3.74C242.246 3.804 242.356 3.86267 242.489 3.916C242.628 3.96933 242.764 4.01467 242.897 4.052C243.03 4.084 243.193 4.11867 243.385 4.156C243.652 4.20933 243.87 4.26 244.041 4.308C244.212 4.35067 244.401 4.41733 244.609 4.508C244.817 4.59867 244.977 4.70267 245.089 4.82C245.206 4.93733 245.305 5.092 245.385 5.284C245.47 5.47067 245.513 5.68933 245.513 5.94C245.513 6.46267 245.318 6.87333 244.929 7.172C244.545 7.46533 244.038 7.612 243.409 7.612Z" fill="white"/>
</svg>
