<svg width="177" height="9" viewBox="0 0 177 9" fill="none" xmlns="http://www.w3.org/2000/svg">
<path d="M0.22 1.9442V1.1542H5.88V1.9442H3.5V8.3042H2.6V1.9442H0.22ZM12.0943 7.4042C11.461 8.1042 10.6143 8.4542 9.5543 8.4542C8.4943 8.4542 7.6443 8.1042 7.0043 7.4042C6.37096 6.7042 6.0543 5.81087 6.0543 4.7242C6.0543 3.63753 6.37096 2.7442 7.0043 2.0442C7.6443 1.3442 8.4943 0.994199 9.5543 0.994199C10.6143 0.994199 11.461 1.3442 12.0943 2.0442C12.7343 2.7442 13.0543 3.63753 13.0543 4.7242C13.0543 5.81087 12.7343 6.7042 12.0943 7.4042ZM7.6543 6.8442C8.10763 7.39087 8.74096 7.6642 9.5543 7.6642C10.3676 7.6642 11.001 7.39087 11.4543 6.8442C11.9076 6.29753 12.1343 5.59087 12.1343 4.7242C12.1343 3.85753 11.9076 3.15087 11.4543 2.6042C11.001 2.05087 10.3676 1.7742 9.5543 1.7742C8.74096 1.7742 8.10763 2.05087 7.6543 2.6042C7.20096 3.15087 6.9743 3.85753 6.9743 4.7242C6.9743 5.59087 7.20096 6.29753 7.6543 6.8442ZM14.127 8.3042V1.1542H16.727C17.7737 1.1542 18.5637 1.47753 19.097 2.1242C19.6304 2.77087 19.897 3.64753 19.897 4.7542C19.897 5.8542 19.6204 6.72087 19.067 7.3542C18.5137 7.98753 17.7104 8.3042 16.657 8.3042H14.127ZM15.027 7.5142H16.627C18.1937 7.5142 18.977 6.5942 18.977 4.7542C18.977 2.8742 18.217 1.9342 16.697 1.9342H15.027V7.5142ZM26.733 7.4042C26.0996 8.1042 25.253 8.4542 24.193 8.4542C23.133 8.4542 22.283 8.1042 21.643 7.4042C21.0096 6.7042 20.693 5.81087 20.693 4.7242C20.693 3.63753 21.0096 2.7442 21.643 2.0442C22.283 1.3442 23.133 0.994199 24.193 0.994199C25.253 0.994199 26.0996 1.3442 26.733 2.0442C27.373 2.7442 27.693 3.63753 27.693 4.7242C27.693 5.81087 27.373 6.7042 26.733 7.4042ZM22.293 6.8442C22.7463 7.39087 23.3796 7.6642 24.193 7.6642C25.0063 7.6642 25.6396 7.39087 26.093 6.8442C26.5463 6.29753 26.773 5.59087 26.773 4.7242C26.773 3.85753 26.5463 3.15087 26.093 2.6042C25.6396 2.05087 25.0063 1.7742 24.193 1.7742C23.3796 1.7742 22.7463 2.05087 22.293 2.6042C21.8396 3.15087 21.613 3.85753 21.613 4.7242C21.613 5.59087 21.8396 6.29753 22.293 6.8442ZM31.3657 8.4442C30.4057 8.4442 29.6657 8.20753 29.1457 7.7342C28.6324 7.26087 28.3557 6.6442 28.3157 5.8842H29.1957C29.3157 7.11087 30.0524 7.7242 31.4057 7.7242C31.919 7.7242 32.329 7.61087 32.6357 7.3842C32.949 7.15087 33.1057 6.81753 33.1057 6.3842C33.1057 6.19087 33.069 6.02087 32.9957 5.8742C32.9224 5.72753 32.8324 5.60753 32.7257 5.5142C32.6257 5.42087 32.4724 5.3342 32.2657 5.2542C32.059 5.1742 31.8657 5.11087 31.6857 5.0642C31.5124 5.01753 31.2724 4.96087 30.9657 4.8942C30.599 4.8142 30.2957 4.7342 30.0557 4.6542C29.8157 4.56753 29.5757 4.45087 29.3357 4.3042C29.0957 4.15753 28.9157 3.97087 28.7957 3.7442C28.6824 3.51087 28.6257 3.23087 28.6257 2.9042C28.6257 2.31753 28.8457 1.85753 29.2857 1.5242C29.7324 1.1842 30.3224 1.0142 31.0557 1.0142C32.6624 1.0142 33.5657 1.75753 33.7657 3.2442H32.9157C32.849 2.73753 32.659 2.35753 32.3457 2.1042C32.0324 1.8442 31.609 1.7142 31.0757 1.7142C30.5824 1.7142 30.189 1.8142 29.8957 2.0142C29.609 2.2142 29.4657 2.49753 29.4657 2.8642C29.4657 3.0242 29.4957 3.16753 29.5557 3.2942C29.6224 3.4142 29.7057 3.51753 29.8057 3.6042C29.9124 3.6842 30.049 3.75753 30.2157 3.8242C30.389 3.89087 30.559 3.94753 30.7257 3.9942C30.8924 4.0342 31.0957 4.07753 31.3357 4.1242C31.669 4.19087 31.9424 4.2542 32.1557 4.3142C32.369 4.36753 32.6057 4.45087 32.8657 4.5642C33.1257 4.67753 33.3257 4.80753 33.4657 4.9542C33.6124 5.10087 33.7357 5.2942 33.8357 5.5342C33.9424 5.76753 33.9957 6.04087 33.9957 6.3542C33.9957 7.00753 33.7524 7.52087 33.2657 7.8942C32.7857 8.26087 32.1524 8.4442 31.3657 8.4442ZM36.6173 8.3042V1.1542H37.5173V7.4742H41.2673V8.3042H36.6173ZM47.4752 7.4042C46.8418 8.1042 45.9952 8.4542 44.9352 8.4542C43.8752 8.4542 43.0252 8.1042 42.3852 7.4042C41.7518 6.7042 41.4352 5.81087 41.4352 4.7242C41.4352 3.63753 41.7518 2.7442 42.3852 2.0442C43.0252 1.3442 43.8752 0.994199 44.9352 0.994199C45.9952 0.994199 46.8418 1.3442 47.4752 2.0442C48.1152 2.7442 48.4352 3.63753 48.4352 4.7242C48.4352 5.81087 48.1152 6.7042 47.4752 7.4042ZM43.0352 6.8442C43.4885 7.39087 44.1218 7.6642 44.9352 7.6642C45.7485 7.6642 46.3818 7.39087 46.8352 6.8442C47.2885 6.29753 47.5152 5.59087 47.5152 4.7242C47.5152 3.85753 47.2885 3.15087 46.8352 2.6042C46.3818 2.05087 45.7485 1.7742 44.9352 1.7742C44.1218 1.7742 43.4885 2.05087 43.0352 2.6042C42.5818 3.15087 42.3552 3.85753 42.3552 4.7242C42.3552 5.59087 42.5818 6.29753 43.0352 6.8442ZM52.1079 8.4442C51.1479 8.4442 50.4079 8.20753 49.8879 7.7342C49.3746 7.26087 49.0979 6.6442 49.0579 5.8842H49.9379C50.0579 7.11087 50.7946 7.7242 52.1479 7.7242C52.6612 7.7242 53.0712 7.61087 53.3779 7.3842C53.6912 7.15087 53.8479 6.81753 53.8479 6.3842C53.8479 6.19087 53.8112 6.02087 53.7379 5.8742C53.6646 5.72753 53.5746 5.60753 53.4679 5.5142C53.3679 5.42087 53.2146 5.3342 53.0079 5.2542C52.8012 5.1742 52.6079 5.11087 52.4279 5.0642C52.2546 5.01753 52.0146 4.96087 51.7079 4.8942C51.3412 4.8142 51.0379 4.7342 50.7979 4.6542C50.5579 4.56753 50.3179 4.45087 50.0779 4.3042C49.8379 4.15753 49.6579 3.97087 49.5379 3.7442C49.4246 3.51087 49.3679 3.23087 49.3679 2.9042C49.3679 2.31753 49.5879 1.85753 50.0279 1.5242C50.4746 1.1842 51.0646 1.0142 51.7979 1.0142C53.4046 1.0142 54.3079 1.75753 54.5079 3.2442H53.6579C53.5912 2.73753 53.4012 2.35753 53.0879 2.1042C52.7746 1.8442 52.3512 1.7142 51.8179 1.7142C51.3246 1.7142 50.9312 1.8142 50.6379 2.0142C50.3512 2.2142 50.2079 2.49753 50.2079 2.8642C50.2079 3.0242 50.2379 3.16753 50.2979 3.2942C50.3646 3.4142 50.4479 3.51753 50.5479 3.6042C50.6546 3.6842 50.7912 3.75753 50.9579 3.8242C51.1312 3.89087 51.3012 3.94753 51.4679 3.9942C51.6346 4.0342 51.8379 4.07753 52.0779 4.1242C52.4112 4.19087 52.6846 4.2542 52.8979 4.3142C53.1112 4.36753 53.3479 4.45087 53.6079 4.5642C53.8679 4.67753 54.0679 4.80753 54.2079 4.9542C54.3546 5.10087 54.4779 5.2942 54.5779 5.5342C54.6846 5.76753 54.7379 6.04087 54.7379 6.3542C54.7379 7.00753 54.4946 7.52087 54.0079 7.8942C53.5279 8.26087 52.8946 8.4442 52.1079 8.4442ZM57.3595 8.3042V1.1542H59.9595C61.0061 1.1542 61.7961 1.47753 62.3295 2.1242C62.8628 2.77087 63.1295 3.64753 63.1295 4.7542C63.1295 5.8542 62.8528 6.72087 62.2995 7.3542C61.7461 7.98753 60.9428 8.3042 59.8895 8.3042H57.3595ZM58.2595 7.5142H59.8595C61.4261 7.5142 62.2095 6.5942 62.2095 4.7542C62.2095 2.8742 61.4495 1.9342 59.9295 1.9342H58.2595V7.5142ZM64.1954 8.3042V1.1542H69.2454V1.9442H65.0954V4.2042H68.8654V4.9642H65.0954V7.4742H69.3654V8.3042H64.1954ZM70.4161 8.3042V1.1542H73.7561C74.3828 1.1542 74.8894 1.3342 75.2761 1.6942C75.6694 2.0542 75.8661 2.52753 75.8661 3.1142C75.8661 4.02753 75.4528 4.61753 74.6261 4.8842V4.9142C74.9794 5.04087 75.2294 5.24087 75.3761 5.5142C75.5294 5.78087 75.6228 6.18753 75.6561 6.7342C75.7228 7.64753 75.8328 8.15753 75.9861 8.2642V8.3042H75.0161C74.9428 8.2442 74.8894 8.11753 74.8561 7.9242C74.8294 7.73087 74.7961 7.3242 74.7561 6.7042C74.7228 6.1842 74.5928 5.81753 74.3661 5.6042C74.1461 5.39087 73.7928 5.2842 73.3061 5.2842H71.3161V8.3042H70.4161ZM71.3161 1.9342V4.5542H73.4361C73.9294 4.5542 74.3028 4.44087 74.5561 4.2142C74.8094 3.98087 74.9361 3.65753 74.9361 3.2442C74.9361 2.79753 74.8228 2.46753 74.5961 2.2542C74.3694 2.04087 73.9994 1.9342 73.4861 1.9342H71.3161ZM76.9591 8.3042V1.1542H82.0091V1.9442H77.8591V4.2042H81.6291V4.9642H77.8591V7.4742H82.1291V8.3042H76.9591ZM86.1133 8.4442C85.1066 8.4442 84.2966 8.09753 83.6833 7.4042C83.0699 6.71087 82.7633 5.81753 82.7633 4.7242C82.7633 3.6442 83.0666 2.7542 83.6733 2.0542C84.2866 1.34753 85.1133 0.994199 86.1533 0.994199C86.9666 0.994199 87.6233 1.2042 88.1233 1.6242C88.6233 2.0442 88.9233 2.5942 89.0233 3.2742H88.1433C88.0566 2.82087 87.8366 2.45753 87.4833 2.1842C87.1366 1.91087 86.6866 1.7742 86.1333 1.7742C85.3666 1.7742 84.7666 2.05087 84.3333 2.6042C83.8999 3.15087 83.6833 3.85753 83.6833 4.7242C83.6833 5.6042 83.9066 6.3142 84.3533 6.8542C84.8066 7.38753 85.4033 7.6542 86.1433 7.6542C86.7833 7.6542 87.2766 7.46753 87.6233 7.0942C87.9766 6.72087 88.1766 6.25087 88.2233 5.6842H89.1133C89.1066 6.03753 89.0233 6.40087 88.8633 6.7742C88.7099 7.14087 88.5066 7.44753 88.2533 7.6942C87.7399 8.1942 87.0266 8.4442 86.1133 8.4442ZM90.1231 8.3042V1.1542H91.0231V4.1942H94.8431V1.1542H95.7431V8.3042H94.8431V4.9242H91.0231V8.3042H90.1231ZM102.856 7.4042C102.223 8.1042 101.376 8.4542 100.316 8.4542C99.256 8.4542 98.406 8.1042 97.766 7.4042C97.1327 6.7042 96.816 5.81087 96.816 4.7242C96.816 3.63753 97.1327 2.7442 97.766 2.0442C98.406 1.3442 99.256 0.994199 100.316 0.994199C101.376 0.994199 102.223 1.3442 102.856 2.0442C103.496 2.7442 103.816 3.63753 103.816 4.7242C103.816 5.81087 103.496 6.7042 102.856 7.4042ZM98.416 6.8442C98.8693 7.39087 99.5027 7.6642 100.316 7.6642C101.129 7.6642 101.763 7.39087 102.216 6.8442C102.669 6.29753 102.896 5.59087 102.896 4.7242C102.896 3.85753 102.669 3.15087 102.216 2.6042C101.763 2.05087 101.129 1.7742 100.316 1.7742C99.5027 1.7742 98.8693 2.05087 98.416 2.6042C97.9627 3.15087 97.736 3.85753 97.736 4.7242C97.736 5.59087 97.9627 6.29753 98.416 6.8442ZM107.489 8.4442C106.529 8.4442 105.789 8.20753 105.269 7.7342C104.755 7.26087 104.479 6.6442 104.439 5.8842H105.319C105.439 7.11087 106.175 7.7242 107.529 7.7242C108.042 7.7242 108.452 7.61087 108.759 7.3842C109.072 7.15087 109.229 6.81753 109.229 6.3842C109.229 6.19087 109.192 6.02087 109.119 5.8742C109.045 5.72753 108.955 5.60753 108.849 5.5142C108.749 5.42087 108.595 5.3342 108.389 5.2542C108.182 5.1742 107.989 5.11087 107.809 5.0642C107.635 5.01753 107.395 4.96087 107.089 4.8942C106.722 4.8142 106.419 4.7342 106.179 4.6542C105.939 4.56753 105.699 4.45087 105.459 4.3042C105.219 4.15753 105.039 3.97087 104.919 3.7442C104.805 3.51087 104.749 3.23087 104.749 2.9042C104.749 2.31753 104.969 1.85753 105.409 1.5242C105.855 1.1842 106.445 1.0142 107.179 1.0142C108.785 1.0142 109.689 1.75753 109.889 3.2442H109.039C108.972 2.73753 108.782 2.35753 108.469 2.1042C108.155 1.8442 107.732 1.7142 107.199 1.7142C106.705 1.7142 106.312 1.8142 106.019 2.0142C105.732 2.2142 105.589 2.49753 105.589 2.8642C105.589 3.0242 105.619 3.16753 105.679 3.2942C105.745 3.4142 105.829 3.51753 105.929 3.6042C106.035 3.6842 106.172 3.75753 106.339 3.8242C106.512 3.89087 106.682 3.94753 106.849 3.9942C107.015 4.0342 107.219 4.07753 107.459 4.1242C107.792 4.19087 108.065 4.2542 108.279 4.3142C108.492 4.36753 108.729 4.45087 108.989 4.5642C109.249 4.67753 109.449 4.80753 109.589 4.9542C109.735 5.10087 109.859 5.2942 109.959 5.5342C110.065 5.76753 110.119 6.04087 110.119 6.3542C110.119 7.00753 109.875 7.52087 109.389 7.8942C108.909 8.26087 108.275 8.4442 107.489 8.4442ZM112.74 8.3042V1.1542H116.08C116.707 1.1542 117.214 1.3342 117.6 1.6942C117.994 2.0542 118.19 2.52753 118.19 3.1142C118.19 4.02753 117.777 4.61753 116.95 4.8842V4.9142C117.304 5.04087 117.554 5.24087 117.7 5.5142C117.854 5.78087 117.947 6.18753 117.98 6.7342C118.047 7.64753 118.157 8.15753 118.31 8.2642V8.3042H117.34C117.267 8.2442 117.214 8.11753 117.18 7.9242C117.154 7.73087 117.12 7.3242 117.08 6.7042C117.047 6.1842 116.917 5.81753 116.69 5.6042C116.47 5.39087 116.117 5.2842 115.63 5.2842H113.64V8.3042H112.74ZM113.64 1.9342V4.5542H115.76C116.254 4.5542 116.627 4.44087 116.88 4.2142C117.134 3.98087 117.26 3.65753 117.26 3.2442C117.26 2.79753 117.147 2.46753 116.92 2.2542C116.694 2.04087 116.324 1.9342 115.81 1.9342H113.64ZM119.283 8.3042V1.1542H124.333V1.9442H120.183V4.2042H123.953V4.9642H120.183V7.4742H124.453V8.3042H119.283ZM128.006 8.4442C127.046 8.4442 126.306 8.20753 125.786 7.7342C125.273 7.26087 124.996 6.6442 124.956 5.8842H125.836C125.956 7.11087 126.693 7.7242 128.046 7.7242C128.56 7.7242 128.97 7.61087 129.276 7.3842C129.59 7.15087 129.746 6.81753 129.746 6.3842C129.746 6.19087 129.71 6.02087 129.636 5.8742C129.563 5.72753 129.473 5.60753 129.366 5.5142C129.266 5.42087 129.113 5.3342 128.906 5.2542C128.7 5.1742 128.506 5.11087 128.326 5.0642C128.153 5.01753 127.913 4.96087 127.606 4.8942C127.24 4.8142 126.936 4.7342 126.696 4.6542C126.456 4.56753 126.216 4.45087 125.976 4.3042C125.736 4.15753 125.556 3.97087 125.436 3.7442C125.323 3.51087 125.266 3.23087 125.266 2.9042C125.266 2.31753 125.486 1.85753 125.926 1.5242C126.373 1.1842 126.963 1.0142 127.696 1.0142C129.303 1.0142 130.206 1.75753 130.406 3.2442H129.556C129.49 2.73753 129.3 2.35753 128.986 2.1042C128.673 1.8442 128.25 1.7142 127.716 1.7142C127.223 1.7142 126.83 1.8142 126.536 2.0142C126.25 2.2142 126.106 2.49753 126.106 2.8642C126.106 3.0242 126.136 3.16753 126.196 3.2942C126.263 3.4142 126.346 3.51753 126.446 3.6042C126.553 3.6842 126.69 3.75753 126.856 3.8242C127.03 3.89087 127.2 3.94753 127.366 3.9942C127.533 4.0342 127.736 4.07753 127.976 4.1242C128.31 4.19087 128.583 4.2542 128.796 4.3142C129.01 4.36753 129.246 4.45087 129.506 4.5642C129.766 4.67753 129.966 4.80753 130.106 4.9542C130.253 5.10087 130.376 5.2942 130.476 5.5342C130.583 5.76753 130.636 6.04087 130.636 6.3542C130.636 7.00753 130.393 7.52087 129.906 7.8942C129.426 8.26087 128.793 8.4442 128.006 8.4442ZM131.666 8.3042V1.1542H136.716V1.9442H132.566V4.2042H136.336V4.9642H132.566V7.4742H136.836V8.3042H131.666ZM137.887 8.3042V1.1542H141.227C141.853 1.1542 142.36 1.3342 142.747 1.6942C143.14 2.0542 143.337 2.52753 143.337 3.1142C143.337 4.02753 142.923 4.61753 142.097 4.8842V4.9142C142.45 5.04087 142.7 5.24087 142.847 5.5142C143 5.78087 143.093 6.18753 143.127 6.7342C143.193 7.64753 143.303 8.15753 143.457 8.2642V8.3042H142.487C142.413 8.2442 142.36 8.11753 142.327 7.9242C142.3 7.73087 142.267 7.3242 142.227 6.7042C142.193 6.1842 142.063 5.81753 141.837 5.6042C141.617 5.39087 141.263 5.2842 140.777 5.2842H138.787V8.3042H137.887ZM138.787 1.9342V4.5542H140.907C141.4 4.5542 141.773 4.44087 142.027 4.2142C142.28 3.98087 142.407 3.65753 142.407 3.2442C142.407 2.79753 142.293 2.46753 142.067 2.2542C141.84 2.04087 141.47 1.9342 140.957 1.9342H138.787ZM146.35 8.3042L143.86 1.1542H144.83L146.59 6.4742L146.87 7.4342H146.89C147.003 7.00753 147.096 6.68753 147.17 6.4742L148.91 1.1542H149.85L147.34 8.3042H146.35ZM149.348 8.3042L151.978 1.1542H152.988L155.628 8.3042H154.648L153.888 6.1242H151.038L150.268 8.3042H149.348ZM152.148 2.9942L151.298 5.3942H153.638L152.818 2.9942L152.498 1.9842H152.478C152.351 2.3842 152.241 2.72087 152.148 2.9942ZM156.402 8.3042V1.1542H159.002C160.049 1.1542 160.839 1.47753 161.372 2.1242C161.906 2.77087 162.172 3.64753 162.172 4.7542C162.172 5.8542 161.896 6.72087 161.342 7.3542C160.789 7.98753 159.986 8.3042 158.932 8.3042H156.402ZM157.302 7.5142H158.902C160.469 7.5142 161.252 6.5942 161.252 4.7542C161.252 2.8742 160.492 1.9342 158.972 1.9342H157.302V7.5142ZM169.008 7.4042C168.375 8.1042 167.528 8.4542 166.468 8.4542C165.408 8.4542 164.558 8.1042 163.918 7.4042C163.285 6.7042 162.968 5.81087 162.968 4.7242C162.968 3.63753 163.285 2.7442 163.918 2.0442C164.558 1.3442 165.408 0.994199 166.468 0.994199C167.528 0.994199 168.375 1.3442 169.008 2.0442C169.648 2.7442 169.968 3.63753 169.968 4.7242C169.968 5.81087 169.648 6.7042 169.008 7.4042ZM164.568 6.8442C165.022 7.39087 165.655 7.6642 166.468 7.6642C167.282 7.6642 167.915 7.39087 168.368 6.8442C168.822 6.29753 169.048 5.59087 169.048 4.7242C169.048 3.85753 168.822 3.15087 168.368 2.6042C167.915 2.05087 167.282 1.7742 166.468 1.7742C165.655 1.7742 165.022 2.05087 164.568 2.6042C164.115 3.15087 163.888 3.85753 163.888 4.7242C163.888 5.59087 164.115 6.29753 164.568 6.8442ZM173.641 8.4442C172.681 8.4442 171.941 8.20753 171.421 7.7342C170.908 7.26087 170.631 6.6442 170.591 5.8842H171.471C171.591 7.11087 172.328 7.7242 173.681 7.7242C174.194 7.7242 174.604 7.61087 174.911 7.3842C175.224 7.15087 175.381 6.81753 175.381 6.3842C175.381 6.19087 175.344 6.02087 175.271 5.8742C175.198 5.72753 175.108 5.60753 175.001 5.5142C174.901 5.42087 174.748 5.3342 174.541 5.2542C174.334 5.1742 174.141 5.11087 173.961 5.0642C173.788 5.01753 173.548 4.96087 173.241 4.8942C172.874 4.8142 172.571 4.7342 172.331 4.6542C172.091 4.56753 171.851 4.45087 171.611 4.3042C171.371 4.15753 171.191 3.97087 171.071 3.7442C170.958 3.51087 170.901 3.23087 170.901 2.9042C170.901 2.31753 171.121 1.85753 171.561 1.5242C172.008 1.1842 172.598 1.0142 173.331 1.0142C174.938 1.0142 175.841 1.75753 176.041 3.2442H175.191C175.124 2.73753 174.934 2.35753 174.621 2.1042C174.308 1.8442 173.884 1.7142 173.351 1.7142C172.858 1.7142 172.464 1.8142 172.171 2.0142C171.884 2.2142 171.741 2.49753 171.741 2.8642C171.741 3.0242 171.771 3.16753 171.831 3.2942C171.898 3.4142 171.981 3.51753 172.081 3.6042C172.188 3.6842 172.324 3.75753 172.491 3.8242C172.664 3.89087 172.834 3.94753 173.001 3.9942C173.168 4.0342 173.371 4.07753 173.611 4.1242C173.944 4.19087 174.218 4.2542 174.431 4.3142C174.644 4.36753 174.881 4.45087 175.141 4.5642C175.401 4.67753 175.601 4.80753 175.741 4.9542C175.888 5.10087 176.011 5.2942 176.111 5.5342C176.218 5.76753 176.271 6.04087 176.271 6.3542C176.271 7.00753 176.028 7.52087 175.541 7.8942C175.061 8.26087 174.428 8.4442 173.641 8.4442Z" fill="black"/>
</svg>
