<svg width="119" height="9" viewBox="0 0 119 9" fill="none" xmlns="http://www.w3.org/2000/svg">
<path d="M0.67 8V0.85H1.57V3.89H5.39V0.85H6.29V8H5.39V4.62H1.57V8H0.67ZM7.63289 8V0.85H12.6829V1.64H8.53289V3.9H12.3029V4.66H8.53289V7.17H12.8029V8H7.63289ZM13.8536 8V0.85H14.8036L18.0636 5.82L18.5836 6.74H18.6036V0.85H19.4436V8H18.5236L15.2436 3.02L14.7136 2.13H14.6936V8H13.8536ZM20.7872 8V0.85H24.1272C24.7539 0.85 25.2605 1.03 25.6472 1.39C26.0405 1.75 26.2372 2.22333 26.2372 2.81C26.2372 3.72333 25.8239 4.31333 24.9972 4.58V4.61C25.3505 4.73667 25.6005 4.93667 25.7472 5.21C25.9005 5.47667 25.9939 5.88333 26.0272 6.43C26.0939 7.34333 26.2039 7.85333 26.3572 7.96V8H25.3872C25.3139 7.94 25.2605 7.81333 25.2272 7.62C25.2005 7.42667 25.1672 7.02 25.1272 6.4C25.0939 5.88 24.9639 5.51333 24.7372 5.3C24.5172 5.08667 24.1639 4.98 23.6772 4.98H21.6872V8H20.7872ZM21.6872 1.63V4.25H23.8072C24.3005 4.25 24.6739 4.13667 24.9272 3.91C25.1805 3.67667 25.3072 3.35333 25.3072 2.94C25.3072 2.49333 25.1939 2.16333 24.9672 1.95C24.7405 1.73667 24.3705 1.63 23.8572 1.63H21.6872ZM27.3502 8V0.85H28.2502V8H27.3502ZM31.1973 8V0.85H34.2273C34.9807 0.85 35.554 1.05667 35.9473 1.47C36.254 1.79 36.4073 2.19667 36.4073 2.69C36.4073 3.45 36.024 3.95 35.2573 4.19V4.22C35.684 4.32 36.0307 4.52 36.2973 4.82C36.564 5.11333 36.6973 5.49 36.6973 5.95C36.6973 6.49667 36.524 6.95333 36.1773 7.32C35.7573 7.77333 35.1607 8 34.3873 8H31.1973ZM32.0973 7.19H34.3473C34.8407 7.19 35.214 7.07 35.4673 6.83C35.6807 6.60333 35.7873 6.32667 35.7873 6C35.7873 5.56667 35.6507 5.23667 35.3773 5.01C35.104 4.78333 34.7407 4.67 34.2873 4.67H32.0973V7.19ZM32.0973 3.91H34.1173C34.5507 3.91 34.8907 3.80667 35.1373 3.6C35.384 3.39333 35.5073 3.10667 35.5073 2.74C35.5073 2.39333 35.394 2.12333 35.1673 1.93C34.9473 1.73 34.6373 1.63 34.2373 1.63H32.0973V3.91ZM37.0629 8L39.6929 0.85H40.7029L43.3429 8H42.3629L41.6029 5.82H38.7529L37.9829 8H37.0629ZM39.8629 2.69L39.0129 5.09H41.3529L40.5329 2.69L40.2129 1.68H40.1929C40.0662 2.08 39.9562 2.41667 39.8629 2.69ZM44.1173 8V0.85H47.4573C48.0839 0.85 48.5906 1.03 48.9773 1.39C49.3706 1.75 49.5673 2.22333 49.5673 2.81C49.5673 3.72333 49.1539 4.31333 48.3273 4.58V4.61C48.6806 4.73667 48.9306 4.93667 49.0773 5.21C49.2306 5.47667 49.3239 5.88333 49.3573 6.43C49.4239 7.34333 49.5339 7.85333 49.6873 7.96V8H48.7173C48.6439 7.94 48.5906 7.81333 48.5573 7.62C48.5306 7.42667 48.4973 7.02 48.4573 6.4C48.4239 5.88 48.2939 5.51333 48.0673 5.3C47.8473 5.08667 47.4939 4.98 47.0073 4.98H45.0173V8H44.1173ZM45.0173 1.63V4.25H47.1373C47.6306 4.25 48.0039 4.13667 48.2573 3.91C48.5106 3.67667 48.6373 3.35333 48.6373 2.94C48.6373 2.49333 48.5239 2.16333 48.2973 1.95C48.0706 1.73667 47.7006 1.63 47.1873 1.63H45.0173ZM50.6602 8V0.85H54.0002C54.6269 0.85 55.1336 1.03 55.5202 1.39C55.9136 1.75 56.1102 2.22333 56.1102 2.81C56.1102 3.72333 55.6969 4.31333 54.8702 4.58V4.61C55.2236 4.73667 55.4736 4.93667 55.6202 5.21C55.7736 5.47667 55.8669 5.88333 55.9002 6.43C55.9669 7.34333 56.0769 7.85333 56.2302 7.96V8H55.2602C55.1869 7.94 55.1336 7.81333 55.1002 7.62C55.0736 7.42667 55.0402 7.02 55.0002 6.4C54.9669 5.88 54.8369 5.51333 54.6102 5.3C54.3902 5.08667 54.0369 4.98 53.5502 4.98H51.5602V8H50.6602ZM51.5602 1.63V4.25H53.6802C54.1736 4.25 54.5469 4.13667 54.8002 3.91C55.0536 3.67667 55.1802 3.35333 55.1802 2.94C55.1802 2.49333 55.0669 2.16333 54.8402 1.95C54.6136 1.73667 54.2436 1.63 53.7302 1.63H51.5602ZM57.2032 8V0.85H62.2532V1.64H58.1032V3.9H61.8732V4.66H58.1032V7.17H62.3732V8H57.2032ZM62.9739 1.64V0.85H68.6339V1.64H66.2539V8H65.3539V1.64H62.9739ZM69.2239 1.64V0.85H74.8839V1.64H72.5039V8H71.6039V1.64H69.2239ZM89.7436 8C89.7636 7.58 89.8336 7.21 89.9536 6.89C90.0803 6.57 90.2903 6.27667 90.5836 6.01C90.8836 5.74333 91.1169 5.55333 91.2836 5.44C91.4569 5.32 91.7569 5.13667 92.1836 4.89C92.1969 4.87667 92.2069 4.87 92.2136 4.87C92.2203 4.86333 92.2303 4.85667 92.2436 4.85C92.2569 4.84333 92.2669 4.83667 92.2736 4.83C92.2869 4.82333 92.3003 4.81667 92.3136 4.81C92.8403 4.50333 93.2136 4.24 93.4336 4.02C93.6536 3.79333 93.7636 3.49 93.7636 3.11C93.7636 2.69 93.6269 2.35 93.3536 2.09C93.0869 1.83 92.7269 1.7 92.2736 1.7C91.8136 1.7 91.4503 1.84333 91.1836 2.13C90.9236 2.41 90.7936 2.86667 90.7936 3.5H89.9136C89.9136 2.69333 90.1303 2.07333 90.5636 1.64C90.9969 1.21333 91.5903 1 92.3436 1C93.0303 1 93.5836 1.19667 94.0036 1.59C94.4236 1.98333 94.6336 2.48667 94.6336 3.1C94.6336 3.34667 94.5969 3.57333 94.5236 3.78C94.4503 3.98667 94.3736 4.15333 94.2936 4.28C94.2136 4.40667 94.0669 4.55333 93.8536 4.72C93.6403 4.88 93.4803 4.99 93.3736 5.05C93.2736 5.11 93.0736 5.22333 92.7736 5.39C92.7136 5.42333 92.6669 5.45 92.6336 5.47C92.3136 5.65 92.0469 5.80667 91.8336 5.94C91.6269 6.07333 91.4103 6.26 91.1836 6.5C90.9569 6.73333 90.8136 6.96667 90.7536 7.2H94.4936V8H89.7436ZM98.0902 8.15C97.2569 8.15 96.6036 7.83 96.1302 7.19C95.6636 6.54333 95.4302 5.67 95.4302 4.57C95.4302 3.46333 95.6702 2.59 96.1502 1.95C96.6369 1.31 97.2869 0.99 98.1002 0.99C98.9136 0.99 99.5569 1.31 100.03 1.95C100.51 2.58333 100.75 3.45667 100.75 4.57C100.75 5.67667 100.517 6.55 100.05 7.19C99.5902 7.83 98.9369 8.15 98.0902 8.15ZM96.7502 6.67C97.0569 7.17 97.5069 7.42 98.1002 7.42C98.6936 7.42 99.1369 7.17333 99.4302 6.68C99.7302 6.18 99.8802 5.47667 99.8802 4.57C99.8802 3.67667 99.7269 2.97667 99.4202 2.47C99.1202 1.96333 98.6802 1.71 98.1002 1.71C97.5069 1.71 97.0569 1.96 96.7502 2.46C96.4502 2.96 96.3002 3.66333 96.3002 4.57C96.3002 5.46333 96.4502 6.16333 96.7502 6.67ZM101.453 8C101.473 7.58 101.543 7.21 101.663 6.89C101.789 6.57 101.999 6.27667 102.293 6.01C102.593 5.74333 102.826 5.55333 102.993 5.44C103.166 5.32 103.466 5.13667 103.893 4.89C103.906 4.87667 103.916 4.87 103.923 4.87C103.929 4.86333 103.939 4.85667 103.953 4.85C103.966 4.84333 103.976 4.83667 103.983 4.83C103.996 4.82333 104.009 4.81667 104.023 4.81C104.549 4.50333 104.923 4.24 105.143 4.02C105.363 3.79333 105.473 3.49 105.473 3.11C105.473 2.69 105.336 2.35 105.063 2.09C104.796 1.83 104.436 1.7 103.983 1.7C103.523 1.7 103.159 1.84333 102.893 2.13C102.633 2.41 102.503 2.86667 102.503 3.5H101.623C101.623 2.69333 101.839 2.07333 102.273 1.64C102.706 1.21333 103.299 1 104.053 1C104.739 1 105.293 1.19667 105.713 1.59C106.133 1.98333 106.343 2.48667 106.343 3.1C106.343 3.34667 106.306 3.57333 106.233 3.78C106.159 3.98667 106.083 4.15333 106.003 4.28C105.923 4.40667 105.776 4.55333 105.563 4.72C105.349 4.88 105.189 4.99 105.083 5.05C104.983 5.11 104.783 5.22333 104.483 5.39C104.423 5.42333 104.376 5.45 104.343 5.47C104.023 5.65 103.756 5.80667 103.543 5.94C103.336 6.07333 103.119 6.26 102.893 6.5C102.666 6.73333 102.523 6.96667 102.463 7.2H106.203V8H101.453ZM107.009 8C107.029 7.58 107.099 7.21 107.219 6.89C107.346 6.57 107.556 6.27667 107.849 6.01C108.149 5.74333 108.383 5.55333 108.549 5.44C108.723 5.32 109.023 5.13667 109.449 4.89C109.463 4.87667 109.473 4.87 109.479 4.87C109.486 4.86333 109.496 4.85667 109.509 4.85C109.523 4.84333 109.533 4.83667 109.539 4.83C109.553 4.82333 109.566 4.81667 109.579 4.81C110.106 4.50333 110.479 4.24 110.699 4.02C110.919 3.79333 111.029 3.49 111.029 3.11C111.029 2.69 110.893 2.35 110.619 2.09C110.353 1.83 109.993 1.7 109.539 1.7C109.079 1.7 108.716 1.84333 108.449 2.13C108.189 2.41 108.059 2.86667 108.059 3.5H107.179C107.179 2.69333 107.396 2.07333 107.829 1.64C108.263 1.21333 108.856 1 109.609 1C110.296 1 110.849 1.19667 111.269 1.59C111.689 1.98333 111.899 2.48667 111.899 3.1C111.899 3.34667 111.863 3.57333 111.789 3.78C111.716 3.98667 111.639 4.15333 111.559 4.28C111.479 4.40667 111.333 4.55333 111.119 4.72C110.906 4.88 110.746 4.99 110.639 5.05C110.539 5.11 110.339 5.22333 110.039 5.39C109.979 5.42333 109.933 5.45 109.899 5.47C109.579 5.65 109.313 5.80667 109.099 5.94C108.893 6.07333 108.676 6.26 108.449 6.5C108.223 6.73333 108.079 6.96667 108.019 7.2H111.759V8H107.009ZM118.168 4.87C117.708 5.33 117.148 5.56 116.488 5.56C115.828 5.56 115.264 5.33 114.798 4.87C114.338 4.41 114.108 3.83333 114.108 3.14C114.108 2.45333 114.338 1.88 114.798 1.42C115.264 0.953333 115.828 0.72 116.488 0.72C117.148 0.72 117.708 0.953333 118.168 1.42C118.634 1.88 118.868 2.45333 118.868 3.14C118.868 3.83333 118.634 4.41 118.168 4.87ZM115.068 4.63C115.441 5.01667 115.914 5.21 116.488 5.21C117.061 5.21 117.531 5.01667 117.898 4.63C118.271 4.23667 118.458 3.74 118.458 3.14C118.458 2.54667 118.271 2.05333 117.898 1.66C117.524 1.26667 117.054 1.07 116.488 1.07C115.921 1.07 115.451 1.26667 115.078 1.66C114.704 2.05333 114.518 2.54667 114.518 3.14C114.518 3.74 114.701 4.23667 115.068 4.63ZM115.558 4.39V1.83H116.738C116.971 1.83 117.164 1.9 117.318 2.04C117.471 2.17333 117.548 2.34333 117.548 2.55C117.548 2.87667 117.388 3.08 117.068 3.16V3.17C117.308 3.23667 117.441 3.41 117.468 3.69C117.474 3.75 117.481 3.81667 117.488 3.89C117.494 3.96333 117.498 4.02333 117.498 4.07C117.504 4.11667 117.508 4.16333 117.508 4.21C117.514 4.25667 117.521 4.29333 117.528 4.32C117.541 4.34 117.558 4.35333 117.578 4.36V4.39H117.088C117.028 4.36333 116.991 4.16667 116.978 3.8C116.964 3.50667 116.801 3.36 116.488 3.36H116.068V4.39H115.558ZM116.068 2.25V2.97H116.628C116.908 2.97 117.048 2.85 117.048 2.61C117.048 2.37 116.908 2.25 116.628 2.25H116.068Z" fill="black"/>
</svg>
